<?xml version="1.0" standalone="no"?>
<!DOCTYPE svg PUBLIC "-//W3C//DTD SVG 1.1//EN" "http://www.w3.org/Graphics/SVG/1.1/DTD/svg11.dtd">
<svg xmlns="http://www.w3.org/2000/svg">
<defs >
<font id="Petrona" horiz-adv-x="544" ><font-face
    font-family="Petrona SemiBold"
    units-per-em="1000"
    panose-1="0 0 0 0 0 0 0 0 0 0"
    ascent="858"
    descent="-270"
    alphabetic="0" />
<glyph unicode=" " horiz-adv-x="221" />
<glyph unicode="!" horiz-adv-x="238" d="M119 189Q101 189 87 193Q83 260 79 323T71 440T65 533T62 589Q62 622 74 638T119 655Q150 655 162 639T175 589Q175 572 173 533T167 440T159 323T151 193Q137 189 119 189ZM120 -12Q91 -12 75 5T59 49Q59 75 77 92T120
109Q150 109 166 93T182 49Q182 23 164 6T120 -12Z" />
<glyph unicode="&quot;" horiz-adv-x="298" d="M75 463Q68 463 62 465T51 470Q43 525 37 562T28 623T25 662Q25 689 35 707T75 726Q104 726 114 708T125 662Q125 647 123 623T115 562T99 470Q89 463 75 463ZM224 463Q217 463 211 465T200 470Q192 525 186 562T177
623T174 662Q174 689 184 707T224 726Q253 726 263 708T274 662Q274 647 272 623T264 562T248 470Q238 463 224 463Z" />
<glyph unicode="#" horiz-adv-x="549" d="M173 20Q131 20 115 36L140 184L165 161H18Q14 167 12 176T10 194Q10 203 11 209T13 218H172L143 197L165 342L190 319H47Q43 325 41 334T39 352Q39 361 40 367T42 376H198L169 355L196 519Q237 519 254 503L229 355L213
376H368L349 355L376 519Q419 519 434 503L409 355L383 376H529Q534 371 536 362T539 342Q539 335 538 330T535 319H378L406 342L384 197L358 218H500Q505 213 507 204T510 186Q510 178 509 171T506 161H352L380 184L353 20Q312 20 295 36L320 184L335 161H182L200
184L173 20ZM202 197L190 216H343L324 197L347 342L359 322H207L225 342L202 197Z" />
<glyph unicode="$" horiz-adv-x="527" d="M265 -2Q226 -2 188 5T116 23T53 49L75 193Q79 200 88 203T107 206Q120 206 127 203L136 75L116 107Q142 84 180 70T263 55Q312 55 344 83T376 156Q376 183 365 202T324 241T240 285Q181 312 146 340T94 401T78 478Q78
554 129 599T267 645Q294 645 325 640T387 625T445 600L430 464Q410 464 398 469T384 482L371 583L396 539Q377 561 342 575T268 589Q220 589 193 566T165 501Q165 476 177 457T218 419T300 376Q364 347 402 319T456 259T473 181Q473 126 447 85T375 21T265 -2ZM294
-98Q281 -98 267 -96T243 -88V739Q255 739 269 737T294 729V-98Z" />
<glyph unicode="%" horiz-adv-x="693" d="M100 -12Q82 -12 69 -3T50 19L593 655Q611 655 624 646T643 624L100 -12ZM514 5Q474 5 446 23T402 73T386 141Q386 184 403 222T451 283T526 307Q567 307 596 289T639 240T654 171Q654 127 637 89T589 28T514 5ZM519 38Q549
38 566 68T584 151Q584 208 567 241T521 274Q491 274 474 244T457 161Q457 105 473 72T519 38ZM167 346Q126 346 98 364T54 414T39 482Q39 525 56 563T105 624T179 648Q220 648 249 630T292 581T307 512Q307 469 290 431T242 369T167 346ZM172 379Q203 379 220
409T237 492Q237 549 221 582T174 615Q144 615 127 585T110 502Q110 446 126 413T172 379Z" />
<glyph unicode="&amp;" horiz-adv-x="749" d="M279 -12Q220 -12 170 7T90 64T59 159Q59 210 81 245T140 306T217 352T294 397T352 450T375 522Q375 561 355 585T298 610Q263 610 240 586T217 524Q217 490 238 457T304 370L510 136Q535 109 561 93T620 70T698 63Q698
48 686 30T651 0T595 -12Q557 -12 515 7T437 68L218 323Q184 363 163 396T132 457T122 510Q122 577 171 616T297 655Q342 655 378 641T435 598T457 528Q457 485 436 455T382 403T312 360T241 316T187 260T166 183Q166 141 184 110T234 60T307 42Q380 42 433 89T516
222T545 423L562 390L464 395Q464 415 467 428T478 446L711 464Q713 460 714 453T715 440Q715 423 707 407T685 385L602 388L624 420Q624 323 600 244T531 107T421 19T279 -12Z" />
<glyph unicode="&apos;" horiz-adv-x="149" d="M75 463Q68 463 62 465T51 470Q43 525 37 562T28 623T25 662Q25 689 35 707T75 726Q104 726 114 708T125 662Q125 647 123 623T115 562T99 470Q89 463 75 463Z" />
<glyph unicode="(" horiz-adv-x="336" d="M297 -268Q277 -268 246 -247T181 -182T117 -76T67 70T47 258Q47 362 66 446T116 593T181 699T246 763T297 785Q323 785 326 757Q285 723 255 670T206 550T177 409T167 257Q167 181 176 108T205 -33T255 -153T326 -240Q323
-268 297 -268Z" />
<glyph unicode=")" horiz-adv-x="336" d="M39 -268Q59 -268 90 -247T155 -182T219 -76T269 70T289 258Q289 362 270 446T220 593T155 699T90 763T39 785Q13 785 10 757Q51 723 81 670T130 550T159 409T169 257Q169 181 160 108T131 -33T81 -153T10 -240Q13 -268 39 -268Z" />
<glyph unicode="*" horiz-adv-x="451" d="M158 378Q143 380 129 387T102 407T85 432L214 547L217 539L44 556Q41 567 41 578Q41 599 49 615T70 641L224 556L217 550L180 723Q189 729 201 731T225 734Q238 734 249 732T269 723L236 551L228 556L379 643Q393 633
401 617T409 580Q409 575 409 570T407 559L235 538L236 546L368 433Q362 420 350 408T324 388T296 379L221 535H230L158 378Z" />
<glyph unicode="+" horiz-adv-x="572" d="M295 70Q284 70 272 73T253 83V507Q258 509 264 510T277 511Q289 511 300 508T319 498V74Q314 73 308 72T295 70ZM82 258Q70 273 70 296Q70 302 71 309T74 322H486Q499 308 499 284Q499 278 498 272T495 258H82Z" />
<glyph unicode="," horiz-adv-x="215" d="M50 -145Q44 -142 38 -135T32 -114Q72 -102 88 -85T104 -48Q104 -28 94 -18T72 1T49 20T39 52Q39 77 56 92T97 108Q134 108 154 81T174 10Q174 -34 156 -67T109 -119T50 -145Z" />
<glyph unicode="-" horiz-adv-x="360" d="M61 220Q58 226 55 234T52 253Q52 295 102 295Q138 295 167 294T228 293Q248 293 266 295T300 302Q303 295 305 287T308 269Q308 227 259 227Q223 227 195 228T133 229Q112 229 94 227T61 220Z" />
<glyph unicode="." horiz-adv-x="209" d="M104 -12Q75 -12 59 5T43 49Q43 75 61 92T104 109Q134 109 150 93T166 49Q166 23 148 6T104 -12Z" />
<glyph unicode="/" horiz-adv-x="415" d="M94 -200Q70 -200 55 -195T27 -177L321 734Q341 734 356 730T388 711L94 -200Z" />
<glyph unicode="0" horiz-adv-x="673" d="M317 -12Q240 -12 182 25T92 131T59 290Q59 368 81 434T144 550T239 627T357 655Q434 655 491 618T581 512T613 353Q613 275 591 209T528 93T435 16T317 -12ZM338 50Q385 50 419 83T474 177T494 317Q494 448 453 520T334
593Q288 593 253 560T199 467T179 327Q179 196 220 123T338 50Z" />
<glyph unicode="1" horiz-adv-x="412" d="M74 0Q74 20 78 31T90 45L190 71L173 47V603L194 554L51 527Q41 542 41 561Q41 569 42 576T48 590L233 655H284V49L262 73L377 48Q377 33 374 23T359 0H74Z" />
<glyph unicode="2" horiz-adv-x="556" d="M74 0Q59 9 54 21T48 56Q209 182 284 283T360 479Q360 537 333 566T252 596Q181 596 125 543L139 579L128 478Q127 468 115 463T80 458L63 599Q168 655 267 655Q365 655 422 609T480 484Q480 422 439 349T318 196T123
35L106 77L458 55L418 44L447 177Q478 177 496 159V0H74Z" />
<glyph unicode="3" horiz-adv-x="559" d="M153 590L142 479Q141 467 130 461T93 454L76 597Q128 626 179 640T282 655Q375 655 430 614T485 503Q485 442 439 399T303 332V342Q400 323 451 277T503 161Q503 109 473 71T390 10T265 -12Q201 -12 153 6T77 57T49 132Q49
181 94 181Q106 181 117 178T133 170Q133 109 165 78T257 47Q316 47 349 78T383 162Q383 216 349 249T230 308Q220 310 216 320T211 354Q292 375 331 409T370 493Q370 539 340 567T261 596Q225 596 190 580T118 531L153 590Z" />
<glyph unicode="4" horiz-adv-x="525" d="M213 0Q213 20 217 31T229 45L316 66L301 47V585L345 589L63 191L34 221H474V165H37Q5 174 5 216L318 655Q412 655 412 585V49L390 68L480 48Q480 31 476 21T461 0H213Z" />
<glyph unicode="5" horiz-adv-x="560" d="M257 -12Q201 -12 154 7T79 58T51 130Q51 155 63 168T98 181Q108 181 119 178T135 171Q135 113 166 80T255 47Q315 47 351 85T387 188Q387 234 370 268T323 321T252 340Q214 340 176 326T114 288Q98 293 93 302T87 334L113
641H472L451 479Q428 482 417 484T403 490T398 501L388 625L422 586L126 567L172 611V345L123 347Q162 371 202 382T286 393Q352 393 402 370T479 305T507 206Q507 145 474 96T384 17T257 -12Z" />
<glyph unicode="6" horiz-adv-x="598" d="M305 -12Q231 -12 176 24T91 126T61 282Q61 366 81 434T141 552T234 628T353 655Q399 655 435 641T492 602T514 545Q514 525 503 514T470 503Q460 503 449 506T431 513Q430 553 407 575T341 597Q262 597 222 524T181 310Q181
183 215 117T314 50Q366 50 397 88T428 190Q428 255 398 292T314 329Q288 329 257 318T200 289T158 249L157 308Q175 334 206 354T276 386T352 398Q410 398 452 374T519 307T544 207Q544 144 513 95T429 17T305 -12Z" />
<glyph unicode="7" horiz-adv-x="484" d="M225 -12Q209 -12 192 -5T163 24T151 86Q151 128 163 182T206 303T291 447T431 612L438 570L85 585L120 623L114 493Q113 480 99 475T61 469L38 641H468Q479 633 479 620Q479 603 459 573T408 497T347 396T296 273T275
129Q275 95 281 72T300 26Q292 8 272 -2T225 -12Z" />
<glyph unicode="8" horiz-adv-x="589" d="M505 500Q505 458 484 425T431 368T366 328L307 340Q325 352 345 370T380 416T395 486Q395 542 367 567T293 593Q246 593 220 567T194 496Q194 461 212 438T261 399T328 370T401 342T469 307T518 256T537 179Q537 126
509 83T425 14T289 -12Q218 -12 165 9T82 69T52 155Q52 202 77 239T140 301T220 338L278 327Q251 317 227 296T188 244T173 173Q173 109 209 80T299 50Q354 50 385 77T416 153Q416 190 398 213T351 253T287 282T216 309T151 343T103 395T85 472Q85 528 112 569T187
632T300 655Q361 655 407 636T479 581T505 500Z" />
<glyph unicode="9" horiz-adv-x="603" d="M296 656Q374 656 428 620T512 515T541 348Q541 238 506 158T406 33T254 -11Q201 -11 159 4T93 45T68 104Q68 123 79 135T111 147Q122 147 133 144T152 136Q152 93 182 69T263 44Q345 44 383 112T422 326Q422 594 287
594Q235 594 205 557T174 456Q174 394 204 358T285 321Q312 321 343 331T402 359T445 398V340Q427 314 395 295T325 264T248 252Q192 252 150 275T83 341T59 439Q59 502 89 551T173 628T296 656Z" />
<glyph unicode=":" horiz-adv-x="209" d="M104 -12Q75 -12 59 5T43 49Q43 75 61 92T104 109Q134 109 150 93T166 49Q166 23 148 6T104 -12ZM104 320Q75 320 59 337T43 381Q43 407 61 424T104 441Q134 441 150 425T166 381Q166 355 148 338T104 320Z" />
<glyph unicode=";" horiz-adv-x="215" d="M50 -145Q44 -142 38 -135T32 -114Q72 -102 88 -85T104 -48Q104 -28 94 -18T72 1T49 20T39 52Q39 77 56 92T97 108Q134 108 154 81T174 10Q174 -34 156 -67T109 -119T50 -145ZM103 319Q71 319 53 337T35 386Q35 415 55
433T103 452Q136 452 153 434T171 386Q171 357 151 338T103 319Z" />
<glyph unicode="&lt;" horiz-adv-x="572" d="M495 76Q500 85 500 107Q500 118 499 129T492 146L98 308V270L492 432Q496 437 498 448T500 471Q500 481 499 489T495 502L63 319Q59 314 58 306T56 289Q56 280 57 272T63 259L495 76Z" />
<glyph unicode="=" horiz-adv-x="572" d="M82 347Q70 362 70 385Q70 391 71 398T74 411H486Q499 397 499 373Q499 367 498 361T495 347H82ZM82 425Q70 440 70 463Q70 469 71 476T74 489H486Q499 475 499 451Q499 445 498 439T495 425H82Z" />
<glyph unicode="&gt;" horiz-adv-x="572" d="M77 76Q72 85 72 107Q72 118 73 129T80 146L474 308V270L80 432Q76 437 74 448T72 471Q72 481 73 489T77 502L509 319Q513 314 514 306T516 289Q516 280 515 272T509 259L77 76Z" />
<glyph unicode="?" horiz-adv-x="439" d="M183 189Q165 189 151 193L143 315Q175 323 205 337T260 372T300 424T315 493Q315 546 291 578T218 610Q175 610 150 581T125 487Q118 484 108 481T80 477Q54 477 38 492T22 536Q22 584 73 619T217 655Q310 655 363 612T417
497Q417 461 404 431T367 375T316 332T261 301T209 283L222 297L214 193Q202 189 183 189ZM182 -12Q153 -12 137 5T121 49Q121 75 140 92T182 109Q213 109 229 93T245 49Q245 23 226 6T182 -12Z" />
<glyph unicode="@" horiz-adv-x="888" d="M411 -166Q327 -166 259 -141T140 -68T62 44T35 189Q35 280 67 356T158 489T297 576T470 607Q554 607 623 583T744 516T824 413T852 281Q852 220 833 168T778 76T695 14T595 -9Q557 -9 537 8T516 64Q516 81 519 103T532
154L529 155Q501 82 456 37T352 -9Q294 -9 260 35T226 161Q226 246 257 313T343 420T467 460Q501 460 535 453T600 432T653 401L607 126Q605 113 603 100T600 74Q600 57 608 48T634 39Q661 39 685 58T728 110T757 185T768 275Q768 366 729 430T620 528T455 562Q355
562 280 518T162 396T120 214Q120 108 159 35T269 -77T430 -116Q476 -116 520 -107T601 -81T663 -45L674 -71Q648 -93 611 -115T525 -151T411 -166ZM389 60Q411 60 432 75T473 115T511 172T542 237L521 155L563 392L573 362Q553 386 526 398T468 410Q425 410 392
380T339 296T320 174Q320 117 338 89T389 60Z" />
<glyph unicode="A" horiz-adv-x="664" d="M3 0Q3 20 7 31T19 45L85 68L53 35L271 631Q274 641 285 646T308 653T330 655Q339 655 348 654T367 651L605 38L569 68L661 48Q661 33 657 23T641 0H410Q410 20 414 31T426 45L496 66L488 40L282 569L313 571L118 36L113
70L212 48Q212 33 208 23T191 0H3ZM161 207L174 263H428L442 207H161Z" />
<glyph unicode="B" horiz-adv-x="627" d="M59 0Q59 20 63 31T75 45L144 66L127 47V592L145 573L59 593Q59 609 63 620T78 641H348Q439 641 490 604T541 503Q541 463 522 430T469 376T390 350L389 358Q441 355 481 332T545 271T568 189Q568 133 542 90T466 24T351
0H59ZM331 58Q390 58 421 90T453 183Q453 251 418 285T313 319H228L238 328V65L228 77Q249 68 277 63T331 58ZM238 368L223 386Q229 383 244 381T279 378T315 377Q370 377 400 403T430 480Q430 531 401 557T315 583Q294 583 272 580T228 568L238 578V368Z" />
<glyph unicode="C" horiz-adv-x="658" d="M356 -12Q264 -12 195 27T86 135T47 296Q47 373 74 438T148 552T261 628T403 655Q456 655 505 643T592 606L573 454Q552 454 540 459T526 472L515 572L536 541Q510 564 468 577T379 590Q314 590 266 559T193 469T167 328Q167
244 193 182T267 86T377 52Q427 52 471 72T538 126L516 80L530 225Q557 225 568 222T584 209L592 68Q553 31 489 10T356 -12Z" />
<glyph unicode="D" horiz-adv-x="720" d="M59 0Q59 20 63 31T75 45L144 66L127 47V592L143 573L59 593Q59 609 62 619T76 641H381Q455 641 510 617T601 551T655 456T673 345Q673 283 652 222T591 110T494 30T362 0H59ZM352 59Q402 59 439 80T502 138T540 222T553
321Q553 391 530 451T462 547T350 583Q311 583 278 578T223 564L238 581V63L228 77Q254 68 286 64T352 59Z" />
<glyph unicode="E" horiz-adv-x="609" d="M59 0Q59 20 63 31T75 45L144 66L127 47V592L143 573L59 593Q59 609 63 619T79 641H519V499Q497 499 487 503T473 517L447 595L461 586L227 571L238 584V346L228 354H412L399 346L416 417Q428 417 441 414T464 400V248Q454
238 441 235T416 232L398 306L412 297H228L238 306V63L228 74L485 56L472 40L501 164Q517 164 528 160T550 146V0H59Z" />
<glyph unicode="F" horiz-adv-x="559" d="M59 0Q59 20 63 31T75 45L144 66L127 47V592L143 573L59 593Q59 609 63 619T79 641H519V499Q497 499 487 503T473 517L447 594L461 585L227 569L238 582V336L228 344H414L403 336L418 407Q431 407 444 404T468 390V238Q457
228 444 225T418 222L402 296L414 287H228L238 296V49L219 68L320 48Q320 33 317 23T301 0H59Z" />
<glyph unicode="G" horiz-adv-x="685" d="M355 -12Q263 -12 194 26T86 133T47 294Q47 372 72 437T144 552T252 628T389 655Q443 655 495 642T585 606L566 454Q543 455 531 460T518 475L510 563L523 545Q502 565 460 577T371 590Q307 590 261 559T190 468T165 324Q165
239 190 178T263 85T377 52Q457 52 505 102L483 59V261L500 231L399 252Q399 269 403 279T418 300H640Q640 280 637 269T624 254L567 233L590 263V58Q540 24 479 6T355 -12Z" />
<glyph unicode="H" horiz-adv-x="767" d="M59 0Q59 20 63 31T75 45L144 66L127 47V592L145 573L59 593Q59 609 63 619T79 641H308Q308 621 304 610T292 596L217 575L238 595V341L230 354H533L524 341V592L542 573L455 593Q455 609 459 619T475 641H710Q710 621
706 610T694 596L620 575L635 595V49L619 68L710 48Q710 33 707 23T690 0H455Q455 20 459 31T471 45L541 66L524 47V310L533 297H230L238 310V49L216 68L308 48Q308 33 305 23T290 0H59Z" />
<glyph unicode="I" horiz-adv-x="365" d="M59 0Q59 20 63 31T75 45L144 66L127 47V592L145 573L59 593Q59 609 63 619T79 641H308Q308 621 304 610T292 596L217 575L238 595V49L216 68L308 48Q308 33 305 23T290 0H59Z" />
<glyph unicode="J" horiz-adv-x="320" d="M-5 -189Q-33 -189 -50 -174T-68 -132Q-68 -123 -66 -112T-58 -93Q3 -93 38 -77T88 -23T104 81V596L122 573L35 593Q35 609 39 620T55 641H285Q285 622 281 610T269 596L194 575L215 596V219Q215 134 199 60T152 -69T82
-157T-5 -189Z" />
<glyph unicode="K" horiz-adv-x="643" d="M559 -11Q538 -11 514 0T462 36T401 100T330 193T246 320L484 601L503 573L398 593Q398 610 402 621T417 641H627Q627 599 604 594L525 572L567 606L317 312L334 353Q366 309 404 261T484 166T564 83T638 22Q622 7 602
-2T559 -11ZM59 0Q59 20 63 31T75 45L144 66L127 47V592L145 573L59 593Q59 609 63 619T79 641H308Q308 622 304 610T292 596L217 575L238 595V49L216 68L308 48Q308 33 305 23T290 0H59Z" />
<glyph unicode="L" horiz-adv-x="579" d="M59 0Q59 20 63 31T75 45L144 66L127 47V592L145 573L59 593Q59 609 63 619T79 641H314Q314 621 310 610T298 596L223 575L238 595V63L228 74L477 56L464 40L489 164Q505 164 517 160T540 146V0H59Z" />
<glyph unicode="M" horiz-adv-x="916" d="M441 -3Q437 -3 429 -2T419 1L202 593H232L182 38L173 67L264 49Q264 34 261 23T246 0H45Q45 20 49 32T61 46L134 65L119 34L172 608L179 574L97 593Q97 609 100 619T116 641H302L490 124H444L627 641H827Q827 621 823
610T811 596L732 575L757 611L803 36L789 68L873 49Q873 34 870 23T854 0H621Q621 20 625 32T637 46L712 67L695 32L649 599H678L474 19Q470 7 460 2T441 -3Z" />
<glyph unicode="N" horiz-adv-x="761" d="M600 -2Q587 -2 576 -1T558 2L183 517L197 526V38L189 67L283 48Q283 33 280 22T264 0H59Q59 20 63 31T75 45L150 64L136 33V600L152 574L59 593Q59 609 63 619T77 641H225L620 100L583 89V603L590 574L496 593Q496 609
500 619T515 641H721Q721 621 717 610T705 596L630 577L644 606V25Q644 16 636 10T618 1T600 -2Z" />
<glyph unicode="O" horiz-adv-x="727" d="M343 -12Q255 -12 189 28T85 138T47 297Q47 374 73 439T145 552T252 628T384 655Q472 655 539 615T643 506T680 346Q680 272 655 207T584 93T477 16T343 -12ZM371 52Q428 52 470 85T535 176T559 309Q559 439 505 514T355
590Q303 590 260 559T192 470T167 334Q167 204 221 128T371 52Z" />
<glyph unicode="P" horiz-adv-x="602" d="M59 0Q59 20 63 31T75 45L145 66L128 47V592L144 573L60 593Q60 609 64 620T78 641H358Q424 641 470 618T539 553T563 461Q563 404 534 356T452 277T325 247Q300 247 272 251T219 263H240V40L217 68L318 48Q318 31 315
21T300 0H59ZM240 305L222 324Q235 318 261 314T312 310Q357 310 386 329T429 379T444 450Q444 514 411 547T315 581Q290 581 267 578T223 569L240 584V305Z" />
<glyph unicode="Q" horiz-adv-x="727" d="M577 -187Q548 -187 508 -168T420 -106T316 4L343 37Q395 1 455 -29T574 -78T680 -97Q665 -140 638 -163T577 -187ZM343 -12Q255 -12 189 28T85 138T47 297Q47 374 73 439T145 552T252 628T384 655Q472 655 539 615T643
506T680 346Q680 272 655 207T584 93T477 16T343 -12ZM371 52Q428 52 470 85T535 176T559 309Q559 439 505 514T355 590Q303 590 260 559T192 470T167 334Q167 204 221 128T371 52Z" />
<glyph unicode="R" horiz-adv-x="667" d="M59 0Q59 20 63 31T75 45L145 66L128 47V592L144 573L60 593Q60 609 64 620T78 641H358Q422 641 466 619T534 558T558 471Q558 417 530 371T449 297T325 269Q300 269 272 272T219 284H240V40L212 68L313 48Q313 31 310
21T295 0H59ZM240 326L222 345Q235 339 261 336T312 332Q355 332 383 349T425 395T439 460Q439 520 407 550T315 581Q290 581 267 578T223 569L240 584V326ZM571 -11Q545 -11 516 7T455 62T392 159T330 298L415 325Q453 254 494 193T576 88T650 23Q633 8 612 -1T571
-11Z" />
<glyph unicode="S" horiz-adv-x="555" d="M278 -12Q245 -12 205 -6T126 13T56 40L79 189Q91 202 112 202Q119 202 125 202T134 199L143 62L123 100Q143 84 169 73T223 54T278 47Q330 47 363 76T396 151Q396 178 385 197T343 236T253 282Q190 311 153 340T99 403T83
483Q83 561 137 608T281 655Q325 655 375 643T469 609L453 468Q432 468 420 473T406 486L392 590L417 545Q397 569 361 583T283 597Q232 597 203 573T174 507Q174 481 186 462T228 423T316 378Q384 348 423 319T480 256T497 176Q497 119 470 77T395 11T278 -12Z"
/>
<glyph unicode="T" horiz-adv-x="636" d="M174 0Q174 20 178 31T190 45L280 72L263 47V584L274 571L98 586L112 595L85 510Q83 501 73 496T40 491V641H597V491Q575 491 564 496T550 510L525 595L539 586L363 571L374 584V49L354 71L476 48Q476 33 473 23T458 0H174Z" />
<glyph unicode="U" horiz-adv-x="718" d="M375 -12Q277 -12 218 16T131 94T103 211V592L122 573L35 593Q35 609 39 619T55 641H285Q285 621 281 610T269 596L194 575L214 595V230Q214 166 234 126T290 67T376 48Q434 48 473 67T533 126T553 232V601L561 573L474
593Q474 609 478 619T492 641H684Q684 622 680 610T668 596L601 577L614 606V214Q614 153 589 102T511 19T375 -12Z" />
<glyph unicode="V" horiz-adv-x="660" d="M328 -12Q319 -12 304 -10T280 -6L57 601L89 573L3 593Q3 609 7 619T23 641H250Q250 621 246 610T234 596L158 575L173 603L367 69H344L529 602L533 574L443 593Q443 609 447 619T462 641H657Q657 621 653 610T641 596L572
577L596 606L390 18Q386 7 375 0T351 -9T328 -12Z" />
<glyph unicode="W" horiz-adv-x="963" d="M306 -12Q298 -12 283 -10T258 -6L57 602L89 573L3 593Q3 609 7 620T23 642H250Q250 622 246 610T234 596L159 575L170 607L342 88H326L472 566H531L692 88H678L834 602L835 574L745 593Q745 609 749 619T764 641H960Q960
621 956 610T944 596L876 577L899 606L721 18Q717 7 706 0T682 -9T659 -12Q651 -12 636 -10T611 -6L462 436H495L368 18Q365 7 354 0T329 -9T306 -12Z" />
<glyph unicode="X" horiz-adv-x="661" d="M386 0Q386 20 390 32T402 46L479 67L457 35L82 599L121 573L32 593Q32 609 36 619T52 641H287Q287 621 283 610T271 596L193 575L212 604L585 40L551 69L639 49Q639 34 636 23T620 0H386ZM22 0Q22 20 26 32T38 46L114
66L75 36L286 335L340 303L155 41L149 67L242 49Q242 34 239 23T224 0H22ZM373 319L320 349L497 603L502 574L410 593Q410 609 413 619T428 641H630Q630 621 626 610T614 596L538 576L577 608L373 319Z" />
<glyph unicode="Y" horiz-adv-x="629" d="M327 142L53 599L88 573L3 593Q3 609 7 619T23 641H256Q256 621 252 610T240 596L161 575L177 604L366 289L331 287L491 600L501 574L411 593Q411 609 414 619T429 641H626Q626 621 622 610T610 596L538 577L562 605L327
142ZM193 0Q193 20 197 31T209 45L283 66L266 42V275H377V47L356 68L452 48Q452 33 449 23T434 0H193Z" />
<glyph unicode="Z" horiz-adv-x="625" d="M78 0Q52 0 52 25Q52 35 59 46L415 606L418 570L116 585L142 595L116 502Q113 493 103 489T70 484V641H514Q526 641 532 634T539 616Q539 607 532 595L180 40L176 74L507 56L479 40L509 171Q525 171 535 168T556 154V0H78Z" />
<glyph unicode="[" horiz-adv-x="300" d="M59 -258V778H287Q290 769 290 757Q290 747 288 738T283 725H122L171 763V-243L122 -205H281Q286 -210 288 -219T290 -237Q290 -249 289 -258H59Z" />
<glyph unicode="\" horiz-adv-x="415" d="M320 -200Q344 -200 359 -195T387 -177L93 734Q73 734 58 730T26 711L320 -200Z" />
<glyph unicode="]" horiz-adv-x="300" d="M241 -258V778H13Q10 769 10 757Q10 747 12 738T17 725H178L129 763V-243L178 -205H19Q14 -210 12 -219T10 -237Q10 -249 11 -258H241Z" />
<glyph unicode="^" horiz-adv-x="586" d="M131 297Q114 297 103 301T79 315L247 697Q254 702 264 704T286 707Q297 707 307 705T325 697L493 315Q482 305 471 301T441 297L267 667H305L131 297Z" />
<glyph unicode="_" horiz-adv-x="691" d="M105 -178Q101 -172 100 -162T98 -142Q98 -126 100 -118H587Q591 -124 592 -133T594 -153Q594 -171 591 -178H105Z" />
<glyph unicode="`" horiz-adv-x="226" d="M197 512Q126 555 86 579T27 616T5 634T0 646Q0 659 7 672T26 694T50 703Q57 703 64 700T88 682T136 634T226 544Q226 530 217 521T197 512Z" />
<glyph unicode="a" horiz-adv-x="508" d="M145 -12Q99 -12 69 16T38 90Q38 147 75 183T185 237L316 267L304 254V323Q304 375 288 398T237 422Q195 422 173 396T150 316Q144 310 133 306T109 302Q87 302 75 314T62 346Q62 380 87 406T155 447T253 462Q333 462
373 424T413 306V86Q413 68 420 60T441 51Q452 51 464 56T484 66L493 32Q474 12 445 0T390 -12Q352 -12 331 9T310 70H305Q276 32 233 10T145 -12ZM199 51Q230 51 261 68T314 114L305 91V230L320 228L214 202Q176 194 156 172T136 118Q136 87 153 69T199 51Z" />
<glyph unicode="b" horiz-adv-x="561" d="M252 -12Q210 -12 165 -2T80 27V679L91 664L34 677Q17 681 17 721Q63 728 86 731T126 734Q156 734 169 722T183 681V358L179 366H190Q219 411 265 436T360 462Q410 462 447 436T504 362T525 249Q525 170 493 112T399 21T252
-12ZM274 37Q343 37 375 84T408 228Q408 312 383 352T306 393Q277 393 254 382T212 351T176 306L187 332V53L176 74Q200 55 223 46T274 37Z" />
<glyph unicode="c" horiz-adv-x="484" d="M251 -12Q186 -12 137 15T62 92T35 209Q35 283 66 340T151 429T274 462Q323 462 363 447T426 405T449 346Q449 323 435 310T395 297Q384 297 374 300T354 309Q354 363 332 391T267 420Q211 420 181 373T151 238Q151 143
187 96T295 48Q333 48 369 63T439 106L454 75Q432 49 400 30T329 -1T251 -12Z" />
<glyph unicode="d" horiz-adv-x="585" d="M210 -12Q158 -12 118 14T57 89T35 202Q35 278 64 336T146 428T265 462Q295 462 325 456T384 437L376 424V680L388 665L324 677Q309 679 309 721Q352 728 377 731T418 734Q453 734 469 720T485 672V86Q485 68 492 60T513
51Q524 51 536 55T556 66L565 32Q545 12 516 0T460 -12Q424 -12 404 10T383 73H377Q352 36 308 12T210 -12ZM267 56Q294 56 316 65T356 91T389 128L378 104V398L389 370Q368 391 343 402T283 413Q221 413 186 364T151 224Q151 141 180 99T267 56Z" />
<glyph unicode="e" horiz-adv-x="491" d="M249 -12Q185 -12 137 16T62 93T35 208Q35 280 66 337T151 428T269 462Q325 462 366 438T430 371T453 270Q453 248 446 241T426 233H113V274L363 281L351 267Q353 315 342 349T309 401T259 420Q212 420 182 373T152 242Q152
182 169 139T219 72T301 48Q339 48 373 65T438 116L453 84Q431 56 398 34T327 0T249 -12Z" />
<glyph unicode="f" horiz-adv-x="352" d="M54 0Q54 39 70 45L127 67L116 52V411Q116 482 136 541T190 643T267 710T357 734Q390 734 407 720T425 683Q425 675 422 666T415 647H358Q312 647 283 630T240 572T226 463V49L212 70L298 48Q298 31 294 21T279 0H54ZM339
383L45 390Q45 407 49 422T61 443L360 456Q363 451 364 446T366 434Q366 414 359 401T339 383Z" />
<glyph unicode="g" horiz-adv-x="500" d="M241 -270Q147 -270 91 -232T35 -132Q35 -80 88 -80Q102 -80 115 -83T141 -93Q141 -160 171 -194T261 -229Q318 -229 352 -202T386 -130Q386 -100 374 -82T329 -55T239 -41Q159 -33 129 -17T98 35Q98 67 121 96T183 143L200
134Q189 123 183 110T177 84Q177 69 184 61T214 49T280 40Q383 31 431 -2T479 -98Q479 -150 450 -188T367 -248T241 -270ZM225 120Q143 120 94 163T45 281Q45 335 71 375T144 439T252 462Q309 462 350 442T415 384T439 297Q439 245 412 206T337 143T225 120ZM244
162Q285 162 309 194T334 282Q334 348 310 383T237 419Q198 419 175 387T152 298Q152 230 175 196T244 162ZM439 400Q425 400 406 401T368 405T339 412L330 430L482 476Q488 467 491 456T495 437Q495 400 439 400Z" />
<glyph unicode="h" horiz-adv-x="605" d="M34 0Q34 40 50 45L107 67L96 50V679L108 664L50 677Q34 681 34 721Q78 728 102 731T141 734Q172 734 185 720T199 674V357L193 365H206Q247 410 298 436T397 462Q513 462 513 304V55L502 69L575 48Q575 31 572 21T558
0H352Q352 40 368 45L414 61L404 44V294Q404 387 334 387Q308 387 283 377T237 351T203 319L206 330V49L194 64L257 48Q257 31 254 21T239 0H34Z" />
<glyph unicode="i" horiz-adv-x="325" d="M44 0Q44 41 60 45L122 67L111 52V402L123 387L60 400Q44 403 44 444Q81 450 110 453T169 456Q221 456 221 395V55L209 68L293 48Q293 31 290 21T275 0H44ZM161 546Q131 546 115 563T99 608Q99 635 118 652T161 670Q192
670 208 653T225 608Q225 581 206 564T161 546Z" />
<glyph unicode="j" horiz-adv-x="305" d="M9 -270Q-19 -270 -35 -256T-51 -219Q-51 -211 -49 -201T-40 -183Q19 -183 52 -168T98 -116T111 -13V402L123 387L60 400Q44 403 44 444Q88 450 116 453T169 456Q221 456 221 395V122Q221 41 205 -30T159 -155T92 -239T9
-270ZM152 546Q122 546 106 563T90 608Q90 635 109 652T152 670Q183 670 199 653T216 608Q216 581 197 564T152 546Z" />
<glyph unicode="k" horiz-adv-x="558" d="M34 0Q34 21 38 31T50 45L112 67L101 52V679L113 664L50 677Q34 681 34 721Q71 727 100 730T158 734Q211 734 211 672V49L197 64L263 48Q263 31 259 21T244 0H34ZM475 -12Q444 -12 406 11T321 90T212 246L374 391L368
377L308 394Q308 422 323 443H523Q523 419 520 409T507 396L414 364L476 403L293 238L306 276Q340 226 381 181T465 100T547 45Q547 19 527 4T475 -12Z" />
<glyph unicode="l" horiz-adv-x="312" d="M34 0Q34 21 38 31T50 45L112 67L101 52V679L113 664L50 677Q34 681 34 721Q71 727 100 730T158 734Q211 734 211 672V55L199 68L283 48Q283 31 280 21T265 0H34Z" />
<glyph unicode="m" horiz-adv-x="898" d="M44 0Q44 40 60 45L117 67L106 52V396L118 381L60 394Q44 398 44 438Q88 445 112 448T152 451Q183 451 196 437T209 391V362L205 365H216Q256 410 306 436T402 462Q458 462 484 423T511 304V49L499 64L563 48Q563 31 559
21T545 0H350Q350 40 366 45L412 61L401 46V294Q401 387 336 387Q311 387 286 376T241 349T209 314L216 332V49L204 64L268 48Q268 31 264 21T249 0H44ZM645 0Q645 40 661 45L707 61L696 46V294Q696 387 631 387Q595 387 561 365T506 316L494 365H509Q550 410 600
436T696 462Q753 462 779 423T806 304V55L794 69L868 48Q868 31 864 21T850 0H645Z" />
<glyph unicode="n" horiz-adv-x="615" d="M44 0Q44 40 60 45L117 67L106 50V396L118 381L60 394Q44 398 44 438Q88 445 112 448T152 451Q183 451 196 437T209 391V362L204 365H216Q258 410 309 436T407 462Q523 462 523 304V55L511 69L585 48Q585 31 582 21T568
0H363Q363 40 379 45L424 61L414 44V294Q414 387 345 387Q317 387 291 376T244 349T209 314L216 332V49L204 64L268 48Q268 31 264 21T249 0H44Z" />
<glyph unicode="o" horiz-adv-x="541" d="M247 -12Q148 -12 92 45T35 202Q35 277 67 336T157 428T290 462Q356 462 404 436T478 361T505 246Q505 171 472 113T381 21T247 -12ZM268 30Q326 30 357 80T389 223Q389 317 359 368T271 420Q214 420 183 370T151 225Q151
131 181 81T268 30Z" />
<glyph unicode="p" horiz-adv-x="576" d="M34 -252Q34 -213 50 -207L107 -186L96 -203V396L108 381L50 394Q34 398 34 438Q78 445 102 448T141 451Q172 451 185 439T199 398V363L196 366H206Q235 411 281 436T377 462Q427 462 463 436T520 362T540 249Q540 170
512 112T431 21T308 -12Q279 -12 250 -7T192 10L206 18V-198L194 -185L278 -204Q278 -221 274 -231T259 -252H34ZM290 37Q359 37 391 84T424 228Q424 312 399 352T322 393Q294 393 271 382T229 351T192 306L204 332V53L192 74Q222 55 243 46T290 37Z" />
<glyph unicode="q" horiz-adv-x="584" d="M308 -252Q308 -213 324 -207L404 -174L381 -212V70H375Q348 32 304 10T209 -12Q157 -12 118 14T57 89T35 202Q35 278 69 336T163 428T301 462Q344 462 391 447T485 395V-212L451 -181L547 -204Q547 -221 544 -231T529
-252H308ZM267 54Q295 54 316 64T356 91T389 128L378 103V393L389 371Q368 392 343 402T283 413Q220 413 186 364T151 224Q151 141 180 98T267 54ZM407 380L438 447Q441 455 452 459T485 463V395L407 380Z" />
<glyph unicode="r" horiz-adv-x="424" d="M44 0Q44 39 60 45L117 67L106 50V396L118 381L60 394Q53 396 49 407T44 438Q90 445 113 448T152 451Q182 451 195 437T209 387V350L201 359H214Q239 405 277 433T351 462Q391 462 409 444T428 396Q428 373 413 356T375
339Q362 365 347 374T314 383Q288 383 259 362T208 309L216 331V49L201 70L291 49Q291 32 288 22T273 0H44Z" />
<glyph unicode="s" horiz-adv-x="443" d="M213 -12Q134 -12 85 19T35 96Q35 121 50 134T87 147Q115 147 133 130Q133 78 154 53T221 27Q260 27 282 46T305 99Q305 126 290 143T250 171T197 192Q163 205 131 221T77 263T55 332Q55 391 102 426T232 462Q279 462
315 451T372 419T393 372Q393 350 378 338T341 325Q319 325 302 339Q302 380 281 401T222 423Q190 423 171 408T151 366Q151 342 165 327T203 302T253 281Q289 268 325 251T384 207T408 133Q408 89 384 57T316 6T213 -12Z" />
<glyph unicode="t" horiz-adv-x="352" d="M197 -12Q142 -12 116 22T90 122V530Q102 540 120 547T160 561T200 569V138Q200 99 212 81T253 63Q274 63 297 71T344 99L361 66Q349 49 324 31T266 1T197 -12ZM314 383L24 390Q24 407 28 422T40 443L336 456Q338 451
339 446T340 434Q340 414 334 401T314 383Z" />
<glyph unicode="u" horiz-adv-x="594" d="M208 -12Q152 -12 122 25T92 143V393L109 378L45 391Q38 392 34 403T30 435Q73 441 97 444T136 447Q169 447 185 433T201 388V152Q201 105 220 83T275 60Q301 60 323 69T362 93T391 124L380 102V393L397 378L333 391Q326
392 322 403T318 435Q362 441 386 444T424 447Q458 447 473 433T489 388V86Q489 68 496 60T517 51Q527 51 539 55T560 66L569 32Q549 12 520 0T464 -12Q429 -12 408 9T387 70H381Q303 -12 208 -12Z" />
<glyph unicode="v" horiz-adv-x="504" d="M254 -10Q245 -10 234 -8T214 -3L57 391L78 376L3 395Q3 412 7 422T22 443H228Q228 400 212 396L151 377L166 396L294 78H264L386 393L392 377L325 395Q325 417 328 427T342 443H501Q501 422 497 411T485 398L428 378L449
397L302 20Q291 -10 254 -10Z" />
<glyph unicode="w" horiz-adv-x="720" d="M230 -10Q220 -10 209 -8T189 -3L57 391L78 376L3 395Q3 412 7 422T22 443H228Q228 400 212 396L151 377L165 396L270 78H241L353 397H406L530 78H505L602 393L609 377L541 395Q541 417 545 427T559 443H717Q717 422 713
411T701 398L644 378L665 397L544 20Q534 -10 496 -10Q487 -10 475 -8T456 -3L342 289H372L277 20Q267 -10 230 -10Z" />
<glyph unicode="x" horiz-adv-x="522" d="M273 0Q273 41 289 45L361 67L336 35L70 393L108 371L18 395Q18 412 22 422T38 443H255Q255 402 239 398L167 376L191 408L457 50L421 72L510 48Q510 31 506 21T491 0H273ZM13 0Q13 40 29 45L110 74L57 40L215 237L253
193L120 25L122 67L195 48Q195 26 191 16T176 0H13ZM300 210L262 255L391 419L387 377L313 395Q313 417 316 427T330 443H495Q495 403 479 398L401 370L454 403L300 210Z" />
<glyph unicode="y" horiz-adv-x="507" d="M70 -270Q39 -270 21 -256T3 -219Q3 -211 5 -201T14 -182H33Q80 -182 110 -173T162 -142T201 -84T239 9L235 -45L60 391L81 376L6 395Q6 412 10 422T24 443H231Q231 401 215 396L154 377L170 396L297 78H267L389 393L395
377L328 395Q328 417 331 427T346 443H504Q504 422 500 411T488 398L431 378L451 397L292 -15Q248 -131 190 -200T70 -270Z" />
<glyph unicode="z" horiz-adv-x="438" d="M54 0Q38 0 30 8T22 27Q22 35 26 44T35 62L280 408L330 378L89 390L111 419L96 308Q95 302 87 299T68 295T48 294L35 443H356Q379 443 389 436T399 415Q399 407 396 399T385 380L142 34L89 66L367 53L337 19L350 159Q365
159 379 156T404 145L413 0H54Z" />
<glyph unicode="{" horiz-adv-x="382" d="M370 -270Q336 -270 302 -265T238 -245T183 -209T146 -152T132 -70Q132 -46 133 -19T135 35T136 79Q136 125 126 157T90 206T19 223Q14 230 12 240T9 261Q9 267 9 273T11 285Q58 285 85 303T124 353T136 430Q136 453 135
482T133 539T132 588Q132 632 146 664T185 718T241 753T305 772T371 778Q372 775 372 771T372 764Q372 754 370 745T365 729Q296 720 269 688T241 589Q241 563 244 528T247 445Q247 360 212 314T113 259Q113 256 115 251Q177 242 212 196T247 63Q247 14 244 -20T241
-81Q241 -125 252 -153T290 -198T365 -221Q369 -227 371 -236T373 -255Q373 -264 370 -270Z" />
<glyph unicode="|" horiz-adv-x="225" d="M153 -200Q123 -200 101 -196T72 -185V734Q102 734 123 730T153 719V-200Z" />
<glyph unicode="}" horiz-adv-x="382" d="M12 -270Q46 -270 80 -265T144 -245T199 -209T236 -152T250 -70Q250 -46 249 -19T247 35T246 79Q246 125 256 157T292 206T363 223Q368 230 370 240T373 261Q373 267 373 273T371 285Q324 285 297 303T258 353T246 430Q246
453 247 482T249 539T250 588Q250 632 236 664T197 718T141 753T77 772T11 778Q10 775 10 771T10 764Q10 754 12 745T17 729Q86 720 113 688T141 589Q141 563 138 528T135 445Q135 360 170 314T269 259Q269 256 267 251Q205 242 170 196T135 63Q135 14 138 -20T141
-81Q141 -125 130 -153T92 -198T17 -221Q13 -227 11 -236T9 -255Q9 -264 12 -270Z" />
<glyph unicode="~" horiz-adv-x="572" d="M94 220Q88 227 84 238T79 256Q79 274 91 295T129 333T194 350Q227 350 263 339T334 315T397 303Q425 303 445 317T478 359Q493 342 493 322Q493 306 480 284T440 245T374 228Q343 228 307 240T237 264T174 276Q146 276
128 262T94 220Z" />
<glyph unicode="&#xa0;" horiz-adv-x="221" />
<glyph unicode="&#xa1;" horiz-adv-x="238" d="M119 283Q137 283 151 279Q155 212 159 149T167 32T173 -61T176 -117Q176 -150 164 -166T119 -183Q88 -183 76 -167T63 -117Q63 -100 65 -61T71 32T79 149T87 279Q101 283 119 283ZM118 484Q147 484 163 467T179
423Q179 397 161 380T118 363Q88 363 72 379T56 423Q56 449 74 466T118 484Z" />
<glyph unicode="&#xa2;" horiz-adv-x="484" d="M282 -98Q269 -98 255 -96T230 -88V739Q243 739 257 737T282 729V-98ZM251 83Q186 83 137 110T62 187T35 304Q35 378 66 435T151 524T274 557Q323 557 363 542T426 500T449 441Q449 418 435 405T395 392Q384 392
374 395T354 404Q354 458 332 486T267 515Q211 515 181 468T151 333Q151 238 187 191T295 143Q333 143 369 158T439 201L454 170Q432 144 400 125T329 94T251 83Z" />
<glyph unicode="&#xa3;" horiz-adv-x="556" d="M116 0Q98 7 91 16T83 52Q141 102 163 138T186 202Q186 233 173 261T143 318T112 382T99 463Q99 513 125 554T199 620T315 645Q372 645 414 630T479 589T503 532Q503 509 490 498T455 486Q443 486 433 489T415 497Q415
539 387 564T315 590Q261 590 229 562T197 480Q197 446 209 415T236 354T264 292T276 221Q276 192 265 165T228 109T160 52L158 75L458 53L425 18L453 167Q471 167 485 163T503 148V0H116ZM48 302Q48 314 51 328T58 353H399Q399 341 397 327T390 302H48Z" />
<glyph unicode="&#xa4;" horiz-adv-x="656" d="M324 73Q230 73 174 126T117 271Q117 332 145 384T222 470T336 503Q429 503 485 450T541 306Q541 244 514 192T439 106T324 73ZM229 125L106 -11Q97 -9 86 -2T68 15T58 31L187 174L229 125ZM427 125L470 173L598
30Q596 24 588 15T569 -1T549 -11L427 125ZM190 395L58 544Q60 550 68 559T87 576T106 585L232 443L190 395ZM471 399L430 448L550 585Q561 584 571 576T590 559T599 544L471 399ZM328 139Q372 139 398 159T435 211T447 284Q447 328 434 362T395 417T331 437Q288
437 262 417T224 365T211 294Q211 252 224 217T264 160T328 139Z" />
<glyph unicode="&#xa5;" horiz-adv-x="629" d="M166 240Q166 252 168 266T176 291H475Q475 279 473 265T465 240H166ZM166 120Q166 132 168 146T176 171H475Q475 159 473 145T465 120H166ZM327 142L53 599L88 573L3 593Q3 609 7 619T23 641H256Q256 621 252 610T240
596L161 575L177 604L366 289L331 287L491 600L501 574L411 593Q411 609 414 619T429 641H626Q626 621 622 610T610 596L538 577L562 605L327 142ZM193 0Q193 20 197 31T209 45L283 66L266 42V275H377V47L356 68L452 48Q452 33 449 23T434 0H193Z" />
<glyph unicode="&#xa6;" horiz-adv-x="225" d="M72 361V734Q102 734 123 730T153 719V361H72ZM153 -200Q123 -200 101 -196T72 -185V173H153V-200Z" />
<glyph unicode="&#xa7;" horiz-adv-x="489" d="M238 -12Q158 -12 109 18T59 96Q59 121 73 134T111 147Q139 147 156 130Q156 27 243 27Q283 27 306 47T329 103Q329 131 316 148T279 177T221 200Q175 217 143 234T95 276T79 335Q79 383 110 414T201 456L232 411Q206
407 191 391T175 350Q175 328 187 314T221 289T277 265Q328 247 362 229T414 185T432 123Q432 82 408 52T341 5T238 -12ZM321 196L287 241Q329 262 329 306Q329 332 316 348T280 377T220 401Q174 419 143 437T95 480T79 537Q79 590 126 622T255 655Q302 655 338
644T396 612T417 565Q417 543 402 531T365 518Q343 518 327 532Q327 573 306 594T247 616Q214 616 195 600T175 554Q175 531 187 516T221 489T277 466Q327 449 361 431T414 387T432 321Q432 276 403 243T321 196Z" />
<glyph unicode="&#xa8;" horiz-adv-x="318" d="M257 548Q226 548 212 565T197 608Q197 625 206 638T229 659T257 667Q287 667 302 651T318 608Q318 592 309 579T286 557T257 548ZM60 548Q30 548 15 565T0 608Q0 625 8 638T31 659T60 667Q89 667 105 651T121 608Q121
592 112 579T90 557T60 548Z" />
<glyph unicode="&#xa9;" horiz-adv-x="684" d="M342 140Q258 140 191 178T86 283T47 435Q47 520 85 586T191 691T342 730Q427 730 493 692T598 587T637 435Q637 350 599 284T494 179T342 140ZM342 164Q420 164 481 199T578 295T613 435Q613 513 578 574T482 671T342
706Q264 706 203 671T106 575T71 435Q71 357 106 296T202 199T342 164ZM355 239Q293 239 247 262T176 328T151 427Q151 488 180 537T258 615T370 643Q407 643 441 635T501 613L489 514Q475 514 465 517T455 526L445 588L456 569Q415 603 362 603Q300 603 265 559T230
436Q230 389 246 354T292 298T361 278Q388 278 412 288T455 320L443 295L454 383Q470 383 479 381T494 375L502 291Q472 265 436 252T355 239Z" />
<glyph unicode="&#xaa;" horiz-adv-x="392" d="M104 391Q69 391 47 412T24 467Q24 509 53 536T134 575L232 597L224 585V631Q224 667 214 683T179 700Q152 700 138 682T122 625Q117 620 107 617T85 613Q65 613 54 623T42 650Q42 674 62 694T116 725T194 737Q259
737 292 708T325 623V472Q325 460 329 453T344 445Q352 445 360 448T375 456L382 427Q366 412 342 402T295 391Q264 391 247 408T229 454H224Q203 428 173 410T104 391ZM154 450Q177 450 198 461T238 495L224 471V566L236 564L171 549Q141 541 128 527T114 492Q114
471 125 461T154 450ZM332 260H53Q52 264 51 270T50 286Q50 321 65 333H344Q345 329 346 322T347 307Q347 274 332 260Z" />
<glyph unicode="&#xab;" horiz-adv-x="451" d="M195 81L55 227Q41 241 35 249T29 267Q29 278 35 286T55 308L195 454Q208 451 217 442T227 419L97 244V290L227 116Q226 102 217 93T195 81ZM373 81L233 227Q219 241 213 249T207 267Q207 278 213 286T233 308L373
454Q386 451 395 442T405 419L275 244V290L405 116Q404 102 395 93T373 81Z" />
<glyph unicode="&#xac;" horiz-adv-x="572" d="M466 124Q454 124 443 127T423 136V287L458 258H82Q70 273 70 296Q70 302 71 309T74 322H490V128Q484 127 479 126T466 124Z" />
<glyph unicode="&#xad;" horiz-adv-x="360" d="M61 220Q58 226 55 234T52 253Q52 295 102 295Q138 295 167 294T228 293Q248 293 266 295T300 302Q303 295 305 287T308 269Q308 227 259 227Q223 227 195 228T133 229Q112 229 94 227T61 220Z" />
<glyph unicode="&#xae;" horiz-adv-x="603" d="M303 242Q233 242 178 274T91 361T59 486Q59 556 91 611T178 698T303 730Q373 730 428 698T515 611T547 486Q547 416 515 361T428 274T303 242ZM303 262Q368 262 418 291T498 371T527 486Q527 551 498 601T419 681T303
710Q239 710 188 681T108 602T79 486Q79 422 108 371T188 291T303 262ZM161 331Q161 339 163 346T169 354L209 369L202 359V617L209 610L161 622Q161 641 171 650H319Q369 651 400 628T431 568Q431 523 397 495T308 466Q294 466 280 468T257 473L265 475V360L256
370L304 359Q304 347 302 341T293 331H161ZM265 494L258 503Q264 500 276 499T297 497Q329 497 345 513T362 560Q362 588 346 602T303 617Q295 617 284 616T258 610L265 618V494ZM434 324Q417 324 402 330T372 354T341 402T304 480L360 496Q385 444 417 403T480
338Q470 332 457 328T434 324Z" />
<glyph unicode="&#xaf;" horiz-adv-x="298" d="M282 572H4Q2 575 1 582T0 598Q0 632 15 645H294Q295 641 296 634T298 618Q298 586 282 572Z" />
<glyph unicode="&#xb0;" horiz-adv-x="456" d="M211 396Q140 396 100 436T59 549Q59 603 82 644T146 709T240 732Q310 732 353 690T396 577Q396 524 373 483T308 419T211 396ZM218 465Q264 465 293 495T323 572Q323 613 299 638T235 663Q190 663 162 633T134 554Q134
514 156 490T218 465Z" />
<glyph unicode="&#xb1;" horiz-adv-x="600" d="M295 279Q284 279 272 282T253 292V570Q258 572 264 573T277 574Q289 574 300 571T319 560V283Q314 281 308 280T295 279ZM82 397Q70 412 70 435Q70 441 71 448T74 461H486Q499 447 499 423Q499 417 498 411T495
397H82ZM82 169Q70 184 70 207Q70 213 71 220T74 233H486Q499 219 499 195Q499 189 498 183T495 169H82Z" />
<glyph unicode="&#xb2;" horiz-adv-x="383" d="M55 351Q44 360 41 369T37 394Q134 468 179 526T225 635Q225 663 211 676T169 690Q150 690 132 684T97 662L107 681L98 626Q97 614 58 614L46 709Q118 743 186 743Q251 743 290 716T329 642Q329 589 273 522T108
380L92 414L307 399L277 391L297 460Q310 460 320 457T338 447V351H55Z" />
<glyph unicode="&#xb3;" horiz-adv-x="380" d="M179 343Q130 343 99 354T54 382T40 418Q40 436 48 447T69 464T97 470Q97 434 116 415T169 395Q200 395 216 409T233 451Q233 478 213 497T149 529Q143 532 141 539T139 566Q183 579 204 598T226 641Q226 663 211
676T170 690Q149 690 129 681T87 652L116 693L106 634Q105 628 96 625T65 621L54 708Q89 726 123 734T190 743Q252 743 289 718T327 648Q327 613 300 589T218 549V556Q276 545 307 517T338 448Q338 400 295 372T179 343Z" />
<glyph unicode="&#xb4;" horiz-adv-x="226" d="M28 512Q18 512 9 521T0 544Q57 601 89 634T138 681T161 699T175 703Q187 703 199 695T218 673T226 646Q226 640 222 635T199 617T140 580T28 512Z" />
<glyph unicode="&#xb5;" horiz-adv-x="604" d="M30 -258Q30 -245 32 -231T46 -213L110 -195L102 -219V393L119 378L55 391Q48 392 44 403T40 435Q83 441 107 444T146 447Q179 447 195 433T211 388V152Q211 105 230 83T285 60Q311 60 333 69T372 93T401 124L390
102V393L407 378L343 391Q336 392 332 403T328 435Q372 441 396 444T434 447Q468 447 483 433T499 388V86Q499 68 506 60T527 51Q537 51 549 55T570 66L579 32Q559 12 530 0T474 -12Q439 -12 418 9T397 70H391Q366 33 329 11T250 -12Q219 -12 198 5T170 50H189V-209Q190
-224 182 -234T161 -249T135 -256T110 -258H30Z" />
<glyph unicode="&#xb6;" horiz-adv-x="513" d="M194 -87Q164 -87 148 -73T132 -38Q132 -29 134 -18T143 0Q202 0 235 15T281 67T295 170V574Q313 574 339 575T391 578T439 581T469 584Q479 569 479 553Q479 518 439 505T334 505L402 551L403 304Q403 224 387 153T342
28T275 -56T194 -87ZM263 223Q160 223 104 270T47 402Q47 455 67 495T125 558T209 581Q215 581 219 581T232 580T263 577V223Z" />
<glyph unicode="&#xb7;" horiz-adv-x="225" d="M112 203Q81 203 65 221T49 266Q49 293 68 311T112 329Q144 329 160 312T176 266Q176 239 157 221T112 203Z" />
<glyph unicode="&#xb8;" horiz-adv-x="303" d="M145 -262Q94 -262 62 -238T29 -177Q29 -162 36 -154T59 -145Q79 -145 95 -158Q95 -197 108 -216T153 -236Q179 -236 195 -219T212 -169Q212 -133 190 -117T136 -101Q125 -101 118 -101T106 -104L135 0H162L139 -86L126
-75Q137 -72 147 -71T167 -70Q195 -70 220 -80T260 -110T276 -162Q276 -185 262 -208T218 -247T145 -262Z" />
<glyph unicode="&#xb9;" horiz-adv-x="303" d="M49 351Q49 385 59 388L128 409L115 387V702L130 656L43 642Q38 649 36 656T34 673Q34 681 35 688T40 701L167 743H214V390L197 411L273 391Q273 380 271 371T261 351H49Z" />
<glyph unicode="&#xba;" horiz-adv-x="422" d="M193 391Q115 391 71 433T27 548Q27 603 52 646T121 713T224 737Q301 737 348 694T396 578Q396 523 370 481T299 415T193 391ZM211 429Q248 429 268 463T288 560Q288 625 268 662T209 700Q174 700 154 666T134 567Q134
501 154 465T211 429ZM344 260H65Q64 264 63 270T62 286Q62 321 77 333H356Q357 329 358 322T360 307Q360 274 344 260Z" />
<glyph unicode="&#xbb;" horiz-adv-x="451" d="M78 81L218 227Q232 241 238 249T244 267Q244 278 238 286T218 308L78 454Q65 451 56 442T46 419L176 244V290L46 116Q47 102 56 93T78 81ZM256 81L396 227Q410 241 416 249T422 267Q422 278 416 286T396 308L256
454Q243 451 234 442T224 419L354 244V290L224 116Q225 102 234 93T256 81Z" />
<glyph unicode="&#xbc;" horiz-adv-x="978" d="M88 263Q88 297 98 300L167 321L154 299V614L169 568L82 554Q77 561 75 568T73 585Q73 593 74 600T79 613L206 655H253V302L236 323L312 303Q312 292 310 283T300 263H88ZM354 -12Q330 -12 315 -8T287 9L581 655Q602
655 616 651T648 634L354 -12ZM759 0V335L795 331L633 118L610 141H895V94H602Q581 102 581 137L774 393Q814 393 835 378T857 332V0H759Z" />
<glyph unicode="&#xbd;" horiz-adv-x="978" d="M87 263Q87 297 97 300L166 321L153 299V614L168 568L81 554Q76 561 74 568T72 585Q72 593 73 600T78 613L205 655H252V302L235 323L311 303Q311 292 309 283T299 263H87ZM337 -12Q313 -12 298 -8T270 9L564 655Q585
655 599 651T631 634L337 -12ZM616 1Q605 10 602 19T598 44Q695 118 740 176T786 285Q786 313 772 326T730 340Q711 340 693 334T658 312L668 331L659 276Q658 264 619 264L607 359Q679 393 747 393Q812 393 851 366T890 292Q890 239 834 172T669 30L653 64L868
49L838 41L858 110Q871 110 881 107T899 97V1H616Z" />
<glyph unicode="&#xbe;" horiz-adv-x="978" d="M194 255Q145 255 114 266T69 294T55 330Q55 348 63 359T84 376T112 382Q112 346 131 327T184 307Q215 307 231 321T248 363Q248 390 228 409T164 441Q158 444 156 451T154 478Q198 491 219 510T241 553Q241 575
226 588T185 602Q164 602 144 593T102 564L131 605L121 546Q120 540 111 537T80 533L69 620Q104 638 138 646T205 655Q267 655 304 630T342 560Q342 525 315 501T233 461V468Q291 457 322 429T353 360Q353 312 310 284T194 255ZM391 -12Q367 -12 352 -8T324 9L618
655Q639 655 653 651T685 634L391 -12ZM790 0V335L826 331L664 118L641 141H926V94H633Q612 102 612 137L805 393Q845 393 866 378T888 332V0H790Z" />
<glyph unicode="&#xbf;" horiz-adv-x="439" d="M256 283Q274 283 288 279L296 157Q264 149 234 135T179 100T139 48T124 -21Q124 -74 148 -106T221 -138Q264 -138 289 -109T314 -15Q321 -12 331 -9T359 -5Q385 -5 401 -20T417 -64Q417 -112 366 -147T222 -183Q129
-183 76 -140T22 -25Q22 11 35 41T72 97T123 140T178 171T230 189L217 175L225 279Q237 283 256 283ZM257 484Q286 484 302 467T318 423Q318 397 299 380T257 363Q226 363 210 379T194 423Q194 449 213 466T257 484Z" />
<glyph unicode="&#xc0;" horiz-adv-x="664" d="M3 0Q3 20 7 31T19 45L85 68L53 35L271 631Q274 641 285 646T308 653T330 655Q339 655 348 654T367 651L605 38L569 68L661 48Q661 33 657 23T641 0H410Q410 20 414 31T426 45L496 66L488 40L282 569L313 571L118
36L113 70L212 48Q212 33 208 23T191 0H3ZM161 207L174 263H428L442 207H161ZM423 732Q342 755 296 768T228 790T202 804T196 818Q196 841 208 860T239 880Q245 880 255 876T287 860T345 826T442 769Q442 756 438 744T423 732Z" />
<glyph unicode="&#xc1;" horiz-adv-x="664" d="M3 0Q3 20 7 31T19 45L85 68L53 35L271 631Q274 641 285 646T308 653T330 655Q339 655 348 654T367 651L605 38L569 68L661 48Q661 33 657 23T641 0H410Q410 20 414 31T426 45L496 66L488 40L282 569L313 571L118
36L113 70L212 48Q212 33 208 23T191 0H3ZM161 207L174 263H428L442 207H161ZM216 732Q205 732 201 744T196 769Q255 804 292 826T351 859T383 875T399 880Q417 880 429 861T442 818Q442 810 437 804T411 790T344 769T216 732Z" />
<glyph unicode="&#xc2;" horiz-adv-x="664" d="M3 0Q3 20 7 31T19 45L85 68L53 35L271 631Q274 641 285 646T308 653T330 655Q339 655 348 654T367 651L605 38L569 68L661 48Q661 33 657 23T641 0H410Q410 20 414 31T426 45L496 66L488 40L282 569L313 571L118
36L113 70L212 48Q212 33 208 23T191 0H3ZM161 207L174 263H428L442 207H161ZM319 889Q334 889 346 884T374 862T413 816T475 738Q475 726 468 718T447 710L307 815H330L190 710Q178 710 170 718T162 738Q200 786 224 816T264 862T292 883T319 889Z" />
<glyph unicode="&#xc3;" horiz-adv-x="664" d="M3 0Q3 20 7 31T19 45L85 68L53 35L271 631Q274 641 285 646T308 653T330 655Q339 655 348 654T367 651L605 38L569 68L661 48Q661 33 657 23T641 0H410Q410 20 414 31T426 45L496 66L488 40L282 569L313 571L118
36L113 70L212 48Q212 33 208 23T191 0H3ZM161 207L174 263H428L442 207H161ZM245 791Q222 791 206 775T189 732Q169 732 160 737T150 752Q150 783 163 809T199 851T247 867Q274 867 298 856T346 833T394 821Q418 821 434 837T450 880Q471 880 479 876T488 860Q488
829 475 803T440 761T391 744Q365 744 341 756T294 779T245 791Z" />
<glyph unicode="&#xc4;" horiz-adv-x="664" d="M3 0Q3 20 7 31T19 45L85 68L53 35L271 631Q274 641 285 646T308 653T330 655Q339 655 348 654T367 651L605 38L569 68L661 48Q661 33 657 23T641 0H410Q410 20 414 31T426 45L496 66L488 40L282 569L313 571L118
36L113 70L212 48Q212 33 208 23T191 0H3ZM161 207L174 263H428L442 207H161ZM417 746Q386 746 372 763T357 806Q357 823 366 836T389 857T417 865Q447 865 462 849T478 806Q478 790 469 777T446 755T417 746ZM220 746Q190 746 175 763T160 806Q160 823 168 836T191
857T220 865Q249 865 265 849T281 806Q281 790 272 777T250 755T220 746Z" />
<glyph unicode="&#xc5;" horiz-adv-x="664" d="M3 0Q3 20 7 31T19 45L85 68L53 35L271 631Q274 641 285 646T308 653T330 655Q339 655 348 654T367 651L605 38L569 68L661 48Q661 33 657 23T641 0H410Q410 20 414 31T426 45L496 66L488 40L282 569L313 571L118
36L113 70L212 48Q212 33 208 23T191 0H3ZM161 207L174 263H428L442 207H161ZM312 689Q261 689 228 716T195 786Q195 820 212 846T257 888T323 903Q376 903 409 875T443 800Q443 751 407 720T312 689ZM320 728Q343 728 356 745T369 793Q369 824 355 843T317 864Q269
863 269 797Q269 765 282 747T320 728Z" />
<glyph unicode="&#xc6;" horiz-adv-x="941" d="M-7 0Q-7 20 -3 31T9 45L74 69L38 24L446 610L484 573L359 593Q359 609 363 619T379 641H851V499Q830 499 819 503T805 517L779 598L793 589L565 571L576 584V334L566 342H721L710 334L728 399Q744 399 757 395T782
379V242Q770 230 757 227T728 223L709 289L721 281H566L576 290V63L566 74L817 54L805 38L834 164Q850 164 861 160T882 146V0H396Q396 20 400 31T412 45L481 66L465 47V267L475 250H258L286 269L125 39L109 72L219 48Q219 33 216 23T199 0H-7ZM295 291L291 310H475L465
292V557L475 548L295 291Z" />
<glyph unicode="&#xc7;" horiz-adv-x="658" d="M356 -12Q264 -12 195 27T86 135T47 296Q47 373 74 438T148 552T261 628T403 655Q456 655 505 643T592 606L573 454Q552 454 540 459T526 472L515 572L536 541Q510 564 468 577T379 590Q314 590 266 559T193 469T167
328Q167 244 193 182T267 86T377 52Q427 52 471 72T538 126L516 80L530 225Q557 225 568 222T584 209L592 68Q553 31 489 10T356 -12ZM358 -270Q307 -270 274 -245T240 -180Q240 -162 249 -154T270 -145Q285 -145 293 -149T306 -157Q306 -196 324 -216T371 -237Q396
-237 414 -219T433 -169Q433 -147 421 -133T389 -110T348 -102Q338 -102 331 -102T319 -104L343 0H378L361 -74L347 -62Q368 -58 393 -60T442 -74T480 -107T495 -162Q495 -187 480 -212T434 -253T358 -270Z" />
<glyph unicode="&#xc8;" horiz-adv-x="609" d="M59 0Q59 20 63 31T75 45L144 66L127 47V592L143 573L59 593Q59 609 63 619T79 641H519V499Q497 499 487 503T473 517L447 595L461 586L227 571L238 584V346L228 354H412L399 346L416 417Q428 417 441 414T464 400V248Q454
238 441 235T416 232L398 306L412 297H228L238 306V63L228 74L485 56L472 40L501 164Q517 164 528 160T550 146V0H59ZM417 732Q336 755 290 768T222 790T196 804T190 818Q190 841 202 860T233 880Q239 880 249 876T281 860T339 826T436 769Q436 756 432 744T417
732Z" />
<glyph unicode="&#xc9;" horiz-adv-x="609" d="M59 0Q59 20 63 31T75 45L144 66L127 47V592L143 573L59 593Q59 609 63 619T79 641H519V499Q497 499 487 503T473 517L447 595L461 586L227 571L238 584V346L228 354H412L399 346L416 417Q428 417 441 414T464 400V248Q454
238 441 235T416 232L398 306L412 297H228L238 306V63L228 74L485 56L472 40L501 164Q517 164 528 160T550 146V0H59ZM210 732Q199 732 195 744T190 769Q249 804 286 826T345 859T377 875T393 880Q411 880 423 861T436 818Q436 810 431 804T405 790T338 769T210
732Z" />
<glyph unicode="&#xca;" horiz-adv-x="609" d="M59 0Q59 20 63 31T75 45L144 66L127 47V592L143 573L59 593Q59 609 63 619T79 641H519V499Q497 499 487 503T473 517L447 595L461 586L227 571L238 584V346L228 354H412L399 346L416 417Q428 417 441 414T464 400V248Q454
238 441 235T416 232L398 306L412 297H228L238 306V63L228 74L485 56L472 40L501 164Q517 164 528 160T550 146V0H59ZM312 889Q327 889 339 884T367 862T406 816T468 738Q468 726 461 718T440 710L300 815H323L183 710Q171 710 163 718T155 738Q193 786 217 816T257
862T285 883T312 889Z" />
<glyph unicode="&#xcb;" horiz-adv-x="609" d="M59 0Q59 20 63 31T75 45L144 66L127 47V592L143 573L59 593Q59 609 63 619T79 641H519V499Q497 499 487 503T473 517L447 595L461 586L227 571L238 584V346L228 354H412L399 346L416 417Q428 417 441 414T464 400V248Q454
238 441 235T416 232L398 306L412 297H228L238 306V63L228 74L485 56L472 40L501 164Q517 164 528 160T550 146V0H59ZM411 746Q380 746 366 763T351 806Q351 823 360 836T383 857T411 865Q441 865 456 849T472 806Q472 790 463 777T440 755T411 746ZM214 746Q184
746 169 763T154 806Q154 823 162 836T185 857T214 865Q243 865 259 849T275 806Q275 790 266 777T244 755T214 746Z" />
<glyph unicode="&#xcc;" horiz-adv-x="365" d="M59 0Q59 20 63 31T75 45L144 66L127 47V592L145 573L59 593Q59 609 63 619T79 641H308Q308 621 304 610T292 596L217 575L238 595V49L216 68L308 48Q308 33 305 23T290 0H59ZM285 732Q204 755 158 768T90 790T64
804T58 818Q58 841 70 860T101 880Q107 880 117 876T149 860T207 826T304 769Q304 756 300 744T285 732Z" />
<glyph unicode="&#xcd;" horiz-adv-x="365" d="M59 0Q59 20 63 31T75 45L144 66L127 47V592L145 573L59 593Q59 609 63 619T79 641H308Q308 621 304 610T292 596L217 575L238 595V49L216 68L308 48Q308 33 305 23T290 0H59ZM78 732Q67 732 63 744T58 769Q117 804
154 826T213 859T245 875T261 880Q279 880 291 861T304 818Q304 810 299 804T273 790T206 769T78 732Z" />
<glyph unicode="&#xce;" horiz-adv-x="365" d="M59 0Q59 20 63 31T75 45L144 66L127 47V592L145 573L59 593Q59 609 63 619T79 641H308Q308 621 304 610T292 596L217 575L238 595V49L216 68L308 48Q308 33 305 23T290 0H59ZM181 889Q196 889 208 884T236 862T275
816T337 738Q337 726 330 718T309 710L169 815H192L52 710Q40 710 32 718T24 738Q62 786 86 816T126 862T154 883T181 889Z" />
<glyph unicode="&#xcf;" horiz-adv-x="365" d="M59 0Q59 20 63 31T75 45L144 66L127 47V592L145 573L59 593Q59 609 63 619T79 641H308Q308 621 304 610T292 596L217 575L238 595V49L216 68L308 48Q308 33 305 23T290 0H59ZM279 746Q248 746 234 763T219 806Q219
823 228 836T251 857T279 865Q309 865 324 849T340 806Q340 790 331 777T308 755T279 746ZM82 746Q52 746 37 763T22 806Q22 823 30 836T53 857T82 865Q111 865 127 849T143 806Q143 790 134 777T112 755T82 746Z" />
<glyph unicode="&#xd0;" horiz-adv-x="720" d="M59 0Q59 20 63 31T75 45L144 66L127 47V592L143 573L59 593Q59 609 62 619T76 641H381Q455 641 510 617T601 551T655 456T673 345Q673 283 652 222T591 110T494 30T362 0H59ZM352 59Q402 59 439 80T502 138T540
222T553 321Q553 391 530 451T462 547T350 583Q311 583 278 578T223 564L238 581V63L228 77Q254 68 286 64T352 59ZM53 544Q53 555 54 567T57 592T64 609L347 604Q347 587 343 574T332 556L53 544Z" />
<glyph unicode="&#xd1;" horiz-adv-x="761" d="M600 -2Q587 -2 576 -1T558 2L183 517L197 526V38L189 67L283 48Q283 33 280 22T264 0H59Q59 20 63 31T75 45L150 64L136 33V600L152 574L59 593Q59 609 63 619T77 641H225L620 100L583 89V603L590 574L496 593Q496
609 500 619T515 641H721Q721 621 717 610T705 596L630 577L644 606V25Q644 16 636 10T618 1T600 -2ZM317 791Q294 791 278 775T261 732Q241 732 232 737T222 752Q222 783 235 809T271 851T319 867Q346 867 370 856T418 833T466 821Q490 821 506 837T522 880Q543
880 551 876T560 860Q560 829 547 803T512 761T463 744Q437 744 413 756T366 779T317 791Z" />
<glyph unicode="&#xd2;" horiz-adv-x="727" d="M343 -12Q255 -12 189 28T85 138T47 297Q47 374 73 439T145 552T252 628T384 655Q472 655 539 615T643 506T680 346Q680 272 655 207T584 93T477 16T343 -12ZM371 52Q428 52 470 85T535 176T559 309Q559 439 505
514T355 590Q303 590 260 559T192 470T167 334Q167 204 221 128T371 52ZM468 732Q387 755 341 768T273 790T247 804T241 818Q241 841 253 860T284 880Q290 880 300 876T332 860T390 826T487 769Q487 756 483 744T468 732Z" />
<glyph unicode="&#xd3;" horiz-adv-x="727" d="M343 -12Q255 -12 189 28T85 138T47 297Q47 374 73 439T145 552T252 628T384 655Q472 655 539 615T643 506T680 346Q680 272 655 207T584 93T477 16T343 -12ZM371 52Q428 52 470 85T535 176T559 309Q559 439 505
514T355 590Q303 590 260 559T192 470T167 334Q167 204 221 128T371 52ZM261 732Q250 732 246 744T241 769Q300 804 337 826T396 859T428 875T444 880Q462 880 474 861T487 818Q487 810 482 804T456 790T389 769T261 732Z" />
<glyph unicode="&#xd4;" horiz-adv-x="727" d="M343 -12Q255 -12 189 28T85 138T47 297Q47 374 73 439T145 552T252 628T384 655Q472 655 539 615T643 506T680 346Q680 272 655 207T584 93T477 16T343 -12ZM371 52Q428 52 470 85T535 176T559 309Q559 439 505
514T355 590Q303 590 260 559T192 470T167 334Q167 204 221 128T371 52ZM363 889Q378 889 390 884T418 862T457 816T519 738Q519 726 512 718T491 710L351 815H374L234 710Q222 710 214 718T206 738Q244 786 268 816T308 862T336 883T363 889Z" />
<glyph unicode="&#xd5;" horiz-adv-x="727" d="M343 -12Q255 -12 189 28T85 138T47 297Q47 374 73 439T145 552T252 628T384 655Q472 655 539 615T643 506T680 346Q680 272 655 207T584 93T477 16T343 -12ZM371 52Q428 52 470 85T535 176T559 309Q559 439 505
514T355 590Q303 590 260 559T192 470T167 334Q167 204 221 128T371 52ZM289 791Q266 791 250 775T233 732Q213 732 204 737T194 752Q194 783 207 809T243 851T291 867Q318 867 342 856T390 833T438 821Q462 821 478 837T494 880Q515 880 523 876T532 860Q532 829
519 803T484 761T435 744Q409 744 385 756T338 779T289 791Z" />
<glyph unicode="&#xd6;" horiz-adv-x="727" d="M343 -12Q255 -12 189 28T85 138T47 297Q47 374 73 439T145 552T252 628T384 655Q472 655 539 615T643 506T680 346Q680 272 655 207T584 93T477 16T343 -12ZM371 52Q428 52 470 85T535 176T559 309Q559 439 505
514T355 590Q303 590 260 559T192 470T167 334Q167 204 221 128T371 52ZM461 746Q430 746 416 763T401 806Q401 823 410 836T433 857T461 865Q491 865 506 849T522 806Q522 790 513 777T490 755T461 746ZM264 746Q234 746 219 763T204 806Q204 823 212 836T235
857T264 865Q293 865 309 849T325 806Q325 790 316 777T294 755T264 746Z" />
<glyph unicode="&#xd7;" horiz-adv-x="572" d="M413 121L274 259H298L164 126Q150 126 137 136T116 162L256 302V278L122 412Q122 426 132 440T159 459L298 321H274L408 454Q421 454 435 444T456 418L316 278V302L450 169Q450 154 440 141T413 121Z" />
<glyph unicode="&#xd8;" horiz-adv-x="727" d="M343 -12Q255 -12 189 28T85 138T47 297Q47 374 73 439T145 552T252 628T384 655Q472 655 539 615T643 506T680 346Q680 272 655 207T584 93T477 16T343 -12ZM371 52Q428 52 470 85T535 176T559 309Q559 439 505
514T355 590Q303 590 260 559T192 470T167 334Q167 204 221 128T371 52ZM197 -121Q181 -121 166 -116T142 -101L530 763Q546 763 561 758T585 743L197 -121Z" />
<glyph unicode="&#xd9;" horiz-adv-x="718" d="M375 -12Q277 -12 218 16T131 94T103 211V592L122 573L35 593Q35 609 39 619T55 641H285Q285 621 281 610T269 596L194 575L214 595V230Q214 166 234 126T290 67T376 48Q434 48 473 67T533 126T553 232V601L561 573L474
593Q474 609 478 619T492 641H684Q684 622 680 610T668 596L601 577L614 606V214Q614 153 589 102T511 19T375 -12ZM483 732Q402 755 356 768T288 790T262 804T256 818Q256 841 268 860T299 880Q305 880 315 876T347 860T405 826T502 769Q502 756 498 744T483 732Z"
/>
<glyph unicode="&#xda;" horiz-adv-x="718" d="M375 -12Q277 -12 218 16T131 94T103 211V592L122 573L35 593Q35 609 39 619T55 641H285Q285 621 281 610T269 596L194 575L214 595V230Q214 166 234 126T290 67T376 48Q434 48 473 67T533 126T553 232V601L561 573L474
593Q474 609 478 619T492 641H684Q684 622 680 610T668 596L601 577L614 606V214Q614 153 589 102T511 19T375 -12ZM276 732Q265 732 261 744T256 769Q315 804 352 826T411 859T443 875T459 880Q477 880 489 861T502 818Q502 810 497 804T471 790T404 769T276 732Z"
/>
<glyph unicode="&#xdb;" horiz-adv-x="718" d="M375 -12Q277 -12 218 16T131 94T103 211V592L122 573L35 593Q35 609 39 619T55 641H285Q285 621 281 610T269 596L194 575L214 595V230Q214 166 234 126T290 67T376 48Q434 48 473 67T533 126T553 232V601L561 573L474
593Q474 609 478 619T492 641H684Q684 622 680 610T668 596L601 577L614 606V214Q614 153 589 102T511 19T375 -12ZM379 889Q394 889 406 884T434 862T473 816T535 738Q535 726 528 718T507 710L367 815H390L250 710Q238 710 230 718T222 738Q260 786 284 816T324
862T352 883T379 889Z" />
<glyph unicode="&#xdc;" horiz-adv-x="718" d="M375 -12Q277 -12 218 16T131 94T103 211V592L122 573L35 593Q35 609 39 619T55 641H285Q285 621 281 610T269 596L194 575L214 595V230Q214 166 234 126T290 67T376 48Q434 48 473 67T533 126T553 232V601L561 573L474
593Q474 609 478 619T492 641H684Q684 622 680 610T668 596L601 577L614 606V214Q614 153 589 102T511 19T375 -12ZM477 746Q446 746 432 763T417 806Q417 823 426 836T449 857T477 865Q507 865 522 849T538 806Q538 790 529 777T506 755T477 746ZM280 746Q250
746 235 763T220 806Q220 823 228 836T251 857T280 865Q309 865 325 849T341 806Q341 790 332 777T310 755T280 746Z" />
<glyph unicode="&#xdd;" horiz-adv-x="629" d="M327 142L53 599L88 573L3 593Q3 609 7 619T23 641H256Q256 621 252 610T240 596L161 575L177 604L366 289L331 287L491 600L501 574L411 593Q411 609 414 619T429 641H626Q626 621 622 610T610 596L538 577L562
605L327 142ZM193 0Q193 20 197 31T209 45L283 66L266 42V275H377V47L356 68L452 48Q452 33 449 23T434 0H193ZM233 732Q222 732 218 744T213 769Q272 804 309 826T368 859T400 875T416 880Q434 880 446 861T459 818Q459 810 454 804T428 790T361 769T233 732Z"
/>
<glyph unicode="&#xde;" horiz-adv-x="567" d="M59 0Q59 20 63 31T75 45L144 66L127 47V592L145 573L59 593Q59 609 63 619T78 641H308Q308 621 304 610T292 596L217 575L238 595V507L223 522H352Q422 522 467 497T534 432T557 345Q557 291 530 242T451 160T325
128Q302 128 276 131T229 140L238 148V40L216 68L318 48Q318 33 315 23T300 0H59ZM238 187L232 200Q250 195 271 194T314 192Q356 192 383 212T424 263T438 330Q438 387 407 424T322 461Q296 461 273 459T230 450L238 459V187Z" />
<glyph unicode="&#xdf;" horiz-adv-x="696" d="M466 -12Q416 -12 377 2T316 41T293 96Q293 121 308 134T346 147Q358 147 370 143T391 130Q391 78 413 53T480 27Q517 27 540 46T564 99Q564 126 548 143T506 171T450 192Q417 205 384 221T330 263T308 332Q308 368
325 391T366 430T416 464T457 505T474 568Q474 622 445 653T365 684Q313 684 283 659T239 583T226 454V0H54Q54 39 70 45L127 67L116 52V406L134 389L45 390Q45 407 49 422T61 443L138 445L116 427Q116 522 149 590T241 696T377 734Q443 734 488 713T556 658T579
583Q579 538 561 512T517 469T463 440T418 411T400 366Q400 342 415 327T454 302T507 281Q542 268 578 251T638 207T662 133Q662 89 638 57T569 6T466 -12Z" />
<glyph unicode="&#xe0;" horiz-adv-x="508" d="M145 -12Q99 -12 69 16T38 90Q38 147 75 183T185 237L316 267L304 254V323Q304 375 288 398T237 422Q195 422 173 396T150 316Q144 310 133 306T109 302Q87 302 75 314T62 346Q62 380 87 406T155 447T253 462Q333
462 373 424T413 306V86Q413 68 420 60T441 51Q452 51 464 56T484 66L493 32Q474 12 445 0T390 -12Q352 -12 331 9T310 70H305Q276 32 233 10T145 -12ZM199 51Q230 51 261 68T314 114L305 91V230L320 228L214 202Q176 194 156 172T136 118Q136 87 153 69T199 51ZM325
512Q254 555 214 579T155 616T133 634T128 646Q128 659 135 672T154 694T178 703Q185 703 192 700T216 682T264 634T354 544Q354 530 345 521T325 512Z" />
<glyph unicode="&#xe1;" horiz-adv-x="508" d="M145 -12Q99 -12 69 16T38 90Q38 147 75 183T185 237L316 267L304 254V323Q304 375 288 398T237 422Q195 422 173 396T150 316Q144 310 133 306T109 302Q87 302 75 314T62 346Q62 380 87 406T155 447T253 462Q333
462 373 424T413 306V86Q413 68 420 60T441 51Q452 51 464 56T484 66L493 32Q474 12 445 0T390 -12Q352 -12 331 9T310 70H305Q276 32 233 10T145 -12ZM199 51Q230 51 261 68T314 114L305 91V230L320 228L214 202Q176 194 156 172T136 118Q136 87 153 69T199 51ZM156
512Q146 512 137 521T128 544Q185 601 217 634T266 681T289 699T303 703Q315 703 327 695T346 673T354 646Q354 640 350 635T327 617T268 580T156 512Z" />
<glyph unicode="&#xe2;" horiz-adv-x="508" d="M145 -12Q99 -12 69 16T38 90Q38 147 75 183T185 237L316 267L304 254V323Q304 375 288 398T237 422Q195 422 173 396T150 316Q144 310 133 306T109 302Q87 302 75 314T62 346Q62 380 87 406T155 447T253 462Q333
462 373 424T413 306V86Q413 68 420 60T441 51Q452 51 464 56T484 66L493 32Q474 12 445 0T390 -12Q352 -12 331 9T310 70H305Q276 32 233 10T145 -12ZM199 51Q230 51 261 68T314 114L305 91V230L320 228L214 202Q176 194 156 172T136 118Q136 87 153 69T199 51ZM240
708Q250 708 258 703T282 682T325 630T396 534Q396 523 389 516T368 508Q321 548 290 576T240 621Q221 604 190 576T111 508Q99 508 91 515T83 534Q128 595 155 630T197 681T221 703T240 708Z" />
<glyph unicode="&#xe3;" horiz-adv-x="508" d="M145 -12Q99 -12 69 16T38 90Q38 147 75 183T185 237L316 267L304 254V323Q304 375 288 398T237 422Q195 422 173 396T150 316Q144 310 133 306T109 302Q87 302 75 314T62 346Q62 380 87 406T155 447T253 462Q333
462 373 424T413 306V86Q413 68 420 60T441 51Q452 51 464 56T484 66L493 32Q474 12 445 0T390 -12Q352 -12 331 9T310 70H305Q276 32 233 10T145 -12ZM199 51Q230 51 261 68T314 114L305 91V230L320 228L214 202Q176 194 156 172T136 118Q136 87 153 69T199 51ZM165
593Q142 593 126 577T109 534Q89 534 80 539T70 554Q70 585 83 611T119 653T167 669Q194 669 218 658T266 635T314 623Q338 623 354 639T370 682Q391 682 399 678T408 662Q408 631 395 605T360 563T311 546Q285 546 261 558T214 581T165 593Z" />
<glyph unicode="&#xe4;" horiz-adv-x="508" d="M145 -12Q99 -12 69 16T38 90Q38 147 75 183T185 237L316 267L304 254V323Q304 375 288 398T237 422Q195 422 173 396T150 316Q144 310 133 306T109 302Q87 302 75 314T62 346Q62 380 87 406T155 447T253 462Q333
462 373 424T413 306V86Q413 68 420 60T441 51Q452 51 464 56T484 66L493 32Q474 12 445 0T390 -12Q352 -12 331 9T310 70H305Q276 32 233 10T145 -12ZM199 51Q230 51 261 68T314 114L305 91V230L320 228L214 202Q176 194 156 172T136 118Q136 87 153 69T199 51ZM338
548Q307 548 293 565T278 608Q278 625 287 638T310 659T338 667Q368 667 383 651T399 608Q399 592 390 579T367 557T338 548ZM141 548Q111 548 96 565T81 608Q81 625 89 638T112 659T141 667Q170 667 186 651T202 608Q202 592 193 579T171 557T141 548Z" />
<glyph unicode="&#xe5;" horiz-adv-x="508" d="M145 -12Q99 -12 69 16T38 90Q38 147 75 183T185 237L316 267L304 254V323Q304 375 288 398T237 422Q195 422 173 396T150 316Q144 310 133 306T109 302Q87 302 75 314T62 346Q62 380 87 406T155 447T253 462Q333
462 373 424T413 306V86Q413 68 420 60T441 51Q452 51 464 56T484 66L493 32Q474 12 445 0T390 -12Q352 -12 331 9T310 70H305Q276 32 233 10T145 -12ZM199 51Q230 51 261 68T314 114L305 91V230L320 228L214 202Q176 194 156 172T136 118Q136 87 153 69T199 51ZM233
491Q182 491 149 521T116 598Q116 635 133 663T178 708T244 725Q297 725 330 694T364 612Q364 559 328 525T233 491ZM241 530Q264 530 277 550T290 605Q290 641 276 663T238 686Q216 685 203 666T190 609Q190 572 203 551T241 530Z" />
<glyph unicode="&#xe6;" horiz-adv-x="752" d="M145 -12Q99 -12 69 16T38 91Q38 147 75 183T185 237L304 265L305 309Q307 372 290 397T237 422Q196 422 174 396T150 316Q144 309 133 306T109 302Q87 302 75 313T62 347Q62 380 87 406T155 447T253 462Q302 462
333 445T379 388Q407 422 446 442T528 462Q585 462 626 438T690 370T713 262Q713 245 706 239T687 233H416Q418 178 434 137T483 72T563 48Q601 48 635 65T700 116L715 84Q693 56 660 34T589 0T511 -12Q447 -12 400 15T328 93Q292 43 245 16T145 -12ZM200 51Q231
51 262 68T316 117Q307 140 305 168T302 223L214 202Q177 193 157 172T136 118Q136 86 153 69T200 51ZM414 275L613 281Q612 345 587 382T520 420Q478 420 450 383T414 275Z" />
<glyph unicode="&#xe7;" horiz-adv-x="484" d="M251 -12Q186 -12 137 15T62 92T35 209Q35 283 66 340T151 429T274 462Q323 462 363 447T426 405T449 346Q449 323 435 310T395 297Q384 297 374 300T354 309Q354 363 332 391T267 420Q211 420 181 373T151 238Q151
143 187 96T295 48Q333 48 369 63T439 106L454 75Q432 49 400 30T329 -1T251 -12ZM262 -262Q211 -262 179 -238T146 -177Q146 -162 153 -154T176 -145Q196 -145 212 -158Q212 -197 225 -216T270 -236Q296 -236 312 -219T329 -169Q329 -133 307 -117T253 -101Q242
-101 235 -101T223 -104L252 0H279L256 -86L243 -75Q254 -72 264 -71T284 -70Q312 -70 337 -80T377 -110T393 -162Q393 -185 379 -208T335 -247T262 -262Z" />
<glyph unicode="&#xe8;" horiz-adv-x="491" d="M249 -12Q185 -12 137 16T62 93T35 208Q35 280 66 337T151 428T269 462Q325 462 366 438T430 371T453 270Q453 248 446 241T426 233H113V274L363 281L351 267Q353 315 342 349T309 401T259 420Q212 420 182 373T152
242Q152 182 169 139T219 72T301 48Q339 48 373 65T438 116L453 84Q431 56 398 34T327 0T249 -12ZM343 512Q272 555 232 579T173 616T151 634T146 646Q146 659 153 672T172 694T196 703Q203 703 210 700T234 682T282 634T372 544Q372 530 363 521T343 512Z" />
<glyph unicode="&#xe9;" horiz-adv-x="491" d="M249 -12Q185 -12 137 16T62 93T35 208Q35 280 66 337T151 428T269 462Q325 462 366 438T430 371T453 270Q453 248 446 241T426 233H113V274L363 281L351 267Q353 315 342 349T309 401T259 420Q212 420 182 373T152
242Q152 182 169 139T219 72T301 48Q339 48 373 65T438 116L453 84Q431 56 398 34T327 0T249 -12ZM174 512Q164 512 155 521T146 544Q203 601 235 634T284 681T307 699T321 703Q333 703 345 695T364 673T372 646Q372 640 368 635T345 617T286 580T174 512Z" />
<glyph unicode="&#xea;" horiz-adv-x="491" d="M249 -12Q185 -12 137 16T62 93T35 208Q35 280 66 337T151 428T269 462Q325 462 366 438T430 371T453 270Q453 248 446 241T426 233H113V274L363 281L351 267Q353 315 342 349T309 401T259 420Q212 420 182 373T152
242Q152 182 169 139T219 72T301 48Q339 48 373 65T438 116L453 84Q431 56 398 34T327 0T249 -12ZM257 708Q267 708 275 703T299 682T342 630T413 534Q413 523 406 516T385 508Q338 548 307 576T257 621Q238 604 207 576T128 508Q116 508 108 515T100 534Q145 595
172 630T214 681T238 703T257 708Z" />
<glyph unicode="&#xeb;" horiz-adv-x="491" d="M249 -12Q185 -12 137 16T62 93T35 208Q35 280 66 337T151 428T269 462Q325 462 366 438T430 371T453 270Q453 248 446 241T426 233H113V274L363 281L351 267Q353 315 342 349T309 401T259 420Q212 420 182 373T152
242Q152 182 169 139T219 72T301 48Q339 48 373 65T438 116L453 84Q431 56 398 34T327 0T249 -12ZM355 548Q324 548 310 565T295 608Q295 625 304 638T327 659T355 667Q385 667 400 651T416 608Q416 592 407 579T384 557T355 548ZM158 548Q128 548 113 565T98 608Q98
625 106 638T129 659T158 667Q187 667 203 651T219 608Q219 592 210 579T188 557T158 548Z" />
<glyph unicode="&#xec;" horiz-adv-x="325" d="M44 0Q44 41 60 45L122 67L111 52V402L123 387L60 400Q44 403 44 444Q81 450 110 453T169 456Q221 456 221 395V55L209 68L293 48Q293 31 290 21T275 0H44ZM247 512Q176 555 136 579T77 616T55 634T50 646Q50 659
57 672T76 694T100 703Q107 703 114 700T138 682T186 634T276 544Q276 530 267 521T247 512Z" />
<glyph unicode="&#xed;" horiz-adv-x="325" d="M44 0Q44 41 60 45L122 67L111 52V402L123 387L60 400Q44 403 44 444Q81 450 110 453T169 456Q221 456 221 395V55L209 68L293 48Q293 31 290 21T275 0H44ZM78 512Q68 512 59 521T50 544Q107 601 139 634T188 681T211
699T225 703Q237 703 249 695T268 673T276 646Q276 640 272 635T249 617T190 580T78 512Z" />
<glyph unicode="&#xee;" horiz-adv-x="325" d="M44 0Q44 41 60 45L122 67L111 52V402L123 387L60 400Q44 403 44 444Q81 450 110 453T169 456Q221 456 221 395V55L209 68L293 48Q293 31 290 21T275 0H44ZM162 708Q172 708 180 703T204 682T247 630T318 534Q318
523 311 516T290 508Q243 548 212 576T162 621Q143 604 112 576T33 508Q21 508 13 515T5 534Q50 595 77 630T119 681T143 703T162 708Z" />
<glyph unicode="&#xef;" horiz-adv-x="325" d="M44 0Q44 41 60 45L122 67L111 52V402L123 387L60 400Q44 403 44 444Q81 450 110 453T169 456Q221 456 221 395V55L209 68L293 48Q293 31 290 21T275 0H44ZM260 548Q229 548 215 565T200 608Q200 625 209 638T232
659T260 667Q290 667 305 651T321 608Q321 592 312 579T289 557T260 548ZM63 548Q33 548 18 565T3 608Q3 625 11 638T34 659T63 667Q92 667 108 651T124 608Q124 592 115 579T93 557T63 548Z" />
<glyph unicode="&#xf0;" horiz-adv-x="548" d="M252 -12Q151 -12 93 40T35 181Q35 250 67 302T156 384T287 414Q323 414 354 402T409 368L393 360Q389 407 366 454T305 546T216 625T101 682Q101 699 108 706T137 714Q169 714 213 695T302 644T384 569Q444 507
478 432T512 272Q512 189 479 125T388 25T252 -12ZM266 29Q308 29 337 61T381 150T397 282Q397 298 396 312T393 340L433 287Q402 330 363 351T277 372Q217 372 184 327T151 200Q151 119 181 74T266 29ZM191 558L457 641Q466 633 469 622T472 597L206 514Q198 523
195 534T191 558Z" />
<glyph unicode="&#xf1;" horiz-adv-x="615" d="M44 0Q44 40 60 45L117 67L106 50V396L118 381L60 394Q44 398 44 438Q88 445 112 448T152 451Q183 451 196 437T209 391V362L204 365H216Q258 410 309 436T407 462Q523 462 523 304V55L511 69L585 48Q585 31 582
21T568 0H363Q363 40 379 45L424 61L414 44V294Q414 387 345 387Q317 387 291 376T244 349T209 314L216 332V49L204 64L268 48Q268 31 264 21T249 0H44ZM241 593Q218 593 202 577T185 534Q165 534 156 539T146 554Q146 585 159 611T195 653T243 669Q270 669 294
658T342 635T390 623Q414 623 430 639T446 682Q467 682 475 678T484 662Q484 631 471 605T436 563T387 546Q361 546 337 558T290 581T241 593Z" />
<glyph unicode="&#xf2;" horiz-adv-x="541" d="M247 -12Q148 -12 92 45T35 202Q35 277 67 336T157 428T290 462Q356 462 404 436T478 361T505 246Q505 171 472 113T381 21T247 -12ZM268 30Q326 30 357 80T389 223Q389 317 359 368T271 420Q214 420 183 370T151
225Q151 131 181 81T268 30ZM352 512Q281 555 241 579T182 616T160 634T155 646Q155 659 162 672T181 694T205 703Q212 703 219 700T243 682T291 634T381 544Q381 530 372 521T352 512Z" />
<glyph unicode="&#xf3;" horiz-adv-x="541" d="M247 -12Q148 -12 92 45T35 202Q35 277 67 336T157 428T290 462Q356 462 404 436T478 361T505 246Q505 171 472 113T381 21T247 -12ZM268 30Q326 30 357 80T389 223Q389 317 359 368T271 420Q214 420 183 370T151
225Q151 131 181 81T268 30ZM183 512Q173 512 164 521T155 544Q212 601 244 634T293 681T316 699T330 703Q342 703 354 695T373 673T381 646Q381 640 377 635T354 617T295 580T183 512Z" />
<glyph unicode="&#xf4;" horiz-adv-x="541" d="M247 -12Q148 -12 92 45T35 202Q35 277 67 336T157 428T290 462Q356 462 404 436T478 361T505 246Q505 171 472 113T381 21T247 -12ZM268 30Q326 30 357 80T389 223Q389 317 359 368T271 420Q214 420 183 370T151
225Q151 131 181 81T268 30ZM267 708Q277 708 285 703T309 682T352 630T423 534Q423 523 416 516T395 508Q348 548 317 576T267 621Q248 604 217 576T138 508Q126 508 118 515T110 534Q155 595 182 630T224 681T248 703T267 708Z" />
<glyph unicode="&#xf5;" horiz-adv-x="541" d="M247 -12Q148 -12 92 45T35 202Q35 277 67 336T157 428T290 462Q356 462 404 436T478 361T505 246Q505 171 472 113T381 21T247 -12ZM268 30Q326 30 357 80T389 223Q389 317 359 368T271 420Q214 420 183 370T151
225Q151 131 181 81T268 30ZM193 593Q170 593 154 577T137 534Q117 534 108 539T98 554Q98 585 111 611T147 653T195 669Q222 669 246 658T294 635T342 623Q366 623 382 639T398 682Q419 682 427 678T436 662Q436 631 423 605T388 563T339 546Q313 546 289 558T242
581T193 593Z" />
<glyph unicode="&#xf6;" horiz-adv-x="541" d="M247 -12Q148 -12 92 45T35 202Q35 277 67 336T157 428T290 462Q356 462 404 436T478 361T505 246Q505 171 472 113T381 21T247 -12ZM268 30Q326 30 357 80T389 223Q389 317 359 368T271 420Q214 420 183 370T151
225Q151 131 181 81T268 30ZM365 548Q334 548 320 565T305 608Q305 625 314 638T337 659T365 667Q395 667 410 651T426 608Q426 592 417 579T394 557T365 548ZM168 548Q138 548 123 565T108 608Q108 625 116 638T139 659T168 667Q197 667 213 651T229 608Q229 592
220 579T198 557T168 548Z" />
<glyph unicode="&#xf7;" horiz-adv-x="572" d="M286 393Q261 393 248 407T235 444Q235 466 250 480T286 495Q312 495 325 481T338 444Q338 423 323 408T286 393ZM285 85Q260 85 247 99T234 136Q234 157 249 172T285 187Q311 187 324 173T337 136Q337 114 322 100T285
85ZM82 258Q70 273 70 296Q70 302 71 309T74 322H486Q499 308 499 284Q499 278 498 272T495 258H82Z" />
<glyph unicode="&#xf8;" horiz-adv-x="541" d="M247 -12Q148 -12 92 45T35 202Q35 277 67 336T157 428T290 462Q356 462 404 436T478 361T505 246Q505 171 472 113T381 21T247 -12ZM268 30Q326 30 357 80T389 223Q389 317 359 368T271 420Q214 420 183 370T151
225Q151 131 181 81T268 30ZM150 -88Q139 -88 129 -85T112 -74L384 531Q395 531 405 528T422 517L150 -88Z" />
<glyph unicode="&#xf9;" horiz-adv-x="594" d="M208 -12Q152 -12 122 25T92 143V393L109 378L45 391Q38 392 34 403T30 435Q73 441 97 444T136 447Q169 447 185 433T201 388V152Q201 105 220 83T275 60Q301 60 323 69T362 93T391 124L380 102V393L397 378L333
391Q326 392 322 403T318 435Q362 441 386 444T424 447Q458 447 473 433T489 388V86Q489 68 496 60T517 51Q527 51 539 55T560 66L569 32Q549 12 520 0T464 -12Q429 -12 408 9T387 70H381Q303 -12 208 -12ZM371 512Q300 555 260 579T201 616T179 634T174 646Q174
659 181 672T200 694T224 703Q231 703 238 700T262 682T310 634T400 544Q400 530 391 521T371 512Z" />
<glyph unicode="&#xfa;" horiz-adv-x="594" d="M208 -12Q152 -12 122 25T92 143V393L109 378L45 391Q38 392 34 403T30 435Q73 441 97 444T136 447Q169 447 185 433T201 388V152Q201 105 220 83T275 60Q301 60 323 69T362 93T391 124L380 102V393L397 378L333
391Q326 392 322 403T318 435Q362 441 386 444T424 447Q458 447 473 433T489 388V86Q489 68 496 60T517 51Q527 51 539 55T560 66L569 32Q549 12 520 0T464 -12Q429 -12 408 9T387 70H381Q303 -12 208 -12ZM202 512Q192 512 183 521T174 544Q231 601 263 634T312
681T335 699T349 703Q361 703 373 695T392 673T400 646Q400 640 396 635T373 617T314 580T202 512Z" />
<glyph unicode="&#xfb;" horiz-adv-x="594" d="M208 -12Q152 -12 122 25T92 143V393L109 378L45 391Q38 392 34 403T30 435Q73 441 97 444T136 447Q169 447 185 433T201 388V152Q201 105 220 83T275 60Q301 60 323 69T362 93T391 124L380 102V393L397 378L333
391Q326 392 322 403T318 435Q362 441 386 444T424 447Q458 447 473 433T489 388V86Q489 68 496 60T517 51Q527 51 539 55T560 66L569 32Q549 12 520 0T464 -12Q429 -12 408 9T387 70H381Q303 -12 208 -12ZM285 708Q295 708 303 703T327 682T370 630T441 534Q441
523 434 516T413 508Q366 548 335 576T285 621Q266 604 235 576T156 508Q144 508 136 515T128 534Q173 595 200 630T242 681T266 703T285 708Z" />
<glyph unicode="&#xfc;" horiz-adv-x="594" d="M208 -12Q152 -12 122 25T92 143V393L109 378L45 391Q38 392 34 403T30 435Q73 441 97 444T136 447Q169 447 185 433T201 388V152Q201 105 220 83T275 60Q301 60 323 69T362 93T391 124L380 102V393L397 378L333
391Q326 392 322 403T318 435Q362 441 386 444T424 447Q458 447 473 433T489 388V86Q489 68 496 60T517 51Q527 51 539 55T560 66L569 32Q549 12 520 0T464 -12Q429 -12 408 9T387 70H381Q303 -12 208 -12ZM384 548Q353 548 339 565T324 608Q324 625 333 638T356
659T384 667Q414 667 429 651T445 608Q445 592 436 579T413 557T384 548ZM187 548Q157 548 142 565T127 608Q127 625 135 638T158 659T187 667Q216 667 232 651T248 608Q248 592 239 579T217 557T187 548Z" />
<glyph unicode="&#xfd;" horiz-adv-x="507" d="M70 -270Q39 -270 21 -256T3 -219Q3 -211 5 -201T14 -182H33Q80 -182 110 -173T162 -142T201 -84T239 9L235 -45L60 391L81 376L6 395Q6 412 10 422T24 443H231Q231 401 215 396L154 377L170 396L297 78H267L389
393L395 377L328 395Q328 417 331 427T346 443H504Q504 422 500 411T488 398L431 378L451 397L292 -15Q248 -131 190 -200T70 -270ZM188 512Q178 512 169 521T160 544Q217 601 249 634T298 681T321 699T335 703Q347 703 359 695T378 673T386 646Q386 640 382 635T359
617T300 580T188 512Z" />
<glyph unicode="&#xfe;" horiz-adv-x="581" d="M39 -252Q39 -213 55 -207L112 -186L101 -203V679L113 664L50 677Q34 681 34 721Q71 727 100 730T147 734Q178 734 191 722T204 681V363L201 366H211Q240 411 286 436T382 462Q432 462 468 436T525 362T545 249Q545
170 517 112T436 21T313 -12Q284 -12 255 -7T197 10L211 18V-198L199 -185L283 -204Q283 -221 280 -231T265 -252H39ZM295 37Q364 37 396 84T429 228Q429 312 404 352T328 393Q299 393 276 382T234 351T197 306L208 332V53L197 74Q227 55 248 46T295 37Z" />
<glyph unicode="&#xff;" horiz-adv-x="507" d="M70 -270Q39 -270 21 -256T3 -219Q3 -211 5 -201T14 -182H33Q80 -182 110 -173T162 -142T201 -84T239 9L235 -45L60 391L81 376L6 395Q6 412 10 422T24 443H231Q231 401 215 396L154 377L170 396L297 78H267L389
393L395 377L328 395Q328 417 331 427T346 443H504Q504 422 500 411T488 398L431 378L451 397L292 -15Q248 -131 190 -200T70 -270ZM370 548Q339 548 325 565T310 608Q310 625 319 638T342 659T370 667Q400 667 415 651T431 608Q431 592 422 579T399 557T370 548ZM173
548Q143 548 128 565T113 608Q113 625 121 638T144 659T173 667Q202 667 218 651T234 608Q234 592 225 579T203 557T173 548Z" />
<glyph unicode="&#x2013;" horiz-adv-x="651" d="M59 237Q55 243 54 253T52 273Q52 289 54 297H589Q594 291 595 282T597 262Q597 244 594 237H59Z" />
<glyph unicode="&#x2014;" horiz-adv-x="846" d="M77 237Q72 243 70 253T67 273Q67 289 70 297H765Q771 291 773 282T775 262Q775 244 772 237H77Z" />
<glyph unicode="&#x2018;" horiz-adv-x="216" d="M164 714Q170 712 175 705T181 684Q141 673 126 655T110 617Q110 598 119 587T142 568T164 549T174 517Q174 493 157 477T116 461Q80 461 60 489T39 560Q39 604 58 636T106 689T164 714Z" />
<glyph unicode="&#x2019;" horiz-adv-x="216" d="M52 461Q47 463 41 470T34 490Q74 503 90 520T106 557Q106 577 97 587T74 606T51 626T41 658Q41 682 59 698T100 714Q136 714 156 687T176 616Q176 572 158 539T111 486T52 461Z" />
<glyph unicode="&#x201a;" horiz-adv-x="215" d="M50 -145Q44 -142 38 -135T32 -114Q72 -102 88 -85T104 -48Q104 -28 94 -18T72 1T49 20T39 52Q39 77 56 92T97 108Q134 108 154 81T174 10Q174 -34 156 -67T109 -119T50 -145Z" />
<glyph unicode="&#x201c;" horiz-adv-x="400" d="M164 714Q170 712 175 705T181 684Q141 673 126 655T110 617Q110 598 119 587T142 568T164 549T174 517Q174 493 157 477T116 461Q80 461 60 489T39 560Q39 604 58 636T106 689T164 714ZM349 714Q355 712 360 705T366
684Q326 673 311 655T295 617Q295 598 304 587T327 568T349 549T359 517Q359 493 342 477T301 461Q265 461 245 489T224 560Q224 604 243 636T291 689T349 714Z" />
<glyph unicode="&#x201d;" horiz-adv-x="399" d="M52 461Q47 463 41 470T34 490Q74 503 90 520T106 557Q106 577 97 587T74 606T51 626T41 658Q41 682 59 698T100 714Q136 714 156 687T176 616Q176 572 158 539T111 486T52 461ZM236 461Q231 463 225 470T218 490Q258
503 274 520T290 557Q290 577 281 587T258 606T235 626T225 658Q225 682 243 698T284 714Q320 714 340 687T360 616Q360 572 342 539T295 486T236 461Z" />
<glyph unicode="&#x201e;" horiz-adv-x="399" d="M50 -145Q44 -142 38 -135T32 -114Q72 -102 88 -85T104 -48Q104 -28 94 -18T72 1T49 20T39 52Q39 77 56 92T97 108Q134 108 154 81T174 10Q174 -34 156 -67T109 -119T50 -145ZM234 -145Q228 -142 222 -135T216
-114Q256 -102 272 -85T288 -48Q288 -28 278 -18T256 1T233 20T223 52Q223 77 240 92T281 108Q318 108 338 81T358 10Q358 -34 340 -67T293 -119T234 -145Z" />
<glyph unicode="&#x2022;" horiz-adv-x="319" d="M159 183Q117 183 96 206T74 267Q74 290 86 309T118 339T159 351Q202 351 223 328T244 267Q244 231 219 207T159 183Z" />
<glyph unicode="&#x2039;" horiz-adv-x="273" d="M195 81L55 227Q41 241 35 249T29 267Q29 278 35 286T55 308L195 454Q208 451 217 442T227 419L97 244V290L227 116Q226 102 217 93T195 81Z" />
<glyph unicode="&#x203a;" horiz-adv-x="273" d="M78 81L218 227Q232 241 238 249T244 267Q244 278 238 286T218 308L78 454Q65 451 56 442T46 419L176 244V290L46 116Q47 102 56 93T78 81Z" />
</font>
</defs>
</svg>
