<?xml version="1.0" standalone="no"?>
<!DOCTYPE svg PUBLIC "-//W3C//DTD SVG 1.1//EN" "http://www.w3.org/Graphics/SVG/1.1/DTD/svg11.dtd">
<svg xmlns="http://www.w3.org/2000/svg">
<defs >
<font id="Petrona" horiz-adv-x="507" ><font-face
    font-family="Petrona ExtraLight"
    units-per-em="1000"
    panose-1="0 0 0 0 0 0 0 0 0 0"
    ascent="858"
    descent="-270"
    alphabetic="0" />
<glyph unicode=" " horiz-adv-x="228" />
<glyph unicode="!" horiz-adv-x="209" d="M96 166Q90 166 84 168Q94 240 102 311T117 442T130 545T138 607Q142 631 150 643T174 655Q190 655 194 643T195 607Q192 589 184 546T163 442T137 311T109 168Q104 166 96 166ZM67 -12Q52 -12 45 -4T37 16Q37 30 43 39T60
54T79 59Q95 59 102 52T110 31Q110 18 103 8T87 -7T67 -12Z" />
<glyph unicode="&quot;" horiz-adv-x="212" d="M99 507Q95 507 92 508T87 510Q90 551 91 580T93 629T96 659Q99 680 107 691T129 703Q145 703 148 692T149 659Q147 649 142 630T130 581T111 510Q107 507 99 507ZM205 507Q201 507 198 508T193 510Q196 551 197
580T199 629T202 659Q205 680 213 691T235 703Q251 703 254 692T255 659Q253 649 248 630T236 581T217 510Q213 507 205 507Z" />
<glyph unicode="#" horiz-adv-x="548" d="M166 24Q154 24 147 27T133 38L158 186L167 175H16Q13 178 12 183T10 194Q10 197 11 200T13 206H172L160 196L183 344L192 333H45Q42 336 41 341T39 352Q39 355 40 358T42 364H198L186 354L212 516Q225 516 232 513T245
502L221 354L211 364H368L357 354L383 516Q395 516 402 513T415 502L391 354L381 364H531Q535 362 536 357T538 345Q538 342 538 339T535 333H378L389 344L366 196L356 206H502Q506 204 507 198T509 187Q509 184 509 181T506 175H351L363 186L336 24Q324 24 317
27T304 38L328 186L337 175H181L193 186L166 24ZM195 196L186 206H342L331 196L353 344L362 333H208L218 344L195 196Z" />
<glyph unicode="$" horiz-adv-x="468" d="M187 -2Q162 -2 132 4T71 21T15 45L44 162Q49 171 53 174T63 177Q73 177 76 173L61 49L52 76Q76 54 117 40T193 26Q234 26 268 46T323 99T344 172Q344 199 334 220T298 262T227 310Q178 339 151 360T114 405T103 460Q103
512 127 554T194 620T289 645Q321 645 358 635T433 605L402 491Q395 491 389 495T382 506L389 598L397 571Q381 592 349 605T281 618Q243 618 212 601T164 554T146 484Q146 460 154 442T189 403T268 353Q340 313 367 277T394 192Q394 139 366 95T291 25T187 -2ZM170
-101Q165 -101 158 -99T146 -94L278 741Q284 741 291 740T302 736L170 -101Z" />
<glyph unicode="%" horiz-adv-x="895" d="M213 255Q157 255 125 292T92 394Q92 445 109 492T155 575T221 633T299 655Q357 655 389 618T421 517Q421 465 404 419T358 335T292 277T213 255ZM231 284Q268 284 298 314T346 396T365 510Q365 566 344 596T282 626Q245
626 215 596T166 514T148 401Q148 345 169 315T231 284ZM280 -12Q264 -12 257 -8T247 1L645 655Q661 655 668 652T678 642L280 -12ZM628 -7Q572 -7 540 30T507 132Q507 183 524 230T570 313T636 371T714 393Q772 393 804 356T836 255Q836 203 819 157T773 73T707
15T628 -7ZM646 22Q683 22 713 52T761 134T780 248Q780 304 759 334T697 364Q660 364 630 334T581 252T563 139Q563 83 584 53T646 22Z" />
<glyph unicode="&amp;" horiz-adv-x="641" d="M521 346Q497 241 451 161T338 34T187 -12Q119 -12 82 19T44 102Q44 176 103 232T262 313L259 305Q181 314 141 353T101 448Q101 505 133 552T220 627T341 655Q413 655 458 622T503 538Q503 510 493 496T464 481Q458
481 453 483T444 488Q446 493 447 504T449 528Q449 576 419 601T330 626Q281 626 242 604T180 543T157 454Q157 421 172 392T219 343T306 322L625 393Q630 385 630 374Q630 365 627 358T618 345L302 299Q241 290 195 264T122 198T96 111Q96 69 123 43T201 17Q273
17 330 56T429 168T492 338L521 346ZM540 349Q518 265 498 152T455 -110L457 -68L474 -139Q463 -144 450 -147T426 -150Q416 -150 412 -146T408 -134Q408 -121 413 -88T427 -10T445 86T465 186T482 275T493 338L540 349Z" />
<glyph unicode="&apos;" horiz-adv-x="106" d="M99 507Q95 507 92 508T87 510Q90 551 91 580T93 629T96 659Q99 680 107 691T129 703Q145 703 148 692T149 659Q147 649 142 630T130 581T111 510Q107 507 99 507Z" />
<glyph unicode="(" horiz-adv-x="294" d="M191 -268Q176 -268 153 -243T107 -169T70 -50T54 108Q54 226 79 329T144 517T225 661T304 753T358 785Q371 785 370 770Q315 725 268 651T185 485T131 290T111 88Q111 20 121 -44T152 -162T207 -253Q205 -268 191 -268Z" />
<glyph unicode=")" horiz-adv-x="295" d="M115 785Q130 785 153 760T199 686T236 567T252 409Q252 291 227 188T162 0T81 -144T2 -236T-52 -268Q-65 -268 -64 -253Q-9 -208 38 -134T121 32T175 227T195 429Q195 497 185 561T154 679T99 770Q101 785 115 785Z" />
<glyph unicode="*" horiz-adv-x="452" d="M168 387Q157 388 149 392T135 403T128 420L272 545V540L102 573Q102 585 108 601T125 625L277 552L274 548L278 727Q284 730 291 732T307 734Q316 734 322 733T333 727L285 549L281 552L454 627Q461 622 464 614T467
598Q467 593 466 586T463 575L282 539L284 544L390 421Q385 412 377 405T359 393T340 387L274 537H279L168 387Z" />
<glyph unicode="+" horiz-adv-x="532" d="M249 85Q245 85 239 86T230 93L294 495Q296 496 299 496T305 497Q310 497 315 495T324 488L260 86Q256 85 249 85ZM93 273Q87 280 88 294Q90 297 90 300T92 306H456Q459 302 460 297T461 285Q460 282 459 279T456 273H93Z" />
<glyph unicode="," horiz-adv-x="197" d="M6 -117Q3 -116 0 -113T-3 -99Q26 -90 43 -74T61 -38Q61 -27 56 -21T45 -9T33 3T28 20Q28 31 34 40T50 54T71 59Q93 59 103 43T114 7Q114 -23 98 -51T57 -97T6 -117Z" />
<glyph unicode="-" horiz-adv-x="363" d="M72 238Q69 243 69 249Q69 267 80 274T111 281Q148 281 176 280T240 279Q256 279 270 280T303 284Q304 283 304 279T305 272Q305 255 294 249T264 242Q227 242 199 243T135 244Q118 244 105 243T72 238Z" />
<glyph unicode="." horiz-adv-x="209" d="M67 -12Q51 -12 44 -4T37 16Q37 30 43 39T60 54T79 59Q95 59 102 52T110 32Q110 18 104 8T87 -7T67 -12Z" />
<glyph unicode="/" horiz-adv-x="421" d="M81 -200Q66 -200 58 -196T46 -184L341 734Q357 734 364 730T376 718L81 -200Z" />
<glyph unicode="0" horiz-adv-x="604" d="M247 -12Q162 -12 114 49T66 217Q66 303 92 381T164 521T268 619T389 655Q474 655 521 595T569 427Q569 342 543 263T471 122T368 24T247 -12ZM264 21Q316 21 361 51T439 136T492 263T511 419Q511 518 476 570T372 622Q320
622 275 592T196 508T143 381T124 226Q124 125 160 73T264 21Z" />
<glyph unicode="1" horiz-adv-x="333" d="M40 0Q42 12 46 18T59 27L147 45L131 27L223 610L238 599L100 570Q98 575 98 582Q98 591 102 598L263 655H279L180 28L170 47L267 28Q265 16 261 10T247 0H40Z" />
<glyph unicode="2" horiz-adv-x="486" d="M27 0Q16 7 16 22Q16 27 17 30T19 38Q92 91 160 149T283 268T368 394T400 525Q400 628 295 628Q223 628 159 571L176 608L149 496Q147 487 139 482T118 477L122 599Q220 655 300 655Q373 655 413 619T454 518Q454 454
419 389T324 261T193 139T47 29L49 46L366 26L338 15L388 151Q399 151 404 148T411 136L390 0H27Z" />
<glyph unicode="3" horiz-adv-x="497" d="M185 608L162 505Q159 492 152 485T131 477L136 597Q232 655 319 655Q389 655 429 623T469 534Q469 463 414 409T262 330L264 338Q346 323 387 285T429 187Q429 131 399 86T317 15T200 -12Q127 -12 81 22T35 112Q35 137
43 149T68 161Q74 161 79 160T88 154Q85 137 85 122Q85 71 116 44T208 17Q258 17 295 38T353 97T375 183Q375 234 342 266T240 316Q232 319 228 325T224 345Q323 372 369 416T416 527Q416 572 388 599T311 627Q275 627 236 611T157 561L185 608Z" />
<glyph unicode="4" horiz-adv-x="442" d="M173 0Q175 12 180 18T193 26L269 42L254 29L346 610L373 625L17 186L10 204H389L384 176H23Q12 176 5 183T-2 203L366 655Q401 655 396 621L303 28L291 42L367 26Q365 13 361 8T346 0H173Z" />
<glyph unicode="5" horiz-adv-x="496" d="M197 -12Q152 -12 116 4T58 49T36 110Q36 135 44 148T70 161Q76 161 81 160T89 154Q88 146 87 139T86 123Q86 73 116 45T202 17Q254 17 294 43T358 115T382 218Q382 281 348 318T256 356Q222 356 181 342T114 306Q109
309 107 313T104 323Q104 326 106 338T112 363L179 641H474L435 499Q418 502 413 506T409 519L420 630L452 616L179 602L196 621L152 341L129 342Q199 383 275 383Q351 383 394 343T438 233Q438 183 419 139T367 60T290 7T197 -12Z" />
<glyph unicode="6" horiz-adv-x="528" d="M232 -12Q153 -12 110 43T67 194Q67 277 89 358T154 507T255 614T390 655Q422 655 446 645T484 617T497 573Q497 552 489 541T464 530Q459 530 454 531T444 537Q446 542 446 546T447 555Q447 590 425 606T369 622Q319
622 279 597T210 528T162 429T133 314T123 196Q123 111 155 66T248 20Q302 20 340 49T398 125T418 226Q418 284 388 317T302 350Q272 350 236 337T168 303T118 257L121 291Q147 320 182 341T257 375T331 388Q397 388 434 350T472 244Q472 193 453 147T402 65T326
9T232 -12Z" />
<glyph unicode="7" horiz-adv-x="411" d="M160 -13Q148 -13 138 -4T127 32Q127 97 156 171T233 324T338 477T454 619L456 603L138 614L154 629L129 518Q127 507 119 502T98 496L104 641H470Q474 637 474 626Q474 613 454 584T402 514T335 422T268 311T216 186T196
53Q196 41 197 31T201 7Q196 -2 185 -7T160 -13Z" />
<glyph unicode="8" horiz-adv-x="508" d="M469 529Q469 479 445 440T387 371T317 323L294 331Q349 367 384 412T419 527Q419 578 390 601T314 624Q249 624 213 581T177 476Q177 436 196 411T246 369T311 338T375 305T425 260T444 189Q444 131 414 86T331 15T214
-12Q159 -12 121 6T63 55T43 126Q43 178 71 221T140 296T224 342L252 334Q205 319 171 289T118 218T99 132Q99 75 134 47T228 19Q300 19 343 63T387 175Q387 215 368 240T319 281T256 310T193 341T144 385T125 456Q125 512 152 557T224 628T326 655Q391 655 430
621T469 529Z" />
<glyph unicode="9" horiz-adv-x="533" d="M333 655Q412 655 455 601T498 449Q498 366 475 284T410 136T309 29T174 -12Q137 -12 109 0T65 35T49 89Q49 110 57 121T82 132Q87 132 92 130T102 125Q101 121 100 116T99 106Q99 63 126 43T195 22Q244 22 284 46T353
113T402 211T432 326T442 446Q442 532 410 577T316 623Q264 623 226 595T168 519T147 418Q147 360 177 327T262 293Q294 293 329 305T397 339T448 386L443 352Q418 324 383 302T309 268T234 255Q168 255 131 294T93 400Q93 450 111 496T162 578T239 634T333 655Z"
/>
<glyph unicode=":" horiz-adv-x="206" d="M67 -12Q51 -12 44 -4T37 16Q37 30 43 39T60 54T79 59Q95 59 102 52T110 32Q110 18 104 8T87 -7T67 -12ZM122 349Q106 349 99 357T92 377Q92 391 98 400T115 415T134 420Q150 420 157 413T165 393Q165 379 159 369T142
354T122 349Z" />
<glyph unicode=";" horiz-adv-x="200" d="M8 -117Q5 -116 2 -113T-1 -99Q28 -90 45 -74T63 -38Q63 -27 58 -21T47 -9T35 3T30 20Q30 31 36 40T52 54T73 59Q95 59 105 43T116 7Q116 -23 100 -51T59 -97T8 -117ZM118 349Q102 349 95 357T88 377Q88 391 94 400T111
415T130 420Q146 420 153 413T161 393Q161 379 155 369T138 354T118 349Z" />
<glyph unicode="&lt;" horiz-adv-x="532" d="M429 94L71 270Q66 276 69 289Q70 295 71 299T76 308L491 484Q492 480 492 476T492 466Q490 460 488 455T483 447L89 282L91 296L434 132Q436 129 436 123T435 112Q434 106 433 102T429 94Z" />
<glyph unicode="=" horiz-adv-x="532" d="M107 362Q101 369 102 383Q104 386 104 389T107 395H470Q476 387 475 374Q474 372 473 369T470 362H107ZM79 184Q73 191 74 205Q75 208 75 211T78 217H441Q448 208 446 196Q445 194 445 191T442 184H79Z" />
<glyph unicode="&gt;" horiz-adv-x="532" d="M63 94Q61 101 63 112Q63 117 65 123T70 132L464 296L462 282L120 447Q119 449 118 454T118 466Q120 471 121 475T124 484L483 308Q485 304 485 300T485 289Q484 284 482 279T477 270L63 94Z" />
<glyph unicode="?" horiz-adv-x="358" d="M131 166Q126 166 119 168L133 298Q236 335 288 391T340 523Q340 576 315 603T243 631Q190 631 155 598T109 503Q104 500 99 499T89 498Q76 498 70 504T63 526Q63 560 89 589T158 636T249 655Q316 655 353 622T390 526Q390
475 363 430T285 347T160 282L170 294L144 168Q141 167 138 167T131 166ZM107 -12Q92 -12 85 -4T77 16Q77 30 83 39T100 54T119 59Q135 59 142 52T150 31Q150 18 143 8T127 -7T107 -12Z" />
<glyph unicode="@" horiz-adv-x="857" d="M415 -166Q336 -166 270 -141T155 -68T81 45T55 193Q55 278 83 353T165 485T292 574T455 607Q532 607 596 583T708 514T782 409T808 274Q808 213 791 162T742 72T670 13T581 -9Q552 -9 536 4T519 54Q519 72 523 97T536
154L533 155Q501 81 453 36T347 -9Q291 -9 259 34T227 160Q227 219 244 273T291 369T365 435T462 460Q495 460 525 452T580 430T622 401L571 96Q570 87 569 76T567 55Q567 35 576 27T606 18Q640 18 668 37T718 91T750 170T762 265Q762 362 722 431T608 536T439
573Q331 573 255 528T138 404T98 220Q98 106 141 28T260 -91T434 -132Q479 -132 519 -122T592 -94T648 -55L660 -71Q644 -84 615 -107T538 -148T415 -166ZM366 28Q393 28 418 42T465 82T506 142T541 214L533 181L573 412L587 372Q566 400 533 417T463 434Q411 434
369 398T304 301T280 168Q280 98 303 63T366 28Z" />
<glyph unicode="A" horiz-adv-x="581" d="M-31 0Q-29 12 -25 18T-12 26L36 39L17 21L327 642Q329 647 333 650T341 654T350 655Q354 655 357 655T362 652L492 23L472 42L547 26Q546 14 542 9T527 0H370Q372 12 376 18T389 26L452 42L443 27L326 595L334 596L47
20L48 41L119 26Q116 14 112 9T97 0H-31ZM139 225L152 253H405L410 225H139Z" />
<glyph unicode="B" horiz-adv-x="561" d="M34 0Q36 21 53 26L115 42L101 29L193 612L205 599L131 616Q133 628 137 633T151 641H371Q443 641 482 610T522 526Q522 481 498 441T434 374T349 347L358 352Q399 351 430 332T480 282T498 211Q498 152 467 104T384 28T268
0H34ZM190 362H306Q380 362 425 402T470 510Q470 560 438 587T343 614Q318 614 289 610T229 596L240 606L150 37L142 47Q164 39 198 33T261 27Q349 27 395 79T442 215Q442 273 408 304T310 335H186L190 362Z" />
<glyph unicode="C" horiz-adv-x="612" d="M291 -12Q222 -12 173 18T96 105T68 236Q68 323 97 398T176 532T294 622T437 655Q482 655 522 643T595 607L558 479Q548 479 541 484T535 496L544 593L551 574Q533 593 494 605T412 617Q327 617 263 572T162 446T126 257Q126
148 175 86T310 23Q361 23 408 44T480 101L462 69L492 198Q508 198 515 194T522 182L507 64Q463 29 405 9T291 -12Z" />
<glyph unicode="D" horiz-adv-x="662" d="M34 0Q36 21 53 26L115 42L101 29L193 613L203 599L131 616Q134 637 151 641H398Q504 641 565 577T626 403Q626 324 597 251T519 122T407 33T277 0H34ZM269 29Q332 29 386 55T481 129T544 241T567 381Q567 494 513 554T360
614Q332 614 294 609T228 597L241 610L149 32L142 46Q155 42 177 38T224 32T269 29Z" />
<glyph unicode="E" horiz-adv-x="563" d="M34 0Q36 12 40 18T53 26L115 42L101 29L193 613L203 599L131 616Q133 628 137 633T152 641H525L507 532Q497 532 492 535T485 548L475 625L486 616L229 602L242 615L197 333L189 341H407L396 334L417 402Q425 402 431
400T440 389L419 260Q413 253 407 251T393 248L392 319L402 310H184L195 319L149 32L142 43L420 25L406 15L448 131Q460 131 464 127T470 117L452 0H34Z" />
<glyph unicode="F" d="M34 0Q36 12 40 18T53 26L115 42L101 29L193 613L203 599L131 616Q133 628 137 633T152 641H525L507 532Q497 532 492 535T485 548L475 625L486 616L229 602L241 615L196 323L188 331H402L391 324L412 392Q421 392 426 390T435 379L414 250Q409
243 402 241T388 238V309L397 300H182L193 309L149 28L139 42L223 26Q222 14 218 9T203 0H34Z" />
<glyph unicode="G" horiz-adv-x="630" d="M127 265Q127 150 177 87T316 23Q404 23 469 84L460 63L491 258L500 242L415 259Q417 271 421 276T436 284H586Q583 263 567 258L522 242L537 258L506 58Q455 24 402 6T295 -12Q189 -12 129 55T69 242Q69 326 98 401T178
533T296 622T438 655Q484 655 523 643T596 607L559 479Q549 479 542 484T536 496L545 593L552 574Q534 593 495 605T412 617Q329 617 265 572T164 448T127 265Z" />
<glyph unicode="H" horiz-adv-x="702" d="M34 0Q36 12 40 18T53 26L115 42L101 29L193 612L205 599L131 616Q133 628 137 633T152 641H311Q309 629 305 623T292 615L227 600L242 613L197 336L192 341H543L536 336L580 612L592 599L518 616Q520 628 524 633T538
641H699Q698 629 694 623T681 615L616 600L628 613L535 28L527 42L601 26Q600 14 596 9T581 0H421Q423 12 427 18T440 26L503 42L488 29L533 315L539 310H187L194 315L149 28L139 42L214 26Q212 14 208 9T193 0H34Z" />
<glyph unicode="I" horiz-adv-x="313" d="M34 0Q36 12 40 18T53 26L115 42L101 29L193 612L205 599L131 616Q133 628 137 633T152 641H311Q309 629 305 623T292 615L227 600L242 613L149 28L139 42L214 26Q212 14 208 9T193 0H34Z" />
<glyph unicode="J" horiz-adv-x="261" d="M-78 -185Q-113 -185 -113 -157Q-113 -152 -111 -146T-107 -135Q-50 -135 -13 -115T48 -50T82 70L168 613L180 599L106 616Q108 628 111 634T126 641H285Q284 629 280 623T267 615L203 600L216 613L149 181Q135 98 114
30T63 -86T-1 -159T-78 -185Z" />
<glyph unicode="K" horiz-adv-x="548" d="M470 -10Q448 -10 425 6T375 53T322 125T265 216T206 321L496 616V599L416 616Q418 628 421 633T435 641H597Q594 618 577 615L505 599L537 621L237 316L245 337Q269 291 300 241T365 145T436 64T508 13Q503 4 493 -3T470
-10ZM34 0Q36 12 40 18T53 26L115 42L101 29L193 612L205 599L131 616Q133 628 137 633T152 641H311Q309 629 305 623T292 615L227 600L242 613L149 28L139 42L214 26Q212 14 208 9T193 0H34Z" />
<glyph unicode="L" horiz-adv-x="529" d="M34 0Q36 12 40 18T53 26L115 42L101 29L193 612L205 599L131 616Q133 628 137 633T152 641H312Q311 629 306 623T293 615L229 600L242 613L149 32L142 43L414 25L401 15L436 131Q447 131 453 127T461 117L443 0H34Z" />
<glyph unicode="M" horiz-adv-x="848" d="M379 -3Q378 -3 376 -3T373 0L254 624H267L121 23L118 40L189 26Q187 14 183 9T168 0H23Q25 12 29 18T42 26L102 38L92 19L241 628V601L173 616Q175 628 179 633T193 641H301L410 61H391L685 641H809Q807 629 803 623T790
615L722 601L741 629L690 20L684 40L759 26Q757 14 753 9T738 0H565Q567 12 572 18T584 26L653 42L642 16L693 627H709L398 15Q393 5 388 1T379 -3Z" />
<glyph unicode="N" horiz-adv-x="693" d="M524 -1Q518 -1 515 -1T508 1L214 593L222 596L131 22L129 39L200 26Q199 14 195 9T180 0H34Q36 12 40 18T53 26L113 38L102 17L197 613L202 601L131 616Q133 628 137 633T152 641H247L540 53L523 50L613 619L616 602L544
616Q546 628 550 633T565 641H711Q710 629 705 623T692 615L631 603L641 619L545 15Q545 12 542 8T534 1T524 -1Z" />
<glyph unicode="O" horiz-adv-x="644" d="M269 -12Q205 -12 160 19T91 104T67 229Q67 309 95 385T170 522T279 619T409 655Q472 655 517 624T586 539T610 415Q610 336 583 260T509 122T400 24T269 -12ZM300 25Q356 25 402 56T481 141T533 261T551 398Q551 502
505 559T376 617Q319 617 273 585T194 499T143 379T125 243Q125 139 170 82T300 25Z" />
<glyph unicode="P" horiz-adv-x="538" d="M184 307Q194 303 221 299T278 295Q335 295 379 319T447 387T472 487Q472 549 438 581T336 613Q314 613 284 610T229 600L242 612L150 27L140 42L222 26Q219 4 202 0H34Q35 11 39 17T52 26L116 42L101 29L194 613L204
599L132 616Q134 628 138 633T152 641H367Q443 641 486 604T529 500Q529 435 495 383T404 299T275 267Q250 267 222 270T178 280L184 307Z" />
<glyph unicode="Q" horiz-adv-x="647" d="M483 -172Q455 -172 419 -152T344 -94T266 -4L281 16Q318 -20 366 -50T465 -97T559 -115Q546 -142 526 -157T483 -172ZM269 -12Q205 -12 160 19T91 104T67 229Q67 309 95 385T170 521T279 618T409 655Q472 655 517 624T586
539T610 415Q610 336 583 260T509 123T400 25T269 -12ZM300 25Q356 25 402 56T481 141T533 261T551 397Q551 502 505 559T376 617Q319 617 273 585T194 499T143 379T125 243Q125 139 170 82T300 25Z" />
<glyph unicode="R" horiz-adv-x="598" d="M497 -10Q475 -10 449 13T396 79T345 179T305 302L344 316Q354 272 375 226T423 136T482 61T545 14Q539 5 526 -2T497 -10ZM184 330Q194 326 221 322T278 318Q333 318 374 340T439 400T463 487Q463 549 431 581T336 613Q314
613 284 610T229 600L242 612L150 27L140 42L222 26Q219 4 202 0H34Q35 11 39 17T52 26L116 42L101 29L194 613L204 599L132 616Q134 628 138 633T152 641H367Q439 641 480 604T521 500Q521 441 488 394T400 319T275 291Q250 291 222 294T178 303L184 330Z" />
<glyph unicode="S" horiz-adv-x="493" d="M197 -12Q170 -12 138 -6T74 11T15 36L46 157Q54 172 66 172Q75 172 78 168L63 40L53 68Q70 54 95 42T149 23T203 16Q247 16 282 37T339 92T361 167Q361 194 351 215T313 259T237 309Q185 339 157 361T117 408T106 464Q106
519 132 562T202 630T302 655Q336 655 375 644T454 613L422 495Q413 495 407 500T401 511L407 606L416 578Q398 600 365 613T294 627Q252 627 220 610T170 561T152 489Q152 463 161 444T199 404T281 354Q330 327 359 302T400 249T413 188Q413 133 384 88T306 15T197
-12Z" />
<glyph unicode="T" horiz-adv-x="487" d="M110 0Q112 12 116 18T129 26L204 43L188 29L281 615L290 602L109 616L123 625L87 533Q83 524 77 521T60 517L80 641H539L519 517Q509 517 504 520T497 533L491 625L502 616L317 602L329 615L237 28L227 43L323 26Q320
14 317 9T303 0H110Z" />
<glyph unicode="U" horiz-adv-x="646" d="M290 -12Q182 -12 134 46T102 211L166 612L178 599L104 616Q106 628 110 633T125 641H284Q282 629 278 623T265 615L200 600L215 613L150 210Q142 163 147 127T172 66T226 29T309 17Q353 17 388 31T450 70T493 132T517
212L581 615L585 601L521 616Q523 628 526 633T540 641H671Q669 630 664 624T651 615L602 603L610 620L546 214Q537 161 517 119T465 47T390 3T290 -12Z" />
<glyph unicode="V" horiz-adv-x="566" d="M254 -12Q248 -12 240 -10T227 -6L124 614L140 599L67 616Q69 628 72 633T87 641H246Q244 629 239 623T226 615L162 600L171 614L271 13H260L542 617L543 602L479 616Q481 628 485 633T499 641H629Q627 629 623 623T610
615L560 603L573 621L289 13Q284 4 279 -2T267 -10T254 -12Z" />
<glyph unicode="W" horiz-adv-x="856" d="M246 -12Q241 -12 232 -10T219 -6L124 617L140 600L67 617Q69 629 72 634T86 642H246Q245 630 240 624T226 616L162 601L172 622L263 22H256L489 555H506L577 22H569L832 617V602L768 616Q770 628 773 633T787 641H918Q916
629 912 623T899 615L849 603L863 621L595 13Q591 4 585 -2T573 -10T559 -12Q554 -12 546 -10T533 -6L468 477H484L281 13Q277 4 271 -2T259 -10T246 -12Z" />
<glyph unicode="X" horiz-adv-x="541" d="M315 0Q317 12 322 18T334 26L403 42L395 22L139 612L157 599L79 616Q81 628 85 633T99 641H267Q265 629 260 623T247 615L179 600L189 617L444 27L425 42L503 26Q501 14 497 9T483 0H315ZM-28 0Q-26 12 -22 18T-10 26L49
38L27 23L275 341L295 324L64 28V40L131 26Q129 14 125 9T111 0H-28ZM305 320L283 336L499 618L498 602L431 616Q433 628 436 633T451 641H590Q588 629 584 623T571 615L512 603L536 623L305 320Z" />
<glyph unicode="Y" horiz-adv-x="540" d="M282 212L119 612L138 599L67 616Q69 628 72 633T86 641H251Q249 629 244 623T231 615L161 600L168 617L307 276L289 273L507 613L511 602L445 616Q447 628 450 633T465 641H602Q601 629 597 623T584 615L527 603L542
618L282 212ZM152 0Q154 12 159 18T171 26L242 42L226 20L266 275H314L274 25L264 42L348 26Q346 14 342 9T327 0H152Z" />
<glyph unicode="Z" horiz-adv-x="529" d="M46 0Q33 0 26 12T19 40L476 621L490 602L160 616L177 625L138 524Q134 514 128 511T112 507L132 641H499Q513 641 519 630T526 606L71 27L63 43L417 25L401 15L446 143Q456 143 460 139T466 129L446 0H46Z" />
<glyph unicode="[" horiz-adv-x="266" d="M-7 -258L157 778H339Q340 777 340 775T341 771Q341 766 340 759T335 749H185L206 765L46 -245L29 -228H177Q179 -231 180 -234T181 -241Q181 -245 180 -250T177 -258H-7Z" />
<glyph unicode="\" horiz-adv-x="421" d="M340 -200Q355 -200 363 -196T375 -184L80 734Q64 734 57 730T45 718L340 -200Z" />
<glyph unicode="]" horiz-adv-x="266" d="M285 778L121 -258H-61Q-62 -257 -62 -255T-63 -251Q-63 -246 -62 -239T-57 -229H93L72 -245L232 765L249 748H101Q99 751 98 754T97 761Q97 765 98 770T101 778H285Z" />
<glyph unicode="^" horiz-adv-x="555" d="M119 309Q109 309 105 312T97 322L317 698Q323 702 329 704T343 706Q349 706 355 704T366 698L466 322Q461 315 456 312T441 309L332 683H347L119 309Z" />
<glyph unicode="_" horiz-adv-x="691" d="M49 -164Q49 -158 50 -152T54 -140T58 -131H525Q525 -137 524 -143T521 -155T516 -164H49Z" />
<glyph unicode="`" horiz-adv-x="184" d="M237 517Q175 558 140 581T90 615T71 631T67 642Q67 650 71 657T81 669T95 674Q100 674 106 671T126 654T170 612T251 532Q251 524 247 521T237 517Z" />
<glyph unicode="a" horiz-adv-x="499" d="M172 -12Q112 -12 80 31T48 157Q48 222 67 277T120 374T201 439T302 462Q335 462 362 454T413 427L410 409Q397 418 372 428T307 438Q263 438 225 418T159 362T115 275T99 164Q99 129 108 96T137 41T191 19Q226 19 253
41T301 112T342 240T382 432L409 462Q420 462 427 460T434 450Q434 445 427 416T410 341T390 244T372 144T365 58Q365 43 370 37T387 30Q400 30 411 34T435 47L443 32Q418 7 398 -2T360 -12Q341 -12 330 3T319 47Q319 64 320 82T325 118H320Q298 55 260 22T172
-12Z" />
<glyph unicode="b" horiz-adv-x="492" d="M85 -12Q75 -12 68 -10T60 1Q60 4 66 32T82 109T104 217T129 343T153 474T171 598T181 701L191 685Q183 690 175 691T157 693Q142 693 127 689T97 677L90 693Q111 713 132 723T172 733Q198 733 208 722T219 689Q219 661
215 619T203 527T185 426T166 330H171Q194 394 233 428T322 462Q382 462 414 419T446 293Q446 228 427 173T374 76T293 11T192 -12Q159 -12 132 -4T81 23L84 41Q97 33 122 23T187 12Q231 12 268 32T334 89T378 176T394 287Q394 322 386 355T357 410T303 431Q268
431 241 409T193 339T152 211T112 18L85 -12Z" />
<glyph unicode="c" horiz-adv-x="425" d="M185 -12Q118 -12 82 30T46 152Q46 214 65 270T119 369T198 437T292 462Q343 462 371 437T400 369Q400 345 391 331T364 316Q356 316 345 320Q353 344 353 365Q353 440 284 440Q233 440 190 404T122 306T96 171Q96 99
126 60T209 20Q248 20 282 41T354 108L367 95Q292 -12 185 -12Z" />
<glyph unicode="d" horiz-adv-x="505" d="M172 -12Q112 -12 80 31T48 157Q48 221 67 276T120 374T201 439T302 462Q330 462 354 456T401 437L397 418Q380 427 358 432T309 438Q264 438 226 418T159 362T115 275T99 164Q99 129 107 96T136 41T191 19Q241 19 274
63T332 193T377 406T424 702L434 685Q426 690 418 691T400 693Q385 693 370 689T340 677L332 693Q353 713 374 723T415 733Q439 733 448 722T458 692Q458 672 452 626T435 517T413 387T390 254T373 138T366 57Q366 43 371 37T389 30Q401 30 412 34T437 47L444 32Q419
7 399 -2T360 -12Q342 -12 332 3T321 46Q321 65 322 83T327 118H322Q300 55 262 22T172 -12Z" />
<glyph unicode="e" horiz-adv-x="424" d="M183 -12Q112 -12 80 32T47 155Q47 210 65 265T116 364T196 435T296 462Q350 462 379 437T409 369Q409 321 371 281T259 218T80 195L82 213Q132 213 180 222T268 249T331 298T355 372Q355 404 335 422T281 440Q236 440
202 415T144 350T108 261T96 165Q96 99 125 60T206 20Q244 20 278 42T349 108L361 95Q323 42 280 15T183 -12Z" />
<glyph unicode="f" horiz-adv-x="290" d="M-39 -258Q-62 -258 -80 -247T-98 -216Q-98 -207 -96 -200T-89 -185Q-74 -198 -57 -205T-21 -212Q10 -212 29 -196T57 -154T70 -100L134 427Q146 529 168 597T226 699T311 734Q338 734 355 723T372 692Q372 685 370 678T363
662Q346 677 330 683T296 689Q263 689 242 671T209 624T194 559L141 109Q130 13 114 -56T77 -170T27 -236T-39 -258ZM282 405L53 412Q54 421 58 428T67 437L305 450Q305 443 303 433T295 415T282 405Z" />
<glyph unicode="g" horiz-adv-x="478" d="M142 -258Q106 -258 79 -243T36 -203T20 -143Q20 -129 24 -119T36 -103T56 -97Q60 -97 65 -98T75 -101Q73 -111 72 -121T71 -142Q71 -184 93 -210T161 -237Q216 -237 252 -204T308 -92T328 124H323Q301 58 262 23T172
-12Q112 -12 80 31T48 157Q48 222 67 277T120 374T201 439T302 462Q335 462 362 454T413 427L410 409Q397 418 372 428T307 438Q263 438 225 418T159 362T115 275T99 164Q99 129 108 96T137 41T191 19Q226 19 253 41T301 112T342 240T382 432L409 462Q420 462 427
460T434 450Q434 439 428 410T411 341T391 257T375 169T368 92Q368 -78 317 -168T142 -258Z" />
<glyph unicode="h" horiz-adv-x="523" d="M97 -12Q86 -12 82 -7T78 9Q78 25 85 68T104 172T128 304T152 447T172 586T181 701L191 685Q183 690 175 691T157 693Q142 693 127 689T97 677L90 693Q111 713 132 723T172 733Q198 733 208 722T219 689Q219 667 215 630T205
547T192 456T178 369H183Q221 412 264 437T342 462Q376 462 398 448T432 409T444 352Q444 310 435 269T415 190T394 118T385 56Q385 30 408 30Q421 30 431 34T455 47L463 32Q446 15 431 5T404 -8T380 -12Q361 -12 350 3T338 47Q338 90 353 138T384 239T399 350Q399
382 382 404T329 426Q292 426 256 406T177 344L126 24L125 71L143 -1Q132 -7 119 -9T97 -12Z" />
<glyph unicode="i" horiz-adv-x="247" d="M119 -12Q100 -12 89 3T78 48Q78 64 84 97T99 174T119 263T139 354T154 434L163 414Q156 418 148 419T130 421Q115 421 100 418T69 406L62 422Q83 442 104 452T145 462Q172 462 182 451T193 417Q193 403 186 370T169 293T149
204T132 119T125 57Q125 30 147 30Q160 30 170 34T194 47L202 32Q185 15 171 5T143 -8T119 -12ZM182 558Q167 558 159 566T150 588Q150 602 157 612T174 627T194 633Q211 633 219 625T227 603Q227 590 220 580T203 564T182 558Z" />
<glyph unicode="j" horiz-adv-x="246" d="M-35 -258Q-61 -258 -75 -247T-90 -217Q-90 -207 -88 -199T-81 -183Q-66 -201 -53 -209T-19 -217Q18 -217 41 -184T74 -93Q89 -16 101 63T122 215T137 345T143 435L156 414Q149 419 141 420T122 421Q106 421 91 418T62
406L55 422Q76 442 97 452T137 462Q164 462 175 451T186 417Q186 392 182 348T170 244T149 103Q128 -24 104 -103T47 -220T-35 -258ZM176 558Q161 558 153 566T144 588Q144 602 151 612T168 627T188 633Q205 633 213 625T221 603Q221 590 214 580T197 564T176 558Z"
/>
<glyph unicode="k" horiz-adv-x="466" d="M86 -12Q75 -12 71 -7T67 9Q67 27 75 75T97 189T124 330T152 477T173 609T181 701L191 685Q183 690 175 691T157 693Q142 693 127 689T97 677L90 693Q111 713 132 723T172 733Q198 733 208 722T219 689Q219 672 215 634T202
548T185 451T167 359H171Q196 416 236 439T323 462Q374 462 402 435T429 365Q430 326 406 292T341 234T246 198L259 208L314 86Q327 56 336 43T365 30Q380 30 393 35T423 51L431 35Q416 20 401 10T372 -6T345 -12Q320 -12 305 7T280 49L213 210Q260 215 298 235T359
288T382 361Q382 396 360 417T302 438Q270 438 245 424T200 378T166 299T139 183T116 29L114 71L132 -1Q122 -7 109 -9T86 -12Z" />
<glyph unicode="l" horiz-adv-x="250" d="M121 -12Q102 -12 91 3T80 48Q80 69 87 119T106 240T131 390T158 553T183 710L191 685Q183 690 175 691T157 693Q142 693 127 689T97 677L90 693Q111 713 132 723T172 733Q198 733 208 722T219 689Q219 673 213 630T196
527T173 400T151 267T133 146T126 57Q126 30 149 30Q162 30 173 34T197 47L205 32Q188 15 173 5T145 -8T121 -12Z" />
<glyph unicode="m" horiz-adv-x="774" d="M101 -12Q92 -12 89 -8T85 5Q85 19 91 54T107 139T126 242T142 347T149 438L163 414Q157 418 148 419T130 421Q115 421 100 418T69 406L62 422Q83 442 104 452T145 462Q170 462 180 451T190 417Q190 405 190 395T187 369H192Q228
412 268 437T341 462Q374 462 396 448T431 410T443 355Q443 317 434 273T412 183T391 98T381 24L380 67L397 -1Q387 -7 374 -9T350 -12Q340 -12 337 -8T333 5Q333 36 342 80T365 172T388 268T398 354Q398 383 381 404T328 426Q293 426 260 406T185 344L133 24V71L150
-1Q139 -7 126 -9T101 -12ZM630 -12Q612 -12 601 3T589 47Q589 90 604 138T634 239T650 350Q650 382 634 404T583 426Q548 426 515 405T439 344L435 369H446Q483 412 522 437T596 462Q628 462 650 448T683 409T695 352Q695 310 686 269T665 190T644 118T635 56Q635
30 658 30Q671 30 682 34T706 47L714 32Q697 15 682 5T655 -8T630 -12Z" />
<glyph unicode="n" horiz-adv-x="528" d="M101 -12Q92 -12 89 -8T85 5Q85 19 91 54T107 139T126 242T142 347T149 438L163 414Q157 418 148 419T130 421Q115 421 100 418T69 406L62 422Q83 442 104 452T145 462Q170 462 180 451T190 417Q190 405 190 395T187 369H192Q230
412 272 437T347 462Q380 462 402 448T437 409T449 352Q449 310 440 269T420 190T399 118T390 56Q390 30 413 30Q425 30 436 34T460 47L468 32Q451 15 436 5T409 -8T385 -12Q366 -12 355 3T343 47Q343 90 358 138T388 239T404 350Q404 382 387 404T335 426Q299
426 264 406T185 344L133 24V71L150 -1Q139 -7 126 -9T101 -12Z" />
<glyph unicode="o" horiz-adv-x="470" d="M177 -12Q115 -12 81 32T47 156Q47 218 66 273T118 370T195 437T287 462Q351 462 387 416T424 289Q424 229 404 175T349 79T270 13T177 -12ZM197 14Q245 14 285 50T349 148T373 280Q373 353 345 395T269 437Q235 437 204
416T149 356T112 269T98 165Q98 94 124 54T197 14Z" />
<glyph unicode="p" d="M61 -258Q49 -258 46 -253T42 -237Q42 -224 49 -181T69 -75T94 61T120 206T140 339T148 438L163 414Q157 418 147 419T130 421Q114 421 99 418T69 406L62 422Q83 442 104 452T146 462Q170 462 180 451T190 417Q190 396 189 378T181 333H187Q208
396 247 429T335 463Q397 463 429 420T461 294Q461 229 442 174T389 77T308 12T207 -11Q179 -11 155 -5T108 14L105 35Q127 26 149 19T200 12Q244 12 282 32T349 89T394 176T410 287Q410 322 401 355T372 409T317 431Q267 431 235 390T179 266T135 63T88 -217L89
-175L107 -247Q97 -252 84 -255T61 -258Z" />
<glyph unicode="q" horiz-adv-x="433" d="M293 -258Q282 -258 278 -253T274 -236Q274 -208 278 -166T290 -75T307 25T326 119H320Q298 55 260 22T172 -12Q112 -12 80 31T48 157Q48 222 67 277T120 374T201 439T302 462Q335 462 362 454T413 427L410 409Q397 418
372 428T307 438Q263 438 225 418T159 362T115 275T99 163Q99 129 108 96T137 41T191 19Q226 19 253 41T301 111T342 239T382 432L409 462Q420 462 427 460T434 450Q434 446 426 411T406 320T379 194T351 52T329 -88T319 -208L311 -142L339 -247Q329 -252 317 -255T293
-258Z" />
<glyph unicode="r" horiz-adv-x="364" d="M100 -12Q91 -12 88 -8T84 5Q84 19 90 54T106 139T125 242T141 347T148 438L163 414Q157 418 148 419T130 421Q115 421 100 418T69 406L62 422Q83 442 104 452T145 462Q170 462 180 451T190 417Q190 401 189 388T184 353H188Q206
398 239 430T316 463Q345 463 360 447T376 403Q376 377 362 361T324 346Q326 353 327 361T328 377Q328 396 320 408T290 421Q248 421 214 371T166 230L133 27L132 71L150 -1Q140 -6 127 -9T100 -12Z" />
<glyph unicode="s" horiz-adv-x="414" d="M174 -12Q138 -12 108 1T59 37T41 91Q41 107 49 125T77 143Q81 143 86 142T97 138Q95 130 93 120T91 98Q91 55 117 32T182 9Q233 9 261 32T291 93Q291 124 272 147T222 190T162 229T111 275T90 336Q90 372 110 400T166
445T245 462Q279 462 307 451T351 418T368 365Q368 348 361 332T334 315Q330 315 325 315T312 319Q315 327 317 337T319 359Q319 399 297 420T237 441Q191 441 163 418T135 358Q135 325 155 301T205 256T265 215T315 170T335 112Q335 77 314 49T257 5T174 -12Z"
/>
<glyph unicode="t" horiz-adv-x="312" d="M139 -12Q110 -12 95 8T79 65Q79 77 83 107T94 184T111 287T132 410T155 543Q167 555 178 561T205 569Q193 499 181 432T159 303T141 194T129 114T124 73Q124 27 161 27Q185 27 212 41T263 78L273 62Q255 41 232 24T185
-2T139 -12ZM290 405L61 412Q62 421 66 428T75 437L313 450Q313 443 311 433T303 415T290 405Z" />
<glyph unicode="u" horiz-adv-x="510" d="M185 -12Q149 -12 126 1T92 38T81 96Q81 138 91 185T114 278T138 364T148 434L157 414Q149 418 141 419T124 421Q108 421 93 418T63 406L56 422Q77 442 98 452T138 462Q167 462 178 450T190 415Q190 390 180 352T158 270T135
182T125 98Q125 60 142 42T196 24Q235 24 272 48T355 127V91H342Q308 44 266 16T185 -12ZM382 -12Q363 -12 352 3T341 48Q341 64 346 97T362 174T382 263T402 354T417 434L426 414Q419 418 411 419T392 421Q377 421 362 418T333 406L325 422Q346 442 367 452T407
462Q435 462 445 451T456 417Q456 403 449 370T432 293T412 204T394 119T387 57Q387 30 410 30Q422 30 433 34T457 47L465 32Q448 15 433 5T406 -8T382 -12Z" />
<glyph unicode="v" horiz-adv-x="389" d="M158 -12Q152 -12 147 -11T137 -6Q131 64 120 140T94 292T62 437L82 414Q69 421 48 421Q22 421 -6 409L-12 425Q6 443 26 452T63 462Q89 462 99 452T114 419Q127 359 138 291T160 152T178 12L164 8Q188 43 214 91T266
194T312 305T347 407L346 368L333 452Q341 458 352 460T374 462Q386 462 391 459T397 444Q397 435 390 413T370 359T341 291T308 219Q273 148 249 103T208 33T180 -2T158 -12Z" />
<glyph unicode="w" horiz-adv-x="606" d="M158 -12Q152 -12 147 -11T137 -6Q131 64 120 140T94 292T62 437L82 414Q69 421 48 421Q22 421 -6 409L-12 425Q6 443 26 452T63 462Q89 462 99 452T114 419Q127 359 138 291T160 152T178 12L164 8Q188 48 214 103T266
220T311 344T346 462Q360 462 368 459T376 444Q376 436 370 413T353 359T328 291T297 219Q266 148 244 103T206 33T179 -2T158 -12ZM396 -12Q391 -12 386 -11T376 -6Q368 71 355 156T324 324L352 399Q370 310 386 210T414 12L402 8Q424 43 448 91T494 194T536 304T567
407L566 368L550 452Q558 458 569 460T590 462Q602 462 608 459T614 444Q614 435 608 413T591 359T566 291T535 219Q503 148 481 103T444 33T417 -2T396 -12Z" />
<glyph unicode="x" horiz-adv-x="429" d="M304 -12Q281 -12 267 2T239 49Q227 82 213 128T182 227T149 335T112 437L136 414Q123 421 102 421Q75 421 49 409L42 425Q60 443 79 452T116 462Q141 462 151 452T168 419Q188 361 202 306T233 197T274 84Q287 52 297
41T325 30Q340 30 353 35T383 51L391 35Q376 20 361 10T332 -6T304 -12ZM52 -12Q35 -13 24 -6T13 13Q13 24 29 49T73 107T132 173T198 233L206 216Q145 158 107 101T52 -12ZM214 220L206 237Q262 284 298 323T364 409L358 377L344 452Q353 458 364 460T386 462Q397
462 402 459T408 444Q408 422 391 395T345 338T282 278T214 220Z" />
<glyph unicode="y" horiz-adv-x="380" d="M-33 -266Q-44 -266 -51 -261T-61 -244T-65 -215Q-18 -215 17 -200T80 -156T131 -81T179 27L168 -13Q150 101 125 218T66 437L82 414Q76 418 67 419T48 421Q21 421 -6 409L-12 425Q7 443 27 452T63 462Q90 462 101 452T121
415Q136 362 150 296T178 162T202 33L175 1Q207 63 237 131T293 271T338 411V368L324 452Q333 458 344 460T365 462Q377 462 382 459T388 444Q388 435 382 414T363 363T336 297T302 219Q250 103 206 13T122 -140T44 -234T-33 -266Z" />
<glyph unicode="z" horiz-adv-x="413" d="M10 -12Q3 -12 0 -7T-4 5Q67 80 129 151T243 299T341 462Q358 462 366 459T374 442Q374 432 359 407T319 345T261 266T192 182Q134 113 101 74T50 17T25 -7T10 -12ZM308 -12Q256 -12 205 -8T110 5T36 24L47 40Q114 33
182 29T325 40L304 14Q308 22 309 30T311 48Q311 64 307 79T296 108L312 115Q331 94 341 73T352 33Q352 8 341 -2T308 -12ZM85 405Q82 413 81 422T79 439Q79 447 82 450T94 453Q102 453 130 451T199 446T280 441T354 438L348 414L85 405Z" />
<glyph unicode="{" horiz-adv-x="344" d="M254 -270Q220 -270 192 -264T142 -245T107 -208T89 -152T91 -74Q96 -48 100 -26T109 17T117 57Q127 116 123 156T94 216T17 237Q13 241 13 247T13 259Q13 262 14 265T16 271Q69 271 101 292T152 355T180 452Q184 477
186 500T191 546T197 590Q203 631 217 662T253 716T301 752T357 772T419 778Q420 776 420 774T419 768Q418 762 416 757T410 748Q359 744 326 726T274 676T247 594Q243 565 241 529T230 445Q217 361 175 315T68 258Q68 256 68 255T69 253Q131 242 157 196T169 63Q162
14 154 -21T140 -86Q132 -135 139 -167T173 -216T253 -241Q256 -244 257 -249T256 -260Q256 -262 256 -264T254 -270Z" />
<glyph unicode="|" horiz-adv-x="209" d="M58 -200Q43 -200 34 -196T20 -185L166 734Q180 734 190 730T203 720L58 -200Z" />
<glyph unicode="}" horiz-adv-x="343" d="M100 778Q134 778 162 772T212 753T247 716T265 660T263 582Q258 556 254 534T245 491T237 451Q227 392 231 352T260 292T337 271Q341 267 341 261T341 249Q341 246 340 243T338 237Q285 237 253 216T202 153T174 56Q170
31 168 8T163 -38T157 -82Q151 -123 137 -154T101 -208T53 -244T-3 -264T-65 -270Q-66 -268 -66 -266T-65 -260Q-64 -254 -62 -249T-56 -240Q-5 -236 28 -218T80 -168T107 -86Q111 -57 113 -21T124 63Q137 147 179 193T286 250Q286 252 286 253T285 255Q223 266
197 312T185 445Q192 494 200 529T214 594Q222 643 215 675T181 724T101 749Q98 752 97 757T98 768Q98 770 98 772T100 778Z" />
<glyph unicode="~" horiz-adv-x="532" d="M98 237Q97 242 96 249T95 263Q98 276 109 292T142 321T194 334Q224 334 257 323T323 299T381 287Q403 287 422 301T455 341Q460 329 458 314Q457 304 449 292T429 269T399 251T359 244Q329 244 296 256T231 279T172 291Q150
291 131 277T98 237Z" />
<glyph unicode="&#xa0;" horiz-adv-x="228" />
<glyph unicode="&#xa1;" horiz-adv-x="209" d="M118 306Q124 306 130 304Q120 232 112 161T97 30T84 -73T76 -135Q72 -159 64 -171T40 -183Q24 -183 20 -171T19 -135Q22 -117 30 -74T51 30T77 161T105 304Q110 306 118 306ZM147 484Q162 484 169 476T177 456Q177
442 171 433T154 418T135 413Q119 413 112 420T104 441Q104 454 111 464T127 479T147 484Z" />
<glyph unicode="&#xa2;" horiz-adv-x="425" d="M185 -101Q179 -101 172 -99T160 -94L292 741Q299 741 305 740T317 736L185 -101ZM200 83Q133 83 97 125T61 247Q61 309 80 365T134 464T213 532T307 557Q358 557 386 532T415 464Q415 440 406 426T379 411Q371 411
360 415Q368 439 368 460Q368 535 299 535Q248 535 205 499T137 401T111 266Q111 194 141 155T224 115Q263 115 297 136T369 203L382 190Q307 83 200 83Z" />
<glyph unicode="&#xa3;" horiz-adv-x="485" d="M68 0Q57 8 57 24Q57 26 57 29T58 38Q120 87 152 127T184 218Q184 253 174 284T152 348T141 422Q141 484 167 534T242 615T350 645Q394 645 423 631T468 596T483 551Q483 538 475 529T451 519Q446 519 440 520T431
524Q432 528 432 532T433 540Q433 574 407 594T340 615Q292 615 257 593T202 533T183 448Q183 411 193 377T214 311T224 241Q224 202 211 169T167 103T87 31V41L375 22L359 6L395 136Q406 136 412 132T418 121L399 0H68ZM54 314Q54 320 56 328T60 341H359Q359 335
358 327T354 314H54Z" />
<glyph unicode="&#xa4;" horiz-adv-x="599" d="M273 77Q202 77 162 117T122 228Q122 281 141 329T192 416T265 477T351 499Q421 499 461 459T501 349Q501 295 483 246T432 159T359 99T273 77ZM43 -11Q37 -11 32 -8T23 0T18 10L161 155L180 129L43 -11ZM482 -11L390
129L418 155L514 10Q511 5 506 0T494 -9T482 -11ZM283 112Q334 112 372 139T432 216T454 328Q454 392 424 427T340 463Q290 463 252 436T192 360T170 247Q170 184 200 148T283 112ZM202 413L105 560Q108 566 114 571T126 579T137 582L230 440L202 413ZM466 422L447
448L576 582Q583 581 587 578T596 571T601 560L466 422Z" />
<glyph unicode="&#xa5;" horiz-adv-x="540" d="M152 252Q152 258 154 266T159 279H426Q426 273 425 265T420 252H152ZM133 132Q133 138 135 146T140 159H407Q407 153 406 145T401 132H133ZM282 212L119 612L138 599L67 616Q69 628 72 633T86 641H251Q249 629 244
623T231 615L161 600L168 617L307 276L289 273L507 613L511 602L445 616Q447 628 450 633T465 641H602Q601 629 597 623T584 615L527 603L542 618L282 212ZM152 0Q154 12 159 18T171 26L242 42L226 20L266 275H314L274 25L264 42L348 26Q346 14 342 9T327 0H152Z"
/>
<glyph unicode="&#xa6;" horiz-adv-x="209" d="M107 361L166 734Q180 734 189 730T202 720L146 361H107ZM57 -200Q43 -200 34 -196T20 -185L78 173H116L57 -200Z" />
<glyph unicode="&#xa7;" horiz-adv-x="433" d="M174 -12Q116 -12 82 15T48 80Q48 108 58 120T82 133Q97 133 106 119Q103 103 103 89Q103 9 184 9Q239 9 269 42T300 126Q300 154 287 171T252 200T205 223Q164 240 135 265T105 330Q105 375 135 409T214 456L231
436Q196 431 175 408T153 346Q153 311 177 294T236 262Q266 248 292 233T334 197T350 143Q350 97 326 62T262 8T174 -12ZM294 204L280 223Q306 239 318 266T331 320Q331 349 318 366T283 395T235 418Q195 435 166 459T137 525Q137 562 157 591T212 638T291 655Q340
655 373 634T407 582Q407 561 397 552T374 542Q364 542 355 548Q356 553 356 558T357 568Q357 600 338 617T283 634Q239 634 212 609T185 540Q185 506 209 489T267 456Q297 443 323 428T365 392T381 338Q381 292 357 258T294 204Z" />
<glyph unicode="&#xa8;" horiz-adv-x="236" d="M251 558Q235 558 227 566T219 588Q219 601 226 611T244 626T262 632Q279 632 287 624T296 603Q296 590 289 580T271 564T251 558ZM90 558Q75 558 67 566T58 588Q58 602 65 611T83 626T102 632Q119 632 127 624T135
603Q135 590 128 580T111 564T90 558Z" />
<glyph unicode="&#xa9;" horiz-adv-x="710" d="M342 140Q267 140 210 171T122 257T90 383Q90 454 117 516T192 627T302 702T436 730Q512 730 568 699T656 613T688 487Q688 416 661 353T587 242T476 167T342 140ZM346 159Q412 159 470 185T571 256T639 359T664
483Q664 550 635 601T554 682T432 711Q366 711 308 685T207 614T139 511T114 387Q114 320 143 269T224 188T346 159ZM371 239Q299 239 259 279T218 388Q218 437 236 483T288 565T364 622T456 643Q486 643 513 635T561 613L535 525Q527 525 521 528T513 536L517
597L521 582Q507 599 485 607T437 615Q397 615 365 597T309 548T274 479T262 398Q262 339 293 303T379 267Q406 267 432 277T479 311L467 291L488 372Q499 372 506 370T515 364L510 290Q478 264 443 252T371 239Z" />
<glyph unicode="&#xaa;" horiz-adv-x="396" d="M192 391Q147 391 122 423T97 516Q97 579 123 629T192 708T290 737Q315 737 336 732T375 710L371 695Q362 701 343 708T297 716Q264 716 236 701T188 660T157 598T146 522Q146 498 152 475T172 437T211 422Q244 422
267 449T309 541T347 714L373 737Q383 737 389 736T396 727Q396 723 391 702T379 649T364 581T351 511T346 450Q346 428 363 428Q372 428 380 431T397 440L405 425Q386 406 370 399T336 391Q323 391 314 401T304 431Q303 442 304 456T306 483H303Q285 438 256 415T192
391ZM323 271H81Q80 273 80 278Q80 290 84 301T95 318H338Q338 317 338 316T339 312Q339 300 335 289T323 271Z" />
<glyph unicode="&#xab;" horiz-adv-x="425" d="M167 85L63 228Q52 243 48 250T44 265Q44 273 51 282T75 307L225 450Q229 448 232 444T235 431L77 255L81 279L183 104Q182 97 178 92T167 85ZM334 85L230 228Q219 243 215 250T211 265Q211 273 218 282T242 307L392
450Q396 448 399 444T402 431L244 255L248 279L350 104Q349 97 345 92T334 85Z" />
<glyph unicode="&#xac;" horiz-adv-x="532" d="M421 124Q415 124 410 126T402 133L426 287L447 273H93Q87 280 88 294Q90 297 90 300T92 306H460L432 126Q426 124 421 124Z" />
<glyph unicode="&#xad;" horiz-adv-x="363" d="M72 238Q69 243 69 249Q69 267 80 274T111 281Q148 281 176 280T240 279Q256 279 270 280T303 284Q304 283 304 279T305 272Q305 255 294 249T264 242Q227 242 199 243T135 244Q118 244 105 243T72 238Z" />
<glyph unicode="&#xae;" horiz-adv-x="625" d="M316 242Q253 242 207 268T134 339T108 444Q108 503 130 554T192 645T284 707T394 730Q457 730 503 704T576 633T602 528Q602 470 580 418T518 327T427 265T316 242ZM320 257Q374 257 421 278T505 336T561 421T582
525Q582 581 558 624T491 691T390 715Q336 715 289 694T205 636T149 551T128 447Q128 391 152 348T219 281T320 257ZM460 325Q444 325 426 344T390 398T363 481L392 490Q400 460 415 429T451 374T493 339Q487 332 478 329T460 325ZM305 498Q310 496 323 494T350
492Q390 492 414 514T439 571Q439 630 378 630Q368 630 354 628T327 623L335 630L289 347L283 357L327 347Q326 340 324 336T315 331H217Q218 344 227 347L262 357L253 349L298 632L304 623L266 633Q267 640 269 644T277 649H398Q436 651 458 631T480 577Q480 533
443 502T351 471Q340 471 325 473T301 478L305 498Z" />
<glyph unicode="&#xaf;" horiz-adv-x="255" d="M301 572H58Q57 574 57 579Q57 591 61 602T73 619H315Q315 618 315 616T316 612Q316 601 312 590T301 572Z" />
<glyph unicode="&#xb0;" horiz-adv-x="401" d="M216 414Q166 414 138 441T110 520Q110 572 135 616T201 687T291 714Q342 714 370 686T398 606Q398 554 374 510T308 440T216 414ZM225 446Q262 446 292 466T341 522T360 597Q360 637 340 659T281 682Q246 682 216
661T167 606T148 530Q148 490 168 468T225 446Z" />
<glyph unicode="&#xb1;" horiz-adv-x="558" d="M281 286Q275 286 270 287T262 293L304 562Q306 562 309 562T316 563Q321 563 326 561T335 555L293 287Q290 286 287 286T281 286ZM115 412Q109 419 110 433Q112 436 112 439T114 445H478Q481 441 482 436T483 424Q482
422 481 419T478 412H115ZM79 184Q73 191 74 205Q75 208 75 211T78 217H441Q448 208 446 196Q445 194 445 191T442 184H79Z" />
<glyph unicode="&#xb2;" horiz-adv-x="339" d="M73 351Q66 354 64 360T63 379Q123 421 176 467T263 562T296 659Q296 716 236 716Q216 716 195 709T154 685L165 706L148 642Q147 636 140 633T123 630L124 709Q190 743 245 743Q295 743 323 720T351 659Q351 600
287 528T97 373L94 388L293 375L273 368L304 449Q314 449 319 447T326 438L313 351H73Z" />
<glyph unicode="&#xb3;" horiz-adv-x="342" d="M182 343Q129 343 100 362T71 407Q71 428 84 441T117 454Q111 412 129 392T184 371Q227 371 253 396T280 461Q280 488 262 505T200 537Q193 539 192 544T193 559Q248 575 276 600T304 661Q304 685 288 700T243 715Q220
715 196 705T150 676L174 709L156 643Q155 636 147 633T129 629L131 708Q165 726 195 734T254 743Q301 743 329 722T357 666Q357 625 325 595T232 548L234 554Q284 544 309 520T334 462Q334 411 291 377T182 343Z" />
<glyph unicode="&#xb4;" horiz-adv-x="184" d="M60 517Q56 517 53 520T49 532Q109 583 142 612T192 654T215 670T227 674Q233 674 238 670T247 660T251 646Q251 640 247 635T226 618T169 583T60 517Z" />
<glyph unicode="&#xb5;" horiz-adv-x="540" d="M60 -258Q50 -258 46 -254T41 -241Q41 -229 48 -185T68 -77T94 60T120 206T139 340T147 441L170 418Q161 423 152 424T134 426Q117 426 101 422T69 410L63 426Q84 444 105 453T144 462Q169 462 179 451T189 421Q189
402 185 368T172 281T153 156T125 -9T89 -218L91 -176L108 -247Q98 -252 84 -255T60 -258ZM198 -11Q169 -11 143 -4T95 20L104 48Q118 40 142 32T197 23Q235 23 267 34T325 66T370 116T401 180L405 156Q391 106 361 69T290 10T198 -11ZM414 -12Q395 -12 383 3T371
49Q371 66 379 108T401 207T427 325T451 438L466 418Q457 423 448 424T430 426Q413 426 398 422T368 411L361 427Q382 445 402 453T441 462Q469 462 479 451T490 421Q490 409 483 376T465 299T443 209T425 122T418 57Q418 29 440 29Q454 29 464 33T487 45L495 29Q478
12 464 3T437 -9T414 -12Z" />
<glyph unicode="&#xb6;" horiz-adv-x="421" d="M113 -47Q98 -47 90 -41T81 -24Q81 -17 83 -11T90 0Q143 0 175 19T227 83T259 210L318 576Q329 576 345 576T378 578T409 580T428 582Q433 576 433 564Q433 546 417 536T371 526Q361 526 350 527T329 531L361 562L319
291Q308 219 287 157T238 49T178 -22T113 -47ZM240 276Q92 276 92 398Q92 452 111 493T166 557T247 581Q258 581 270 580T288 577L240 276Z" />
<glyph unicode="&#xb7;" horiz-adv-x="227" d="M113 226Q97 226 89 235T80 258Q80 274 87 284T105 300T127 306Q144 306 153 298T162 274Q162 260 155 249T136 232T113 226Z" />
<glyph unicode="&#xb8;" horiz-adv-x="303" d="M31 -256Q-12 -256 -37 -236T-63 -185Q-63 -166 -56 -159T-39 -152Q-32 -152 -26 -154T-16 -160Q-22 -200 -8 -219T38 -238Q72 -238 96 -213T121 -151Q121 -120 99 -107T45 -93Q38 -93 33 -93T22 -95L62 0H83L50
-80L39 -76Q48 -74 56 -74T72 -73Q109 -73 136 -91T164 -145Q164 -175 147 -200T99 -241T31 -256Z" />
<glyph unicode="&#xb9;" horiz-adv-x="247" d="M73 351Q75 362 79 367T86 372L146 387L134 371L187 711L197 694L110 678Q109 680 109 683T108 688Q108 693 109 698T113 707L223 743H243L185 373L176 388L241 374Q239 364 236 359T226 351H73Z" />
<glyph unicode="&#xba;" horiz-adv-x="360" d="M191 391Q142 391 115 423T88 515Q88 575 113 625T181 706T274 737Q324 737 352 704T381 611Q381 553 355 503T285 422T191 391ZM207 413Q241 413 269 439T314 508T332 602Q332 655 312 686T258 717Q226 717 198
690T154 619T137 523Q137 472 155 443T207 413ZM306 271H63Q62 273 62 278Q62 290 66 301T77 318H320Q320 317 320 315T321 312Q321 300 317 289T306 271Z" />
<glyph unicode="&#xbb;" horiz-adv-x="440" d="M106 450L210 307Q221 292 225 285T229 270Q229 262 222 253T198 228L48 85Q44 87 41 91T38 104L196 280L192 256L90 431Q91 438 95 443T106 450ZM273 450L377 307Q388 292 392 285T396 270Q396 262 389 253T365
228L215 85Q211 87 208 91T205 104L363 280L359 256L257 431Q258 438 262 443T273 450Z" />
<glyph unicode="&#xbc;" horiz-adv-x="780" d="M79 263Q81 274 85 279T92 284L152 299L140 283L193 623L203 606L116 590Q115 592 115 595T114 600Q114 605 115 610T119 619L229 655H249L191 285L182 300L247 286Q245 276 242 271T232 263H79ZM219 -12Q203 -12
196 -8T186 1L584 655Q600 655 607 652T617 642L219 -12ZM588 0L643 348L662 352L456 115L451 129H695L692 102H444Q437 104 434 110T432 128L662 393Q680 393 688 385T694 362L638 0H588Z" />
<glyph unicode="&#xbd;" horiz-adv-x="780" d="M68 263Q70 274 74 279T81 284L141 299L129 283L182 623L192 606L105 590Q104 592 104 595T103 600Q103 605 104 610T108 619L218 655H238L180 285L171 300L236 286Q234 276 231 271T221 263H68ZM190 -12Q174 -12
167 -8T157 1L555 655Q571 655 578 652T588 642L190 -12ZM432 1Q425 4 423 10T422 29Q482 71 535 117T622 212T655 309Q655 366 595 366Q575 366 554 359T513 335L524 356L507 292Q506 286 499 283T482 280L483 359Q549 393 604 393Q654 393 682 370T710 309Q710
250 646 178T456 23L453 38L652 25L632 18L663 99Q673 99 678 97T685 88L672 1H432Z" />
<glyph unicode="&#xbe;" horiz-adv-x="780" d="M168 255Q115 255 86 274T57 319Q57 340 70 353T103 366Q97 324 115 304T170 283Q213 283 239 308T266 373Q266 400 248 417T186 449Q179 451 178 456T179 471Q234 487 262 512T290 573Q290 597 274 612T229 627Q206
627 182 617T136 588L160 621L142 555Q141 548 133 545T115 541L117 620Q151 638 181 646T240 655Q287 655 315 634T343 578Q343 537 311 507T218 460L220 466Q270 456 295 432T320 374Q320 323 277 289T168 255ZM249 -12Q233 -12 226 -8T216 1L614 655Q630 655
637 652T647 642L249 -12ZM618 0L673 348L692 352L486 115L481 129H725L722 102H474Q467 104 464 110T462 128L692 393Q710 393 718 385T724 362L668 0H618Z" />
<glyph unicode="&#xbf;" horiz-adv-x="359" d="M232 306Q237 306 244 304L230 174Q127 137 75 81T23 -51Q23 -104 48 -131T120 -159Q173 -159 208 -126T254 -31Q259 -28 264 -27T274 -26Q287 -26 293 -32T300 -54Q300 -88 274 -117T205 -164T114 -183Q47 -183
10 -150T-27 -54Q-27 -3 0 42T78 125T203 190L193 178L219 304Q222 305 225 305T232 306ZM256 484Q271 484 278 476T286 456Q286 442 280 433T263 418T244 413Q228 413 221 420T213 441Q213 454 220 464T236 479T256 484Z" />
<glyph unicode="&#xc0;" horiz-adv-x="581" d="M-31 0Q-29 12 -25 18T-12 26L36 39L17 21L327 642Q329 647 333 650T341 654T350 655Q354 655 357 655T362 652L492 23L472 42L547 26Q546 14 542 9T527 0H370Q372 12 376 18T389 26L452 42L443 27L326 595L334 596L47
20L48 41L119 26Q116 14 112 9T97 0H-31ZM139 225L152 253H405L410 225H139ZM438 736Q366 759 326 773T267 794T245 807T240 818Q240 828 246 839T265 851Q270 851 279 848T307 834T360 804T448 752Q448 747 446 742T438 736Z" />
<glyph unicode="&#xc1;" horiz-adv-x="581" d="M-31 0Q-29 12 -25 18T-12 26L36 39L17 21L327 642Q329 647 333 650T341 654T350 655Q354 655 357 655T362 652L492 23L472 42L547 26Q546 14 542 9T527 0H370Q372 12 376 18T389 26L452 42L443 27L326 595L334 596L47
20L48 41L119 26Q116 14 112 9T97 0H-31ZM139 225L152 253H405L410 225H139ZM274 736Q269 736 267 741T264 752Q319 784 352 803T405 833T433 847T447 851Q460 851 466 840T472 818Q472 812 468 807T446 795T387 773T274 736Z" />
<glyph unicode="&#xc2;" horiz-adv-x="581" d="M-31 0Q-29 12 -25 18T-12 26L36 39L17 21L327 642Q329 647 333 650T341 654T350 655Q354 655 357 655T362 652L492 23L472 42L547 26Q546 14 542 9T527 0H370Q372 12 376 18T389 26L452 42L443 27L326 595L334 596L47
20L48 41L119 26Q116 14 112 9T97 0H-31ZM139 225L152 253H405L410 225H139ZM381 872Q387 872 393 868T409 851T440 808T493 728Q493 723 489 719T478 715L364 826H384L234 715Q230 715 227 719T223 728Q273 779 302 808T346 850T368 868T381 872Z" />
<glyph unicode="&#xc3;" horiz-adv-x="581" d="M-31 0Q-29 12 -25 18T-12 26L36 39L17 21L327 642Q329 647 333 650T341 654T350 655Q354 655 357 655T362 652L492 23L472 42L547 26Q546 14 542 9T527 0H370Q372 12 376 18T389 26L452 42L443 27L326 595L334 596L47
20L48 41L119 26Q116 14 112 9T97 0H-31ZM139 225L152 253H405L410 225H139ZM235 739Q225 739 220 741T214 749Q214 772 228 792T265 827T311 841Q335 841 355 829T396 806T440 794Q462 794 479 809T501 848Q510 848 515 846T521 838Q521 816 507 795T470 760T424
746Q401 746 381 758T340 781T295 793Q273 793 256 778T235 739Z" />
<glyph unicode="&#xc4;" horiz-adv-x="581" d="M-31 0Q-29 12 -25 18T-12 26L36 39L17 21L327 642Q329 647 333 650T341 654T350 655Q354 655 357 655T362 652L492 23L472 42L547 26Q546 14 542 9T527 0H370Q372 12 376 18T389 26L452 42L443 27L326 595L334 596L47
20L48 41L119 26Q116 14 112 9T97 0H-31ZM139 225L152 253H405L410 225H139ZM442 756Q426 756 418 764T410 786Q410 799 417 809T435 824T453 830Q470 830 478 822T487 801Q487 788 480 778T462 762T442 756ZM281 756Q266 756 258 764T249 786Q249 800 256 809T274
824T293 830Q310 830 318 822T326 801Q326 788 319 778T302 762T281 756Z" />
<glyph unicode="&#xc5;" horiz-adv-x="581" d="M-31 0Q-29 12 -25 18T-12 26L36 39L17 21L327 642Q329 647 333 650T341 654T350 655Q354 655 357 655T362 652L492 23L472 42L547 26Q546 14 542 9T527 0H370Q372 12 376 18T389 26L452 42L443 27L326 595L334 596L47
20L48 41L119 26Q116 14 112 9T97 0H-31ZM139 225L152 253H405L410 225H139ZM347 696Q310 696 287 714T264 762Q264 792 281 816T325 856T384 871Q423 871 446 852T469 801Q469 772 453 748T409 710T347 696ZM358 717Q386 717 404 740T422 797Q422 820 410 835T376
850Q348 850 330 827T312 767Q312 744 323 731T358 717Z" />
<glyph unicode="&#xc6;" horiz-adv-x="863" d="M-43 0Q-41 11 -37 17T-24 27L30 45L12 30L511 617L516 595L427 613Q429 627 433 632T447 641H824L805 524Q797 524 791 527T782 540L771 627L782 618L539 600L552 613L504 315L497 322H681L669 316L695 377Q707
377 711 375T718 361L700 253Q694 242 689 240T673 237L666 300L676 292H491L501 300L460 35L452 46L715 23L702 14L747 137Q761 137 765 134T770 122L751 0H340Q342 11 347 18T359 27L428 46L411 29L453 299L460 290H259L280 300L52 31L55 45L139 28Q138 14 134
9T118 0H-43ZM286 308L282 319H465L455 311L497 576L500 561L286 308Z" />
<glyph unicode="&#xc7;" horiz-adv-x="612" d="M291 -12Q222 -12 173 18T96 105T68 236Q68 323 97 398T176 532T294 622T437 655Q482 655 522 643T595 607L558 479Q548 479 541 484T535 496L544 593L551 574Q533 593 494 605T412 617Q327 617 263 572T162 446T126
257Q126 148 175 86T310 23Q361 23 408 44T480 101L462 69L492 198Q508 198 515 194T522 182L507 64Q463 29 405 9T291 -12ZM258 -256Q215 -256 190 -236T164 -185Q164 -166 171 -159T188 -152Q195 -152 201 -154T211 -160Q205 -200 219 -219T265 -238Q299 -238
323 -213T348 -151Q348 -120 326 -107T272 -93Q265 -93 260 -93T249 -95L289 0H310L277 -80L266 -76Q275 -74 283 -74T299 -73Q336 -73 363 -91T391 -145Q391 -175 374 -200T326 -241T258 -256Z" />
<glyph unicode="&#xc8;" horiz-adv-x="563" d="M34 0Q36 12 40 18T53 26L115 42L101 29L193 613L203 599L131 616Q133 628 137 633T152 641H525L507 532Q497 532 492 535T485 548L475 625L486 616L229 602L242 615L197 333L189 341H407L396 334L417 402Q425 402
431 400T440 389L419 260Q413 253 407 251T393 248L392 319L402 310H184L195 319L149 32L142 43L420 25L406 15L448 131Q460 131 464 127T470 117L452 0H34ZM449 736Q377 759 337 773T278 794T256 807T251 818Q251 828 257 839T276 851Q281 851 290 848T318 834T371
804T459 752Q459 747 457 742T449 736Z" />
<glyph unicode="&#xc9;" horiz-adv-x="563" d="M34 0Q36 12 40 18T53 26L115 42L101 29L193 613L203 599L131 616Q133 628 137 633T152 641H525L507 532Q497 532 492 535T485 548L475 625L486 616L229 602L242 615L197 333L189 341H407L396 334L417 402Q425 402
431 400T440 389L419 260Q413 253 407 251T393 248L392 319L402 310H184L195 319L149 32L142 43L420 25L406 15L448 131Q460 131 464 127T470 117L452 0H34ZM285 736Q280 736 278 741T275 752Q330 784 363 803T416 833T444 847T458 851Q471 851 477 840T483 818Q483
812 479 807T457 795T398 773T285 736Z" />
<glyph unicode="&#xca;" horiz-adv-x="563" d="M34 0Q36 12 40 18T53 26L115 42L101 29L193 613L203 599L131 616Q133 628 137 633T152 641H525L507 532Q497 532 492 535T485 548L475 625L486 616L229 602L242 615L197 333L189 341H407L396 334L417 402Q425 402
431 400T440 389L419 260Q413 253 407 251T393 248L392 319L402 310H184L195 319L149 32L142 43L420 25L406 15L448 131Q460 131 464 127T470 117L452 0H34ZM391 872Q397 872 403 868T419 851T450 808T503 728Q503 723 499 719T488 715L374 826H394L244 715Q240
715 237 719T233 728Q283 779 312 808T356 850T378 868T391 872Z" />
<glyph unicode="&#xcb;" horiz-adv-x="563" d="M34 0Q36 12 40 18T53 26L115 42L101 29L193 613L203 599L131 616Q133 628 137 633T152 641H525L507 532Q497 532 492 535T485 548L475 625L486 616L229 602L242 615L197 333L189 341H407L396 334L417 402Q425 402
431 400T440 389L419 260Q413 253 407 251T393 248L392 319L402 310H184L195 319L149 32L142 43L420 25L406 15L448 131Q460 131 464 127T470 117L452 0H34ZM453 756Q437 756 429 764T421 786Q421 799 428 809T446 824T464 830Q481 830 489 822T498 801Q498 788
491 778T473 762T453 756ZM292 756Q277 756 269 764T260 786Q260 800 267 809T285 824T304 830Q321 830 329 822T337 801Q337 788 330 778T313 762T292 756Z" />
<glyph unicode="&#xcc;" horiz-adv-x="313" d="M34 0Q36 12 40 18T53 26L115 42L101 29L193 612L205 599L131 616Q133 628 137 633T152 641H311Q309 629 305 623T292 615L227 600L242 613L149 28L139 42L214 26Q212 14 208 9T193 0H34ZM315 736Q243 759 203 773T144
794T122 807T117 818Q117 828 123 839T142 851Q147 851 156 848T184 834T237 804T325 752Q325 747 323 742T315 736Z" />
<glyph unicode="&#xcd;" horiz-adv-x="313" d="M34 0Q36 12 40 18T53 26L115 42L101 29L193 612L205 599L131 616Q133 628 137 633T152 641H311Q309 629 305 623T292 615L227 600L242 613L149 28L139 42L214 26Q212 14 208 9T193 0H34ZM151 736Q146 736 144 741T141
752Q196 784 229 803T282 833T310 847T324 851Q337 851 343 840T349 818Q349 812 345 807T323 795T264 773T151 736Z" />
<glyph unicode="&#xce;" horiz-adv-x="313" d="M34 0Q36 12 40 18T53 26L115 42L101 29L193 612L205 599L131 616Q133 628 137 633T152 641H311Q309 629 305 623T292 615L227 600L242 613L149 28L139 42L214 26Q212 14 208 9T193 0H34ZM258 872Q264 872 270 868T286
851T317 808T370 728Q370 723 366 719T355 715L241 826H261L111 715Q107 715 104 719T100 728Q150 779 179 808T223 850T245 868T258 872Z" />
<glyph unicode="&#xcf;" horiz-adv-x="313" d="M34 0Q36 12 40 18T53 26L115 42L101 29L193 612L205 599L131 616Q133 628 137 633T152 641H311Q309 629 305 623T292 615L227 600L242 613L149 28L139 42L214 26Q212 14 208 9T193 0H34ZM319 756Q303 756 295 764T287
786Q287 799 294 809T312 824T330 830Q347 830 355 822T364 801Q364 788 357 778T339 762T319 756ZM158 756Q143 756 135 764T126 786Q126 800 133 809T151 824T170 830Q187 830 195 822T203 801Q203 788 196 778T179 762T158 756Z" />
<glyph unicode="&#xd0;" horiz-adv-x="662" d="M34 0Q36 21 53 26L115 42L101 29L193 613L203 599L131 616Q134 637 151 641H398Q504 641 565 577T626 403Q626 324 597 251T519 122T407 33T277 0H34ZM269 29Q332 29 386 55T481 129T544 241T567 381Q567 494 513
554T360 614Q332 614 294 609T228 597L241 610L149 32L142 46Q155 42 177 38T224 32T269 29ZM58 555Q58 565 59 573T62 588T68 598L314 595Q314 584 310 577T300 566L58 555Z" />
<glyph unicode="&#xd1;" horiz-adv-x="693" d="M524 -1Q518 -1 515 -1T508 1L214 593L222 596L131 22L129 39L200 26Q199 14 195 9T180 0H34Q36 12 40 18T53 26L113 38L102 17L197 613L202 601L131 616Q133 628 137 633T152 641H247L540 53L523 50L613 619L616
602L544 616Q546 628 550 633T565 641H711Q710 629 705 623T692 615L631 603L641 619L545 15Q545 12 542 8T534 1T524 -1ZM314 739Q304 739 299 741T293 749Q293 772 307 792T344 827T390 841Q414 841 434 829T475 806T519 794Q541 794 558 809T580 848Q589 848
594 846T600 838Q600 816 586 795T549 760T503 746Q480 746 460 758T419 781T374 793Q352 793 335 778T314 739Z" />
<glyph unicode="&#xd2;" horiz-adv-x="644" d="M269 -12Q205 -12 160 19T91 104T67 229Q67 309 95 385T170 522T279 619T409 655Q472 655 517 624T586 539T610 415Q610 336 583 260T509 122T400 24T269 -12ZM300 25Q356 25 402 56T481 141T533 261T551 398Q551
502 505 559T376 617Q319 617 273 585T194 499T143 379T125 243Q125 139 170 82T300 25ZM484 736Q412 759 372 773T313 794T291 807T286 818Q286 828 292 839T311 851Q316 851 325 848T353 834T406 804T494 752Q494 747 492 742T484 736Z" />
<glyph unicode="&#xd3;" horiz-adv-x="644" d="M269 -12Q205 -12 160 19T91 104T67 229Q67 309 95 385T170 522T279 619T409 655Q472 655 517 624T586 539T610 415Q610 336 583 260T509 122T400 24T269 -12ZM300 25Q356 25 402 56T481 141T533 261T551 398Q551
502 505 559T376 617Q319 617 273 585T194 499T143 379T125 243Q125 139 170 82T300 25ZM320 736Q315 736 313 741T310 752Q365 784 398 803T451 833T479 847T493 851Q506 851 512 840T518 818Q518 812 514 807T492 795T433 773T320 736Z" />
<glyph unicode="&#xd4;" horiz-adv-x="644" d="M269 -12Q205 -12 160 19T91 104T67 229Q67 309 95 385T170 522T279 619T409 655Q472 655 517 624T586 539T610 415Q610 336 583 260T509 122T400 24T269 -12ZM300 25Q356 25 402 56T481 141T533 261T551 398Q551
502 505 559T376 617Q319 617 273 585T194 499T143 379T125 243Q125 139 170 82T300 25ZM426 872Q432 872 438 868T454 851T485 808T538 728Q538 723 534 719T523 715L409 826H429L279 715Q275 715 272 719T268 728Q318 779 347 808T391 850T413 868T426 872Z"
/>
<glyph unicode="&#xd5;" horiz-adv-x="644" d="M269 -12Q205 -12 160 19T91 104T67 229Q67 309 95 385T170 522T279 619T409 655Q472 655 517 624T586 539T610 415Q610 336 583 260T509 122T400 24T269 -12ZM300 25Q356 25 402 56T481 141T533 261T551 398Q551
502 505 559T376 617Q319 617 273 585T194 499T143 379T125 243Q125 139 170 82T300 25ZM281 739Q271 739 266 741T260 749Q260 772 274 792T311 827T357 841Q381 841 401 829T442 806T486 794Q508 794 525 809T547 848Q556 848 561 846T567 838Q567 816 553 795T516
760T470 746Q447 746 427 758T386 781T341 793Q319 793 302 778T281 739Z" />
<glyph unicode="&#xd6;" horiz-adv-x="644" d="M269 -12Q205 -12 160 19T91 104T67 229Q67 309 95 385T170 522T279 619T409 655Q472 655 517 624T586 539T610 415Q610 336 583 260T509 122T400 24T269 -12ZM300 25Q356 25 402 56T481 141T533 261T551 398Q551
502 505 559T376 617Q319 617 273 585T194 499T143 379T125 243Q125 139 170 82T300 25ZM488 756Q472 756 464 764T456 786Q456 799 463 809T481 824T499 830Q516 830 524 822T533 801Q533 788 526 778T508 762T488 756ZM327 756Q312 756 304 764T295 786Q295 800
302 809T320 824T339 830Q356 830 364 822T372 801Q372 788 365 778T348 762T327 756Z" />
<glyph unicode="&#xd7;" horiz-adv-x="532" d="M373 138L268 272H279L138 142Q130 142 124 147T115 161L261 295L260 284L159 413Q161 423 167 430T181 441L285 307H274L415 436Q424 436 430 431T438 418L292 284L294 295L394 165Q393 156 387 149T373 138Z" />
<glyph unicode="&#xd8;" horiz-adv-x="644" d="M269 -12Q205 -12 160 19T91 104T67 229Q67 309 95 385T170 522T279 619T409 655Q472 655 517 624T586 539T610 415Q610 336 583 260T509 122T400 24T269 -12ZM300 25Q356 25 402 56T481 141T533 261T551 398Q551
502 505 559T376 617Q319 617 273 585T194 499T143 379T125 243Q125 139 170 82T300 25ZM161 -117Q150 -117 140 -114T124 -103L516 760Q527 760 537 757T553 745L161 -117Z" />
<glyph unicode="&#xd9;" horiz-adv-x="646" d="M290 -12Q182 -12 134 46T102 211L166 612L178 599L104 616Q106 628 110 633T125 641H284Q282 629 278 623T265 615L200 600L215 613L150 210Q142 163 147 127T172 66T226 29T309 17Q353 17 388 31T450 70T493 132T517
212L581 615L585 601L521 616Q523 628 526 633T540 641H671Q669 630 664 624T651 615L602 603L610 620L546 214Q537 161 517 119T465 47T390 3T290 -12ZM496 736Q424 759 384 773T325 794T303 807T298 818Q298 828 304 839T323 851Q328 851 337 848T365 834T418
804T506 752Q506 747 504 742T496 736Z" />
<glyph unicode="&#xda;" horiz-adv-x="646" d="M290 -12Q182 -12 134 46T102 211L166 612L178 599L104 616Q106 628 110 633T125 641H284Q282 629 278 623T265 615L200 600L215 613L150 210Q142 163 147 127T172 66T226 29T309 17Q353 17 388 31T450 70T493 132T517
212L581 615L585 601L521 616Q523 628 526 633T540 641H671Q669 630 664 624T651 615L602 603L610 620L546 214Q537 161 517 119T465 47T390 3T290 -12ZM333 736Q328 736 326 741T323 752Q378 784 411 803T464 833T492 847T506 851Q519 851 525 840T531 818Q531
812 527 807T505 795T446 773T333 736Z" />
<glyph unicode="&#xdb;" horiz-adv-x="646" d="M290 -12Q182 -12 134 46T102 211L166 612L178 599L104 616Q106 628 110 633T125 641H284Q282 629 278 623T265 615L200 600L215 613L150 210Q142 163 147 127T172 66T226 29T309 17Q353 17 388 31T450 70T493 132T517
212L581 615L585 601L521 616Q523 628 526 633T540 641H671Q669 630 664 624T651 615L602 603L610 620L546 214Q537 161 517 119T465 47T390 3T290 -12ZM439 872Q445 872 451 868T467 851T498 808T551 728Q551 723 547 719T536 715L422 826H442L292 715Q288 715
285 719T281 728Q331 779 360 808T404 850T426 868T439 872Z" />
<glyph unicode="&#xdc;" horiz-adv-x="646" d="M290 -12Q182 -12 134 46T102 211L166 612L178 599L104 616Q106 628 110 633T125 641H284Q282 629 278 623T265 615L200 600L215 613L150 210Q142 163 147 127T172 66T226 29T309 17Q353 17 388 31T450 70T493 132T517
212L581 615L585 601L521 616Q523 628 526 633T540 641H671Q669 630 664 624T651 615L602 603L610 620L546 214Q537 161 517 119T465 47T390 3T290 -12ZM500 756Q484 756 476 764T468 786Q468 799 475 809T493 824T511 830Q528 830 536 822T545 801Q545 788 538
778T520 762T500 756ZM339 756Q324 756 316 764T307 786Q307 800 314 809T332 824T351 830Q368 830 376 822T384 801Q384 788 377 778T360 762T339 756Z" />
<glyph unicode="&#xdd;" horiz-adv-x="540" d="M282 212L119 612L138 599L67 616Q69 628 72 633T86 641H251Q249 629 244 623T231 615L161 600L168 617L307 276L289 273L507 613L511 602L445 616Q447 628 450 633T465 641H602Q601 629 597 623T584 615L527 603L542
618L282 212ZM152 0Q154 12 159 18T171 26L242 42L226 20L266 275H314L274 25L264 42L348 26Q346 14 342 9T327 0H152ZM282 736Q277 736 275 741T272 752Q327 784 360 803T413 833T441 847T455 851Q468 851 474 840T480 818Q480 812 476 807T454 795T395 773T282
736Z" />
<glyph unicode="&#xde;" horiz-adv-x="534" d="M210 515H342Q418 515 461 477T504 374Q504 309 470 256T379 172T250 140Q225 140 197 144T153 153L159 180Q169 176 196 172T253 168Q311 168 354 192T422 261T447 361Q447 423 413 454T311 486Q289 486 259 483T204
473L210 515ZM34 0Q36 12 40 18T53 26L115 42L101 29L193 612L205 599L131 616Q133 628 137 633T152 641H311Q309 629 305 623T292 615L227 600L242 613L149 28L139 42L214 26Q212 14 208 9T193 0H34Z" />
<glyph unicode="&#xdf;" horiz-adv-x="640" d="M389 -12Q348 -12 319 2T275 41T265 94Q268 115 278 124T299 133Q315 133 321 119Q313 66 333 38T401 9Q446 9 477 34T515 105Q521 141 508 162T471 196T420 221Q393 233 369 248T331 288T323 347Q329 383 348 404T394
441T447 473T494 513T521 577Q531 637 503 671T420 705Q369 705 331 682T268 606T227 465L155 0H50Q54 21 69 26L124 42L112 30L174 422L182 413L99 414Q101 424 104 431T114 443L189 445L177 435Q192 534 229 600T320 700T433 734Q482 734 515 715T563 663T572
589Q565 543 544 517T496 476T441 448T395 417T370 364Q365 336 376 318T407 288T452 265Q475 255 497 244T536 217T561 179T564 124Q558 84 533 53T471 5T389 -12Z" />
<glyph unicode="&#xe0;" horiz-adv-x="499" d="M172 -12Q112 -12 80 31T48 157Q48 222 67 277T120 374T201 439T302 462Q335 462 362 454T413 427L410 409Q397 418 372 428T307 438Q263 438 225 418T159 362T115 275T99 164Q99 129 108 96T137 41T191 19Q226 19
253 41T301 112T342 240T382 432L409 462Q420 462 427 460T434 450Q434 445 427 416T410 341T390 244T372 144T365 58Q365 43 370 37T387 30Q400 30 411 34T435 47L443 32Q418 7 398 -2T360 -12Q341 -12 330 3T319 47Q319 64 320 82T325 118H320Q298 55 260 22T172
-12ZM393 517Q331 558 296 581T246 615T227 631T223 642Q223 650 227 657T237 669T251 674Q256 674 262 671T282 654T326 612T407 532Q407 524 403 521T393 517Z" />
<glyph unicode="&#xe1;" horiz-adv-x="499" d="M172 -12Q112 -12 80 31T48 157Q48 222 67 277T120 374T201 439T302 462Q335 462 362 454T413 427L410 409Q397 418 372 428T307 438Q263 438 225 418T159 362T115 275T99 164Q99 129 108 96T137 41T191 19Q226 19
253 41T301 112T342 240T382 432L409 462Q420 462 427 460T434 450Q434 445 427 416T410 341T390 244T372 144T365 58Q365 43 370 37T387 30Q400 30 411 34T435 47L443 32Q418 7 398 -2T360 -12Q341 -12 330 3T319 47Q319 64 320 82T325 118H320Q298 55 260 22T172
-12ZM223 517Q219 517 216 520T212 532Q272 583 305 612T355 654T378 670T390 674Q396 674 401 670T410 660T414 646Q414 640 410 635T389 618T332 583T223 517Z" />
<glyph unicode="&#xe2;" horiz-adv-x="499" d="M172 -12Q112 -12 80 31T48 157Q48 222 67 277T120 374T201 439T302 462Q335 462 362 454T413 427L410 409Q397 418 372 428T307 438Q263 438 225 418T159 362T115 275T99 164Q99 129 108 96T137 41T191 19Q226 19
253 41T301 112T342 240T382 432L409 462Q420 462 427 460T434 450Q434 445 427 416T410 341T390 244T372 144T365 58Q365 43 370 37T387 30Q400 30 411 34T435 47L443 32Q418 7 398 -2T360 -12Q341 -12 330 3T319 47Q319 64 320 82T325 118H320Q298 55 260 22T172
-12ZM328 677Q334 677 339 673T355 655T386 610T439 526Q439 521 434 517T423 513Q397 541 376 562T340 599T319 622Q310 614 299 606T273 585T235 556T179 513Q175 513 172 517T168 526Q219 579 248 610T293 655T315 673T328 677Z" />
<glyph unicode="&#xe3;" horiz-adv-x="499" d="M172 -12Q112 -12 80 31T48 157Q48 222 67 277T120 374T201 439T302 462Q335 462 362 454T413 427L410 409Q397 418 372 428T307 438Q263 438 225 418T159 362T115 275T99 164Q99 129 108 96T137 41T191 19Q226 19
253 41T301 112T342 240T382 432L409 462Q420 462 427 460T434 450Q434 445 427 416T410 341T390 244T372 144T365 58Q365 43 370 37T387 30Q400 30 411 34T435 47L443 32Q418 7 398 -2T360 -12Q341 -12 330 3T319 47Q319 64 320 82T325 118H320Q298 55 260 22T172
-12ZM182 541Q172 541 167 543T161 551Q161 574 175 594T212 629T258 643Q282 643 302 631T343 608T387 596Q409 596 426 611T448 650Q457 650 462 648T468 640Q468 618 454 597T417 562T371 548Q348 548 328 560T287 583T242 595Q220 595 203 580T182 541Z" />
<glyph unicode="&#xe4;" horiz-adv-x="499" d="M172 -12Q112 -12 80 31T48 157Q48 222 67 277T120 374T201 439T302 462Q335 462 362 454T413 427L410 409Q397 418 372 428T307 438Q263 438 225 418T159 362T115 275T99 164Q99 129 108 96T137 41T191 19Q226 19
253 41T301 112T342 240T382 432L409 462Q420 462 427 460T434 450Q434 445 427 416T410 341T390 244T372 144T365 58Q365 43 370 37T387 30Q400 30 411 34T435 47L443 32Q418 7 398 -2T360 -12Q341 -12 330 3T319 47Q319 64 320 82T325 118H320Q298 55 260 22T172
-12ZM388 558Q372 558 364 566T356 588Q356 601 363 611T381 626T399 632Q416 632 424 624T433 603Q433 590 426 580T408 564T388 558ZM227 558Q212 558 204 566T195 588Q195 602 202 611T220 626T239 632Q256 632 264 624T272 603Q272 590 265 580T248 564T227
558Z" />
<glyph unicode="&#xe5;" horiz-adv-x="499" d="M172 -12Q112 -12 80 31T48 157Q48 222 67 277T120 374T201 439T302 462Q335 462 362 454T413 427L410 409Q397 418 372 428T307 438Q263 438 225 418T159 362T115 275T99 164Q99 129 108 96T137 41T191 19Q226 19
253 41T301 112T342 240T382 432L409 462Q420 462 427 460T434 450Q434 445 427 416T410 341T390 244T372 144T365 58Q365 43 370 37T387 30Q400 30 411 34T435 47L443 32Q418 7 398 -2T360 -12Q341 -12 330 3T319 47Q319 64 320 82T325 118H320Q298 55 260 22T172
-12ZM292 498Q256 498 234 518T211 571Q211 603 228 631T273 676T333 693Q371 693 393 672T416 616Q416 583 400 556T355 514T292 498ZM304 519Q332 519 351 546T370 614Q370 640 358 656T324 672Q296 672 278 644T259 574Q259 549 270 534T304 519Z" />
<glyph unicode="&#xe6;" horiz-adv-x="711" d="M175 -12Q113 -12 81 31T48 157Q48 222 67 277T120 374T201 439T302 462Q335 462 362 454T413 427L410 409Q397 418 372 428T307 438Q263 438 225 418T159 362T115 275T99 164Q99 129 108 96T137 41T191 19Q226 19
253 41T301 112T342 240T382 432L409 462Q420 462 426 460T433 450L366 228Q344 151 317 97T255 16T175 -12ZM470 -12Q398 -12 366 32T333 155Q333 210 351 265T403 364T482 435T583 462Q637 462 666 437T695 369Q695 321 657 281T546 218T367 195L369 213Q419
213 467 222T555 249T618 298T642 372Q642 404 622 422T568 440Q523 440 489 415T431 350T395 261T383 165Q383 99 412 60T492 20Q530 20 564 42T635 108L648 95Q609 42 566 15T470 -12Z" />
<glyph unicode="&#xe7;" horiz-adv-x="425" d="M185 -12Q118 -12 82 30T46 152Q46 214 65 270T119 369T198 437T292 462Q343 462 371 437T400 369Q400 345 391 331T364 316Q356 316 345 320Q353 344 353 365Q353 440 284 440Q233 440 190 404T122 306T96 171Q96
99 126 60T209 20Q248 20 282 41T354 108L367 95Q292 -12 185 -12ZM130 -256Q87 -256 62 -236T36 -185Q36 -166 43 -159T60 -152Q67 -152 73 -154T83 -160Q77 -200 91 -219T137 -238Q171 -238 195 -213T220 -151Q220 -120 198 -107T144 -93Q137 -93 132 -93T121
-95L161 0H182L149 -80L138 -76Q147 -74 155 -74T171 -73Q208 -73 235 -91T263 -145Q263 -175 246 -200T198 -241T130 -256Z" />
<glyph unicode="&#xe8;" horiz-adv-x="424" d="M183 -12Q112 -12 80 32T47 155Q47 210 65 265T116 364T196 435T296 462Q350 462 379 437T409 369Q409 321 371 281T259 218T80 195L82 213Q132 213 180 222T268 249T331 298T355 372Q355 404 335 422T281 440Q236
440 202 415T144 350T108 261T96 165Q96 99 125 60T206 20Q244 20 278 42T349 108L361 95Q323 42 280 15T183 -12ZM387 517Q325 558 290 581T240 615T221 631T217 642Q217 650 221 657T231 669T245 674Q250 674 256 671T276 654T320 612T401 532Q401 524 397 521T387
517Z" />
<glyph unicode="&#xe9;" horiz-adv-x="424" d="M183 -12Q112 -12 80 32T47 155Q47 210 65 265T116 364T196 435T296 462Q350 462 379 437T409 369Q409 321 371 281T259 218T80 195L82 213Q132 213 180 222T268 249T331 298T355 372Q355 404 335 422T281 440Q236
440 202 415T144 350T108 261T96 165Q96 99 125 60T206 20Q244 20 278 42T349 108L361 95Q323 42 280 15T183 -12ZM218 517Q214 517 211 520T207 532Q267 583 300 612T350 654T373 670T385 674Q391 674 396 670T405 660T409 646Q409 640 405 635T384 618T327 583T218
517Z" />
<glyph unicode="&#xea;" horiz-adv-x="424" d="M183 -12Q112 -12 80 32T47 155Q47 210 65 265T116 364T196 435T296 462Q350 462 379 437T409 369Q409 321 371 281T259 218T80 195L82 213Q132 213 180 222T268 249T331 298T355 372Q355 404 335 422T281 440Q236
440 202 415T144 350T108 261T96 165Q96 99 125 60T206 20Q244 20 278 42T349 108L361 95Q323 42 280 15T183 -12ZM322 677Q328 677 333 673T349 655T380 610T433 526Q433 521 428 517T417 513Q391 541 370 562T334 599T313 622Q304 614 293 606T267 585T229 556T173
513Q169 513 166 517T162 526Q213 579 242 610T287 655T309 673T322 677Z" />
<glyph unicode="&#xeb;" horiz-adv-x="424" d="M183 -12Q112 -12 80 32T47 155Q47 210 65 265T116 364T196 435T296 462Q350 462 379 437T409 369Q409 321 371 281T259 218T80 195L82 213Q132 213 180 222T268 249T331 298T355 372Q355 404 335 422T281 440Q236
440 202 415T144 350T108 261T96 165Q96 99 125 60T206 20Q244 20 278 42T349 108L361 95Q323 42 280 15T183 -12ZM383 558Q367 558 359 566T351 588Q351 601 358 611T376 626T394 632Q411 632 419 624T428 603Q428 590 421 580T403 564T383 558ZM222 558Q207 558
199 566T190 588Q190 602 197 611T215 626T234 632Q251 632 259 624T267 603Q267 590 260 580T243 564T222 558Z" />
<glyph unicode="&#xec;" horiz-adv-x="248" d="M119 -12Q100 -12 89 3T78 48Q78 64 84 97T99 174T119 263T139 354T154 434L163 414Q156 418 148 419T130 421Q115 421 100 418T69 406L62 422Q83 442 104 452T145 462Q172 462 182 451T193 417Q193 403 186 370T169
293T149 204T132 119T125 57Q125 30 147 30Q160 30 170 34T194 47L202 32Q185 15 171 5T143 -8T119 -12ZM267 517Q205 558 170 581T120 615T101 631T97 642Q97 650 101 657T111 669T125 674Q130 674 136 671T156 654T200 612T281 532Q281 524 277 521T267 517Z"
/>
<glyph unicode="&#xed;" horiz-adv-x="248" d="M119 -12Q100 -12 89 3T78 48Q78 64 84 97T99 174T119 263T139 354T154 434L163 414Q156 418 148 419T130 421Q115 421 100 418T69 406L62 422Q83 442 104 452T145 462Q172 462 182 451T193 417Q193 403 186 370T169
293T149 204T132 119T125 57Q125 30 147 30Q160 30 170 34T194 47L202 32Q185 15 171 5T143 -8T119 -12ZM97 517Q93 517 90 520T86 532Q146 583 179 612T229 654T252 670T264 674Q270 674 275 670T284 660T288 646Q288 640 284 635T263 618T206 583T97 517Z" />
<glyph unicode="&#xee;" horiz-adv-x="248" d="M119 -12Q100 -12 89 3T78 48Q78 64 84 97T99 174T119 263T139 354T154 434L163 414Q156 418 148 419T130 421Q115 421 100 418T69 406L62 422Q83 442 104 452T145 462Q172 462 182 451T193 417Q193 403 186 370T169
293T149 204T132 119T125 57Q125 30 147 30Q160 30 170 34T194 47L202 32Q185 15 171 5T143 -8T119 -12ZM458 677Q464 677 469 673T485 655T516 610T569 526Q569 521 564 517T553 513Q527 541 506 562T470 599T449 622Q440 614 429 606T403 585T365 556T309 513Q305
513 302 517T298 526Q349 579 378 610T423 655T445 673T458 677Z" />
<glyph unicode="&#xef;" horiz-adv-x="248" d="M119 -12Q100 -12 89 3T78 48Q78 64 84 97T99 174T119 263T139 354T154 434L163 414Q156 418 148 419T130 421Q115 421 100 418T69 406L62 422Q83 442 104 452T145 462Q172 462 182 451T193 417Q193 403 186 370T169
293T149 204T132 119T125 57Q125 30 147 30Q160 30 170 34T194 47L202 32Q185 15 171 5T143 -8T119 -12ZM262 558Q246 558 238 566T230 588Q230 601 237 611T255 626T273 632Q290 632 298 624T307 603Q307 590 300 580T282 564T262 558ZM101 558Q86 558 78 566T69
588Q69 602 76 611T94 626T113 632Q130 632 138 624T146 603Q146 590 139 580T122 564T101 558Z" />
<glyph unicode="&#xf0;" horiz-adv-x="539" d="M215 -12Q135 -12 90 30T44 144Q44 200 65 250T123 337T209 397T313 419Q359 419 398 399T460 345L447 343Q450 417 417 487T324 613T181 699Q182 706 187 710T202 714Q223 714 257 698T328 656T391 600Q446 543
473 477T500 336Q500 263 478 200T417 89T327 15T215 -12ZM221 12Q263 12 299 31T363 86T411 171T440 280Q442 293 443 305T445 329L457 299Q437 342 394 367T297 393Q241 393 196 361T126 273T100 145Q100 82 131 47T221 12ZM277 553L487 619Q494 616 496 609T499
594L288 528Q283 532 280 539T277 553Z" />
<glyph unicode="&#xf1;" horiz-adv-x="528" d="M101 -12Q92 -12 89 -8T85 5Q85 19 91 54T107 139T126 242T142 347T149 438L163 414Q157 418 148 419T130 421Q115 421 100 418T69 406L62 422Q83 442 104 452T145 462Q170 462 180 451T190 417Q190 405 190 395T187
369H192Q230 412 272 437T347 462Q380 462 402 448T437 409T449 352Q449 310 440 269T420 190T399 118T390 56Q390 30 413 30Q425 30 436 34T460 47L468 32Q451 15 436 5T409 -8T385 -12Q366 -12 355 3T343 47Q343 90 358 138T388 239T404 350Q404 382 387 404T335
426Q299 426 264 406T185 344L133 24V71L150 -1Q139 -7 126 -9T101 -12ZM197 541Q187 541 182 543T176 551Q176 574 190 594T227 629T273 643Q297 643 317 631T358 608T402 596Q424 596 441 611T463 650Q472 650 477 648T483 640Q483 618 469 597T432 562T386 548Q363
548 343 560T302 583T257 595Q235 595 218 580T197 541Z" />
<glyph unicode="&#xf2;" horiz-adv-x="470" d="M177 -12Q115 -12 81 32T47 156Q47 218 66 273T118 370T195 437T287 462Q351 462 387 416T424 289Q424 229 404 175T349 79T270 13T177 -12ZM197 14Q245 14 285 50T349 148T373 280Q373 353 345 395T269 437Q235
437 204 416T149 356T112 269T98 165Q98 94 124 54T197 14ZM376 517Q314 558 279 581T229 615T210 631T206 642Q206 650 210 657T220 669T234 674Q239 674 245 671T265 654T309 612T390 532Q390 524 386 521T376 517Z" />
<glyph unicode="&#xf3;" horiz-adv-x="470" d="M177 -12Q115 -12 81 32T47 156Q47 218 66 273T118 370T195 437T287 462Q351 462 387 416T424 289Q424 229 404 175T349 79T270 13T177 -12ZM197 14Q245 14 285 50T349 148T373 280Q373 353 345 395T269 437Q235
437 204 416T149 356T112 269T98 165Q98 94 124 54T197 14ZM207 517Q203 517 200 520T196 532Q256 583 289 612T339 654T362 670T374 674Q380 674 385 670T394 660T398 646Q398 640 394 635T373 618T316 583T207 517Z" />
<glyph unicode="&#xf4;" horiz-adv-x="470" d="M177 -12Q115 -12 81 32T47 156Q47 218 66 273T118 370T195 437T287 462Q351 462 387 416T424 289Q424 229 404 175T349 79T270 13T177 -12ZM197 14Q245 14 285 50T349 148T373 280Q373 353 345 395T269 437Q235
437 204 416T149 356T112 269T98 165Q98 94 124 54T197 14ZM311 677Q317 677 322 673T338 655T369 610T422 526Q422 521 417 517T406 513Q380 541 359 562T323 599T302 622Q293 614 282 606T256 585T218 556T162 513Q158 513 155 517T151 526Q202 579 231 610T276
655T298 673T311 677Z" />
<glyph unicode="&#xf5;" horiz-adv-x="470" d="M177 -12Q115 -12 81 32T47 156Q47 218 66 273T118 370T195 437T287 462Q351 462 387 416T424 289Q424 229 404 175T349 79T270 13T177 -12ZM197 14Q245 14 285 50T349 148T373 280Q373 353 345 395T269 437Q235
437 204 416T149 356T112 269T98 165Q98 94 124 54T197 14ZM165 541Q155 541 150 543T144 551Q144 574 158 594T195 629T241 643Q265 643 285 631T326 608T370 596Q392 596 409 611T431 650Q440 650 445 648T451 640Q451 618 437 597T400 562T354 548Q331 548 311
560T270 583T225 595Q203 595 186 580T165 541Z" />
<glyph unicode="&#xf6;" horiz-adv-x="470" d="M177 -12Q115 -12 81 32T47 156Q47 218 66 273T118 370T195 437T287 462Q351 462 387 416T424 289Q424 229 404 175T349 79T270 13T177 -12ZM197 14Q245 14 285 50T349 148T373 280Q373 353 345 395T269 437Q235
437 204 416T149 356T112 269T98 165Q98 94 124 54T197 14ZM372 558Q356 558 348 566T340 588Q340 601 347 611T365 626T383 632Q400 632 408 624T417 603Q417 590 410 580T392 564T372 558ZM211 558Q196 558 188 566T179 588Q179 602 186 611T204 626T223 632Q240
632 248 624T256 603Q256 590 249 580T232 564T211 558Z" />
<glyph unicode="&#xf7;" horiz-adv-x="532" d="M295 401Q278 401 271 411T266 438Q268 454 280 464T306 474Q323 474 330 464T336 438Q333 423 321 412T295 401ZM247 106Q231 106 224 116T219 142Q220 158 233 168T258 179Q275 179 282 169T287 142Q286 127 274
117T247 106ZM93 273Q87 280 88 294Q90 297 90 300T92 306H456Q459 302 460 297T461 285Q460 282 459 279T456 273H93Z" />
<glyph unicode="&#xf8;" horiz-adv-x="470" d="M177 -12Q115 -12 81 32T47 156Q47 218 66 273T118 370T195 437T287 462Q351 462 387 416T424 289Q424 229 404 175T349 79T270 13T177 -12ZM197 14Q245 14 285 50T349 148T373 280Q373 353 345 395T269 437Q235
437 204 416T149 356T112 269T98 165Q98 94 124 54T197 14ZM111 -85Q103 -85 96 -83T85 -75L359 529Q367 529 374 527T385 519L111 -85Z" />
<glyph unicode="&#xf9;" horiz-adv-x="510" d="M185 -12Q149 -12 126 1T92 38T81 96Q81 138 91 185T114 278T138 364T148 434L157 414Q149 418 141 419T124 421Q108 421 93 418T63 406L56 422Q77 442 98 452T138 462Q167 462 178 450T190 415Q190 390 180 352T158
270T135 182T125 98Q125 60 142 42T196 24Q235 24 272 48T355 127V91H342Q308 44 266 16T185 -12ZM382 -12Q363 -12 352 3T341 48Q341 64 346 97T362 174T382 263T402 354T417 434L426 414Q419 418 411 419T392 421Q377 421 362 418T333 406L325 422Q346 442 367
452T407 462Q435 462 445 451T456 417Q456 403 449 370T432 293T412 204T394 119T387 57Q387 30 410 30Q422 30 433 34T457 47L465 32Q448 15 433 5T406 -8T382 -12ZM398 517Q336 558 301 581T251 615T232 631T228 642Q228 650 232 657T242 669T256 674Q261 674
267 671T287 654T331 612T412 532Q412 524 408 521T398 517Z" />
<glyph unicode="&#xfa;" horiz-adv-x="510" d="M185 -12Q149 -12 126 1T92 38T81 96Q81 138 91 185T114 278T138 364T148 434L157 414Q149 418 141 419T124 421Q108 421 93 418T63 406L56 422Q77 442 98 452T138 462Q167 462 178 450T190 415Q190 390 180 352T158
270T135 182T125 98Q125 60 142 42T196 24Q235 24 272 48T355 127V91H342Q308 44 266 16T185 -12ZM382 -12Q363 -12 352 3T341 48Q341 64 346 97T362 174T382 263T402 354T417 434L426 414Q419 418 411 419T392 421Q377 421 362 418T333 406L325 422Q346 442 367
452T407 462Q435 462 445 451T456 417Q456 403 449 370T432 293T412 204T394 119T387 57Q387 30 410 30Q422 30 433 34T457 47L465 32Q448 15 433 5T406 -8T382 -12ZM228 517Q224 517 221 520T217 532Q277 583 310 612T360 654T383 670T395 674Q401 674 406 670T415
660T419 646Q419 640 415 635T394 618T337 583T228 517Z" />
<glyph unicode="&#xfb;" horiz-adv-x="510" d="M185 -12Q149 -12 126 1T92 38T81 96Q81 138 91 185T114 278T138 364T148 434L157 414Q149 418 141 419T124 421Q108 421 93 418T63 406L56 422Q77 442 98 452T138 462Q167 462 178 450T190 415Q190 390 180 352T158
270T135 182T125 98Q125 60 142 42T196 24Q235 24 272 48T355 127V91H342Q308 44 266 16T185 -12ZM382 -12Q363 -12 352 3T341 48Q341 64 346 97T362 174T382 263T402 354T417 434L426 414Q419 418 411 419T392 421Q377 421 362 418T333 406L325 422Q346 442 367
452T407 462Q435 462 445 451T456 417Q456 403 449 370T432 293T412 204T394 119T387 57Q387 30 410 30Q422 30 433 34T457 47L465 32Q448 15 433 5T406 -8T382 -12ZM333 677Q339 677 344 673T360 655T391 610T444 526Q444 521 439 517T428 513Q402 541 381 562T345
599T324 622Q315 614 304 606T278 585T240 556T184 513Q180 513 177 517T173 526Q224 579 253 610T298 655T320 673T333 677Z" />
<glyph unicode="&#xfc;" horiz-adv-x="510" d="M185 -12Q149 -12 126 1T92 38T81 96Q81 138 91 185T114 278T138 364T148 434L157 414Q149 418 141 419T124 421Q108 421 93 418T63 406L56 422Q77 442 98 452T138 462Q167 462 178 450T190 415Q190 390 180 352T158
270T135 182T125 98Q125 60 142 42T196 24Q235 24 272 48T355 127V91H342Q308 44 266 16T185 -12ZM382 -12Q363 -12 352 3T341 48Q341 64 346 97T362 174T382 263T402 354T417 434L426 414Q419 418 411 419T392 421Q377 421 362 418T333 406L325 422Q346 442 367
452T407 462Q435 462 445 451T456 417Q456 403 449 370T432 293T412 204T394 119T387 57Q387 30 410 30Q422 30 433 34T457 47L465 32Q448 15 433 5T406 -8T382 -12ZM393 558Q377 558 369 566T361 588Q361 601 368 611T386 626T404 632Q421 632 429 624T438 603Q438
590 431 580T413 564T393 558ZM232 558Q217 558 209 566T200 588Q200 602 207 611T225 626T244 632Q261 632 269 624T277 603Q277 590 270 580T253 564T232 558Z" />
<glyph unicode="&#xfd;" horiz-adv-x="380" d="M-33 -266Q-44 -266 -51 -261T-61 -244T-65 -215Q-18 -215 17 -200T80 -156T131 -81T179 27L168 -13Q150 101 125 218T66 437L82 414Q76 418 67 419T48 421Q21 421 -6 409L-12 425Q7 443 27 452T63 462Q90 462 101
452T121 415Q136 362 150 296T178 162T202 33L175 1Q207 63 237 131T293 271T338 411V368L324 452Q333 458 344 460T365 462Q377 462 382 459T388 444Q388 435 382 414T363 363T336 297T302 219Q250 103 206 13T122 -140T44 -234T-33 -266ZM145 517Q141 517 138
520T134 532Q194 583 227 612T277 654T300 670T312 674Q318 674 323 670T332 660T336 646Q336 640 332 635T311 618T254 583T145 517Z" />
<glyph unicode="&#xfe;" horiz-adv-x="494" d="M47 -258Q36 -258 33 -253T29 -237Q29 -222 36 -176T57 -62T86 88T117 257T147 427T170 583T182 707L191 685Q185 689 175 691T157 693Q142 693 127 689T97 677L90 693Q111 714 132 723T173 733Q200 733 210 722T221
689Q221 667 218 633T208 558T195 476T181 397T169 333H174Q196 395 234 429T322 463Q383 463 415 420T448 294Q448 229 429 174T375 77T294 12T193 -11Q166 -11 142 -5T95 14L92 35Q113 26 136 19T187 12Q231 12 269 32T336 89T381 176T397 287Q397 322 388 355T359
409T304 431Q255 431 222 390T166 266T122 63T76 -217V-175L94 -247Q84 -252 71 -255T47 -258Z" />
<glyph unicode="&#xff;" horiz-adv-x="380" d="M-33 -266Q-44 -266 -51 -261T-61 -244T-65 -215Q-18 -215 17 -200T80 -156T131 -81T179 27L168 -13Q150 101 125 218T66 437L82 414Q76 418 67 419T48 421Q21 421 -6 409L-12 425Q7 443 27 452T63 462Q90 462 101
452T121 415Q136 362 150 296T178 162T202 33L175 1Q207 63 237 131T293 271T338 411V368L324 452Q333 458 344 460T365 462Q377 462 382 459T388 444Q388 435 382 414T363 363T336 297T302 219Q250 103 206 13T122 -140T44 -234T-33 -266ZM310 558Q294 558 286
566T278 588Q278 601 285 611T303 626T321 632Q338 632 346 624T355 603Q355 590 348 580T330 564T310 558ZM149 558Q134 558 126 566T117 588Q117 602 124 611T142 626T161 632Q178 632 186 624T194 603Q194 590 187 580T170 564T149 558Z" />
<glyph unicode="&#x2013;" horiz-adv-x="653" d="M71 251Q71 257 72 263T75 275T80 284H594Q594 278 593 272T589 260T584 251H71Z" />
<glyph unicode="&#x2014;" horiz-adv-x="848" d="M92 251Q92 257 93 263T98 275T104 284H772Q772 278 770 272T765 260T759 251H92Z" />
<glyph unicode="&#x2018;" horiz-adv-x="183" d="M208 687Q210 685 212 681T214 670Q182 659 168 642T154 606Q154 596 158 590T169 578T179 567T183 552Q183 540 178 531T163 517T143 511Q122 511 113 527T104 564Q104 594 119 621T159 667T208 687Z" />
<glyph unicode="&#x2019;" horiz-adv-x="183" d="M94 511Q92 513 90 517T88 528Q120 539 134 557T148 592Q148 602 144 608T133 620T123 631T118 646Q118 658 124 667T139 681T159 687Q180 687 189 671T198 634Q198 605 183 577T143 531T94 511Z" />
<glyph unicode="&#x201a;" horiz-adv-x="197" d="M6 -117Q3 -116 0 -113T-3 -99Q26 -90 43 -74T61 -38Q61 -27 56 -21T45 -9T33 3T28 20Q28 31 34 40T50 54T71 59Q93 59 103 43T114 7Q114 -23 98 -51T57 -97T6 -117Z" />
<glyph unicode="&#x201c;" horiz-adv-x="311" d="M208 687Q210 685 212 681T214 670Q182 659 168 642T154 606Q154 596 158 590T169 578T179 567T183 552Q183 540 178 531T163 517T143 511Q122 511 113 527T104 564Q104 594 119 621T159 667T208 687ZM337 687Q339
685 341 681T343 670Q311 659 297 642T283 606Q283 596 287 590T298 578T308 567T312 552Q312 540 307 531T292 517T272 511Q251 511 242 527T233 564Q233 594 248 621T288 667T337 687Z" />
<glyph unicode="&#x201d;" horiz-adv-x="311" d="M94 511Q92 513 90 517T88 528Q120 539 134 557T148 592Q148 602 144 608T133 620T123 631T118 646Q118 658 124 667T139 681T159 687Q180 687 189 671T198 634Q198 605 183 577T143 531T94 511ZM223 511Q221 513
219 517T217 528Q249 539 263 557T277 592Q277 602 273 608T262 620T252 631T247 646Q247 658 253 667T268 681T288 687Q309 687 318 671T327 634Q327 605 312 577T272 531T223 511Z" />
<glyph unicode="&#x201e;" horiz-adv-x="336" d="M6 -117Q3 -116 0 -113T-3 -99Q26 -90 43 -74T61 -38Q61 -27 56 -21T45 -9T33 3T28 20Q28 31 34 40T50 54T71 59Q93 59 103 43T114 7Q114 -23 98 -51T57 -97T6 -117ZM145 -117Q142 -116 139 -113T136 -99Q165 -90
182 -74T200 -38Q200 -27 195 -21T184 -9T172 3T167 20Q167 31 173 40T189 54T210 59Q232 59 242 43T253 7Q253 -23 237 -51T196 -97T145 -117Z" />
<glyph unicode="&#x2022;" horiz-adv-x="292" d="M141 192Q109 192 93 208T77 250Q77 275 89 296T122 329T165 342Q198 342 214 326T231 284Q231 259 218 238T185 205T141 192Z" />
<glyph unicode="&#x2039;" horiz-adv-x="258" d="M167 85L63 228Q52 243 48 250T44 265Q44 273 51 282T75 307L225 450Q229 448 232 444T235 431L77 255L81 279L183 104Q182 97 178 92T167 85Z" />
<glyph unicode="&#x203a;" horiz-adv-x="273" d="M106 450L210 307Q221 292 225 285T229 270Q229 262 222 253T198 228L48 85Q44 87 41 91T38 104L196 280L192 256L90 431Q91 438 95 443T106 450Z" />
</font>
</defs>
</svg>
