<?xml version="1.0" standalone="no"?>
<!DOCTYPE svg PUBLIC "-//W3C//DTD SVG 1.1//EN" "http://www.w3.org/Graphics/SVG/1.1/DTD/svg11.dtd">
<svg xmlns="http://www.w3.org/2000/svg">
<defs >
<font id="Petrona" horiz-adv-x="544" ><font-face
    font-family="Petrona Black"
    units-per-em="1000"
    panose-1="0 0 0 0 0 0 0 0 0 0"
    ascent="858"
    descent="-270"
    alphabetic="0" />
<glyph unicode=" " horiz-adv-x="211" />
<glyph unicode="!" horiz-adv-x="260" d="M129 218Q97 218 75 225Q69 284 63 338T51 437T42 516T39 567Q39 609 60 632T129 655Q177 655 198 632T219 567Q219 550 216 517T208 438T196 338T183 225Q161 218 129 218ZM130 -12Q85 -12 62 13T38 80Q38 119 66 145T130
172Q176 172 199 147T223 80Q223 40 195 14T130 -12Z" />
<glyph unicode="&quot;" horiz-adv-x="386" d="M97 410Q86 410 77 412T60 420Q47 493 38 539T25 615T20 666Q20 701 36 728T97 755Q143 755 158 728T173 666Q173 645 170 615T158 539T134 420Q119 410 97 410ZM290 410Q279 410 270 412T253 420Q240 493 231 539T218
615T213 666Q213 701 229 728T290 755Q336 755 351 728T366 666Q366 645 363 615T351 539T327 420Q312 410 290 410Z" />
<glyph unicode="#" horiz-adv-x="550" d="M184 14Q117 14 93 35L118 178L161 144H24Q16 152 13 167T10 196Q10 210 11 219T14 235H169L122 201L143 336L186 302H53Q45 310 42 325T39 354Q39 368 40 377T43 393H195L148 359L176 523Q243 523 267 502L242 359L219
393H365L338 359L366 523Q433 523 457 502L432 359L389 393H525Q533 385 536 369T540 336Q540 326 539 317T536 302H381L428 336L407 201L364 235H496Q504 227 507 212T511 182Q511 169 510 158T507 144H355L402 178L374 14Q307 14 283 35L308 178L331 144H185L212
178L184 14ZM214 201L197 230H342L314 201L335 336L353 307H208L235 336L214 201Z" />
<glyph unicode="$" horiz-adv-x="555" d="M280 -2Q240 -2 196 5T113 26T44 54L77 230Q85 235 99 238T127 242Q146 242 154 238L167 111L143 144Q169 119 202 105T272 90Q308 90 331 107T355 151Q355 171 346 185T312 215T236 253Q176 282 140 311T88 378T71 466Q71
548 128 596T282 645Q316 645 353 639T425 621T482 595L463 432Q432 432 414 437T393 452L375 564L410 500Q395 524 363 539T291 554Q254 554 233 539T212 496Q212 480 221 467T255 439T324 403Q393 371 433 341T490 274T508 188Q508 129 481 87T402 21T280 -2ZM327
-95Q308 -95 286 -91T247 -80V736Q266 736 288 732T327 721V-95Z" />
<glyph unicode="%" horiz-adv-x="693" d="M123 -12Q96 -12 74 1T43 35L571 655Q598 655 621 642T651 608L123 -12ZM509 5Q461 5 430 25T383 76T367 141Q367 180 384 218T436 281T521 307Q571 307 602 288T648 238T663 171Q663 132 646 94T594 30T509 5ZM514 52Q534
52 545 78T557 151Q557 201 546 230T516 260Q497 260 486 234T474 161Q474 111 484 82T514 52ZM172 346Q123 346 92 366T46 417T30 482Q30 521 47 559T99 622T184 648Q234 648 265 629T311 579T326 512Q326 473 309 435T257 371T172 346ZM177 393Q197 393 208 419T220
492Q220 542 209 571T179 601Q160 601 149 575T137 502Q137 452 147 423T177 393Z" />
<glyph unicode="&amp;" horiz-adv-x="767" d="M282 -12Q218 -12 162 5T72 60T38 156Q38 206 61 241T122 303T202 351T281 396T342 447T366 516Q366 542 355 562T319 583Q296 583 282 564T268 516Q268 481 289 453T349 380L537 166Q557 148 582 134T643 113T730
105Q730 83 710 56T654 8T570 -12Q530 -12 488 5T415 59L201 302Q172 334 151 366T119 431T107 496Q107 570 164 612T313 655Q363 655 404 643T471 602T497 526Q497 484 477 455T424 403T355 361T287 319T234 267T213 195Q213 159 228 132T271 90T334 75Q397 75
442 115T512 231T536 412L556 357L478 363Q478 393 483 416T497 446L742 465Q744 461 744 452T745 437Q745 413 734 387T707 348L626 353L661 406Q661 310 635 233T559 101T439 17T282 -12Z" />
<glyph unicode="&apos;" horiz-adv-x="193" d="M97 410Q86 410 77 412T60 420Q47 493 38 539T25 615T20 666Q20 701 36 728T97 755Q143 755 158 728T173 666Q173 645 170 615T158 539T134 420Q119 410 97 410Z" />
<glyph unicode="(" horiz-adv-x="376" d="M322 -268Q293 -268 255 -248T176 -185T102 -81T46 67T25 258Q25 365 46 449T101 597T176 702T254 764T322 785Q367 785 371 740Q332 710 304 662T257 550T229 413T220 257Q220 177 229 104T256 -33T303 -144T371 -223Q367
-268 322 -268Z" />
<glyph unicode=")" horiz-adv-x="376" d="M54 -268Q83 -268 121 -248T200 -185T274 -81T330 67T351 258Q351 365 330 449T275 597T200 702T122 764T54 785Q9 785 5 740Q44 710 72 662T119 550T147 413T156 257Q156 177 147 104T120 -33T73 -144T5 -223Q9 -268 54 -268Z" />
<glyph unicode="*" horiz-adv-x="451" d="M180 368Q160 370 138 382T97 411T72 446L208 550L212 536L41 535Q38 552 38 566Q38 598 51 622T82 662L224 562L212 552L158 717Q171 725 189 729T226 734Q244 734 261 730T290 718L240 554L229 562L367 664Q386 648
398 624T411 569Q411 562 411 554T408 538L239 535L242 547L381 448Q373 430 355 413T316 383T274 370L218 531H232L180 368Z" />
<glyph unicode="+" horiz-adv-x="572" d="M300 53Q281 53 263 57T233 71V521Q241 526 251 527T273 528Q293 528 310 524T339 510V60Q331 57 321 55T300 53ZM72 241Q54 262 54 299Q54 309 56 320T61 341H500Q518 320 518 283Q518 273 516 263T511 241H72Z" />
<glyph unicode="," horiz-adv-x="234" d="M42 -178Q35 -174 27 -163T18 -133Q71 -118 90 -98T110 -54Q110 -27 96 -13T64 13T31 40T17 87Q17 123 43 146T103 170Q153 170 181 134T209 33Q209 -18 188 -62T130 -137T42 -178Z" />
<glyph unicode="-" horiz-adv-x="360" d="M52 198Q46 204 42 218T38 248Q38 312 102 312Q137 312 166 311T223 310Q249 310 273 314T309 324Q315 314 318 300T322 274Q322 210 259 210Q227 210 197 211T138 212Q111 212 87 208T52 198Z" />
<glyph unicode="." horiz-adv-x="209" d="M104 -12Q59 -12 36 13T12 80Q12 119 40 145T104 172Q150 172 173 147T197 80Q197 40 169 14T104 -12Z" />
<glyph unicode="/" horiz-adv-x="402" d="M109 -200Q70 -200 47 -194T0 -168L293 734Q325 734 348 728T402 702L109 -200Z" />
<glyph unicode="0" horiz-adv-x="700" d="M329 -12Q246 -12 183 25T85 130T49 287Q49 365 73 432T142 549T244 627T371 655Q455 655 518 618T616 513T651 355Q651 277 627 210T559 94T457 16T329 -12ZM352 87Q384 87 407 115T442 194T455 316Q455 426 426 491T348
556Q317 556 294 528T258 449T245 328Q245 219 274 153T352 87Z" />
<glyph unicode="1" horiz-adv-x="480" d="M60 0Q60 29 64 48T76 69L192 106L170 70V585L196 494L55 471Q37 497 37 529Q37 544 39 557T50 581L265 655H356V75L325 110L452 76Q452 57 448 40T432 0H60Z" />
<glyph unicode="2" horiz-adv-x="602" d="M72 0Q53 17 48 32T42 82Q195 202 266 295T337 471Q337 515 318 535T259 556Q198 556 146 510L163 542L150 454Q149 444 129 439T76 433L57 599Q176 655 292 655Q402 655 467 610T533 487Q533 428 492 359T372 212T178
52L144 117L492 94L440 77L473 210Q516 210 549 187V0H72Z" />
<glyph unicode="3" horiz-adv-x="590" d="M179 566L162 449Q160 438 143 433T87 427L69 597Q126 626 183 640T296 655Q401 655 463 613T525 496Q525 438 483 399T353 334L351 346Q443 326 493 279T543 164Q543 110 511 71T419 10T277 -12Q205 -12 153 6T71 57T42
137Q42 207 106 207Q126 207 144 202T168 189Q168 136 189 111T255 86Q299 86 323 108T347 171Q347 215 320 241T218 296Q208 300 205 313T202 364Q269 383 302 413T335 482Q335 516 314 536T255 556Q224 556 194 541T127 492L179 566Z" />
<glyph unicode="4" horiz-adv-x="585" d="M201 0Q201 30 205 48T217 69L311 96L293 70V553L360 545L109 198L61 242H538V152H46Q10 169 10 232L317 655Q479 655 479 540V75L447 100L544 76Q544 54 540 37T524 0H201Z" />
<glyph unicode="5" horiz-adv-x="594" d="M265 -12Q204 -12 154 7T75 61T45 136Q45 168 63 187T113 207Q129 207 147 202T170 192Q170 141 193 114T259 86Q303 86 329 115T355 197Q355 235 343 262T307 304T251 319Q211 319 178 305T120 264Q97 270 88 285T78
329L103 641H515L488 455Q452 458 435 460T414 466T408 477L397 619L427 547L125 524L207 599V351L131 355Q174 381 216 393T308 405Q380 405 435 382T520 316T551 217Q551 154 513 102T409 19T265 -12Z" />
<glyph unicode="6" horiz-adv-x="635" d="M325 -12Q241 -12 179 26T83 133T49 295Q49 372 72 437T138 552T237 628T362 655Q418 655 463 638T535 590T562 523Q562 498 546 484T500 469Q484 469 466 473T440 485Q437 523 415 545T358 567Q302 567 274 506T245 324Q245
207 266 148T329 89Q361 89 380 118T400 196Q400 247 382 274T328 302Q310 302 286 293T240 270T204 240L205 330Q219 353 246 371T309 399T384 410Q445 410 491 385T563 314T590 210Q590 146 556 96T463 17T325 -12Z" />
<glyph unicode="7" horiz-adv-x="536" d="M244 -12Q217 -12 192 -2T150 35T133 110Q133 134 142 179T181 289T274 433T445 603L453 528L89 548L152 616L145 463Q144 446 121 442T65 435L37 641H512Q526 629 526 612Q526 594 506 565T457 495T399 400T349 281T329
135Q329 101 334 79T354 34Q344 15 312 2T244 -12Z" />
<glyph unicode="8" horiz-adv-x="644" d="M568 497Q568 456 546 424T489 370T418 335L319 351Q328 357 344 371T374 410T388 474Q388 515 371 535T322 556Q291 556 274 537T256 492Q256 465 274 447T324 415T391 389T464 362T532 326T581 273T600 196Q600 140
568 93T472 17T313 -12Q235 -12 174 8T78 68T43 161Q43 208 68 243T135 302T221 334L310 318Q286 308 270 287T247 238T239 184Q239 132 263 110T323 87Q358 87 381 106T404 158Q404 187 386 206T339 238T275 263T205 289T141 324T94 376T76 455Q76 516 107 561T194
630T328 655Q400 655 454 635T538 580T568 497Z" />
<glyph unicode="9" horiz-adv-x="641" d="M311 655Q398 655 460 618T557 511T591 344Q591 238 551 158T441 33T276 -12Q216 -12 167 5T88 53T58 119Q58 145 74 159T120 174Q137 174 154 170T180 158Q182 121 209 99T279 76Q341 76 368 132T395 318Q395 554 309
554Q278 554 259 526T240 450Q240 404 258 378T310 351Q329 351 353 359T399 381T436 410L435 321Q421 299 393 281T330 253T256 243Q196 243 150 267T77 336T50 436Q50 500 83 549T176 626T311 655Z" />
<glyph unicode=":" horiz-adv-x="209" d="M104 -12Q59 -12 36 13T12 80Q12 119 40 145T104 172Q150 172 173 147T197 80Q197 40 169 14T104 -12ZM104 283Q59 283 36 308T12 375Q12 414 40 440T104 467Q150 467 173 442T197 375Q197 335 169 309T104 283Z" />
<glyph unicode=";" horiz-adv-x="234" d="M42 -178Q35 -174 27 -163T18 -133Q71 -118 90 -98T110 -54Q110 -27 96 -13T64 13T31 40T17 87Q17 123 43 146T103 170Q153 170 181 134T209 33Q209 -18 188 -62T130 -137T42 -178ZM120 282Q70 282 44 310T18 383Q18 426
49 455T120 484Q170 484 196 456T222 383Q222 339 191 311T120 282Z" />
<glyph unicode="&lt;" horiz-adv-x="572" d="M509 54Q517 68 517 101Q517 119 514 136T505 164L113 322V256L505 414Q511 422 514 441T517 479Q517 494 515 506T509 524L57 333Q52 326 50 314T48 288Q48 275 50 264T57 245L509 54Z" />
<glyph unicode="=" horiz-adv-x="572" d="M72 330Q54 351 54 388Q54 398 56 409T61 430H500Q518 409 518 372Q518 362 516 352T511 330H72ZM72 408Q54 429 54 466Q54 476 56 487T61 508H500Q518 487 518 450Q518 440 516 430T511 408H72Z" />
<glyph unicode="&gt;" horiz-adv-x="572" d="M63 54Q55 68 55 101Q55 119 58 136T67 164L459 322V256L67 414Q61 422 58 441T55 479Q55 494 57 506T63 524L515 333Q520 326 522 314T524 288Q524 275 522 264T515 245L63 54Z" />
<glyph unicode="?" horiz-adv-x="451" d="M195 218Q163 218 141 225L132 336Q169 342 197 355T246 389T276 435T287 493Q287 533 274 558T222 583Q197 583 182 560T166 468Q158 463 140 457T93 450Q53 450 28 472T3 537Q3 584 59 619T220 655Q327 655 387 611T448
493Q448 465 438 438T409 387T364 342T306 307T237 284L257 301L249 225Q227 218 195 218ZM194 -12Q149 -12 126 13T102 80Q102 119 130 145T194 172Q240 172 263 147T287 80Q287 40 259 14T194 -12Z" />
<glyph unicode="@" horiz-adv-x="955" d="M430 -166Q344 -166 272 -140T147 -67T64 44T35 185Q35 277 70 354T168 488T317 576T506 607Q596 607 672 584T803 518T889 417T920 290Q920 227 897 173T832 78T738 14T625 -9Q579 -9 555 14T530 77Q530 93 532 112T541
154L538 155Q520 84 476 38T376 -9Q316 -9 278 37T240 164Q240 250 273 317T365 422T494 460Q534 460 575 453T652 432T711 401L670 155Q668 140 666 125T663 98Q663 84 667 75T684 66Q702 66 720 85T755 135T780 206T790 286Q790 365 754 421T650 509T488 540Q396
540 325 498T212 382T171 213Q171 119 205 52T303 -52T454 -89Q497 -89 543 -81T631 -60T696 -31L711 -71Q675 -101 631 -122T536 -154T430 -166ZM436 104Q453 104 470 120T504 162T534 216T556 266L523 136L567 380L579 345Q561 364 541 372T495 381Q463 381 440
357T404 289T391 184Q391 147 403 126T436 104Z" />
<glyph unicode="A" horiz-adv-x="713" d="M2 0Q2 29 6 47T18 69L102 103L54 52L259 618Q264 632 284 640T326 652T363 656Q381 656 397 654T430 648L656 57L609 100L711 76Q711 57 707 40T688 0H380Q380 29 384 47T396 69L470 96L464 56L279 539H337L162 57L150
106L276 76Q276 57 272 40T253 0H2ZM176 185L193 275H424L443 185H176Z" />
<glyph unicode="B" horiz-adv-x="653" d="M38 0Q38 29 42 47T54 69L128 96L107 70V566L129 541L38 565Q38 587 43 605T59 641H375Q472 641 526 605T580 503Q580 467 563 437T513 385T435 354L423 367Q479 359 520 335T584 274T607 193Q607 134 580 91T503 24T383
0H38ZM351 95Q385 95 403 119T421 189Q421 245 394 272T312 300H283L293 310V100L283 114Q298 105 316 100T351 95ZM293 387L273 413Q283 407 291 403T308 398T326 396Q362 396 379 415T397 474Q397 512 382 529T332 546Q318 546 306 543T283 533L293 545V387Z"
/>
<glyph unicode="C" horiz-adv-x="678" d="M363 -12Q261 -12 185 25T67 132T25 293Q25 371 54 437T135 552T258 628T413 655Q473 655 526 642T616 605L596 423Q563 423 544 428T523 444L509 545L542 500Q513 527 473 541T388 556Q335 556 298 530T241 454T221 332Q221
256 241 201T299 117T389 87Q435 87 475 105T540 157L507 94L526 259Q566 259 582 256T605 244L616 74Q582 35 513 12T363 -12Z" />
<glyph unicode="D" horiz-adv-x="729" d="M38 0Q38 29 42 47T54 69L128 96L107 70V566L129 541L38 565Q38 585 42 603T56 641H408Q484 641 540 617T632 551T686 456T704 345Q704 281 683 220T622 109T525 30T393 0H38ZM369 96Q406 96 432 114T475 163T500 237T508
328Q508 386 493 435T447 515T371 545Q343 545 316 539T271 522L293 544V102L283 116Q301 105 323 101T369 96Z" />
<glyph unicode="E" horiz-adv-x="632" d="M38 0Q38 29 42 47T54 69L128 96L107 70V566L129 541L38 565Q38 585 42 603T60 641H550V458Q513 458 498 463T480 478L451 558L465 549L282 531L293 544V361L283 371H403L390 361L412 436Q429 436 449 432T488 414V234Q470
221 450 217T412 212L389 290L403 281H283L293 291V100L283 111L482 94L470 72L504 205Q524 205 542 201T580 183V0H38Z" />
<glyph unicode="F" horiz-adv-x="576" d="M38 0Q38 29 42 47T54 69L128 96L107 70V566L129 541L38 565Q38 585 42 603T60 641H550V458Q513 458 498 463T480 478L451 556L465 547L282 529L293 542V351L283 361H413L400 351L422 426Q439 426 459 422T498 404V224Q480
211 460 207T422 202L399 280L413 271H283L293 281V75L264 100L376 76Q376 57 372 40T356 0H38Z" />
<glyph unicode="G" horiz-adv-x="698" d="M358 -12Q257 -12 182 26T66 132T25 294Q25 372 52 438T127 552T242 628T387 655Q449 655 509 642T607 605L587 423Q555 423 535 430T512 448L502 531L514 511Q498 530 458 543T373 556Q322 556 288 530T235 451T217 323Q217
245 236 193T292 114T385 87Q449 87 478 125L438 53V265L460 219L353 243Q353 265 357 281T373 319H668Q668 289 664 271T652 250L583 223L616 271V57Q564 25 496 7T358 -12Z" />
<glyph unicode="H" horiz-adv-x="782" d="M38 0Q38 29 42 47T54 69L128 96L107 70V566L129 541L38 565Q38 585 42 603T60 641H363Q363 612 359 593T347 572L262 545L293 571V347L281 371H491L479 347V566L501 541L410 565Q410 585 414 603T430 641H745Q745 612
741 593T729 572L644 545L665 571V75L643 100L745 76Q745 57 741 40T722 0H410Q410 29 414 47T426 69L500 96L479 70V304L491 281H281L293 304V75L261 100L363 76Q363 57 359 40T343 0H38Z" />
<glyph unicode="I" horiz-adv-x="400" d="M38 0Q38 29 42 47T54 69L128 96L107 70V566L129 541L38 565Q38 585 42 603T60 641H363Q363 612 359 593T347 572L262 545L293 571V75L261 100L363 76Q363 57 359 40T343 0H38Z" />
<glyph unicode="J" horiz-adv-x="370" d="M7 -193Q-30 -193 -55 -170T-80 -105Q-80 -91 -76 -72T-63 -40Q-2 -40 31 -29T78 12T92 94V574L114 541L23 565Q23 587 28 604T45 641H348Q348 612 344 593T332 572L247 545L278 574V265Q278 174 256 91T197 -55T110 -156T7
-193Z" />
<glyph unicode="K" horiz-adv-x="708" d="M576 -12Q547 -12 525 -7T483 15T437 68T378 164T294 317L505 584L536 541L420 565Q420 588 425 605T440 641H694Q694 577 664 568L575 540L635 589L411 306L445 373Q475 321 508 271T576 177T643 95T704 33Q673 11 641
0T576 -12ZM38 0Q38 29 42 47T54 69L128 96L107 70V566L129 541L38 565Q38 585 42 603T60 641H363Q363 613 359 594T347 572L262 545L293 571V75L261 100L363 76Q363 57 359 40T343 0H38Z" />
<glyph unicode="L" horiz-adv-x="611" d="M38 0Q38 29 42 47T54 69L128 96L107 70V566L129 541L38 565Q38 585 42 603T60 641H374Q374 612 370 593T358 572L273 545L293 571V101L283 112L472 94L460 72L494 205Q514 205 532 201T570 183V0H38Z" />
<glyph unicode="M" horiz-adv-x="944" d="M442 -3Q434 -3 420 -1T402 4L210 554H255L210 57L200 101L306 77Q306 58 302 40T286 1H30Q30 30 34 49T46 70L131 97L109 53L158 584L167 541L76 565Q76 585 80 603T98 641H372L522 204H448L585 641H871Q871 612 867
593T855 572L765 545L802 589L845 57L826 101L912 77Q912 58 908 40T890 1H597Q597 30 601 49T613 70L693 97L665 53L623 564H666L495 23Q491 10 474 4T442 -3Z" />
<glyph unicode="N" horiz-adv-x="780" d="M596 -3Q574 -3 555 -2T523 3L202 422L222 439V57L213 100L324 76Q324 57 320 39T304 0H38Q38 29 42 48T54 69L144 96L122 52V584L149 541L38 565Q38 585 42 603T58 641H262L630 158L571 137V584L579 541L468 565Q468
585 472 603T488 641H754Q754 612 750 593T738 572L648 545L671 589V37Q671 22 656 13T622 1T596 -3Z" />
<glyph unicode="O" horiz-adv-x="715" d="M336 -12Q243 -12 173 27T64 136T25 298Q25 374 51 439T126 552T239 628T380 655Q473 655 542 616T651 507T690 345Q690 269 664 204T589 90T477 15T336 -12ZM362 87Q404 87 433 114T478 191T494 310Q494 422 456 489T353
556Q312 556 282 529T237 453T221 333Q221 221 259 154T362 87Z" />
<glyph unicode="P" horiz-adv-x="649" d="M38 0Q38 29 42 47T54 69L128 96L107 70V566L129 541L38 565Q38 587 43 605T59 641H398Q462 641 509 618T582 551T608 449Q608 385 578 334T494 253T374 223Q349 223 321 227T264 242H293V57L261 100L373 76Q373 54 369
37T353 0H38ZM293 315L268 340Q280 335 298 331T331 327Q358 327 377 340T405 379T415 442Q415 493 395 517T330 541Q319 541 306 539T270 531L293 549V315Z" />
<glyph unicode="Q" horiz-adv-x="715" d="M549 -207Q522 -207 487 -189T402 -122T286 14L331 64Q396 26 460 -5T583 -54T690 -73Q671 -136 632 -171T549 -207ZM336 -12Q243 -12 173 27T64 136T25 298Q25 374 51 439T126 552T239 628T380 655Q473 655 542 616T651
507T690 345Q690 269 664 204T589 90T477 15T336 -12ZM362 87Q404 87 433 114T478 191T494 310Q494 422 456 489T353 556Q312 556 282 529T237 453T221 333Q221 221 259 154T362 87Z" />
<glyph unicode="R" horiz-adv-x="706" d="M38 0Q38 29 42 47T54 69L128 96L107 70V566L129 541L38 565Q38 587 43 605T59 641H398Q462 641 509 619T582 556T608 459Q608 398 578 349T494 272T374 243Q349 243 321 247T264 262H293V57L251 100L363 76Q363 54 359
37T343 0H38ZM293 335L268 360Q280 355 298 351T331 347Q358 347 377 359T405 394T415 452Q415 499 395 520T330 541Q319 541 306 539T270 531L293 549V335ZM563 -12Q528 -12 499 -1T445 41T395 133T345 293L491 337Q518 272 550 214T620 110T695 33Q662 12 627
0T563 -12Z" />
<glyph unicode="S" horiz-adv-x="586" d="M295 -12Q254 -12 208 -5T120 16T47 45L82 229Q103 241 134 241Q143 241 150 240T163 237L176 106L151 140Q170 122 192 110T238 92T288 85Q326 85 350 102T374 145Q374 164 365 178T330 208T249 248Q185 279 147 310T92
380T75 470Q75 555 135 605T298 655Q352 655 411 641T508 604L488 434Q456 434 437 439T415 455L396 570L433 503Q417 529 383 543T307 558Q268 558 246 543T224 501Q224 485 233 473T268 445T342 407Q416 373 458 341T518 272T536 184Q536 123 507 79T425 12T295
-12Z" />
<glyph unicode="T" horiz-adv-x="670" d="M143 0Q143 29 147 47T159 69L263 107L242 70V544L253 531L126 549L140 558L111 478Q108 469 94 464T41 458V641H629V458Q592 458 577 463T559 478L530 558L544 549L417 531L428 544V75L399 106L541 76Q541 57 537 40T521 0H143Z" />
<glyph unicode="U" horiz-adv-x="750" d="M394 -12Q282 -12 216 16T120 94T91 211V566L114 541L23 565Q23 585 27 603T45 641H348Q348 612 344 593T332 572L247 545L277 571V254Q277 196 285 159T319 105T395 87Q456 87 488 106T532 164T544 256V584L556 538L450
565Q450 585 454 603T470 641H728Q728 613 724 594T712 572L625 545L644 589V214Q644 160 618 108T536 22T394 -12Z" />
<glyph unicode="V" horiz-adv-x="724" d="M349 -12Q336 -12 313 -10T276 -5L48 584L93 541L2 565Q2 585 6 603T24 641H321Q321 612 317 593T305 572L220 545L239 589L413 140H381L545 584L550 541L439 565Q439 585 443 603T459 641H722Q722 612 718 593T706 572L616
545L654 589L445 25Q440 11 421 3T382 -9T349 -12Z" />
<glyph unicode="W" horiz-adv-x="1019" d="M310 -12Q297 -12 274 -10T237 -5L48 584L93 541L2 565Q2 585 6 603T24 641H322Q322 612 318 593T306 572L221 545L236 589L370 170H347L477 579H586L737 170H718L843 584L842 541L731 565Q731 585 735 603T751 641H1017Q1017
612 1013 593T1001 572L911 545L949 589L779 25Q775 11 756 3T716 -9T683 -12Q670 -12 647 -10T610 -5L466 386H521L406 25Q402 11 383 3T343 -9T310 -12Z" />
<glyph unicode="X" horiz-adv-x="686" d="M359 1Q359 30 363 49T375 70L460 97L425 52L45 584L104 541L13 565Q13 585 17 603T35 641H338Q338 612 334 593T322 572L237 545L263 589L642 57L593 101L684 77Q684 58 680 40T662 1H359ZM3 1Q3 30 7 49T19 70L113 99L53
53L264 326L352 276L183 58L173 101L289 77Q289 58 285 40T269 1H3ZM414 316L326 366L495 584L505 541L389 565Q389 585 393 603T409 641H675Q675 612 671 593T659 572L565 543L625 589L414 316Z" />
<glyph unicode="Y" horiz-adv-x="691" d="M354 56L43 584L93 541L2 565Q2 585 6 603T24 641H327Q327 612 323 593T311 572L226 545L249 589L416 304H366L506 584L521 541L410 565Q410 585 414 603T430 641H689Q689 612 685 593T673 572L583 545L621 589L354 56ZM184
0Q184 29 188 47T200 69L274 96L253 70V275H439V75L407 100L509 76Q509 57 505 40T489 0H184Z" />
<glyph unicode="Z" horiz-adv-x="648" d="M70 0Q44 0 44 25Q44 34 51 46L365 589L363 530L125 548L162 558L133 473Q130 464 116 459T63 453V641H558Q570 641 576 635T583 617Q583 607 576 595L266 57L267 112L534 93L491 72L525 210Q545 210 563 206T601 188V0H70Z" />
<glyph unicode="[" horiz-adv-x="332" d="M38 -258V778H324Q327 763 327 747Q327 731 324 717T313 695H139L224 760V-240L139 -175H312Q320 -183 323 -197T327 -227Q327 -243 324 -258H38Z" />
<glyph unicode="\" horiz-adv-x="402" d="M293 -200Q332 -200 355 -194T402 -168L109 734Q77 734 54 728T0 702L293 -200Z" />
<glyph unicode="]" horiz-adv-x="332" d="M294 -258V778H8Q5 763 5 747Q5 731 8 717T19 695H193L108 760V-240L193 -175H20Q12 -183 9 -197T5 -227Q5 -243 8 -258H294Z" />
<glyph unicode="^" horiz-adv-x="572" d="M154 283Q127 283 110 288T69 306L230 696Q240 701 255 704T286 708Q302 708 317 705T342 696L503 306Q483 293 465 288T418 283L253 648H319L154 283Z" />
<glyph unicode="_" horiz-adv-x="691" d="M98 -195Q92 -186 90 -170T88 -139Q88 -113 90 -101H594Q599 -110 601 -126T603 -157Q603 -183 601 -195H98Z" />
<glyph unicode="`" horiz-adv-x="276" d="M231 506Q148 551 101 577T33 616T6 637T0 652Q0 672 12 692T41 726T77 740Q86 740 95 736T123 714T177 660T276 557Q276 534 262 520T231 506Z" />
<glyph unicode="a" horiz-adv-x="566" d="M130 -12Q85 -12 56 17T26 93Q26 149 64 187T176 242L310 273L298 253V308Q298 358 288 378T250 398Q219 398 204 374T186 297Q178 287 161 281T122 275Q87 275 68 291T49 336Q49 372 78 400T159 445T275 462Q373 462
426 421T480 303V121Q480 102 486 94T511 86Q520 86 529 88T543 93L556 41Q529 18 490 3T417 -12Q366 -12 338 12T309 79H300Q267 38 220 13T130 -12ZM224 91Q243 91 270 106T316 141L300 105V214L319 211L233 190Q209 185 196 170T183 135Q183 116 194 104T224
91Z" />
<glyph unicode="b" horiz-adv-x="624" d="M284 -12Q231 -12 175 -2T71 28V646L82 630L25 650Q8 655 8 717Q68 726 103 730T161 734Q204 734 223 717T243 662V361L239 373H253Q277 413 324 437T421 462Q471 462 509 435T568 360T589 246Q589 168 551 110T445 20T284
-12ZM306 64Q349 64 372 105T396 220Q396 285 378 318T322 352Q299 352 283 341T255 314T234 287L249 322V76L234 104Q248 85 266 75T306 64Z" />
<glyph unicode="c" horiz-adv-x="534" d="M281 -12Q208 -12 153 16T66 96T35 214Q35 286 69 342T164 430T301 462Q359 462 406 444T481 396T509 329Q509 299 487 282T426 265Q410 265 394 269T364 283Q364 340 348 369T301 399Q266 399 247 361T227 252Q227 165
258 125T357 85Q391 85 423 95T495 128L514 78Q490 52 453 32T371 0T281 -12Z" />
<glyph unicode="d" horiz-adv-x="645" d="M204 -12Q154 -12 116 15T56 90T35 204Q35 282 64 340T146 430T269 462Q297 462 326 457T383 442L371 434V646L383 631L315 650Q299 655 299 717Q356 726 393 730T456 734Q506 734 529 717T553 662V121Q553 102 560 94T584
86Q594 86 603 88T616 93L629 41Q601 17 562 3T486 -12Q439 -12 411 12T382 79H373Q349 39 302 14T204 -12ZM302 98Q326 98 342 109T370 135T390 163L375 128V382L390 346Q377 366 359 376T318 386Q275 386 251 345T227 230Q227 165 246 132T302 98Z" />
<glyph unicode="e" horiz-adv-x="550" d="M280 -12Q208 -12 153 17T66 97T35 215Q35 286 69 342T162 430T296 462Q362 462 409 437T483 365T509 255Q509 224 502 215T472 206H165V272L357 278L345 258Q345 305 339 336T321 383T290 399Q262 399 245 363T228 265Q228
206 244 166T293 105T374 85Q406 85 434 95T496 128L515 78Q491 52 453 32T371 0T280 -12Z" />
<glyph unicode="f" horiz-adv-x="386" d="M30 0Q30 62 46 69L103 97L92 80V376Q92 447 115 511T177 626T265 705T367 734Q410 734 435 713T460 656Q460 642 456 626T443 596H395Q348 596 322 583T286 539T275 457V76L258 103L356 76Q356 54 352 37T336 0H30ZM359
350L31 362Q31 387 36 411T52 442L387 462Q390 455 391 448T393 432Q393 402 385 380T359 350Z" />
<glyph unicode="g" horiz-adv-x="540" d="M264 -270Q159 -270 97 -234T35 -136Q35 -63 120 -63Q140 -63 162 -67T204 -79Q204 -146 226 -178T297 -210Q333 -210 353 -192T373 -142Q373 -117 361 -102T320 -79T238 -65Q157 -57 123 -38T89 21Q89 61 121 95T210
149L232 134Q225 124 222 117T219 101Q219 90 225 84T251 74T307 66Q417 55 471 17T525 -89Q525 -144 494 -185T404 -248T264 -270ZM242 114Q145 114 91 156T36 273Q36 329 66 371T151 438T278 462Q344 462 391 442T465 386T491 300Q491 246 459 204T371 138T242
114ZM265 179Q289 179 302 205T315 280Q315 335 301 366T260 397Q237 397 225 371T212 294Q212 239 226 209T265 179ZM465 386Q451 386 430 388T388 393T354 400L341 432L511 501Q519 486 524 467T530 434Q530 386 465 386Z" />
<glyph unicode="h" horiz-adv-x="646" d="M15 0Q15 62 31 69L88 97L77 80V646L88 630L31 650Q15 655 15 717Q74 726 109 730T167 734Q210 734 229 717T249 662V361L239 373H259Q307 415 357 438T450 462Q564 462 564 311V85L553 101L626 76Q626 54 622 37T606
0H340Q340 62 356 69L392 87L382 70V282Q382 341 340 341Q318 341 300 332T271 313T256 300L259 315V76L247 91L301 76Q301 54 297 37T281 0H15Z" />
<glyph unicode="i" horiz-adv-x="376" d="M30 0Q30 63 46 69L113 97L102 80V374L114 359L46 378Q30 383 30 445Q74 452 118 457T215 462Q284 462 284 390V85L272 100L366 76Q366 54 362 37T346 0H30ZM187 529Q141 529 117 555T93 623Q93 664 121 690T187 717Q234
717 258 691T283 623Q283 583 254 556T187 529Z" />
<glyph unicode="j" horiz-adv-x="364" d="M13 -270Q-24 -270 -49 -249T-74 -191Q-74 -179 -70 -162T-57 -133Q6 -133 40 -123T88 -86T102 -13V374L114 359L46 378Q30 383 30 445Q89 454 132 458T215 462Q284 462 284 390V188Q284 97 262 14T203 -132T116 -233T13
-270ZM181 529Q135 529 111 555T87 623Q87 664 115 690T181 717Q228 717 252 691T277 623Q277 583 248 556T181 529Z" />
<glyph unicode="k" horiz-adv-x="638" d="M15 0Q15 33 19 49T31 69L98 97L87 80V646L99 631L31 650Q15 655 15 717Q59 724 103 729T200 734Q269 734 269 662V75L252 91L311 76Q311 54 307 37T291 0H15ZM520 -12Q476 -12 438 10T357 88T257 240L401 370L390 349L324
367Q324 409 344 443H612Q612 407 609 392T596 374L469 329L551 384L382 228L406 295Q437 250 475 208T554 132T633 75Q633 35 602 12T520 -12Z" />
<glyph unicode="l" horiz-adv-x="356" d="M15 0Q15 33 19 49T31 69L98 97L87 80V646L99 631L31 650Q15 655 15 717Q59 724 103 729T200 734Q269 734 269 662V85L257 100L351 76Q351 54 347 37T331 0H15Z" />
<glyph unicode="m" horiz-adv-x="946" d="M30 0Q30 62 46 69L103 97L92 80V363L103 347L46 367Q30 372 30 434Q89 443 124 447T182 451Q225 451 244 434T264 379V371L260 373H274Q321 415 370 438T462 462Q518 462 543 425T569 310V76L557 91L611 76Q611 54 607
37T591 0H345Q345 62 361 69L397 87L387 70V282Q387 341 348 341Q328 341 312 332T285 313T271 300L274 315V76L262 91L316 76Q316 54 312 37T296 0H30ZM640 0Q640 62 656 69L692 87L682 70V282Q682 341 643 341Q617 341 597 326T569 303L552 373H569Q616 415 665
438T757 462Q813 462 838 425T864 311V85L853 101L926 76Q926 54 922 37T906 0H640Z" />
<glyph unicode="n" horiz-adv-x="661" d="M30 0Q30 62 46 69L103 97L92 80V363L103 347L46 367Q30 372 30 434Q89 443 124 447T182 451Q225 451 244 434T264 379V371L260 373H274Q322 415 372 438T465 462Q579 462 579 311V85L568 101L641 76Q641 54 637 37T621
0H355Q355 62 371 69L407 87L397 70V282Q397 341 355 341Q333 341 315 332T286 313T271 300L274 315V76L262 91L316 76Q316 54 312 37T296 0H30Z" />
<glyph unicode="o" horiz-adv-x="601" d="M275 -12Q162 -12 99 45T35 204Q35 281 70 339T169 429T317 462Q393 462 449 435T535 359T566 241Q566 167 529 110T427 20T275 -12ZM303 51Q338 51 356 93T374 213Q374 299 353 349T295 399Q262 399 245 357T227 234Q227
146 246 99T303 51Z" />
<glyph unicode="p" horiz-adv-x="630" d="M15 -240Q15 -178 31 -171L88 -143L77 -160V363L88 347L31 367Q15 372 15 434Q74 443 109 447T167 451Q210 451 229 434T249 379V371L245 373H259Q283 413 330 437T427 462Q477 462 515 435T574 360T595 246Q595 168 566
110T485 20T361 -12Q333 -12 304 -7T247 8L259 16V-155L247 -140L341 -164Q341 -186 337 -203T321 -240H15ZM312 64Q355 64 378 105T402 220Q402 285 384 318T328 352Q305 352 289 341T261 314T240 287L255 322V76L240 104Q254 85 272 75T312 64Z" />
<glyph unicode="q" horiz-adv-x="635" d="M299 -240Q299 -178 315 -171L416 -120L381 -179V77H371Q347 37 300 13T203 -12Q153 -12 115 15T56 90T35 204Q35 282 73 340T179 430T340 462Q393 462 449 440T553 373V-184L499 -134L615 -164Q615 -186 611 -203T595
-240H299ZM302 98Q326 98 342 109T370 135T390 163L375 128V374L390 346Q377 366 359 376T318 386Q275 386 251 345T227 230Q227 165 246 132T302 98ZM433 345L484 447Q488 455 505 459T553 463V373L433 345Z" />
<glyph unicode="r" horiz-adv-x="480" d="M30 0Q30 62 46 69L103 97L92 80V363L103 347L46 367Q39 369 35 387T30 434Q92 444 126 447T182 451Q230 451 247 435T264 372V348L250 363H271Q291 409 324 435T394 462Q441 462 465 441T490 376Q490 342 465 318T405
294Q395 317 381 327T347 337Q328 337 304 325T266 291L274 322V76L258 103L356 76Q356 54 352 37T336 0H30Z" />
<glyph unicode="s" horiz-adv-x="511" d="M243 -12Q150 -12 93 18T35 97Q35 127 57 145T114 164Q155 164 183 144Q183 95 199 72T251 49Q277 49 293 60T309 91Q309 108 296 119T262 140T216 157Q180 170 143 186T80 233T55 313Q55 384 112 423T272 462Q330 462
372 450T437 416T461 363Q461 333 439 315T381 296Q344 296 321 318Q321 358 305 379T256 401Q235 401 223 392T211 367Q211 350 224 339T260 319T308 301Q346 289 385 272T450 225T476 144Q476 95 448 60T368 7T243 -12Z" />
<glyph unicode="t" horiz-adv-x="396" d="M212 -12Q141 -12 109 34T76 155V513Q96 526 126 537T191 557T258 569V182Q258 144 271 124T315 104Q329 104 346 108T380 123L406 72Q389 47 359 28T290 -1T212 -12ZM343 350L15 362Q15 387 20 411T36 442L371 462Q374
455 375 448T377 432Q377 402 369 380T343 350Z" />
<glyph unicode="u" horiz-adv-x="647" d="M181 -12Q126 -12 98 25T70 139V363L92 348L24 367Q17 369 13 387T8 434Q65 443 101 447T160 451Q208 451 230 434T252 379V168Q252 139 264 124T299 109Q322 109 340 119T372 143T392 163L373 128V363L395 348L327 367Q320
369 316 387T311 434Q368 443 404 447T463 451Q511 451 533 434T555 379V121Q555 102 562 94T585 86Q593 86 602 88T618 93L631 41Q603 17 564 3T488 -12Q441 -12 413 12T384 79H375Q272 -12 181 -12Z" />
<glyph unicode="v" horiz-adv-x="523" d="M263 -12Q247 -12 229 -9T197 0L51 365L79 344L3 367Q3 390 7 407T23 443H294Q294 375 278 369L214 347L234 372L329 131H282L377 372L386 348L324 367Q324 400 328 415T343 443H520Q520 410 516 394T504 374L447 350L473
371L342 37Q323 -12 263 -12Z" />
<glyph unicode="w" horiz-adv-x="755" d="M243 -12Q227 -12 209 -9T177 0L51 365L79 344L3 367Q3 390 7 407T23 443H294Q294 375 278 369L214 347L231 372L312 131H265L363 412H457L572 131H533L610 372L618 348L556 367Q556 400 560 415T575 443H752Q752 410
748 394T736 374L679 350L705 371L594 37Q578 -12 515 -12Q499 -12 481 -9T449 0L350 243H394L322 37Q305 -12 243 -12Z" />
<glyph unicode="x" horiz-adv-x="580" d="M257 0Q257 65 273 69L360 97L318 52L58 366L113 336L9 367Q9 390 13 407T29 443H321Q321 378 305 374L218 346L260 391L522 77L467 107L571 76Q571 53 567 37T551 0H257ZM10 0Q10 62 26 69L123 110L40 59L213 243L274
176L133 27L142 96L217 76Q217 43 213 28T198 0H10ZM350 200L289 267L430 416L421 347L346 367Q346 400 350 415T365 443H553Q553 381 537 374L440 333L523 384L350 200Z" />
<glyph unicode="y" horiz-adv-x="523" d="M90 -270Q53 -270 28 -249T3 -191Q3 -179 7 -162T20 -133H37Q88 -133 120 -127T172 -106T204 -66T228 -3L226 -73L51 365L79 344L3 367Q3 390 7 407T23 443H294Q294 375 278 369L214 347L234 372L329 132L282 131L377
372L386 348L324 367Q324 400 328 415T343 443H520Q520 410 516 394T504 374L447 350L473 371L316 -31Q275 -140 217 -205T90 -270Z" />
<glyph unicode="z" horiz-adv-x="438" d="M45 0Q21 0 10 10T-1 35Q-1 46 5 59T20 86L222 397L316 344L88 358L122 410L104 296Q103 289 90 286T60 281T26 280L13 443H362Q394 443 408 434T423 408Q423 398 417 386T400 357L199 43L110 99L364 85L325 25L338 173Q364
173 386 169T426 154L439 0H45Z" />
<glyph unicode="{" horiz-adv-x="413" d="M405 -270Q378 -270 341 -265T264 -247T191 -211T136 -151T115 -61Q115 -41 116 -11T118 49T119 95Q119 131 108 155T73 192T16 204Q8 215 4 232T0 265Q0 276 1 285T5 304Q43 304 68 317T106 355T119 416Q119 434 118
465T116 529T115 583Q115 632 136 666T193 722T267 756T344 773T406 778Q407 773 407 767T408 755Q408 739 405 723T395 697Q337 679 318 655T298 584Q298 562 301 528T304 445Q304 359 265 316T165 261Q165 255 168 250Q230 237 267 193T304 63Q304 14 301 -20T298
-76Q298 -107 306 -128T335 -163T395 -189Q402 -198 405 -214T408 -246Q408 -262 405 -270Z" />
<glyph unicode="|" horiz-adv-x="225" d="M177 -200Q127 -200 92 -194T48 -182V734Q98 734 132 728T177 716V-200Z" />
<glyph unicode="}" horiz-adv-x="413" d="M8 -270Q35 -270 72 -265T149 -247T222 -211T277 -151T298 -61Q298 -41 297 -11T295 49T294 95Q294 131 305 155T340 192T397 204Q405 215 409 232T413 265Q413 276 412 285T408 304Q370 304 345 317T307 355T294 416Q294
434 295 465T297 529T298 583Q298 632 277 666T220 722T146 756T69 773T7 778Q6 773 6 767T5 755Q5 739 8 723T18 697Q76 679 95 655T115 584Q115 562 112 528T109 445Q109 359 148 316T248 261Q248 255 245 250Q183 237 146 193T109 63Q109 14 112 -20T115 -76Q115
-107 107 -128T78 -163T18 -189Q11 -198 8 -214T5 -246Q5 -262 8 -270Z" />
<glyph unicode="~" horiz-adv-x="572" d="M82 199Q72 209 66 223T60 247Q60 270 75 299T121 349T201 371Q233 371 268 359T336 335T394 322Q428 322 450 336T490 382Q512 360 512 332Q512 312 495 283T446 232T365 209Q334 209 300 221T234 245T175 257Q142 257
123 244T82 199Z" />
<glyph unicode="&#xa0;" horiz-adv-x="211" />
<glyph unicode="&#xa1;" horiz-adv-x="260" d="M131 254Q163 254 185 247Q191 188 197 134T209 35T218 -44T221 -95Q221 -137 200 -160T131 -183Q83 -183 62 -160T41 -95Q41 -78 44 -45T52 34T64 134T77 247Q99 254 131 254ZM130 484Q175 484 198 459T222 392Q222
353 194 327T130 300Q84 300 61 325T37 392Q37 432 65 458T130 484Z" />
<glyph unicode="&#xa2;" horiz-adv-x="534" d="M337 -95Q318 -95 296 -91T257 -80V736Q276 736 298 732T337 721V-95ZM281 83Q208 83 153 111T66 191T35 309Q35 381 69 437T164 525T301 557Q359 557 406 539T481 491T509 424Q509 394 487 377T426 360Q410 360
394 364T364 378Q364 435 348 464T301 494Q266 494 247 456T227 347Q227 260 258 220T357 180Q391 180 423 190T495 223L514 173Q490 147 453 127T371 95T281 83Z" />
<glyph unicode="&#xa3;" horiz-adv-x="598" d="M104 0Q84 13 77 27T69 69Q125 120 146 154T167 216Q167 242 154 266T124 318T93 382T80 468Q80 518 111 558T199 621T328 645Q397 645 447 629T524 582T552 511Q552 482 533 464T478 446Q460 446 443 450T418 460Q418
507 396 533T335 559Q293 559 271 539T248 481Q248 452 259 424T284 367T309 305T320 232Q320 206 307 178T267 124T202 78L199 117L482 92L429 32L470 204Q493 204 516 200T549 183V0H104ZM42 288Q42 307 46 329T57 368H448Q448 349 444 327T433 288H42Z" />
<glyph unicode="&#xa4;" horiz-adv-x="670" d="M325 68Q223 68 162 122T100 271Q100 333 130 387T215 474T339 508Q440 508 501 454T563 306Q563 243 534 189T451 102T325 68ZM248 120L127 -12Q112 -7 96 7T68 36T55 57L183 198L248 120ZM412 120L477 196L604
55Q603 49 592 35T564 7T532 -12L412 120ZM191 373L55 524Q57 530 68 544T96 573T127 591L256 449L191 373ZM471 371L408 449L536 591Q552 587 568 573T595 545T608 524L471 371ZM331 172Q360 172 377 187T402 229T410 287Q410 321 402 348T376 391T332 407Q303
407 286 391T261 350T253 293Q253 262 261 234T287 189T331 172Z" />
<glyph unicode="&#xa5;" horiz-adv-x="691" d="M166 226Q166 245 170 267T181 306H518Q518 287 514 265T503 226H166ZM166 106Q166 125 170 147T181 186H518Q518 167 514 145T503 106H166ZM354 56L43 584L93 541L2 565Q2 585 6 603T24 641H327Q327 612 323 593T311
572L226 545L249 589L416 304H366L506 584L521 541L410 565Q410 585 414 603T430 641H689Q689 612 685 593T673 572L583 545L621 589L354 56ZM184 0Q184 29 188 47T200 69L274 96L253 70V275H439V75L407 100L509 76Q509 57 505 40T489 0H184Z" />
<glyph unicode="&#xa6;" horiz-adv-x="225" d="M48 361V734Q98 734 132 728T177 716V361H48ZM177 -200Q127 -200 92 -194T48 -182V173H177V-200Z" />
<glyph unicode="&#xa7;" horiz-adv-x="516" d="M249 -12Q154 -12 96 18T38 97Q38 127 60 145T117 164Q158 164 186 144Q186 49 252 49Q279 49 295 63T312 100Q312 117 304 129T275 151T220 173Q158 193 123 213T73 258T58 321Q58 377 97 412T210 457L255 380Q236
376 225 365T214 337Q214 324 222 314T252 294T311 271Q377 247 413 227T464 182T479 124Q479 82 452 52T373 5T249 -12ZM321 187L268 265Q312 278 312 314Q312 328 305 337T277 357T219 380Q157 404 122 425T73 470T58 529Q58 589 114 622T272 655Q331 655 374
643T440 609T464 556Q464 526 442 508T384 489Q347 489 324 511Q324 551 308 572T261 594Q239 594 227 583T214 551Q214 535 223 523T253 500T310 478Q375 458 412 438T464 393T479 329Q479 272 438 235T321 187Z" />
<glyph unicode="&#xa8;" horiz-adv-x="428" d="M337 534Q291 534 269 559T247 623Q247 647 260 667T294 700T337 712Q381 712 404 687T428 623Q428 599 415 579T381 547T337 534ZM90 534Q44 534 22 559T0 623Q0 647 13 667T47 700T90 712Q134 712 157 687T181
623Q181 599 168 579T134 547T90 534Z" />
<glyph unicode="&#xa9;" horiz-adv-x="640" d="M320 140Q236 140 169 178T64 283T25 435Q25 520 63 586T169 691T320 730Q405 730 471 692T576 587T615 435Q615 350 577 284T472 179T320 140ZM320 164Q398 164 459 199T556 295T591 435Q591 513 556 574T460 671T320
706Q242 706 181 671T84 575T49 435Q49 357 84 296T180 199T320 164ZM339 239Q271 239 223 262T148 329T121 431Q121 492 150 540T230 615T345 643Q387 643 425 635T490 612L478 500Q458 502 446 505T433 514L421 577L437 552Q393 591 345 591Q296 591 269 551T242
438Q242 394 255 362T291 311T346 292Q372 292 392 301T433 331L418 301L431 395Q452 395 463 394T481 388L491 295Q463 267 426 253T339 239Z" />
<glyph unicode="&#xaa;" horiz-adv-x="442" d="M91 391Q57 391 36 413T14 470Q14 509 43 538T125 579L225 602L216 584V619Q216 655 211 668T189 681Q172 681 163 664T152 607Q146 599 131 594T95 588Q65 588 48 601T30 639Q30 667 54 689T119 724T211 737Q290
737 336 706T383 620V499Q383 489 387 481T403 472Q411 472 416 474T425 479L435 433Q412 414 380 403T316 391Q276 391 251 410T226 460H218Q193 429 163 410T91 391ZM178 483Q192 483 209 491T242 521L218 480V554L234 552L197 543Q173 537 165 528T156 506Q156
494 162 489T178 483ZM381 242H54Q52 248 51 257T49 281Q49 333 73 352H400Q402 346 403 336T405 313Q405 262 381 242Z" />
<glyph unicode="&#xab;" horiz-adv-x="468" d="M189 76L45 224Q32 238 26 246T20 267Q20 280 26 289T45 311L189 459Q209 457 224 442T243 404L124 231V303L243 131Q240 109 225 94T189 76ZM384 76L240 224Q227 238 221 246T215 267Q215 280 221 289T240 311L384
459Q404 457 419 442T438 404L319 231V303L438 131Q435 109 420 94T384 76Z" />
<glyph unicode="&#xac;" horiz-adv-x="572" d="M462 124Q443 124 425 128T395 142V286L440 241H72Q54 262 54 299Q54 309 56 320T61 341H501V131Q493 128 483 126T462 124Z" />
<glyph unicode="&#xad;" horiz-adv-x="360" d="M52 198Q46 204 42 218T38 248Q38 312 102 312Q137 312 166 311T223 310Q249 310 273 314T309 324Q315 314 318 300T322 274Q322 210 259 210Q227 210 197 211T138 212Q111 212 87 208T52 198Z" />
<glyph unicode="&#xae;" horiz-adv-x="563" d="M282 242Q212 242 157 274T70 361T38 486Q38 556 70 611T157 698T282 730Q352 730 407 698T494 611T526 486Q526 416 494 361T407 274T282 242ZM282 262Q347 262 397 291T477 371T506 486Q506 551 477 601T398 681T282
710Q218 710 167 681T87 602T58 486Q58 422 87 371T167 291T282 262ZM131 330Q131 341 133 351T139 362L179 379L172 368V608L180 598L130 612Q130 635 141 651H313Q363 651 396 629T430 564Q430 515 394 487T306 458Q292 458 280 460T257 466L267 469V368L254
382L297 368Q297 355 295 347T286 330H131ZM267 498L258 508Q263 506 271 504T284 502Q307 502 319 514T332 556Q332 579 321 591T291 604Q288 604 282 603T258 598L267 606V498ZM410 323Q387 323 372 327T344 345T317 392T282 479L368 500Q387 451 415 411T478
341Q461 332 442 328T410 323Z" />
<glyph unicode="&#xaf;" horiz-adv-x="356" d="M332 568H5Q3 574 2 583T0 607Q0 659 24 678H351Q353 672 354 662T356 639Q356 588 332 568Z" />
<glyph unicode="&#xb0;" horiz-adv-x="478" d="M220 374Q138 374 94 419T49 548Q49 610 74 656T144 728T249 754Q331 754 380 706T429 576Q429 517 403 471T330 400T220 374ZM231 484Q268 484 291 508T314 569Q314 604 295 624T243 644Q207 644 186 620T164 557Q164
523 181 504T231 484Z" />
<glyph unicode="&#xb1;" horiz-adv-x="600" d="M300 271Q281 271 263 275T233 289V579Q241 584 251 585T273 586Q293 586 310 582T339 568V278Q331 275 321 273T300 271ZM72 380Q54 401 54 438Q54 448 56 459T61 480H500Q518 459 518 422Q518 412 516 402T511
380H72ZM72 152Q54 173 54 210Q54 220 56 231T61 252H500Q518 231 518 194Q518 184 516 174T511 152H72Z" />
<glyph unicode="&#xb2;" horiz-adv-x="420" d="M54 350Q40 366 37 378T33 415Q122 483 163 534T204 627Q204 644 198 651T174 658Q158 658 143 652T112 634L124 651L115 607Q112 594 54 594L42 709Q125 743 205 743Q281 743 326 716T371 644Q371 595 315 529T152
389L120 446L337 431L296 419L318 477Q333 477 349 474T381 461V350H54Z" />
<glyph unicode="&#xb3;" horiz-adv-x="404" d="M188 343Q129 343 95 354T46 384T32 423Q32 448 44 462T76 484T112 491Q114 460 129 443T167 426Q187 426 195 434T203 459Q203 477 186 492T137 520Q131 523 129 532T127 575Q162 585 179 600T196 632Q196 644 188
651T164 658Q148 658 132 650T93 620L135 674L121 620Q120 614 107 612T60 609L49 708Q88 726 127 734T202 743Q273 743 316 717T359 644Q359 610 335 589T257 552L255 560Q310 547 340 518T370 450Q370 400 321 372T188 343Z" />
<glyph unicode="&#xb4;" horiz-adv-x="276" d="M45 506Q29 506 15 520T0 557Q63 623 98 660T152 714T180 735T199 740Q217 740 235 727T264 693T276 652Q276 645 271 638T244 617T175 577T45 506Z" />
<glyph unicode="&#xb5;" horiz-adv-x="657" d="M8 -258Q8 -239 10 -219T24 -194L88 -168L80 -207V363L102 348L34 367Q27 369 23 387T18 434Q75 443 111 447T170 451Q218 451 240 434T262 379V168Q262 139 274 124T309 109Q332 109 350 119T382 143T402 163L383
128V363L405 348L337 367Q330 369 326 387T321 434Q378 443 414 447T473 451Q521 451 543 434T565 379V121Q565 102 572 94T595 86Q603 86 612 88T628 93L641 41Q613 17 574 3T498 -12Q451 -12 423 12T394 79H385Q361 39 324 14T251 -12Q224 -12 207 8T189 59H222V-204Q222
-224 209 -235T176 -251T139 -257T109 -258H8Z" />
<glyph unicode="&#xb6;" horiz-adv-x="592" d="M226 -137Q186 -137 161 -116T136 -60Q136 -45 141 -28T153 0Q216 0 250 10T298 47T312 120V573Q337 573 373 574T446 578T512 582T555 587Q570 566 570 543Q570 493 516 474T376 475L493 537L494 321Q494 230 472
148T413 1T327 -100T226 -137ZM280 157Q159 157 92 213T25 370Q25 432 49 479T117 554T217 581Q224 581 226 581T238 580T280 576V157Z" />
<glyph unicode="&#xb7;" horiz-adv-x="225" d="M112 174Q67 174 44 200T20 266Q20 306 48 332T112 358Q158 358 181 333T205 266Q205 226 177 200T112 174Z" />
<glyph unicode="&#xb8;" horiz-adv-x="303" d="M142 -270Q84 -270 47 -246T10 -184Q10 -161 22 -149T55 -136Q85 -136 109 -155Q109 -191 118 -209T156 -228Q174 -228 187 -215T200 -170Q200 -144 183 -127T137 -110Q124 -110 115 -111T100 -115L131 0H171L145
-90L130 -71Q144 -67 156 -66T182 -64Q213 -64 238 -75T279 -107T295 -160Q295 -186 278 -211T227 -253T142 -270Z" />
<glyph unicode="&#xb9;" horiz-adv-x="359" d="M40 350Q40 403 50 407L130 436L114 408V692L133 608L47 597Q39 608 35 620T31 647Q31 661 33 672T42 692L193 743H274V412L249 439L335 413Q335 400 332 385T321 350H40Z" />
<glyph unicode="&#xba;" horiz-adv-x="475" d="M217 391Q126 391 76 432T26 550Q26 606 54 648T132 713T249 737Q341 737 395 694T449 575Q449 521 420 480T339 415T217 391ZM241 446Q257 446 265 473T273 552Q273 611 262 646T231 682Q216 682 209 654T202 574Q202
513 212 480T241 446ZM391 242H64Q62 248 61 257T59 281Q59 333 83 352H410Q412 346 413 336T415 313Q415 262 391 242Z" />
<glyph unicode="&#xbb;" horiz-adv-x="468" d="M84 76L228 224Q241 238 247 246T253 267Q253 280 247 289T228 311L84 459Q64 457 49 442T30 404L149 231V303L30 131Q33 109 48 94T84 76ZM279 76L423 224Q436 238 442 246T448 267Q448 280 442 289T423 311L279
459Q259 457 244 442T225 404L344 231V303L225 131Q228 109 243 94T279 76Z" />
<glyph unicode="&#xbc;" horiz-adv-x="1100" d="M70 262Q70 315 80 319L160 348L144 320V604L163 520L77 509Q69 520 65 532T61 559Q61 573 63 584T72 604L223 655H304V324L279 351L365 325Q365 312 362 297T351 262H70ZM428 -12Q389 -12 366 -6T319 20L612 655Q644
655 667 649T721 623L428 -12ZM837 0V316L894 304L755 122L711 158H1032V83H695Q669 97 669 148L855 393Q924 393 960 369T997 295V0H837Z" />
<glyph unicode="&#xbd;" horiz-adv-x="1100" d="M70 262Q70 315 80 319L160 348L144 320V604L163 520L77 509Q69 520 65 532T61 559Q61 573 63 584T72 604L223 655H304V324L279 351L365 325Q365 312 362 297T351 262H70ZM428 -12Q389 -12 366 -6T319 20L612 655Q644
655 667 649T721 623L428 -12ZM705 0Q691 16 688 28T684 65Q773 133 814 184T855 277Q855 294 849 301T825 308Q809 308 794 302T763 284L775 301L766 257Q763 244 705 244L693 359Q776 393 856 393Q932 393 977 366T1022 294Q1022 245 966 179T803 39L771 96L988
81L947 69L969 127Q984 127 1000 124T1032 111V0H705Z" />
<glyph unicode="&#xbe;" horiz-adv-x="1100" d="M208 255Q149 255 115 266T66 296T52 335Q52 360 64 374T96 396T132 403Q134 372 149 355T187 338Q207 338 215 346T223 371Q223 389 206 404T157 432Q151 435 149 444T147 487Q182 497 199 512T216 544Q216 556
208 563T184 570Q168 570 152 562T113 532L155 586L141 532Q140 526 127 524T80 521L69 620Q108 638 147 646T222 655Q293 655 336 629T379 556Q379 522 355 501T277 464L275 472Q330 459 360 430T390 362Q390 312 341 284T208 255ZM463 -12Q424 -12 401 -6T354
20L647 655Q679 655 702 649T756 623L463 -12ZM852 0V316L909 304L770 122L726 158H1047V83H710Q684 97 684 148L870 393Q939 393 975 369T1012 295V0H852Z" />
<glyph unicode="&#xbf;" horiz-adv-x="451" d="M256 254Q288 254 310 247L319 136Q282 130 254 117T205 83T175 37T164 -21Q164 -61 177 -86T229 -111Q254 -111 269 -88T285 4Q293 9 311 15T358 22Q398 22 423 0T448 -65Q448 -112 392 -147T231 -183Q124 -183
64 -139T3 -21Q3 7 13 34T42 85T87 130T145 165T214 188L194 171L202 247Q224 254 256 254ZM257 484Q302 484 325 459T349 392Q349 353 321 327T257 300Q211 300 188 325T164 392Q164 432 192 458T257 484Z" />
<glyph unicode="&#xc0;" horiz-adv-x="713" d="M2 0Q2 29 6 47T18 69L102 103L54 52L259 618Q264 632 284 640T326 652T363 656Q381 656 397 654T430 648L656 57L609 100L711 76Q711 57 707 40T688 0H380Q380 29 384 47T396 69L470 96L464 56L279 539H337L162
57L150 106L276 76Q276 57 272 40T253 0H2ZM176 185L193 275H424L443 185H176ZM463 727Q369 749 315 762T237 784T206 800T199 819Q199 857 218 886T264 915Q272 915 284 910T321 892T387 853T493 788Q493 766 486 747T463 727Z" />
<glyph unicode="&#xc1;" horiz-adv-x="713" d="M2 0Q2 29 6 47T18 69L102 103L54 52L259 618Q264 632 284 640T326 652T363 656Q381 656 397 654T430 648L656 57L609 100L711 76Q711 57 707 40T688 0H380Q380 29 384 47T396 69L470 96L464 56L279 539H337L162
57L150 106L276 76Q276 57 272 40T253 0H2ZM176 185L193 275H424L443 185H176ZM229 727Q213 727 206 746T199 788Q264 828 305 853T370 891T407 910T428 915Q454 915 473 886T493 819Q493 808 487 801T456 785T378 763T229 727Z" />
<glyph unicode="&#xc2;" horiz-adv-x="713" d="M2 0Q2 29 6 47T18 69L102 103L54 52L259 618Q264 632 284 640T326 652T363 656Q381 656 397 654T430 648L656 57L609 100L711 76Q711 57 707 40T688 0H380Q380 29 384 47T396 69L470 96L464 56L279 539H337L162
57L150 106L276 76Q276 57 272 40T253 0H2ZM176 185L193 275H424L443 185H176ZM346 915Q370 915 389 908T427 882T471 831T530 747Q530 729 517 717T485 704L332 803H360L207 704Q188 704 175 716T162 747Q197 798 221 830T265 881T303 907T346 915Z" />
<glyph unicode="&#xc3;" horiz-adv-x="713" d="M2 0Q2 29 6 47T18 69L102 103L54 52L259 618Q264 632 284 640T326 652T363 656Q381 656 397 654T430 648L656 57L609 100L711 76Q711 57 707 40T688 0H380Q380 29 384 47T396 69L470 96L464 56L279 539H337L162
57L150 106L276 76Q276 57 272 40T253 0H2ZM176 185L193 275H424L443 185H176ZM268 785Q243 785 225 768T207 724Q175 724 161 731T147 755Q147 795 163 828T206 881T265 902Q295 902 321 891T373 868T425 857Q450 857 468 874T486 918Q518 918 531 911T545 887Q545
848 529 815T487 761T427 740Q397 740 371 751T319 773T268 785Z" />
<glyph unicode="&#xc4;" horiz-adv-x="713" d="M2 0Q2 29 6 47T18 69L102 103L54 52L259 618Q264 632 284 640T326 652T363 656Q381 656 397 654T430 648L656 57L609 100L711 76Q711 57 707 40T688 0H380Q380 29 384 47T396 69L470 96L464 56L279 539H337L162
57L150 106L276 76Q276 57 272 40T253 0H2ZM176 185L193 275H424L443 185H176ZM469 732Q423 732 401 757T379 821Q379 845 392 865T426 898T469 910Q513 910 536 885T560 821Q560 797 547 777T513 745T469 732ZM222 732Q176 732 154 757T132 821Q132 845 145 865T179
898T222 910Q266 910 289 885T313 821Q313 797 300 777T266 745T222 732Z" />
<glyph unicode="&#xc5;" horiz-adv-x="713" d="M2 0Q2 29 6 47T18 69L102 103L54 52L259 618Q264 632 284 640T326 652T363 656Q381 656 397 654T430 648L656 57L609 100L711 76Q711 57 707 40T688 0H380Q380 29 384 47T396 69L470 96L464 56L279 539H337L162
57L150 106L276 76Q276 57 272 40T253 0H2ZM176 185L193 275H424L443 185H176ZM337 680Q274 680 234 713T193 799Q193 840 213 872T270 923T351 942Q416 942 457 907T499 816Q499 757 454 719T337 680ZM347 740Q367 740 378 758T389 807Q389 841 377 861T344 882Q303
882 303 812Q303 778 314 759T347 740Z" />
<glyph unicode="&#xc6;" horiz-adv-x="963" d="M-17 0Q-17 29 -13 47T-1 69L83 103L28 32L395 591L460 541L309 565Q309 585 313 603T331 641H881V458Q844 458 829 463T811 478L782 558L796 549L613 531L624 544V356L614 366H724L711 356L733 426Q753 426 776
422T819 404V224Q799 211 776 207T733 202L710 275L724 266H614L624 276V100L614 111L813 94L801 72L835 205Q855 205 873 201T911 183V0H369Q369 29 373 47T385 69L459 96L438 70V235L454 206H244L289 238L172 58L139 109L267 76Q267 57 263 40T244 0H-17ZM304
278L301 306H453L438 278V509H456L304 278Z" />
<glyph unicode="&#xc7;" horiz-adv-x="678" d="M363 -12Q261 -12 185 25T67 132T25 293Q25 371 54 437T135 552T258 628T413 655Q473 655 526 642T616 605L596 423Q563 423 544 428T523 444L509 545L542 500Q513 527 473 541T388 556Q335 556 298 530T241 454T221
332Q221 256 241 201T299 117T389 87Q435 87 475 105T540 157L507 94L526 259Q566 259 582 256T605 244L616 74Q582 35 513 12T363 -12ZM369 -270Q311 -270 274 -243T237 -175Q237 -155 249 -146T280 -136Q300 -136 313 -140T331 -149Q331 -184 349 -202T386 -220Q403
-220 417 -208T432 -170Q432 -153 423 -141T397 -121T359 -114Q346 -114 337 -114T322 -115L345 0H395L381 -74L362 -61Q383 -54 409 -55T461 -68T503 -102T520 -160Q520 -186 503 -211T453 -253T369 -270Z" />
<glyph unicode="&#xc8;" horiz-adv-x="632" d="M38 0Q38 29 42 47T54 69L128 96L107 70V566L129 541L38 565Q38 585 42 603T60 641H550V458Q513 458 498 463T480 478L451 558L465 549L282 531L293 544V361L283 371H403L390 361L412 436Q429 436 449 432T488 414V234Q470
221 450 217T412 212L389 290L403 281H283L293 291V100L283 111L482 94L470 72L504 205Q524 205 542 201T580 183V0H38ZM432 727Q338 749 284 762T206 784T175 800T168 819Q168 857 187 886T233 915Q241 915 253 910T290 892T356 853T462 788Q462 766 455 747T432
727Z" />
<glyph unicode="&#xc9;" horiz-adv-x="632" d="M38 0Q38 29 42 47T54 69L128 96L107 70V566L129 541L38 565Q38 585 42 603T60 641H550V458Q513 458 498 463T480 478L451 558L465 549L282 531L293 544V361L283 371H403L390 361L412 436Q429 436 449 432T488 414V234Q470
221 450 217T412 212L389 290L403 281H283L293 291V100L283 111L482 94L470 72L504 205Q524 205 542 201T580 183V0H38ZM198 727Q182 727 175 746T168 788Q233 828 274 853T339 891T376 910T397 915Q423 915 442 886T462 819Q462 808 456 801T425 785T347 763T198
727Z" />
<glyph unicode="&#xca;" horiz-adv-x="632" d="M38 0Q38 29 42 47T54 69L128 96L107 70V566L129 541L38 565Q38 585 42 603T60 641H550V458Q513 458 498 463T480 478L451 558L465 549L282 531L293 544V361L283 371H403L390 361L412 436Q429 436 449 432T488 414V234Q470
221 450 217T412 212L389 290L403 281H283L293 291V100L283 111L482 94L470 72L504 205Q524 205 542 201T580 183V0H38ZM315 915Q339 915 358 908T396 882T440 831T499 747Q499 729 486 717T454 704L301 803H329L176 704Q157 704 144 716T131 747Q166 798 190 830T234
881T272 907T315 915Z" />
<glyph unicode="&#xcb;" horiz-adv-x="632" d="M38 0Q38 29 42 47T54 69L128 96L107 70V566L129 541L38 565Q38 585 42 603T60 641H550V458Q513 458 498 463T480 478L451 558L465 549L282 531L293 544V361L283 371H403L390 361L412 436Q429 436 449 432T488 414V234Q470
221 450 217T412 212L389 290L403 281H283L293 291V100L283 111L482 94L470 72L504 205Q524 205 542 201T580 183V0H38ZM438 732Q392 732 370 757T348 821Q348 845 361 865T395 898T438 910Q482 910 505 885T529 821Q529 797 516 777T482 745T438 732ZM191 732Q145
732 123 757T101 821Q101 845 114 865T148 898T191 910Q235 910 258 885T282 821Q282 797 269 777T235 745T191 732Z" />
<glyph unicode="&#xcc;" horiz-adv-x="400" d="M38 0Q38 29 42 47T54 69L128 96L107 70V566L129 541L38 565Q38 585 42 603T60 641H363Q363 612 359 593T347 572L262 545L293 571V75L261 100L363 76Q363 57 359 40T343 0H38ZM313 727Q219 749 165 762T87 784T56
800T49 819Q49 857 68 886T114 915Q122 915 134 910T171 892T237 853T343 788Q343 766 336 747T313 727Z" />
<glyph unicode="&#xcd;" horiz-adv-x="400" d="M38 0Q38 29 42 47T54 69L128 96L107 70V566L129 541L38 565Q38 585 42 603T60 641H363Q363 612 359 593T347 572L262 545L293 571V75L261 100L363 76Q363 57 359 40T343 0H38ZM79 727Q63 727 56 746T49 788Q114
828 155 853T220 891T257 910T278 915Q304 915 323 886T343 819Q343 808 337 801T306 785T228 763T79 727Z" />
<glyph unicode="&#xce;" horiz-adv-x="400" d="M38 0Q38 29 42 47T54 69L128 96L107 70V566L129 541L38 565Q38 585 42 603T60 641H363Q363 612 359 593T347 572L262 545L293 571V75L261 100L363 76Q363 57 359 40T343 0H38ZM196 915Q220 915 239 908T277 882T321
831T380 747Q380 729 367 717T335 704L182 803H210L57 704Q38 704 25 716T12 747Q47 798 71 830T115 881T153 907T196 915Z" />
<glyph unicode="&#xcf;" horiz-adv-x="400" d="M38 0Q38 29 42 47T54 69L128 96L107 70V566L129 541L38 565Q38 585 42 603T60 641H363Q363 612 359 593T347 572L262 545L293 571V75L261 100L363 76Q363 57 359 40T343 0H38ZM319 732Q273 732 251 757T229 821Q229
845 242 865T276 898T319 910Q363 910 386 885T410 821Q410 797 397 777T363 745T319 732ZM72 732Q26 732 4 757T-18 821Q-18 845 -5 865T29 898T72 910Q116 910 139 885T163 821Q163 797 150 777T116 745T72 732Z" />
<glyph unicode="&#xd0;" horiz-adv-x="729" d="M38 0Q38 29 42 47T54 69L128 96L107 70V566L129 541L38 565Q38 585 42 603T56 641H408Q484 641 540 617T632 551T686 456T704 345Q704 281 683 220T622 109T525 30T393 0H38ZM369 96Q406 96 432 114T475 163T500
237T508 328Q508 386 493 435T447 515T371 545Q343 545 316 539T271 522L293 544V102L283 116Q301 105 323 101T369 96ZM36 529Q36 541 37 560T40 597T50 625L399 617Q399 592 394 571T380 544L36 529Z" />
<glyph unicode="&#xd1;" horiz-adv-x="780" d="M596 -3Q574 -3 555 -2T523 3L202 422L222 439V57L213 100L324 76Q324 57 320 39T304 0H38Q38 29 42 48T54 69L144 96L122 52V584L149 541L38 565Q38 585 42 603T58 641H262L630 158L571 137V584L579 541L468 565Q468
585 472 603T488 641H754Q754 612 750 593T738 572L648 545L671 589V37Q671 22 656 13T622 1T596 -3ZM322 785Q297 785 279 768T261 724Q229 724 215 731T201 755Q201 795 217 828T260 881T319 902Q349 902 375 891T427 868T479 857Q504 857 522 874T540 918Q572
918 585 911T599 887Q599 848 583 815T541 761T481 740Q451 740 425 751T373 773T322 785Z" />
<glyph unicode="&#xd2;" horiz-adv-x="715" d="M336 -12Q243 -12 173 27T64 136T25 298Q25 374 51 439T126 552T239 628T380 655Q473 655 542 616T651 507T690 345Q690 269 664 204T589 90T477 15T336 -12ZM362 87Q404 87 433 114T478 191T494 310Q494 422 456
489T353 556Q312 556 282 529T237 453T221 333Q221 221 259 154T362 87ZM475 727Q381 749 327 762T249 784T218 800T211 819Q211 857 230 886T276 915Q284 915 296 910T333 892T399 853T505 788Q505 766 498 747T475 727Z" />
<glyph unicode="&#xd3;" horiz-adv-x="715" d="M336 -12Q243 -12 173 27T64 136T25 298Q25 374 51 439T126 552T239 628T380 655Q473 655 542 616T651 507T690 345Q690 269 664 204T589 90T477 15T336 -12ZM362 87Q404 87 433 114T478 191T494 310Q494 422 456
489T353 556Q312 556 282 529T237 453T221 333Q221 221 259 154T362 87ZM241 727Q225 727 218 746T211 788Q276 828 317 853T382 891T419 910T440 915Q466 915 485 886T505 819Q505 808 499 801T468 785T390 763T241 727Z" />
<glyph unicode="&#xd4;" horiz-adv-x="715" d="M336 -12Q243 -12 173 27T64 136T25 298Q25 374 51 439T126 552T239 628T380 655Q473 655 542 616T651 507T690 345Q690 269 664 204T589 90T477 15T336 -12ZM362 87Q404 87 433 114T478 191T494 310Q494 422 456
489T353 556Q312 556 282 529T237 453T221 333Q221 221 259 154T362 87ZM358 915Q382 915 401 908T439 882T483 831T542 747Q542 729 529 717T497 704L344 803H372L219 704Q200 704 187 716T174 747Q209 798 233 830T277 881T315 907T358 915Z" />
<glyph unicode="&#xd5;" horiz-adv-x="715" d="M336 -12Q243 -12 173 27T64 136T25 298Q25 374 51 439T126 552T239 628T380 655Q473 655 542 616T651 507T690 345Q690 269 664 204T589 90T477 15T336 -12ZM362 87Q404 87 433 114T478 191T494 310Q494 422 456
489T353 556Q312 556 282 529T237 453T221 333Q221 221 259 154T362 87ZM280 785Q255 785 237 768T219 724Q187 724 173 731T159 755Q159 795 175 828T218 881T277 902Q307 902 333 891T385 868T437 857Q462 857 480 874T498 918Q530 918 543 911T557 887Q557 848
541 815T499 761T439 740Q409 740 383 751T331 773T280 785Z" />
<glyph unicode="&#xd6;" horiz-adv-x="715" d="M336 -12Q243 -12 173 27T64 136T25 298Q25 374 51 439T126 552T239 628T380 655Q473 655 542 616T651 507T690 345Q690 269 664 204T589 90T477 15T336 -12ZM362 87Q404 87 433 114T478 191T494 310Q494 422 456
489T353 556Q312 556 282 529T237 453T221 333Q221 221 259 154T362 87ZM481 732Q435 732 413 757T391 821Q391 845 404 865T438 898T481 910Q525 910 548 885T572 821Q572 797 559 777T525 745T481 732ZM234 732Q188 732 166 757T144 821Q144 845 157 865T191
898T234 910Q278 910 301 885T325 821Q325 797 312 777T278 745T234 732Z" />
<glyph unicode="&#xd7;" horiz-adv-x="572" d="M412 99L266 244H306L168 106Q146 106 126 123T94 165L239 311V271L101 409Q101 430 118 451T160 483L306 338H266L404 476Q424 476 445 460T478 417L333 271V311L471 173Q471 151 455 131T412 99Z" />
<glyph unicode="&#xd8;" horiz-adv-x="715" d="M336 -12Q243 -12 173 27T64 136T25 298Q25 374 51 439T126 552T239 628T380 655Q473 655 542 616T651 507T690 345Q690 269 664 204T589 90T477 15T336 -12ZM362 87Q404 87 433 114T478 191T494 310Q494 422 456
489T353 556Q312 556 282 529T237 453T221 333Q221 221 259 154T362 87ZM204 -130Q179 -130 156 -125T121 -107L511 772Q534 772 557 767T594 749L204 -130Z" />
<glyph unicode="&#xd9;" horiz-adv-x="750" d="M394 -12Q282 -12 216 16T120 94T91 211V566L114 541L23 565Q23 585 27 603T45 641H348Q348 612 344 593T332 572L247 545L277 571V254Q277 196 285 159T319 105T395 87Q456 87 488 106T532 164T544 256V584L556
538L450 565Q450 585 454 603T470 641H728Q728 613 724 594T712 572L625 545L644 589V214Q644 160 618 108T536 22T394 -12ZM519 727Q425 749 371 762T293 784T262 800T255 819Q255 857 274 886T320 915Q328 915 340 910T377 892T443 853T549 788Q549 766 542 747T519
727Z" />
<glyph unicode="&#xda;" horiz-adv-x="750" d="M394 -12Q282 -12 216 16T120 94T91 211V566L114 541L23 565Q23 585 27 603T45 641H348Q348 612 344 593T332 572L247 545L277 571V254Q277 196 285 159T319 105T395 87Q456 87 488 106T532 164T544 256V584L556
538L450 565Q450 585 454 603T470 641H728Q728 613 724 594T712 572L625 545L644 589V214Q644 160 618 108T536 22T394 -12ZM285 727Q269 727 262 746T255 788Q320 828 361 853T426 891T463 910T484 915Q510 915 529 886T549 819Q549 808 543 801T512 785T434 763T285
727Z" />
<glyph unicode="&#xdb;" horiz-adv-x="750" d="M394 -12Q282 -12 216 16T120 94T91 211V566L114 541L23 565Q23 585 27 603T45 641H348Q348 612 344 593T332 572L247 545L277 571V254Q277 196 285 159T319 105T395 87Q456 87 488 106T532 164T544 256V584L556
538L450 565Q450 585 454 603T470 641H728Q728 613 724 594T712 572L625 545L644 589V214Q644 160 618 108T536 22T394 -12ZM402 915Q426 915 445 908T483 882T527 831T586 747Q586 729 573 717T541 704L388 803H416L263 704Q244 704 231 716T218 747Q253 798 277
830T321 881T359 907T402 915Z" />
<glyph unicode="&#xdc;" horiz-adv-x="750" d="M394 -12Q282 -12 216 16T120 94T91 211V566L114 541L23 565Q23 585 27 603T45 641H348Q348 612 344 593T332 572L247 545L277 571V254Q277 196 285 159T319 105T395 87Q456 87 488 106T532 164T544 256V584L556
538L450 565Q450 585 454 603T470 641H728Q728 613 724 594T712 572L625 545L644 589V214Q644 160 618 108T536 22T394 -12ZM525 732Q479 732 457 757T435 821Q435 845 448 865T482 898T525 910Q569 910 592 885T616 821Q616 797 603 777T569 745T525 732ZM278
732Q232 732 210 757T188 821Q188 845 201 865T235 898T278 910Q322 910 345 885T369 821Q369 797 356 777T322 745T278 732Z" />
<glyph unicode="&#xdd;" horiz-adv-x="691" d="M354 56L43 584L93 541L2 565Q2 585 6 603T24 641H327Q327 612 323 593T311 572L226 545L249 589L416 304H366L506 584L521 541L410 565Q410 585 414 603T430 641H689Q689 612 685 593T673 572L583 545L621 589L354
56ZM184 0Q184 29 188 47T200 69L274 96L253 70V275H439V75L407 100L509 76Q509 57 505 40T489 0H184ZM257 727Q241 727 234 746T227 788Q292 828 333 853T398 891T435 910T456 915Q482 915 501 886T521 819Q521 808 515 801T484 785T406 763T257 727Z" />
<glyph unicode="&#xde;" horiz-adv-x="598" d="M38 0Q38 29 42 47T54 69L128 96L107 70V566L129 541L38 565Q38 585 42 603T59 641H363Q363 612 359 593T347 572L262 545L293 571V519L278 534H388Q459 534 505 508T575 439T598 348Q598 290 572 237T495 150T376
116Q355 116 332 119T283 128L293 138V57L261 100L373 76Q373 57 369 40T353 0H38ZM293 213L283 227Q300 222 312 221T336 220Q358 220 373 237T397 280T405 335Q405 373 390 403T346 434Q333 434 319 432T283 424L293 432V213Z" />
<glyph unicode="&#xdf;" horiz-adv-x="765" d="M497 -12Q440 -12 396 1T325 40T299 97Q299 127 321 145T378 164Q397 164 415 159T447 144Q447 95 463 72T517 49Q540 49 556 60T573 91Q573 108 559 119T521 139T470 157Q434 170 397 186T334 233T309 313Q309 349
325 373T364 415T410 451T449 495T465 557Q465 604 444 631T380 658Q332 658 310 630T281 554T274 442V0H30Q30 62 46 69L103 97L92 80V385L119 359L31 362Q31 387 36 411T52 442L126 446L92 418Q92 506 130 577T237 691T398 734Q480 734 531 711T607 652T632 575Q632
532 614 505T570 461T517 431T473 404T455 367Q455 350 470 339T509 320T562 301Q600 289 639 272T704 225T730 144Q730 95 702 60T622 7T497 -12Z" />
<glyph unicode="&#xe0;" horiz-adv-x="566" d="M130 -12Q85 -12 56 17T26 93Q26 149 64 187T176 242L310 273L298 253V308Q298 358 288 378T250 398Q219 398 204 374T186 297Q178 287 161 281T122 275Q87 275 68 291T49 336Q49 372 78 400T159 445T275 462Q373
462 426 421T480 303V121Q480 102 486 94T511 86Q520 86 529 88T543 93L556 41Q529 18 490 3T417 -12Q366 -12 338 12T309 79H300Q267 38 220 13T130 -12ZM224 91Q243 91 270 106T316 141L300 105V214L319 211L233 190Q209 185 196 170T183 135Q183 116 194 104T224
91ZM356 506Q273 551 226 577T158 616T131 637T125 652Q125 672 137 692T166 726T202 740Q211 740 220 736T248 714T302 660T401 557Q401 534 387 520T356 506Z" />
<glyph unicode="&#xe1;" horiz-adv-x="566" d="M130 -12Q85 -12 56 17T26 93Q26 149 64 187T176 242L310 273L298 253V308Q298 358 288 378T250 398Q219 398 204 374T186 297Q178 287 161 281T122 275Q87 275 68 291T49 336Q49 372 78 400T159 445T275 462Q373
462 426 421T480 303V121Q480 102 486 94T511 86Q520 86 529 88T543 93L556 41Q529 18 490 3T417 -12Q366 -12 338 12T309 79H300Q267 38 220 13T130 -12ZM224 91Q243 91 270 106T316 141L300 105V214L319 211L233 190Q209 185 196 170T183 135Q183 116 194 104T224
91ZM170 506Q154 506 140 520T125 557Q188 623 223 660T277 714T305 735T324 740Q342 740 360 727T389 693T401 652Q401 645 396 638T369 617T300 577T170 506Z" />
<glyph unicode="&#xe2;" horiz-adv-x="566" d="M130 -12Q85 -12 56 17T26 93Q26 149 64 187T176 242L310 273L298 253V308Q298 358 288 378T250 398Q219 398 204 374T186 297Q178 287 161 281T122 275Q87 275 68 291T49 336Q49 372 78 400T159 445T275 462Q373
462 426 421T480 303V121Q480 102 486 94T511 86Q520 86 529 88T543 93L556 41Q529 18 490 3T417 -12Q366 -12 338 12T309 79H300Q267 38 220 13T130 -12ZM224 91Q243 91 270 106T316 141L300 105V214L319 211L233 190Q209 185 196 170T183 135Q183 116 194 104T224
91ZM263 747Q278 747 290 741T321 715T368 654T447 543Q447 525 434 513T402 500Q355 539 321 568T263 617Q240 597 206 568T124 500Q105 500 92 512T79 543Q128 613 157 654T205 715T235 741T263 747Z" />
<glyph unicode="&#xe3;" horiz-adv-x="566" d="M130 -12Q85 -12 56 17T26 93Q26 149 64 187T176 242L310 273L298 253V308Q298 358 288 378T250 398Q219 398 204 374T186 297Q178 287 161 281T122 275Q87 275 68 291T49 336Q49 372 78 400T159 445T275 462Q373
462 426 421T480 303V121Q480 102 486 94T511 86Q520 86 529 88T543 93L556 41Q529 18 490 3T417 -12Q366 -12 338 12T309 79H300Q267 38 220 13T130 -12ZM224 91Q243 91 270 106T316 141L300 105V214L319 211L233 190Q209 185 196 170T183 135Q183 116 194 104T224
91ZM185 587Q160 587 142 570T124 526Q92 526 78 533T64 557Q64 597 80 630T123 683T182 704Q212 704 238 693T290 670T342 659Q367 659 385 676T403 720Q435 720 448 713T462 689Q462 650 446 617T404 563T344 542Q314 542 288 553T236 575T185 587Z" />
<glyph unicode="&#xe4;" horiz-adv-x="566" d="M130 -12Q85 -12 56 17T26 93Q26 149 64 187T176 242L310 273L298 253V308Q298 358 288 378T250 398Q219 398 204 374T186 297Q178 287 161 281T122 275Q87 275 68 291T49 336Q49 372 78 400T159 445T275 462Q373
462 426 421T480 303V121Q480 102 486 94T511 86Q520 86 529 88T543 93L556 41Q529 18 490 3T417 -12Q366 -12 338 12T309 79H300Q267 38 220 13T130 -12ZM224 91Q243 91 270 106T316 141L300 105V214L319 211L233 190Q209 185 196 170T183 135Q183 116 194 104T224
91ZM386 534Q340 534 318 559T296 623Q296 647 309 667T343 700T386 712Q430 712 453 687T477 623Q477 599 464 579T430 547T386 534ZM139 534Q93 534 71 559T49 623Q49 647 62 667T96 700T139 712Q183 712 206 687T230 623Q230 599 217 579T183 547T139 534Z"
/>
<glyph unicode="&#xe5;" horiz-adv-x="566" d="M130 -12Q85 -12 56 17T26 93Q26 149 64 187T176 242L310 273L298 253V308Q298 358 288 378T250 398Q219 398 204 374T186 297Q178 287 161 281T122 275Q87 275 68 291T49 336Q49 372 78 400T159 445T275 462Q373
462 426 421T480 303V121Q480 102 486 94T511 86Q520 86 529 88T543 93L556 41Q529 18 490 3T417 -12Q366 -12 338 12T309 79H300Q267 38 220 13T130 -12ZM224 91Q243 91 270 106T316 141L300 105V214L319 211L233 190Q209 185 196 170T183 135Q183 116 194 104T224
91ZM254 482Q191 482 151 518T110 611Q110 655 130 689T187 744T268 764Q333 764 374 726T416 628Q416 564 371 523T254 482ZM264 542Q284 542 295 562T306 619Q306 657 294 680T261 704Q242 704 231 683T220 624Q220 586 231 564T264 542Z" />
<glyph unicode="&#xe6;" horiz-adv-x="802" d="M130 -12Q85 -12 56 17T26 93Q26 149 64 187T176 242L298 270V308Q298 358 288 378T250 398Q219 398 204 374T186 297Q179 287 161 281T122 275Q88 275 69 291T49 336Q49 372 79 400T160 445T275 462Q319 462 355
454T416 428Q444 445 476 453T544 462Q613 462 661 438T735 364T761 240Q761 221 753 214T724 206H484Q492 166 510 139T557 99T626 85Q658 85 686 95T748 128L767 78Q743 52 705 32T623 0T532 -12Q461 -12 408 17T326 99Q286 48 233 18T130 -12ZM224 91Q242 91
267 103T310 134Q304 151 301 169T297 206L233 190Q210 184 197 170T183 135Q183 116 194 104T224 91ZM480 274L597 278Q595 338 582 368T542 399Q514 399 498 366T480 274Z" />
<glyph unicode="&#xe7;" horiz-adv-x="534" d="M281 -12Q208 -12 153 16T66 96T35 214Q35 286 69 342T164 430T301 462Q359 462 406 444T481 396T509 329Q509 299 487 282T426 265Q410 265 394 269T364 283Q364 340 348 369T301 399Q266 399 247 361T227 252Q227
165 258 125T357 85Q391 85 423 95T495 128L514 78Q490 52 453 32T371 0T281 -12ZM286 -270Q228 -270 191 -246T154 -184Q154 -161 166 -149T199 -136Q229 -136 253 -155Q253 -191 262 -209T300 -228Q318 -228 331 -215T344 -170Q344 -144 327 -127T281 -110Q268
-110 259 -111T244 -115L275 0H315L289 -90L274 -71Q288 -67 300 -66T326 -64Q357 -64 382 -75T423 -107T439 -160Q439 -186 422 -211T371 -253T286 -270Z" />
<glyph unicode="&#xe8;" horiz-adv-x="550" d="M280 -12Q208 -12 153 17T66 97T35 215Q35 286 69 342T162 430T296 462Q362 462 409 437T483 365T509 255Q509 224 502 215T472 206H165V272L357 278L345 258Q345 305 339 336T321 383T290 399Q262 399 245 363T228
265Q228 206 244 166T293 105T374 85Q406 85 434 95T496 128L515 78Q491 52 453 32T371 0T280 -12ZM383 506Q300 551 253 577T185 616T158 637T152 652Q152 672 164 692T193 726T229 740Q238 740 247 736T275 714T329 660T428 557Q428 534 414 520T383 506Z" />
<glyph unicode="&#xe9;" horiz-adv-x="550" d="M280 -12Q208 -12 153 17T66 97T35 215Q35 286 69 342T162 430T296 462Q362 462 409 437T483 365T509 255Q509 224 502 215T472 206H165V272L357 278L345 258Q345 305 339 336T321 383T290 399Q262 399 245 363T228
265Q228 206 244 166T293 105T374 85Q406 85 434 95T496 128L515 78Q491 52 453 32T371 0T280 -12ZM197 506Q181 506 167 520T152 557Q215 623 250 660T304 714T332 735T351 740Q369 740 387 727T416 693T428 652Q428 645 423 638T396 617T327 577T197 506Z" />
<glyph unicode="&#xea;" horiz-adv-x="550" d="M280 -12Q208 -12 153 17T66 97T35 215Q35 286 69 342T162 430T296 462Q362 462 409 437T483 365T509 255Q509 224 502 215T472 206H165V272L357 278L345 258Q345 305 339 336T321 383T290 399Q262 399 245 363T228
265Q228 206 244 166T293 105T374 85Q406 85 434 95T496 128L515 78Q491 52 453 32T371 0T280 -12ZM290 747Q305 747 317 741T348 715T395 654T474 543Q474 525 461 513T429 500Q382 539 348 568T290 617Q267 597 233 568T151 500Q132 500 119 512T106 543Q155
613 184 654T232 715T262 741T290 747Z" />
<glyph unicode="&#xeb;" horiz-adv-x="550" d="M280 -12Q208 -12 153 17T66 97T35 215Q35 286 69 342T162 430T296 462Q362 462 409 437T483 365T509 255Q509 224 502 215T472 206H165V272L357 278L345 258Q345 305 339 336T321 383T290 399Q262 399 245 363T228
265Q228 206 244 166T293 105T374 85Q406 85 434 95T496 128L515 78Q491 52 453 32T371 0T280 -12ZM413 534Q367 534 345 559T323 623Q323 647 336 667T370 700T413 712Q457 712 480 687T504 623Q504 599 491 579T457 547T413 534ZM166 534Q120 534 98 559T76 623Q76
647 89 667T123 700T166 712Q210 712 233 687T257 623Q257 599 244 579T210 547T166 534Z" />
<glyph unicode="&#xec;" horiz-adv-x="376" d="M30 0Q30 63 46 69L113 97L102 80V374L114 359L46 378Q30 383 30 445Q74 452 118 457T215 462Q284 462 284 390V85L272 100L366 76Q366 54 362 37T346 0H30ZM281 506Q198 551 151 577T83 616T56 637T50 652Q50 672
62 692T91 726T127 740Q136 740 145 736T173 714T227 660T326 557Q326 534 312 520T281 506Z" />
<glyph unicode="&#xed;" horiz-adv-x="376" d="M30 0Q30 63 46 69L113 97L102 80V374L114 359L46 378Q30 383 30 445Q74 452 118 457T215 462Q284 462 284 390V85L272 100L366 76Q366 54 362 37T346 0H30ZM95 506Q79 506 65 520T50 557Q113 623 148 660T202 714T230
735T249 740Q267 740 285 727T314 693T326 652Q326 645 321 638T294 617T225 577T95 506Z" />
<glyph unicode="&#xee;" horiz-adv-x="376" d="M30 0Q30 63 46 69L113 97L102 80V374L114 359L46 378Q30 383 30 445Q74 452 118 457T215 462Q284 462 284 390V85L272 100L366 76Q366 54 362 37T346 0H30ZM188 747Q203 747 215 741T246 715T293 654T372 543Q372
525 359 513T327 500Q280 539 246 568T188 617Q165 597 131 568T49 500Q30 500 17 512T4 543Q53 613 82 654T130 715T160 741T188 747Z" />
<glyph unicode="&#xef;" horiz-adv-x="376" d="M30 0Q30 63 46 69L113 97L102 80V374L114 359L46 378Q30 383 30 445Q74 452 118 457T215 462Q284 462 284 390V85L272 100L366 76Q366 54 362 37T346 0H30ZM567 534Q521 534 499 559T477 623Q477 647 490 667T524
700T567 712Q611 712 634 687T658 623Q658 599 645 579T611 547T567 534ZM320 534Q274 534 252 559T230 623Q230 647 243 667T277 700T320 712Q364 712 387 687T411 623Q411 599 398 579T364 547T320 534Z" />
<glyph unicode="&#xf0;" horiz-adv-x="602" d="M275 -12Q162 -12 99 38T35 179Q35 247 70 298T169 379T317 408Q338 408 357 405T392 395L374 381Q372 417 355 456T305 534T227 606T119 660Q119 689 131 701T176 714Q220 714 273 692T378 629T473 530Q514 476
540 411T567 275Q567 193 529 128T426 26T275 -12ZM303 51Q328 51 344 82T369 168T378 291Q378 310 377 325T374 354L442 272Q405 315 377 330T309 345Q269 345 248 310T227 206Q227 132 246 92T303 51ZM172 563L509 668Q521 655 524 638T528 600L191 495Q180 509
176 526T172 563Z" />
<glyph unicode="&#xf1;" horiz-adv-x="661" d="M30 0Q30 62 46 69L103 97L92 80V363L103 347L46 367Q30 372 30 434Q89 443 124 447T182 451Q225 451 244 434T264 379V371L260 373H274Q322 415 372 438T465 462Q579 462 579 311V85L568 101L641 76Q641 54 637
37T621 0H355Q355 62 371 69L407 87L397 70V282Q397 341 355 341Q333 341 315 332T286 313T271 300L274 315V76L262 91L316 76Q316 54 312 37T296 0H30ZM258 587Q233 587 215 570T197 526Q165 526 151 533T137 557Q137 597 153 630T196 683T255 704Q285 704 311
693T363 670T415 659Q440 659 458 676T476 720Q508 720 521 713T535 689Q535 650 519 617T477 563T417 542Q387 542 361 553T309 575T258 587Z" />
<glyph unicode="&#xf2;" horiz-adv-x="601" d="M275 -12Q162 -12 99 45T35 204Q35 281 70 339T169 429T317 462Q393 462 449 435T535 359T566 241Q566 167 529 110T427 20T275 -12ZM303 51Q338 51 356 93T374 213Q374 299 353 349T295 399Q262 399 245 357T227
234Q227 146 246 99T303 51ZM386 506Q303 551 256 577T188 616T161 637T155 652Q155 672 167 692T196 726T232 740Q241 740 250 736T278 714T332 660T431 557Q431 534 417 520T386 506Z" />
<glyph unicode="&#xf3;" horiz-adv-x="601" d="M275 -12Q162 -12 99 45T35 204Q35 281 70 339T169 429T317 462Q393 462 449 435T535 359T566 241Q566 167 529 110T427 20T275 -12ZM303 51Q338 51 356 93T374 213Q374 299 353 349T295 399Q262 399 245 357T227
234Q227 146 246 99T303 51ZM200 506Q184 506 170 520T155 557Q218 623 253 660T307 714T335 735T354 740Q372 740 390 727T419 693T431 652Q431 645 426 638T399 617T330 577T200 506Z" />
<glyph unicode="&#xf4;" horiz-adv-x="601" d="M275 -12Q162 -12 99 45T35 204Q35 281 70 339T169 429T317 462Q393 462 449 435T535 359T566 241Q566 167 529 110T427 20T275 -12ZM303 51Q338 51 356 93T374 213Q374 299 353 349T295 399Q262 399 245 357T227
234Q227 146 246 99T303 51ZM293 747Q308 747 320 741T351 715T398 654T477 543Q477 525 464 513T432 500Q385 539 351 568T293 617Q270 597 236 568T154 500Q135 500 122 512T109 543Q158 613 187 654T235 715T265 741T293 747Z" />
<glyph unicode="&#xf5;" horiz-adv-x="601" d="M275 -12Q162 -12 99 45T35 204Q35 281 70 339T169 429T317 462Q393 462 449 435T535 359T566 241Q566 167 529 110T427 20T275 -12ZM303 51Q338 51 356 93T374 213Q374 299 353 349T295 399Q262 399 245 357T227
234Q227 146 246 99T303 51ZM215 587Q190 587 172 570T154 526Q122 526 108 533T94 557Q94 597 110 630T153 683T212 704Q242 704 268 693T320 670T372 659Q397 659 415 676T433 720Q465 720 478 713T492 689Q492 650 476 617T434 563T374 542Q344 542 318 553T266
575T215 587Z" />
<glyph unicode="&#xf6;" horiz-adv-x="601" d="M275 -12Q162 -12 99 45T35 204Q35 281 70 339T169 429T317 462Q393 462 449 435T535 359T566 241Q566 167 529 110T427 20T275 -12ZM303 51Q338 51 356 93T374 213Q374 299 353 349T295 399Q262 399 245 357T227
234Q227 146 246 99T303 51ZM416 534Q370 534 348 559T326 623Q326 647 339 667T373 700T416 712Q460 712 483 687T507 623Q507 599 494 579T460 547T416 534ZM169 534Q123 534 101 559T79 623Q79 647 92 667T126 700T169 712Q213 712 236 687T260 623Q260 599
247 579T213 547T169 534Z" />
<glyph unicode="&#xf7;" horiz-adv-x="572" d="M286 383Q252 383 234 402T216 453Q216 482 237 502T286 522Q321 522 339 503T357 453Q357 423 336 403T286 383ZM285 58Q251 58 233 77T215 127Q215 157 236 177T285 197Q320 197 338 178T356 127Q356 98 335 78T285
58ZM72 241Q54 262 54 299Q54 309 56 320T61 341H500Q518 320 518 283Q518 273 516 263T511 241H72Z" />
<glyph unicode="&#xf8;" horiz-adv-x="601" d="M275 -12Q162 -12 99 45T35 204Q35 281 70 339T169 429T317 462Q393 462 449 435T535 359T566 241Q566 167 529 110T427 20T275 -12ZM303 51Q338 51 356 93T374 213Q374 299 353 349T295 399Q262 399 245 357T227
234Q227 146 246 99T303 51ZM186 -94Q168 -94 152 -90T127 -78L400 538Q417 538 433 534T459 522L186 -94Z" />
<glyph unicode="&#xf9;" horiz-adv-x="647" d="M181 -12Q126 -12 98 25T70 139V363L92 348L24 367Q17 369 13 387T8 434Q65 443 101 447T160 451Q208 451 230 434T252 379V168Q252 139 264 124T299 109Q322 109 340 119T372 143T392 163L373 128V363L395 348L327
367Q320 369 316 387T311 434Q368 443 404 447T463 451Q511 451 533 434T555 379V121Q555 102 562 94T585 86Q593 86 602 88T618 93L631 41Q603 17 564 3T488 -12Q441 -12 413 12T384 79H375Q272 -12 181 -12ZM404 506Q321 551 274 577T206 616T179 637T173 652Q173
672 185 692T214 726T250 740Q259 740 268 736T296 714T350 660T449 557Q449 534 435 520T404 506Z" />
<glyph unicode="&#xfa;" horiz-adv-x="647" d="M181 -12Q126 -12 98 25T70 139V363L92 348L24 367Q17 369 13 387T8 434Q65 443 101 447T160 451Q208 451 230 434T252 379V168Q252 139 264 124T299 109Q322 109 340 119T372 143T392 163L373 128V363L395 348L327
367Q320 369 316 387T311 434Q368 443 404 447T463 451Q511 451 533 434T555 379V121Q555 102 562 94T585 86Q593 86 602 88T618 93L631 41Q603 17 564 3T488 -12Q441 -12 413 12T384 79H375Q272 -12 181 -12ZM218 506Q202 506 188 520T173 557Q236 623 271 660T325
714T353 735T372 740Q390 740 408 727T437 693T449 652Q449 645 444 638T417 617T348 577T218 506Z" />
<glyph unicode="&#xfb;" horiz-adv-x="647" d="M181 -12Q126 -12 98 25T70 139V363L92 348L24 367Q17 369 13 387T8 434Q65 443 101 447T160 451Q208 451 230 434T252 379V168Q252 139 264 124T299 109Q322 109 340 119T372 143T392 163L373 128V363L395 348L327
367Q320 369 316 387T311 434Q368 443 404 447T463 451Q511 451 533 434T555 379V121Q555 102 562 94T585 86Q593 86 602 88T618 93L631 41Q603 17 564 3T488 -12Q441 -12 413 12T384 79H375Q272 -12 181 -12ZM311 747Q326 747 338 741T369 715T416 654T495 543Q495
525 482 513T450 500Q403 539 369 568T311 617Q288 597 254 568T172 500Q153 500 140 512T127 543Q176 613 205 654T253 715T283 741T311 747Z" />
<glyph unicode="&#xfc;" horiz-adv-x="647" d="M181 -12Q126 -12 98 25T70 139V363L92 348L24 367Q17 369 13 387T8 434Q65 443 101 447T160 451Q208 451 230 434T252 379V168Q252 139 264 124T299 109Q322 109 340 119T372 143T392 163L373 128V363L395 348L327
367Q320 369 316 387T311 434Q368 443 404 447T463 451Q511 451 533 434T555 379V121Q555 102 562 94T585 86Q593 86 602 88T618 93L631 41Q603 17 564 3T488 -12Q441 -12 413 12T384 79H375Q272 -12 181 -12ZM434 534Q388 534 366 559T344 623Q344 647 357 667T391
700T434 712Q478 712 501 687T525 623Q525 599 512 579T478 547T434 534ZM187 534Q141 534 119 559T97 623Q97 647 110 667T144 700T187 712Q231 712 254 687T278 623Q278 599 265 579T231 547T187 534Z" />
<glyph unicode="&#xfd;" horiz-adv-x="523" d="M90 -270Q53 -270 28 -249T3 -191Q3 -179 7 -162T20 -133H37Q88 -133 120 -127T172 -106T204 -66T228 -3L226 -73L51 365L79 344L3 367Q3 390 7 407T23 443H294Q294 375 278 369L214 347L234 372L329 132L282 131L377
372L386 348L324 367Q324 400 328 415T343 443H520Q520 410 516 394T504 374L447 350L473 371L316 -31Q275 -140 217 -205T90 -270ZM196 506Q180 506 166 520T151 557Q214 623 249 660T303 714T331 735T350 740Q368 740 386 727T415 693T427 652Q427 645 422 638T395
617T326 577T196 506Z" />
<glyph unicode="&#xfe;" horiz-adv-x="640" d="M25 -240Q25 -178 41 -171L98 -143L87 -160V646L99 631L31 650Q15 655 15 717Q59 724 105 729T177 734Q220 734 239 717T259 662V371L255 373H269Q293 413 340 437T437 462Q487 462 525 435T584 360T605 246Q605
168 576 110T495 20T371 -12Q343 -12 314 -7T257 8L269 16V-155L257 -140L351 -164Q351 -186 347 -203T331 -240H25ZM322 64Q365 64 388 105T412 220Q412 285 394 318T338 352Q315 352 299 341T271 314T250 287L265 322V76L250 104Q264 85 282 75T322 64Z" />
<glyph unicode="&#xff;" horiz-adv-x="523" d="M90 -270Q53 -270 28 -249T3 -191Q3 -179 7 -162T20 -133H37Q88 -133 120 -127T172 -106T204 -66T228 -3L226 -73L51 365L79 344L3 367Q3 390 7 407T23 443H294Q294 375 278 369L214 347L234 372L329 132L282 131L377
372L386 348L324 367Q324 400 328 415T343 443H520Q520 410 516 394T504 374L447 350L473 371L316 -31Q275 -140 217 -205T90 -270ZM412 534Q366 534 344 559T322 623Q322 647 335 667T369 700T412 712Q456 712 479 687T503 623Q503 599 490 579T456 547T412 534ZM165
534Q119 534 97 559T75 623Q75 647 88 667T122 700T165 712Q209 712 232 687T256 623Q256 599 243 579T209 547T165 534Z" />
<glyph unicode="&#x2013;" horiz-adv-x="651" d="M52 220Q45 229 43 245T41 276Q41 302 43 314H597Q603 305 605 289T608 258Q608 232 605 220H52Z" />
<glyph unicode="&#x2014;" horiz-adv-x="846" d="M67 220Q59 229 56 245T53 276Q53 302 56 314H775Q783 305 786 289T789 258Q789 232 786 220H67Z" />
<glyph unicode="&#x2018;" horiz-adv-x="240" d="M191 747Q198 743 206 732T215 702Q162 687 143 667T123 623Q123 596 137 582T169 556T202 529T216 482Q216 446 190 423T130 399Q81 399 53 435T24 536Q24 588 45 632T104 706T191 747Z" />
<glyph unicode="&#x2019;" horiz-adv-x="240" d="M49 399Q42 403 34 414T25 444Q78 459 97 479T117 523Q117 550 103 564T71 590T38 617T24 664Q24 700 50 723T110 747Q160 747 188 711T216 610Q216 559 195 515T137 440T49 399Z" />
<glyph unicode="&#x201a;" horiz-adv-x="234" d="M42 -178Q35 -174 27 -163T18 -133Q71 -118 90 -98T110 -54Q110 -27 96 -13T64 13T31 40T17 87Q17 123 43 146T103 170Q153 170 181 134T209 33Q209 -18 188 -62T130 -137T42 -178Z" />
<glyph unicode="&#x201c;" horiz-adv-x="480" d="M191 747Q198 743 206 732T215 702Q162 687 143 667T123 623Q123 596 137 582T169 556T202 529T216 482Q216 446 190 423T130 399Q81 399 53 435T24 536Q24 588 45 632T104 706T191 747ZM431 747Q438 743 446 732T455
702Q402 687 383 667T363 623Q363 596 377 582T409 556T442 529T456 482Q456 446 430 423T370 399Q321 399 293 435T264 536Q264 588 285 632T344 706T431 747Z" />
<glyph unicode="&#x201d;" horiz-adv-x="480" d="M49 399Q42 403 34 414T25 444Q78 459 97 479T117 523Q117 550 103 564T71 590T38 617T24 664Q24 700 50 723T110 747Q160 747 188 711T216 610Q216 559 195 515T137 440T49 399ZM289 399Q282 403 274 414T265
444Q318 459 337 479T357 523Q357 550 343 564T311 590T278 617T264 664Q264 700 290 723T350 747Q400 747 428 711T456 610Q456 559 435 515T377 440T289 399Z" />
<glyph unicode="&#x201e;" horiz-adv-x="474" d="M42 -178Q35 -174 27 -163T18 -133Q71 -118 90 -98T110 -54Q110 -27 96 -13T64 13T31 40T17 87Q17 123 43 146T103 170Q153 170 181 134T209 33Q209 -18 188 -62T130 -137T42 -178ZM282 -178Q275 -174 267 -163T258
-133Q311 -118 330 -98T350 -54Q350 -27 336 -13T304 13T271 40T257 87Q257 123 283 146T343 170Q393 170 421 134T449 33Q449 -18 428 -62T370 -137T282 -178Z" />
<glyph unicode="&#x2022;" horiz-adv-x="313" d="M156 171Q108 171 84 197T60 267Q60 294 74 315T110 350T156 363Q205 363 229 337T253 267Q253 227 224 199T156 171Z" />
<glyph unicode="&#x2039;" horiz-adv-x="273" d="M189 76L45 224Q32 238 26 246T20 267Q20 280 26 289T45 311L189 459Q209 457 224 442T243 404L124 231V303L243 131Q240 109 225 94T189 76Z" />
<glyph unicode="&#x203a;" horiz-adv-x="273" d="M84 76L228 224Q241 238 247 246T253 267Q253 280 247 289T228 311L84 459Q64 457 49 442T30 404L149 231V303L30 131Q33 109 48 94T84 76Z" />
</font>
</defs>
</svg>
