<?xml version="1.0" standalone="no"?>
<!DOCTYPE svg PUBLIC "-//W3C//DTD SVG 1.1//EN" "http://www.w3.org/Graphics/SVG/1.1/DTD/svg11.dtd">
<svg xmlns="http://www.w3.org/2000/svg">
<defs >
<font id="Petrona" horiz-adv-x="544" ><font-face
    font-family="Petrona ExtraBold"
    units-per-em="1000"
    panose-1="0 0 0 0 0 0 0 0 0 0"
    ascent="858"
    descent="-270"
    alphabetic="0" />
<glyph unicode=" " horiz-adv-x="215" />
<glyph unicode="!" horiz-adv-x="250" d="M125 205Q99 205 80 211Q75 273 70 331T60 438T52 524T49 577Q49 615 66 635T125 655Q165 655 182 635T199 577Q199 560 197 524T190 439T180 331T169 211Q150 205 125 205ZM126 -12Q88 -12 68 9T47 66Q47 99 71 121T126
144Q164 144 184 123T205 66Q205 32 181 10T126 -12Z" />
<glyph unicode="&quot;" horiz-adv-x="347" d="M87 434Q78 434 70 435T56 442Q45 507 38 549T26 618T22 664Q22 696 35 719T87 742Q126 742 139 719T152 664Q152 646 149 619T139 549T118 442Q106 434 87 434ZM260 434Q251 434 243 435T229 442Q218 507 211 549T199
618T195 664Q195 696 208 719T260 742Q299 742 312 719T325 664Q325 646 322 619T312 549T291 442Q279 434 260 434Z" />
<glyph unicode="#" horiz-adv-x="550" d="M179 17Q123 17 103 35L128 181L163 152H21Q15 159 13 171T10 195Q10 207 11 215T14 228H170L131 199L153 339L188 310H50Q44 317 42 329T39 353Q39 365 40 373T43 386H196L157 357L185 521Q240 521 261 502L236 357L216
386H366L343 357L370 521Q427 521 447 502L422 357L386 386H527Q534 379 537 366T540 339Q540 330 539 323T536 310H380L418 339L397 199L361 228H498Q505 221 508 208T511 184Q511 173 510 164T507 152H354L392 181L365 17Q309 17 288 35L313 181L333 152H184L207
181L179 17ZM209 199L194 224H342L318 199L340 339L356 314H208L231 339L209 199Z" />
<glyph unicode="$" horiz-adv-x="543" d="M273 -2Q234 -2 193 5T114 24T48 52L76 213Q82 219 94 222T118 226Q134 226 142 222L153 95L131 127Q157 103 192 89T268 74Q310 74 337 96T364 153Q364 176 354 193T317 226T238 267Q178 295 143 324T91 388T74 471Q74
551 128 598T275 645Q306 645 341 639T408 623T466 597L448 446Q422 446 407 451T389 465L373 572L404 517Q387 541 354 555T281 570Q239 570 215 551T191 498Q191 478 201 463T238 430T313 391Q380 360 419 331T475 268T492 185Q492 128 466 86T390 21T273 -2ZM312
-96Q296 -96 278 -93T245 -84V737Q261 737 280 734T312 725V-96Z" />
<glyph unicode="%" horiz-adv-x="693" d="M113 -12Q90 -12 72 -1T46 28L581 655Q604 655 622 644T647 615L113 -12ZM511 5Q467 5 437 24T391 75T376 141Q376 182 393 220T443 282T523 307Q569 307 599 289T644 239T659 171Q659 130 642 92T591 29T511 5ZM516 46Q541
46 555 74T569 151Q569 204 556 235T518 266Q494 266 480 238T466 161Q466 108 479 77T516 46ZM170 346Q124 346 95 365T50 416T34 482Q34 523 51 561T102 623T182 648Q228 648 258 630T302 580T317 512Q317 471 300 433T250 370T170 346ZM175 387Q200 387 214
415T228 492Q228 545 215 576T177 607Q153 607 139 579T125 502Q125 449 138 418T175 387Z" />
<glyph unicode="&amp;" horiz-adv-x="759" d="M281 -12Q219 -12 166 6T80 61T47 157Q47 208 70 243T130 304T208 352T287 396T347 448T370 519Q370 550 355 572T310 595Q281 595 263 574T245 520Q245 485 266 454T329 376L525 153Q547 131 572 116T632 94T716
86Q716 67 700 44T653 5T581 -12Q542 -12 500 6T425 63L208 311Q177 347 156 379T125 442T114 502Q114 573 167 614T306 655Q354 655 393 642T455 600T479 527Q479 485 459 455T405 403T336 360T267 317T213 264T192 190Q192 151 208 122T254 77T322 60Q389 60
438 103T513 227T540 417L559 372L472 377Q472 403 476 421T489 446L728 464Q730 461 731 453T732 438Q732 417 722 396T697 364L615 369L644 412Q645 316 620 238T546 104T431 18T281 -12Z" />
<glyph unicode="&apos;" horiz-adv-x="173" d="M87 434Q78 434 70 435T56 442Q45 507 38 549T26 618T22 664Q22 696 35 719T87 742Q126 742 139 719T152 664Q152 646 149 619T139 549T118 442Q106 434 87 434Z" />
<glyph unicode="(" horiz-adv-x="358" d="M311 -268Q286 -268 251 -247T179 -184T108 -79T55 68T35 258Q35 364 55 448T108 595T178 700T251 764T311 785Q347 785 351 748Q311 716 282 665T234 550T206 411T196 257Q196 179 205 106T234 -33T282 -148T351 -231Q347
-268 311 -268Z" />
<glyph unicode=")" horiz-adv-x="358" d="M47 -268Q72 -268 107 -247T179 -184T250 -79T303 68T323 258Q323 364 303 448T250 595T180 700T107 764T47 785Q11 785 7 748Q47 716 76 665T124 550T152 411T162 257Q162 179 153 106T124 -33T76 -148T7 -231Q11 -268 47 -268Z" />
<glyph unicode="*" horiz-adv-x="451" d="M170 372Q153 374 134 384T99 409T78 440L211 549L214 537L42 544Q39 559 39 571Q39 598 50 619T77 653L224 559L214 551L168 720Q179 727 194 730T226 734Q241 734 256 731T281 720L238 553L229 559L372 655Q389 641
399 621T410 574Q410 568 410 561T408 547L237 536L239 546L375 441Q368 426 353 411T320 385T284 374L219 533H231L170 372Z" />
<glyph unicode="+" horiz-adv-x="572" d="M298 61Q282 61 267 64T242 76V515Q248 519 257 519T275 520Q291 520 306 517T330 505V66Q323 64 315 63T298 61ZM76 249Q61 267 61 298Q61 306 62 315T67 332H494Q510 315 510 283Q510 275 509 267T504 249H76Z" />
<glyph unicode="," horiz-adv-x="226" d="M46 -163Q39 -160 32 -151T24 -125Q72 -111 89 -92T107 -51Q107 -28 95 -15T67 7T39 31T27 72Q27 103 49 122T100 142Q144 142 168 110T193 23Q193 -25 174 -64T121 -129T46 -163Z" />
<glyph unicode="-" horiz-adv-x="360" d="M56 208Q51 214 48 225T44 250Q44 304 102 304Q137 304 166 303T225 302Q249 302 270 305T305 314Q310 305 313 294T316 272Q316 218 259 218Q225 218 196 219T136 220Q111 220 90 217T56 208Z" />
<glyph unicode="." horiz-adv-x="209" d="M104 -12Q66 -12 46 9T26 66Q26 99 50 121T104 144Q143 144 163 123T183 66Q183 33 160 11T104 -12Z" />
<glyph unicode="/" horiz-adv-x="408" d="M102 -200Q70 -200 51 -194T12 -172L305 734Q332 734 351 729T396 706L102 -200Z" />
<glyph unicode="0" horiz-adv-x="688" d="M324 -12Q243 -12 183 25T88 131T53 288Q53 366 77 433T143 550T242 627T365 655Q446 655 506 618T600 513T634 354Q634 276 611 209T545 93T447 16T324 -12ZM346 71Q384 71 412 101T456 186T472 316Q472 436 438 504T342
572Q304 572 276 542T232 457T216 328Q216 209 250 140T346 71Z" />
<glyph unicode="1" horiz-adv-x="450" d="M66 0Q66 25 70 40T82 58L191 90L171 60V593L195 521L53 496Q39 517 39 543Q39 555 41 565T49 585L251 655H324V63L297 94L419 64Q419 46 415 32T399 0H66Z" />
<glyph unicode="2" horiz-adv-x="582" d="M73 0Q56 13 51 27T45 70Q201 193 274 290T347 475Q347 525 325 549T256 574Q191 574 137 525L152 558L140 465Q139 455 123 450T78 444L60 599Q172 655 281 655Q385 655 447 609T509 486Q509 425 468 354T348 205T154
45L127 99L477 77L430 62L461 195Q499 195 525 175V0H73Z" />
<glyph unicode="3" horiz-adv-x="576" d="M167 577L153 462Q151 451 137 446T90 439L72 597Q127 626 182 640T290 655Q389 655 448 613T507 499Q507 440 464 399T331 333L330 344Q424 325 474 278T525 163Q525 110 494 71T406 10T272 -12Q203 -12 153 6T74 57T45
135Q45 195 101 195Q117 195 132 191T153 180Q153 124 179 97T256 69Q307 69 335 95T363 167Q363 215 333 244T223 301Q213 304 210 316T206 360Q279 379 315 411T351 487Q351 526 326 550T258 574Q225 574 192 559T123 509L167 577Z" />
<glyph unicode="4" horiz-adv-x="558" d="M206 0Q206 26 210 41T222 58L313 83L297 60V567L353 565L89 195L49 233H510V158H42Q8 171 8 225L318 655Q449 655 449 560V63L422 86L516 64Q516 44 512 30T496 0H206Z" />
<glyph unicode="5" horiz-adv-x="579" d="M261 -12Q203 -12 154 7T77 60T48 133Q48 162 63 178T106 195Q120 195 135 191T154 183Q154 129 181 99T257 69Q308 69 338 102T369 193Q369 234 355 264T314 311T251 328Q212 328 177 314T117 275Q98 280 90 292T82 331L107
641H496L471 466Q441 469 427 471T409 477T404 488L393 622L425 564L126 543L191 604V348L127 351Q169 377 210 388T298 400Q368 400 420 377T502 311T531 212Q531 150 495 99T398 18T261 -12Z" />
<glyph unicode="6" horiz-adv-x="618" d="M316 -12Q237 -12 178 25T87 130T54 289Q54 369 76 436T139 552T236 628T358 655Q410 655 451 639T516 595T541 533Q541 510 527 497T487 484Q473 484 459 488T436 497Q434 536 412 558T351 580Q284 580 251 514T217 318Q217
196 243 134T322 72Q363 72 387 105T412 193Q412 251 389 282T322 314Q300 314 273 304T222 278T184 244V320Q199 345 228 364T294 394T370 405Q429 405 473 380T544 311T570 209Q570 145 537 95T448 17T316 -12Z" />
<glyph unicode="7" horiz-adv-x="513" d="M236 -12Q213 -12 192 -3T156 30T141 99Q141 131 151 180T192 295T282 439T439 607L446 547L87 564L138 619L131 476Q130 461 111 457T63 450L38 641H492Q505 631 505 616Q505 598 485 569T436 496T376 399T326 278T305
132Q305 98 310 76T330 30Q321 12 295 0T236 -12Z" />
<glyph unicode="8" horiz-adv-x="620" d="M540 498Q540 457 518 425T463 369T395 332L314 346Q327 355 345 370T377 412T391 479Q391 527 369 550T309 573Q271 573 250 551T228 494Q228 463 246 443T296 408T363 381T436 353T504 317T553 265T572 188Q572 134
541 88T451 15T302 -12Q227 -12 170 9T80 68T47 158Q47 205 72 241T137 302T221 336L296 322Q271 312 251 291T221 241T210 179Q210 122 239 96T312 70Q356 70 382 93T409 156Q409 188 391 209T344 244T280 271T210 298T145 332T98 384T80 463Q80 521 109 564T191
631T316 655Q383 655 433 635T512 580T540 498Z" />
<glyph unicode="9" horiz-adv-x="624" d="M304 656Q387 656 446 619T537 513T569 346Q569 238 531 158T425 33T266 -12Q209 -12 163 4T90 49T62 112Q62 135 76 148T116 162Q130 162 145 158T168 148Q169 109 197 86T272 62Q343 62 375 123T407 322Q407 572 299
572Q259 572 235 540T211 453Q211 400 234 369T299 338Q322 338 349 347T400 371T440 405L439 329Q424 306 394 287T328 258T252 247Q194 247 150 271T80 338T54 437Q54 501 86 550T174 627T304 656Z" />
<glyph unicode=":" horiz-adv-x="209" d="M104 -12Q66 -12 46 9T26 66Q26 99 50 121T104 144Q143 144 163 123T183 66Q183 33 160 11T104 -12ZM104 299Q66 299 46 320T26 377Q26 410 50 432T104 455Q143 455 163 434T183 377Q183 344 160 322T104 299Z" />
<glyph unicode=";" horiz-adv-x="226" d="M46 -163Q39 -160 32 -151T24 -125Q72 -111 89 -92T107 -51Q107 -28 95 -15T67 7T39 31T27 72Q27 103 49 122T100 142Q144 142 168 110T193 23Q193 -25 174 -64T121 -129T46 -163ZM113 298Q71 298 49 321T27 384Q27 420
53 445T113 470Q155 470 177 446T200 384Q200 347 174 323T113 298Z" />
<glyph unicode="&lt;" horiz-adv-x="572" d="M503 64Q509 76 509 104Q509 118 507 133T499 156L106 316V262L499 422Q504 429 506 444T509 475Q509 488 508 498T503 514L60 327Q55 321 54 311T52 288Q52 277 53 267T60 251L503 64Z" />
<glyph unicode="=" horiz-adv-x="572" d="M76 338Q61 356 61 387Q61 395 62 404T67 421H494Q510 404 510 372Q510 364 509 356T504 338H76ZM76 416Q61 434 61 465Q61 473 62 482T67 499H494Q510 482 510 450Q510 442 509 434T504 416H76Z" />
<glyph unicode="&gt;" horiz-adv-x="572" d="M69 64Q63 76 63 104Q63 118 65 133T73 156L466 316V262L73 422Q68 429 66 444T63 475Q63 488 64 498T69 514L512 327Q517 321 518 311T520 288Q520 277 519 267T512 251L69 64Z" />
<glyph unicode="?" horiz-adv-x="446" d="M190 205Q164 205 145 211L137 327Q172 334 201 347T252 381T287 430T299 493Q299 539 282 567T220 595Q187 595 168 569T148 477Q140 472 126 467T87 462Q54 462 33 481T12 537Q12 584 66 619T219 655Q320 655 377 611T434
495Q434 463 423 435T391 382T343 338T286 304T225 284L241 299L234 211Q216 205 190 205ZM189 -12Q151 -12 131 9T111 66Q111 99 134 121T189 144Q228 144 248 123T268 66Q268 32 244 10T189 -12Z" />
<glyph unicode="@" horiz-adv-x="925" d="M421 -166Q337 -166 267 -141T144 -68T63 44T35 187Q35 278 69 355T164 488T308 576T490 607Q577 607 650 584T777 517T860 415T890 286Q890 224 868 171T808 77T719 14T612 -9Q569 -9 547 11T524 71Q524 88 527 108T537
154L534 155Q512 83 467 37T365 -9Q306 -9 270 36T234 163Q234 248 266 315T355 421T482 460Q519 460 557 453T629 432T685 401L642 142Q640 128 638 114T635 87Q635 72 641 63T662 54Q684 54 705 73T743 124T770 196T780 281Q780 366 743 425T637 517T473 550Q378
550 305 507T190 388T148 213Q148 114 185 44T288 -63T443 -101Q488 -101 533 -93T617 -69T681 -37L695 -71Q663 -97 622 -118T531 -153T421 -166ZM415 84Q434 84 453 100T491 141T524 196T550 253L522 144L565 385L576 353Q557 374 534 384T483 394Q446 394 418
367T375 292T359 180Q359 134 374 109T415 84Z" />
<glyph unicode="A" horiz-adv-x="691" d="M2 0Q2 25 6 40T18 58L94 87L54 44L264 624Q268 636 284 643T318 653T348 656Q362 656 375 655T402 649L633 49L591 86L689 64Q689 46 685 32T667 0H393Q393 25 397 40T409 58L482 83L475 49L280 552L326 553L142 48L133
90L248 64Q248 46 244 32T225 0H2ZM169 195L184 270H426L443 195H169Z" />
<glyph unicode="B" horiz-adv-x="641" d="M47 0Q47 25 51 40T63 58L135 83L116 60V578L136 555L47 577Q47 597 52 612T67 641H363Q457 641 510 605T563 503Q563 465 545 434T493 381T415 352L408 363Q462 357 503 333T567 273T590 191Q590 133 563 90T487 24T369
0H47ZM342 78Q387 78 411 106T435 186Q435 248 405 278T313 308H259L269 318V84L259 98Q276 89 299 84T342 78ZM269 379L251 401Q259 396 270 393T295 389T321 388Q366 388 389 410T412 477Q412 521 390 542T324 563Q307 563 291 560T259 549L269 560V379Z" />
<glyph unicode="C" horiz-adv-x="669" d="M360 -12Q262 -12 189 26T76 133T35 294Q35 372 63 438T141 552T259 628T409 655Q466 655 517 642T605 605L586 437Q558 437 542 442T524 456L512 557L539 518Q512 543 471 557T384 571Q326 571 284 543T219 461T197 330Q197
251 220 193T285 103T384 71Q431 71 473 90T539 143L511 88L528 244Q562 244 576 241T596 229L605 71Q569 33 502 11T360 -12Z" />
<glyph unicode="D" horiz-adv-x="725" d="M47 0Q47 25 51 40T63 58L135 83L116 60V578L135 555L47 577Q47 596 51 610T65 641H396Q471 641 526 617T618 551T672 456T690 345Q690 282 669 221T608 110T511 30T379 0H47ZM361 80Q404 80 435 99T487 152T518 230T528
325Q528 388 509 442T454 529T362 562Q329 562 299 557T250 541L269 560V85L259 99Q280 88 307 84T361 80Z" />
<glyph unicode="E" horiz-adv-x="622" d="M47 0Q47 25 51 40T63 58L135 83L116 60V578L135 555L47 577Q47 596 51 610T68 641H536V476Q506 476 493 481T477 495L449 574L463 565L258 549L269 562V354L259 363H407L394 354L414 428Q429 428 446 424T477 408V240Q463
229 446 225T414 221L393 297L407 288H259L269 298V83L259 94L483 77L471 58L503 187Q521 187 536 183T567 167V0H47Z" />
<glyph unicode="F" horiz-adv-x="568" d="M47 0Q47 25 51 40T63 58L135 83L116 60V578L135 555L47 577Q47 596 51 610T68 641H536V476Q506 476 493 481T477 495L449 573L463 564L258 547L269 560V344L259 353H414L401 344L420 418Q435 418 452 414T485 398V230Q470
219 453 215T420 211L400 287L414 278H259L269 288V63L244 86L351 64Q351 46 347 32T332 0H47Z" />
<glyph unicode="G" horiz-adv-x="692" d="M357 -12Q260 -12 187 26T75 132T35 294Q35 372 61 438T135 552T246 628T388 655Q446 655 502 642T597 605L578 437Q550 437 533 443T515 460L506 545L518 526Q500 545 459 558T372 571Q315 571 276 543T215 459T194 323Q194
242 216 186T280 101T381 71Q453 71 490 115L458 56V263L478 224L373 247Q373 267 377 280T393 310H656Q656 285 652 270T640 252L576 227L604 267V57Q553 25 488 7T357 -12Z" />
<glyph unicode="H" horiz-adv-x="775" d="M47 0Q47 25 51 40T63 58L135 83L116 60V578L136 555L47 577Q47 596 51 610T68 641H339Q339 616 335 601T323 583L242 558L269 582V344L258 363H510L499 344V578L519 555L430 577Q430 596 434 610T450 641H730Q730 616
726 601T714 583L633 558L652 582V63L632 86L730 64Q730 46 726 32T708 0H430Q430 25 434 40T446 58L518 83L499 60V307L510 288H258L269 307V63L241 86L339 64Q339 46 335 32T319 0H47Z" />
<glyph unicode="I" horiz-adv-x="384" d="M47 0Q47 25 51 40T63 58L135 83L116 60V578L136 555L47 577Q47 596 51 610T68 641H339Q339 616 335 601T323 583L242 558L269 582V63L241 86L339 64Q339 46 335 32T319 0H47Z" />
<glyph unicode="J" horiz-adv-x="348" d="M2 -191Q-31 -191 -53 -172T-75 -117Q-75 -105 -71 -90T-61 -64Q0 -64 34 -51T83 -4T97 88V584L118 555L28 577Q28 597 33 611T49 641H320Q320 616 316 601T304 583L224 558L250 584V245Q250 156 231 77T177 -62T98 -156T2 -191Z" />
<glyph unicode="K" horiz-adv-x="679" d="M569 -12Q543 -12 520 -4T474 24T421 82T357 177T273 318L496 592L521 555L410 577Q410 598 415 612T430 641H664Q664 587 637 580L553 554L605 597L369 309L396 364Q426 316 462 267T535 172T608 90T675 28Q650 9 623
-1T569 -12ZM47 0Q47 25 51 40T63 58L135 83L116 60V578L136 555L47 577Q47 596 51 610T68 641H339Q339 617 335 601T323 583L242 558L269 582V63L241 86L339 64Q339 46 335 32T319 0H47Z" />
<glyph unicode="L" horiz-adv-x="597" d="M47 0Q47 25 51 40T63 58L135 83L116 60V578L136 555L47 577Q47 596 51 610T68 641H347Q347 616 343 601T331 583L251 558L269 582V84L259 95L474 77L462 58L492 187Q510 187 525 183T557 167V0H47Z" />
<glyph unicode="M" horiz-adv-x="932" d="M442 -3Q435 -3 424 -2T409 3L206 571H245L198 49L188 86L287 65Q287 47 284 32T268 1H37Q37 26 41 41T53 59L132 83L113 45L164 595L172 556L85 577Q85 596 89 610T106 641H341L508 168H446L604 641H851Q851 616 847
601T835 583L750 558L782 599L826 48L810 86L895 65Q895 47 891 32T874 1H608Q608 26 612 41T624 59L701 84L678 44L635 580H671L486 21Q482 9 468 3T442 -3Z" />
<glyph unicode="N" horiz-adv-x="771" d="M598 -3Q580 -3 565 -2T538 3L194 464L211 478V48L202 85L306 64Q306 46 302 31T286 0H47Q47 25 51 40T63 58L147 82L128 43V591L150 556L47 577Q47 596 51 610T67 641H246L626 132L576 116V592L584 556L480 577Q480 596
484 610T500 641H739Q739 616 735 601T723 583L640 559L659 596V32Q659 19 647 12T620 1T598 -3Z" />
<glyph unicode="O" horiz-adv-x="720" d="M339 -12Q248 -12 180 27T73 137T35 298Q35 374 61 439T134 552T245 628T382 655Q473 655 541 616T647 506T686 346Q686 270 660 205T587 92T477 16T339 -12ZM366 72Q415 72 450 101T504 184T523 310Q523 430 478 500T354
571Q308 571 272 542T217 460T197 333Q197 213 242 143T366 72Z" />
<glyph unicode="P" horiz-adv-x="628" d="M47 0Q47 25 51 40T63 58L136 83L116 60V578L136 555L48 577Q48 597 52 612T68 641H380Q445 641 491 618T563 552T588 454Q588 394 558 344T475 264T352 234Q327 234 299 238T244 251H269V49L241 86L349 64Q349 44 345
30T329 0H47ZM269 311L248 333Q260 327 282 324T323 320Q357 320 380 335T416 379T428 446Q428 502 402 530T323 559Q306 559 289 556T249 548L269 565V311Z" />
<glyph unicode="Q" horiz-adv-x="720" d="M561 -198Q534 -198 496 -179T410 -115T299 10L336 52Q396 15 458 -16T579 -65T686 -84Q668 -138 635 -168T561 -198ZM339 -12Q248 -12 180 27T73 137T35 298Q35 374 61 439T134 552T245 628T382 655Q473 655 541 616T647
506T686 346Q686 270 660 205T587 92T477 16T339 -12ZM366 72Q415 72 450 101T504 184T523 310Q523 430 478 500T354 571Q308 571 272 542T217 460T197 333Q197 213 242 143T366 72Z" />
<glyph unicode="R" horiz-adv-x="689" d="M47 0Q47 25 51 40T63 58L136 83L116 60V578L136 555L48 577Q48 597 52 612T68 641H380Q444 641 490 619T561 557T586 464Q586 407 557 359T474 283T352 255Q327 255 299 259T244 272H269V49L234 86L341 64Q341 44 337
30T322 0H47ZM269 331L248 353Q260 348 282 344T323 340Q357 340 380 354T414 395T426 456Q426 508 400 533T323 559Q306 559 289 556T249 548L269 565V331ZM567 -12Q536 -12 507 2T449 51T394 145T338 295L457 332Q489 264 525 205T600 100T675 29Q649 10 621
-1T567 -12Z" />
<glyph unicode="S" horiz-adv-x="572" d="M288 -12Q250 -12 207 -5T123 14T51 43L81 211Q98 224 124 224Q132 224 139 223T150 220L161 86L139 122Q158 105 182 93T232 75T284 68Q328 68 356 90T384 148Q384 170 374 186T336 220T251 263Q187 293 149 323T95 390T79
476Q79 558 136 606T290 655Q340 655 395 642T491 606L472 449Q445 449 429 454T411 469L394 579L426 522Q408 547 373 561T296 575Q252 575 227 556T202 504Q202 483 212 468T251 435T330 394Q402 362 443 331T501 265T519 180Q519 121 491 78T412 12T288 -12Z"
/>
<glyph unicode="T" horiz-adv-x="655" d="M157 0Q157 25 161 40T173 58L270 91L251 60V562L262 549L114 565L128 574L99 492Q97 483 85 478T41 473V641H615V473Q584 473 571 478T555 492L528 574L542 565L393 549L404 562V63L379 90L512 64Q512 46 509 32T493 0H157Z" />
<glyph unicode="U" horiz-adv-x="736" d="M386 -12Q280 -12 217 16T125 94T96 211V578L118 555L28 577Q28 596 32 610T49 641H320Q320 616 316 601T304 583L224 558L249 582V243Q249 183 262 145T306 88T386 70Q446 70 481 89T532 147T548 245V592L558 554L461
577Q461 596 465 610T480 641H708Q708 617 704 601T692 583L614 559L631 597V214Q631 157 605 105T525 21T386 -12Z" />
<glyph unicode="V" horiz-adv-x="696" d="M340 -12Q329 -12 309 -10T278 -5L52 591L91 555L2 577Q2 596 6 610T23 641H289Q289 616 285 601T273 583L192 558L210 595L393 109H365L538 592L542 556L441 577Q441 596 445 610T460 641H693Q693 616 689 601T677 583L596
559L628 597L421 22Q416 9 401 2T368 -9T340 -12Z" />
<glyph unicode="W" horiz-adv-x="994" d="M308 -12Q297 -12 278 -10T246 -5L52 592L91 555L2 577Q2 596 6 610T23 641H290Q290 616 286 601T274 583L193 558L207 597L358 134H338L475 573H561L717 134H700L839 592V556L737 577Q737 596 741 610T757 641H992Q992
616 988 601T976 583L895 559L927 597L753 22Q749 9 734 2T701 -9T672 -12Q661 -12 642 -10T610 -5L464 408H509L389 22Q385 9 370 2T337 -9T308 -12Z" />
<glyph unicode="X" horiz-adv-x="675" d="M371 1Q371 26 375 41T387 59L468 84L439 44L62 591L111 555L21 577Q21 596 25 610T42 641H315Q315 616 311 601T299 583L217 558L240 596L617 49L574 87L664 65Q664 47 660 32T643 1H371ZM11 1Q11 26 15 41T27 59L113
84L63 45L274 330L347 288L171 50L162 86L268 65Q268 47 265 32T249 1H11ZM396 317L323 359L496 592L504 556L398 577Q398 596 402 610T417 641H655Q655 616 651 601T639 583L553 558L604 597L396 317Z" />
<glyph unicode="Y" horiz-adv-x="663" d="M342 94L47 591L91 555L2 577Q2 596 6 610T23 641H295Q295 616 291 601T279 583L197 558L217 596L394 297L350 296L499 591L512 556L410 577Q410 596 414 610T430 641H661Q661 616 657 601T645 583L563 559L595 596L342
94ZM188 0Q188 25 192 40T204 58L278 83L259 58V275H411V63L384 86L484 64Q484 46 480 32T465 0H188Z" />
<glyph unicode="Z" horiz-adv-x="638" d="M74 0Q48 0 48 25Q48 35 55 46L387 597L388 548L121 565L153 574L125 486Q122 477 110 472T66 467V641H538Q550 641 556 635T563 617Q563 607 556 595L228 50L227 95L522 76L486 58L518 193Q536 193 551 189T581 173V0H74Z" />
<glyph unicode="[" horiz-adv-x="318" d="M47 -258V778H308Q311 766 311 751Q311 738 308 726T300 708H131L200 761V-241L131 -188H298Q305 -195 308 -207T311 -231Q311 -246 308 -258H47Z" />
<glyph unicode="\" horiz-adv-x="408" d="M305 -200Q337 -200 356 -194T395 -172L102 734Q75 734 56 729T11 706L305 -200Z" />
<glyph unicode="]" horiz-adv-x="318" d="M271 -258V778H10Q7 766 7 751Q7 738 10 726T18 708H187L118 761V-241L187 -188H20Q13 -195 10 -207T7 -231Q7 -246 10 -258H271Z" />
<glyph unicode="^" horiz-adv-x="578" d="M144 289Q121 289 107 293T73 310L237 696Q246 701 259 704T286 708Q300 708 313 705T335 696L499 310Q482 298 468 294T428 289L259 657H313L144 289Z" />
<glyph unicode="_" horiz-adv-x="691" d="M101 -187Q97 -180 95 -167T92 -140Q92 -119 94 -109H591Q596 -116 597 -129T599 -155Q599 -178 597 -187H101Z" />
<glyph unicode="`" horiz-adv-x="254" d="M216 509Q138 553 94 578T30 616T5 636T0 649Q0 666 10 683T35 712T65 724Q73 724 81 720T107 700T159 649T254 551Q254 532 242 521T216 509Z" />
<glyph unicode="a" horiz-adv-x="540" d="M137 -12Q91 -12 61 17T31 92Q31 148 69 185T180 240L313 270L301 253V315Q301 366 288 387T244 409Q208 409 190 384T170 306Q163 297 148 292T116 287Q87 287 71 301T55 340Q55 376 82 403T158 446T265 462Q355 462
402 422T450 304V105Q450 87 457 79T480 70Q490 70 500 74T517 81L528 37Q504 15 470 2T405 -12Q360 -12 335 11T310 75H302Q271 35 226 12T137 -12ZM213 73Q237 73 266 89T315 129L302 99V221L319 218L224 195Q194 189 178 171T162 127Q162 103 176 88T213 73Z"
/>
<glyph unicode="b" horiz-adv-x="596" d="M270 -12Q222 -12 170 -2T75 27V661L86 645L29 662Q12 667 12 719Q66 727 96 730T145 734Q183 734 199 719T216 670V360L212 370H225Q251 412 298 437T394 462Q444 462 481 436T540 361T561 247Q561 169 525 111T424 20T270
-12ZM292 52Q346 52 373 95T401 224Q401 297 380 333T315 370Q289 370 270 359T236 330T208 295L221 326V66L208 91Q227 72 247 62T292 52Z" />
<glyph unicode="c" horiz-adv-x="512" d="M268 -12Q198 -12 146 16T64 94T35 212Q35 285 68 341T158 430T289 462Q343 462 387 445T456 400T482 337Q482 310 464 295T412 279Q398 279 385 283T360 295Q360 350 341 379T286 408Q242 408 218 366T193 246Q193 155
226 112T329 69Q365 69 399 81T470 118L487 77Q464 51 429 31T352 -1T268 -12Z" />
<glyph unicode="d" horiz-adv-x="618" d="M207 -12Q156 -12 117 15T57 90T35 203Q35 280 64 338T145 429T267 462Q296 462 325 457T384 440L373 430V661L385 646L319 662Q303 666 303 719Q354 727 386 730T439 734Q482 734 502 718T523 666V105Q523 87 530 79T553
70Q563 70 573 73T589 81L601 37Q576 15 542 2T474 -12Q432 -12 407 11T382 76H375Q350 38 304 13T207 -12ZM286 79Q312 79 331 89T364 116T390 147L376 117V389L390 357Q373 377 352 387T303 398Q251 398 222 354T193 227Q193 154 217 117T286 79Z" />
<glyph unicode="e" horiz-adv-x="524" d="M266 -12Q198 -12 146 16T64 95T35 212Q35 283 68 340T157 429T284 462Q345 462 390 437T459 368T484 262Q484 235 477 227T452 218H142V273L360 279L348 262Q349 309 341 342T316 391T276 408Q240 408 217 368T194 255Q194
195 211 154T261 91T342 69Q376 69 407 82T470 123L487 81Q464 54 429 33T352 0T266 -12Z" />
<glyph unicode="f" horiz-adv-x="371" d="M41 0Q41 52 57 58L114 84L103 68V391Q103 462 124 524T183 634T266 707T363 734Q401 734 422 716T444 668Q444 657 441 644T431 619H378Q332 619 305 604T265 554T253 460V64L238 88L330 64Q330 44 326 30T311 0H41ZM350
365L37 374Q37 396 42 416T56 442L375 459Q378 453 379 447T381 433Q381 407 373 389T350 365Z" />
<glyph unicode="g" horiz-adv-x="522" d="M254 -270Q154 -270 95 -233T35 -134Q35 -71 106 -71Q123 -71 141 -74T176 -85Q176 -152 202 -185T281 -219Q326 -219 352 -197T379 -137Q379 -109 367 -93T324 -68T238 -54Q158 -46 126 -28T93 27Q93 64 121 96T198 146L218
134Q209 124 205 114T200 93Q200 81 207 74T234 63T295 54Q402 44 453 9T505 -93Q505 -147 474 -187T387 -248T254 -270ZM234 117Q144 117 92 159T40 277Q40 332 68 373T148 438T266 462Q328 462 373 442T443 385T468 299Q468 246 438 205T356 141T234 117ZM256
172Q287 172 305 200T323 281Q323 341 304 374T250 407Q220 407 203 378T185 296Q185 235 203 204T256 172ZM453 392Q439 392 419 393T379 398T347 405L336 431L498 490Q505 478 509 463T514 435Q514 392 453 392Z" />
<glyph unicode="h" horiz-adv-x="628" d="M24 0Q24 52 40 58L97 84L86 67V661L97 645L39 662Q24 667 24 719Q76 727 106 730T155 734Q193 734 210 719T227 667V359L219 369H235Q280 413 331 437T427 462Q541 462 541 308V72L530 87L603 64Q603 44 599 30T585 0H345Q345
52 361 58L402 75L392 58V287Q392 361 337 361Q314 361 293 352T256 330T232 308L235 322V64L223 79L281 64Q281 44 277 30T262 0H24Z" />
<glyph unicode="i" horiz-adv-x="353" d="M36 0Q36 53 52 58L117 84L106 68V386L118 371L52 388Q36 392 36 445Q77 451 114 455T195 459Q256 459 256 392V72L244 86L334 64Q334 44 330 30T314 0H36ZM176 537Q137 537 117 559T96 616Q96 651 120 673T176 696Q216
696 237 674T258 616Q258 582 233 560T176 537Z" />
<glyph unicode="j" horiz-adv-x="338" d="M11 -270Q-22 -270 -43 -252T-64 -203Q-64 -193 -60 -179T-50 -155Q12 -155 45 -143T92 -99T106 -13V386L118 371L52 388Q36 392 36 445Q89 452 125 455T195 459Q256 459 256 392V159Q256 72 237 -5T184 -142T106 -236T11
-270ZM168 537Q129 537 109 559T88 616Q88 651 112 673T168 696Q208 696 229 674T250 616Q250 582 225 560T168 537Z" />
<glyph unicode="k" horiz-adv-x="602" d="M24 0Q24 28 28 41T40 58L104 84L93 68V661L105 646L39 662Q24 667 24 719Q64 725 101 729T181 734Q243 734 243 666V63L227 79L290 64Q290 44 286 30T270 0H24ZM500 -12Q462 -12 424 11T341 89T237 243L389 379L380 361L317
379Q317 415 335 443H573Q573 412 570 400T557 384L445 345L518 392L342 232L362 286Q394 239 433 196T514 118T595 62Q595 28 569 8T500 -12Z" />
<glyph unicode="l" horiz-adv-x="336" d="M24 0Q24 28 28 41T40 58L104 84L93 68V661L105 646L39 662Q24 667 24 719Q64 725 101 729T181 734Q243 734 243 666V72L231 86L321 64Q321 44 317 30T302 0H24Z" />
<glyph unicode="m" horiz-adv-x="925" d="M36 0Q36 52 52 58L109 84L98 68V378L110 362L52 379Q36 384 36 436Q89 444 119 447T169 451Q206 451 223 436T240 384V367L236 369H248Q292 413 341 437T435 462Q491 462 517 424T543 307V64L531 79L590 64Q590 44 586
30T571 0H347Q347 52 363 58L404 75L393 59V287Q393 361 343 361Q320 361 300 352T266 329T243 306L248 323V64L236 79L295 64Q295 44 291 30T275 0H36ZM642 0Q642 52 658 58L699 75L688 59V287Q688 361 638 361Q607 361 581 343T541 309L526 369H542Q587 413 636
437T730 462Q786 462 812 424T838 308V72L827 87L900 64Q900 44 896 30T881 0H642Z" />
<glyph unicode="n" horiz-adv-x="641" d="M36 0Q36 52 52 58L109 84L98 67V378L110 362L52 379Q36 384 36 436Q89 444 119 447T169 451Q206 451 223 436T240 384V367L235 369H248Q294 413 344 437T439 462Q554 462 554 308V72L543 87L616 64Q616 44 612 30T597
0H359Q359 52 375 58L415 75L405 58V287Q405 361 351 361Q326 361 305 352T267 329T243 306L248 323V64L236 79L295 64Q295 44 291 30T275 0H36Z" />
<glyph unicode="o" horiz-adv-x="574" d="M263 -12Q156 -12 96 45T35 203Q35 279 69 337T164 429T305 462Q376 462 428 435T510 359T539 243Q539 169 504 111T407 21T263 -12ZM288 42Q333 42 357 87T381 217Q381 307 356 357T284 408Q241 408 217 362T193 230Q193
139 217 91T288 42Z" />
<glyph unicode="p" horiz-adv-x="606" d="M24 -245Q24 -194 40 -187L97 -162L86 -179V378L97 362L39 379Q24 384 24 436Q76 444 106 447T155 451Q193 451 210 436T227 387V367L223 370H235Q262 412 309 437T405 462Q455 462 492 436T550 361T571 247Q571 169 542
111T461 20T337 -12Q309 -12 280 -7T223 9L235 17V-174L223 -160L313 -182Q313 -201 309 -215T293 -245H24ZM302 52Q357 52 384 95T412 224Q412 297 391 333T325 370Q300 370 281 359T247 330T219 295L232 326V66L219 91Q240 72 259 62T302 52Z" />
<glyph unicode="q" horiz-adv-x="612" d="M303 -245Q303 -194 319 -187L411 -144L381 -194V74H373Q348 35 302 12T206 -12Q155 -12 117 15T57 90T35 203Q35 280 71 338T172 429T323 462Q371 462 423 443T523 383V-196L478 -155L585 -182Q585 -201 581 -215T566
-245H303ZM286 78Q312 78 331 89T364 116T390 147L376 117V383L390 357Q373 378 352 388T303 398Q251 398 222 353T193 227Q193 154 217 116T286 78ZM421 361L464 447Q467 455 481 459T523 463V383L421 361Z" />
<glyph unicode="r" horiz-adv-x="455" d="M36 0Q36 52 52 58L109 84L98 67V378L110 362L52 379Q45 381 41 396T36 436Q91 445 120 448T169 451Q209 451 224 436T240 379V349L228 361H246Q268 407 303 434T375 462Q419 462 440 442T462 385Q462 356 442 335T392
314Q380 338 366 347T332 357Q310 357 284 341T240 299L248 326V64L233 88L327 64Q327 44 323 30T308 0H36Z" />
<glyph unicode="s" horiz-adv-x="481" d="M230 -12Q143 -12 89 18T35 96Q35 124 54 140T102 156Q137 156 161 138Q161 88 179 64T238 39Q269 39 288 54T307 95Q307 116 293 130T257 154T207 173Q173 185 138 201T79 246T55 321Q55 387 108 424T254 462Q307 462
346 451T408 418T431 367Q431 341 412 325T363 309Q333 309 313 327Q313 368 295 389T241 411Q215 411 200 399T184 366Q184 346 198 333T234 311T284 292Q321 280 358 263T421 217T446 139Q446 92 420 58T345 6T230 -12Z" />
<glyph unicode="t" horiz-adv-x="376" d="M205 -12Q142 -12 112 29T82 140V521Q99 532 124 542T177 559T232 569V162Q232 124 244 105T287 86Q304 86 324 92T364 112L386 69Q371 48 343 30T279 0T205 -12ZM330 365L19 374Q19 396 24 416T38 442L355 459Q358 453
359 447T361 433Q361 407 353 389T330 365Z" />
<glyph unicode="u" horiz-adv-x="623" d="M193 -12Q138 -12 109 25T80 141V376L99 361L33 378Q26 379 22 394T18 434Q69 442 99 445T149 449Q191 449 210 434T229 383V161Q229 124 244 106T288 87Q313 87 333 97T368 121T391 146L376 116V376L396 361L330 378Q323
379 319 394T314 434Q365 442 396 445T446 449Q487 449 506 434T526 383V105Q526 87 533 79T555 70Q564 70 574 73T592 81L603 37Q579 15 545 2T477 -12Q436 -12 411 11T385 75H378Q286 -12 193 -12Z" />
<glyph unicode="v" horiz-adv-x="515" d="M259 -11Q246 -11 231 -8T205 -1L54 377L79 358L3 379Q3 400 7 414T22 443H265Q265 386 249 381L186 360L204 383L313 107H274L381 381L389 361L324 379Q324 408 328 421T343 443H512Q512 415 508 402T496 385L439 362L462
383L324 29Q309 -11 259 -11Z" />
<glyph unicode="w" horiz-adv-x="740" d="M237 -11Q224 -11 209 -8T182 -1L54 377L79 358L3 379Q3 400 7 414T22 443H265Q265 386 249 381L186 360L202 383L293 107H254L359 405H434L553 107H521L606 381L614 361L549 379Q549 408 553 421T568 443H737Q737 415
733 402T721 385L664 362L687 383L572 29Q558 -11 507 -11Q494 -11 479 -8T452 -1L346 263H384L302 29Q288 -11 237 -11Z" />
<glyph unicode="x" horiz-adv-x="554" d="M264 0Q264 54 280 58L361 84L326 44L63 378L111 352L13 379Q13 400 17 414T33 443H292Q292 389 276 385L195 359L229 398L493 65L447 91L544 64Q544 43 540 30T524 0H264ZM11 0Q11 52 27 58L117 94L47 50L214 240L265
184L127 26L133 83L207 64Q207 35 203 22T188 0H11ZM328 204L277 262L413 417L406 360L331 379Q331 408 335 421T350 443H527Q527 391 511 385L423 349L492 393L328 204Z" />
<glyph unicode="y" horiz-adv-x="516" d="M81 -270Q47 -270 25 -252T3 -203Q3 -193 6 -179T17 -155H35Q84 -155 115 -147T167 -122T203 -74T233 2L230 -61L55 377L80 358L4 379Q4 400 8 414T24 443H266Q266 387 250 381L187 360L206 383L315 108L275 107L382 381L390
361L326 379Q326 408 329 421T344 443H513Q513 415 509 402T497 385L440 362L463 383L305 -24Q263 -136 205 -203T81 -270Z" />
<glyph unicode="z" horiz-adv-x="438" d="M49 0Q29 0 19 9T9 31Q9 41 14 52T27 75L248 402L322 359L88 372L117 414L100 301Q99 295 89 292T64 287T36 286L23 443H359Q387 443 399 435T412 411Q412 402 407 392T393 367L174 39L101 84L365 71L330 22L343 167Q365
167 383 164T416 150L427 0H49Z" />
<glyph unicode="{" horiz-adv-x="399" d="M389 -270Q359 -270 324 -265T253 -246T188 -210T140 -151T122 -65Q122 -43 123 -14T126 43T127 88Q127 128 116 156T80 198T17 213Q11 222 8 236T4 263Q4 272 5 279T8 295Q50 295 76 310T114 354T127 422Q127 443 126
473T124 533T122 585Q122 632 140 665T189 720T255 754T326 772T390 778Q391 774 391 769T392 759Q392 746 390 733T382 711Q319 697 296 670T273 586Q273 563 276 528T279 445Q279 360 242 316T142 260Q142 255 145 251Q207 239 243 194T279 63Q279 14 276 -20T273
-78Q273 -115 282 -139T315 -178T382 -203Q387 -211 389 -224T392 -250Q392 -263 389 -270Z" />
<glyph unicode="|" horiz-adv-x="225" d="M166 -200Q125 -200 96 -195T59 -183V734Q100 734 128 729T166 717V-200Z" />
<glyph unicode="}" horiz-adv-x="399" d="M10 -270Q40 -270 75 -265T146 -246T211 -210T259 -151T277 -65Q277 -43 276 -14T273 43T272 88Q272 128 283 156T319 198T382 213Q388 222 391 236T395 263Q395 272 394 279T391 295Q349 295 323 310T285 354T272 422Q272
443 273 473T275 533T277 585Q277 632 259 665T210 720T144 754T73 772T9 778Q8 774 8 769T7 759Q7 746 9 733T17 711Q80 697 103 670T126 586Q126 563 123 528T120 445Q120 360 157 316T257 260Q257 255 254 251Q192 239 156 194T120 63Q120 14 123 -20T126 -78Q126
-115 117 -139T84 -178T17 -203Q12 -211 10 -224T7 -250Q7 -263 10 -270Z" />
<glyph unicode="~" horiz-adv-x="572" d="M87 208Q79 217 74 229T69 251Q69 272 82 297T125 342T198 362Q230 362 265 350T335 326T395 313Q427 313 448 327T485 372Q503 352 503 328Q503 309 488 283T443 237T369 217Q338 217 303 229T235 253T175 265Q144 265
125 252T87 208Z" />
<glyph unicode="&#xa0;" horiz-adv-x="215" />
<glyph unicode="&#xa1;" horiz-adv-x="250" d="M125 267Q151 267 170 261Q175 199 180 141T190 34T198 -52T201 -105Q201 -143 184 -163T125 -183Q85 -183 68 -163T51 -105Q51 -88 53 -52T60 33T70 141T81 261Q100 267 125 267ZM124 484Q162 484 182 463T203 406Q203
373 179 351T124 328Q86 328 66 349T45 406Q45 440 69 462T124 484Z" />
<glyph unicode="&#xa2;" horiz-adv-x="512" d="M312 -96Q296 -96 278 -93T245 -84V737Q261 737 280 734T312 725V-96ZM268 83Q198 83 146 111T64 189T35 307Q35 380 68 436T158 525T289 557Q343 557 387 540T456 495T482 432Q482 405 464 390T412 374Q398 374
385 378T360 390Q360 445 341 474T286 503Q242 503 218 461T193 341Q193 250 226 207T329 164Q365 164 399 176T470 213L487 172Q464 146 429 126T352 94T268 83Z" />
<glyph unicode="&#xa3;" horiz-adv-x="579" d="M109 0Q90 10 83 22T75 61Q132 112 153 147T175 210Q175 238 162 263T132 317T101 382T88 466Q88 516 117 556T199 621T322 645Q386 645 432 629T504 585T530 520Q530 494 514 479T468 464Q452 464 438 467T417 476Q417
521 392 547T326 573Q279 573 252 549T225 481Q225 449 236 420T263 362T289 299T300 227Q300 200 288 172T250 118T183 66L181 98L471 75L427 26L462 187Q483 187 502 183T529 168V0H109ZM45 294Q45 310 48 329T58 361H426Q426 345 423 327T414 294H45Z" />
<glyph unicode="&#xa4;" horiz-adv-x="664" d="M324 70Q226 70 167 124T108 271Q108 333 137 386T218 472T338 506Q435 506 494 452T553 306Q553 244 525 191T446 104T324 70ZM240 122L118 -12Q105 -8 91 3T68 26T56 45L185 187L240 122ZM419 122L474 186L601
44Q600 38 590 26T567 3T539 -12L419 122ZM191 383L56 533Q58 539 68 551T92 574T118 588L245 446L191 383ZM471 383L418 449L542 588Q556 586 569 575T593 551T604 533L471 383ZM330 157Q365 157 386 174T417 221T427 286Q427 324 416 354T384 402T331 420Q296
420 275 403T244 357T234 293Q234 258 245 227T277 176T330 157Z" />
<glyph unicode="&#xa5;" horiz-adv-x="663" d="M166 232Q166 248 169 267T179 299H499Q499 283 496 265T486 232H166ZM166 112Q166 128 169 147T179 179H499Q499 163 496 145T486 112H166ZM342 94L47 591L91 555L2 577Q2 596 6 610T23 641H295Q295 616 291 601T279
583L197 558L217 596L394 297L350 296L499 591L512 556L410 577Q410 596 414 610T430 641H661Q661 616 657 601T645 583L563 559L595 596L342 94ZM188 0Q188 25 192 40T204 58L278 83L259 58V275H411V63L384 86L484 64Q484 46 480 32T465 0H188Z" />
<glyph unicode="&#xa6;" horiz-adv-x="225" d="M59 361V734Q100 734 128 729T166 717V361H59ZM166 -200Q125 -200 96 -195T59 -183V173H166V-200Z" />
<glyph unicode="&#xa7;" horiz-adv-x="504" d="M244 -12Q156 -12 102 18T47 96Q47 124 66 140T114 156Q150 156 173 138Q173 39 248 39Q281 39 300 56T320 101Q320 123 310 137T277 163T220 185Q165 204 132 223T83 266T67 327Q67 380 103 413T206 457L245 394Q223
390 210 377T197 343Q197 326 207 314T238 291T296 268Q355 247 390 228T442 184T458 123Q458 82 432 52T358 5T244 -12ZM321 191L277 254Q320 271 320 310Q320 330 310 342T278 366T220 389Q165 411 132 430T83 474T67 533Q67 589 119 622T264 655Q318 655 358
644T420 611T443 560Q443 534 424 518T376 502Q345 502 325 520Q325 561 307 582T255 604Q228 604 213 590T197 552Q197 533 207 520T239 495T295 473Q354 454 390 435T442 390T458 325Q458 274 423 239T321 191Z" />
<glyph unicode="&#xa8;" horiz-adv-x="379" d="M301 540Q262 540 244 561T225 616Q225 637 236 654T265 682T301 692Q339 692 359 671T379 616Q379 596 368 579T339 551T301 540ZM77 540Q38 540 19 561T0 616Q0 637 11 654T40 682T77 692Q114 692 134 671T154
616Q154 596 143 579T114 551T77 540Z" />
<glyph unicode="&#xa9;" horiz-adv-x="660" d="M330 140Q246 140 179 178T74 283T35 435Q35 520 73 586T179 691T330 730Q415 730 481 692T586 587T625 435Q625 350 587 284T482 179T330 140ZM330 164Q408 164 469 199T566 295T601 435Q601 513 566 574T470 671T330
706Q252 706 191 671T94 575T59 435Q59 357 94 296T190 199T330 164ZM346 239Q281 239 234 262T160 328T134 429Q134 490 163 538T243 615T356 643Q396 643 432 635T495 612L483 506Q465 507 454 510T443 519L432 582L446 559Q403 596 352 596Q298 596 268 554T237
437Q237 392 251 358T292 305T353 286Q379 286 401 296T443 326L429 298L441 390Q460 390 470 388T487 382L496 293Q467 266 430 253T346 239Z" />
<glyph unicode="&#xaa;" horiz-adv-x="420" d="M97 391Q62 391 40 413T18 469Q18 509 47 537T129 577L228 600L220 584V624Q220 660 212 675T185 690Q163 690 152 672T139 615Q133 608 120 604T91 599Q65 599 50 611T35 644Q35 670 57 691T118 724T203 737Q276
737 316 707T357 621V487Q357 476 361 468T377 460Q385 460 391 462T403 469L412 430Q392 413 363 402T307 391Q271 391 249 409T227 457H221Q197 429 167 410T97 391ZM167 468Q185 468 204 478T240 509L221 476V559L235 557L185 546Q159 539 148 528T137 500Q137
484 145 476T167 468ZM359 250H54Q52 255 51 263T49 283Q49 328 69 344H375Q377 339 378 330T379 310Q379 267 359 250Z" />
<glyph unicode="&#xab;" horiz-adv-x="460" d="M192 78L49 225Q36 239 30 247T24 267Q24 279 30 287T49 310L192 457Q208 454 221 442T236 411L112 237V297L236 124Q234 106 221 94T192 78ZM379 78L236 225Q223 239 217 247T211 267Q211 279 217 287T236 310L379
457Q395 454 408 442T423 411L299 237V297L423 124Q421 106 408 94T379 78Z" />
<glyph unicode="&#xac;" horiz-adv-x="572" d="M464 124Q448 124 433 128T407 139V286L448 249H76Q61 267 61 298Q61 306 62 315T67 332H496V130Q489 127 481 126T464 124Z" />
<glyph unicode="&#xad;" horiz-adv-x="360" d="M56 208Q51 214 48 225T44 250Q44 304 102 304Q137 304 166 303T225 302Q249 302 270 305T305 314Q310 305 313 294T316 272Q316 218 259 218Q225 218 196 219T136 220Q111 220 90 217T56 208Z" />
<glyph unicode="&#xae;" horiz-adv-x="581" d="M291 242Q221 242 166 274T79 361T47 486Q47 556 79 611T166 698T291 730Q361 730 416 698T503 611T535 486Q535 416 503 361T416 274T291 242ZM291 262Q356 262 406 291T486 371T515 486Q515 551 486 601T407 681T291
710Q227 710 176 681T96 602T67 486Q67 422 96 371T176 291T291 262ZM144 330Q144 340 146 348T152 358L192 375L185 364V612L193 603L144 616Q144 638 154 651H316Q366 651 398 629T431 566Q431 519 396 491T307 462Q293 462 280 464T257 469L266 472V364L255
377L300 364Q300 351 298 344T289 330H144ZM266 496L258 506Q263 503 273 502T290 500Q317 500 331 514T345 558Q345 583 332 596T296 610Q291 610 283 609T258 603L266 611V496ZM421 323Q400 323 385 328T356 349T328 396T292 480L364 498Q386 448 416 407T479
340Q465 332 449 328T421 323Z" />
<glyph unicode="&#xaf;" horiz-adv-x="330" d="M310 570H4Q3 575 2 583T0 603Q0 647 20 663H326Q327 658 328 650T330 630Q330 587 310 570Z" />
<glyph unicode="&#xb0;" horiz-adv-x="468" d="M216 384Q139 384 96 427T53 548Q53 607 77 651T145 719T245 744Q322 744 368 699T414 576Q414 520 390 477T321 409T216 384ZM225 475Q266 475 292 502T318 570Q318 608 297 630T239 653Q200 653 176 626T151 556Q151
519 170 497T225 475Z" />
<glyph unicode="&#xb1;" horiz-adv-x="600" d="M298 275Q282 275 267 278T242 290V575Q248 579 257 580T275 581Q291 581 306 577T330 564V280Q323 278 315 277T298 275ZM76 388Q61 406 61 437Q61 445 62 454T67 471H494Q510 454 510 422Q510 414 509 406T504
388H76ZM76 160Q61 178 61 209Q61 217 62 226T67 243H494Q510 226 510 194Q510 186 509 178T504 160H76Z" />
<glyph unicode="&#xb2;" horiz-adv-x="404" d="M54 350Q42 363 39 374T35 406Q127 476 170 530T213 631Q213 652 204 662T172 672Q154 672 138 666T105 646L116 664L108 616Q105 603 56 603L44 709Q122 743 196 743Q268 743 310 716T352 643Q352 592 296 526T132
385L108 432L324 417L288 407L309 469Q323 469 336 466T362 455V350H54Z" />
<glyph unicode="&#xb3;" horiz-adv-x="393" d="M184 343Q129 343 97 354T50 384T36 421Q36 443 46 456T72 475T105 482Q107 448 124 430T168 412Q193 412 204 423T216 455Q216 478 198 494T142 524Q136 527 134 535T132 571Q171 582 190 599T209 636Q209 653 198
662T167 672Q149 672 131 664T90 634L127 683L114 626Q113 620 102 617T62 614L51 708Q89 726 125 734T197 743Q264 743 304 718T345 646Q345 611 320 589T240 551L239 558Q295 546 325 518T356 449Q356 400 310 372T184 343Z" />
<glyph unicode="&#xb4;" horiz-adv-x="254" d="M38 509Q24 509 12 520T0 551Q60 613 94 648T146 699T171 719T188 724Q204 724 219 713T244 684T254 649Q254 643 249 636T224 616T160 578T38 509Z" />
<glyph unicode="&#xb5;" horiz-adv-x="633" d="M18 -258Q18 -242 20 -224T34 -202L98 -180L90 -212V376L109 361L43 378Q36 379 32 394T28 434Q79 442 109 445T159 449Q201 449 220 434T239 383V161Q239 124 254 106T298 87Q323 87 343 97T378 121T401 146L386
116V376L406 361L340 378Q333 379 329 394T324 434Q375 442 406 445T456 449Q497 449 516 434T536 383V105Q536 87 543 79T565 70Q574 70 584 73T602 81L613 37Q589 15 555 2T487 -12Q446 -12 421 11T395 75H388Q363 36 326 12T250 -12Q222 -12 203 6T180 55H207V-206Q208
-224 197 -234T169 -250T137 -256T109 -258H18Z" />
<glyph unicode="&#xb6;" horiz-adv-x="557" d="M212 -115Q176 -115 155 -97T134 -50Q134 -38 138 -23T149 0Q210 0 243 12T290 56T304 142V574Q326 574 358 575T422 578T480 582T517 586Q530 567 530 548Q530 504 482 488T357 488L453 543L454 314Q454 227 435
150T381 13T304 -81T212 -115ZM272 186Q160 186 98 238T35 384Q35 442 57 486T120 556T213 581Q220 581 223 581T235 580T272 577V186Z" />
<glyph unicode="&#xb7;" horiz-adv-x="225" d="M112 187Q73 187 53 209T33 266Q33 300 57 322T112 345Q152 345 172 323T192 266Q192 232 168 210T112 187Z" />
<glyph unicode="&#xb8;" horiz-adv-x="303" d="M143 -266Q88 -266 53 -242T18 -181Q18 -161 28 -151T57 -140Q82 -140 103 -156Q103 -194 114 -213T155 -232Q176 -232 190 -217T205 -170Q205 -139 186 -123T136 -106Q125 -106 117 -107T103 -110L133 0H167L142
-88L128 -73Q141 -69 152 -68T175 -67Q205 -67 230 -77T270 -108T286 -161Q286 -186 271 -210T223 -250T143 -266Z" />
<glyph unicode="&#xb9;" horiz-adv-x="334" d="M44 350Q44 395 54 398L129 424L115 399V696L132 629L45 617Q39 626 36 636T32 659Q32 670 33 679T41 696L181 743H247V402L226 427L307 403Q307 391 305 379T294 350H44Z" />
<glyph unicode="&#xba;" horiz-adv-x="451" d="M206 391Q121 391 74 432T26 549Q26 605 53 647T127 713T238 737Q323 737 374 694T425 576Q425 522 398 480T321 415T206 391ZM228 438Q253 438 266 468T280 556Q280 617 265 653T221 690Q197 690 185 659T172 571Q172
508 186 473T228 438ZM370 250H65Q63 255 62 263T60 283Q60 328 80 344H386Q388 339 389 330T390 310Q390 267 370 250Z" />
<glyph unicode="&#xbb;" horiz-adv-x="460" d="M81 78L224 225Q237 239 243 247T249 267Q249 279 243 287T224 310L81 457Q65 454 52 442T37 411L161 237V297L37 124Q39 106 52 94T81 78ZM268 78L411 225Q424 239 430 247T436 267Q436 279 430 287T411 310L268
457Q252 454 239 442T224 411L348 237V297L224 124Q226 106 239 94T268 78Z" />
<glyph unicode="&#xbc;" horiz-adv-x="1046" d="M78 262Q78 307 88 310L163 336L149 311V608L166 541L79 529Q73 538 70 548T66 571Q66 582 67 591T75 608L215 655H281V314L260 339L341 315Q341 303 339 291T328 262H78ZM395 -12Q363 -12 344 -7T305 15L599 655Q626
655 645 650T689 628L395 -12ZM802 0V324L850 316L700 120L666 151H971V88H653Q629 99 629 143L819 393Q875 393 904 373T934 312V0H802Z" />
<glyph unicode="&#xbd;" horiz-adv-x="1046" d="M78 262Q78 307 88 310L163 336L149 311V608L166 541L79 529Q73 538 70 548T66 571Q66 582 67 591T75 608L215 655H281V314L260 339L341 315Q341 303 339 291T328 262H78ZM387 -12Q355 -12 336 -7T297 15L591 655Q618
655 637 650T681 628L387 -12ZM665 0Q653 13 650 24T646 56Q738 126 781 180T824 281Q824 302 815 312T783 322Q765 322 749 316T716 296L727 314L719 266Q716 253 667 253L655 359Q733 393 807 393Q879 393 921 366T963 293Q963 242 907 176T743 35L719 82L935
67L899 57L920 119Q934 119 947 116T973 105V0H665Z" />
<glyph unicode="&#xbe;" horiz-adv-x="1046" d="M202 255Q147 255 115 266T68 296T54 333Q54 355 64 368T90 387T123 394Q125 360 142 342T186 324Q211 324 222 335T234 367Q234 390 216 406T160 436Q154 439 152 447T150 483Q189 494 208 511T227 548Q227 565
216 574T185 584Q167 584 149 576T108 546L145 595L132 538Q131 532 120 529T80 526L69 620Q107 638 143 646T215 655Q282 655 322 630T363 558Q363 523 338 501T258 463L257 470Q313 458 343 430T374 361Q374 312 328 284T202 255ZM431 -12Q399 -12 380 -7T341
15L635 655Q662 655 681 650T725 628L431 -12ZM825 0V324L873 316L723 120L689 151H994V88H676Q652 99 652 143L842 393Q898 393 927 373T957 312V0H825Z" />
<glyph unicode="&#xbf;" horiz-adv-x="446" d="M256 267Q282 267 301 261L309 145Q274 138 245 125T194 91T159 42T147 -21Q147 -67 164 -95T226 -123Q259 -123 278 -97T298 -5Q306 0 320 5T359 10Q392 10 413 -9T434 -65Q434 -112 380 -147T227 -183Q126 -183
69 -139T12 -23Q12 9 23 37T55 90T103 134T160 168T221 188L205 173L212 261Q230 267 256 267ZM257 484Q295 484 315 463T335 406Q335 373 312 351T257 328Q218 328 198 349T178 406Q178 440 202 462T257 484Z" />
<glyph unicode="&#xc0;" horiz-adv-x="691" d="M2 0Q2 25 6 40T18 58L94 87L54 44L264 624Q268 636 284 643T318 653T348 656Q362 656 375 655T402 649L633 49L591 86L689 64Q689 46 685 32T667 0H393Q393 25 397 40T409 58L482 83L475 49L280 552L326 553L142
48L133 90L248 64Q248 46 244 32T225 0H2ZM169 195L184 270H426L443 195H169ZM446 729Q357 752 307 765T233 787T204 802T198 818Q198 850 214 874T253 899Q260 899 272 895T307 878T369 841T471 780Q471 762 465 746T446 729Z" />
<glyph unicode="&#xc1;" horiz-adv-x="691" d="M2 0Q2 25 6 40T18 58L94 87L54 44L264 624Q268 636 284 643T318 653T348 656Q362 656 375 655T402 649L633 49L591 86L689 64Q689 46 685 32T667 0H393Q393 25 397 40T409 58L482 83L475 49L280 552L326 553L142
48L133 90L248 64Q248 46 244 32T225 0H2ZM169 195L184 270H426L443 195H169ZM224 729Q210 729 204 745T198 780Q260 817 299 841T362 877T396 894T415 899Q438 899 454 875T471 818Q471 809 465 802T436 787T363 766T224 729Z" />
<glyph unicode="&#xc2;" horiz-adv-x="691" d="M2 0Q2 25 6 40T18 58L94 87L54 44L264 624Q268 636 284 643T318 653T348 656Q362 656 375 655T402 649L633 49L591 86L689 64Q689 46 685 32T667 0H393Q393 25 397 40T409 58L482 83L475 49L280 552L326 553L142
48L133 90L248 64Q248 46 244 32T225 0H2ZM169 195L184 270H426L443 195H169ZM334 903Q354 903 370 897T404 873T445 825T506 743Q506 728 495 718T468 707L321 808H347L200 707Q184 707 173 717T162 743Q198 793 222 824T264 873T298 896T334 903Z" />
<glyph unicode="&#xc3;" horiz-adv-x="691" d="M2 0Q2 25 6 40T18 58L94 87L54 44L264 624Q268 636 284 643T318 653T348 656Q362 656 375 655T402 649L633 49L591 86L689 64Q689 46 685 32T667 0H393Q393 25 397 40T409 58L482 83L475 49L280 552L326 553L142
48L133 90L248 64Q248 46 244 32T225 0H2ZM169 195L184 270H426L443 195H169ZM257 788Q234 788 217 771T199 728Q172 728 160 734T148 754Q148 790 163 820T202 868T257 887Q285 887 311 876T361 853T411 841Q435 841 452 858T470 901Q497 901 508 895T519 875Q519
840 505 810T466 761T411 742Q382 742 357 753T308 776T257 788Z" />
<glyph unicode="&#xc4;" horiz-adv-x="691" d="M2 0Q2 25 6 40T18 58L94 87L54 44L264 624Q268 636 284 643T318 653T348 656Q362 656 375 655T402 649L633 49L591 86L689 64Q689 46 685 32T667 0H393Q393 25 397 40T409 58L482 83L475 49L280 552L326 553L142
48L133 90L248 64Q248 46 244 32T225 0H2ZM169 195L184 270H426L443 195H169ZM445 738Q406 738 388 759T369 814Q369 835 380 852T409 880T445 890Q483 890 503 869T523 814Q523 794 512 777T483 749T445 738ZM221 738Q182 738 163 759T144 814Q144 835 155 852T184
880T221 890Q258 890 278 869T298 814Q298 794 287 777T258 749T221 738Z" />
<glyph unicode="&#xc5;" horiz-adv-x="691" d="M2 0Q2 25 6 40T18 58L94 87L54 44L264 624Q268 636 284 643T318 653T348 656Q362 656 375 655T402 649L633 49L591 86L689 64Q689 46 685 32T667 0H393Q393 25 397 40T409 58L482 83L475 49L280 552L326 553L142
48L133 90L248 64Q248 46 244 32T225 0H2ZM169 195L184 270H426L443 195H169ZM326 684Q268 684 231 714T194 793Q194 831 213 861T264 908T339 925Q398 925 436 893T474 809Q474 754 433 719T326 684ZM335 735Q356 735 368 752T380 801Q380 834 367 854T332 874Q288
873 288 805Q288 772 300 754T335 735Z" />
<glyph unicode="&#xc6;" horiz-adv-x="953" d="M-13 0Q-13 25 -9 40T3 58L79 88L32 28L418 599L471 555L331 577Q331 596 335 610T352 641H868V476Q838 476 825 481T808 495L781 576L795 567L592 549L603 562V346L593 355H723L710 346L731 414Q749 414 767 410T803
393V232Q786 219 768 215T731 211L709 281L723 273H593L603 282V83L593 94L815 76L803 57L835 187Q853 187 867 183T898 167V0H381Q381 25 385 40T397 58L469 83L450 60V249L463 226H250L288 252L151 49L126 92L246 64Q246 46 242 32T224 0H-13ZM300 284L297 308H463L450
284V530L464 526L300 284Z" />
<glyph unicode="&#xc7;" horiz-adv-x="669" d="M360 -12Q262 -12 189 26T76 133T35 294Q35 372 63 438T141 552T259 628T409 655Q466 655 517 642T605 605L586 437Q558 437 542 442T524 456L512 557L539 518Q512 543 471 557T384 571Q326 571 284 543T219 461T197
330Q197 251 220 193T285 103T384 71Q431 71 473 90T539 143L511 88L528 244Q562 244 576 241T596 229L605 71Q569 33 502 11T360 -12ZM364 -270Q309 -270 274 -244T238 -177Q238 -158 249 -149T276 -140Q293 -140 304 -144T320 -153Q320 -189 338 -208T379 -227Q400
-227 416 -213T432 -170Q432 -150 422 -137T394 -117T354 -109Q342 -109 334 -109T321 -110L344 0H387L372 -74L355 -61Q376 -56 402 -58T452 -71T493 -105T509 -161Q509 -186 493 -211T444 -253T364 -270Z" />
<glyph unicode="&#xc8;" horiz-adv-x="622" d="M47 0Q47 25 51 40T63 58L135 83L116 60V578L135 555L47 577Q47 596 51 610T68 641H536V476Q506 476 493 481T477 495L449 574L463 565L258 549L269 562V354L259 363H407L394 354L414 428Q429 428 446 424T477 408V240Q463
229 446 225T414 221L393 297L407 288H259L269 298V83L259 94L483 77L471 58L503 187Q521 187 536 183T567 167V0H47ZM426 729Q337 752 287 765T213 787T184 802T178 818Q178 850 194 874T233 899Q240 899 252 895T287 878T349 841T451 780Q451 762 445 746T426
729Z" />
<glyph unicode="&#xc9;" horiz-adv-x="622" d="M47 0Q47 25 51 40T63 58L135 83L116 60V578L135 555L47 577Q47 596 51 610T68 641H536V476Q506 476 493 481T477 495L449 574L463 565L258 549L269 562V354L259 363H407L394 354L414 428Q429 428 446 424T477 408V240Q463
229 446 225T414 221L393 297L407 288H259L269 298V83L259 94L483 77L471 58L503 187Q521 187 536 183T567 167V0H47ZM204 729Q190 729 184 745T178 780Q240 817 279 841T342 877T376 894T395 899Q418 899 434 875T451 818Q451 809 445 802T416 787T343 766T204
729Z" />
<glyph unicode="&#xca;" horiz-adv-x="622" d="M47 0Q47 25 51 40T63 58L135 83L116 60V578L135 555L47 577Q47 596 51 610T68 641H536V476Q506 476 493 481T477 495L449 574L463 565L258 549L269 562V354L259 363H407L394 354L414 428Q429 428 446 424T477 408V240Q463
229 446 225T414 221L393 297L407 288H259L269 298V83L259 94L483 77L471 58L503 187Q521 187 536 183T567 167V0H47ZM314 903Q334 903 350 897T384 873T425 825T486 743Q486 728 475 718T448 707L301 808H327L180 707Q164 707 153 717T142 743Q178 793 202 824T244
873T278 896T314 903Z" />
<glyph unicode="&#xcb;" horiz-adv-x="622" d="M47 0Q47 25 51 40T63 58L135 83L116 60V578L135 555L47 577Q47 596 51 610T68 641H536V476Q506 476 493 481T477 495L449 574L463 565L258 549L269 562V354L259 363H407L394 354L414 428Q429 428 446 424T477 408V240Q463
229 446 225T414 221L393 297L407 288H259L269 298V83L259 94L483 77L471 58L503 187Q521 187 536 183T567 167V0H47ZM425 738Q386 738 368 759T349 814Q349 835 360 852T389 880T425 890Q463 890 483 869T503 814Q503 794 492 777T463 749T425 738ZM201 738Q162
738 143 759T124 814Q124 835 135 852T164 880T201 890Q238 890 258 869T278 814Q278 794 267 777T238 749T201 738Z" />
<glyph unicode="&#xcc;" horiz-adv-x="384" d="M47 0Q47 25 51 40T63 58L135 83L116 60V578L136 555L47 577Q47 596 51 610T68 641H339Q339 616 335 601T323 583L242 558L269 582V63L241 86L339 64Q339 46 335 32T319 0H47ZM301 729Q212 752 162 765T88 787T59
802T53 818Q53 850 69 874T108 899Q115 899 127 895T162 878T224 841T326 780Q326 762 320 746T301 729Z" />
<glyph unicode="&#xcd;" horiz-adv-x="384" d="M47 0Q47 25 51 40T63 58L135 83L116 60V578L136 555L47 577Q47 596 51 610T68 641H339Q339 616 335 601T323 583L242 558L269 582V63L241 86L339 64Q339 46 335 32T319 0H47ZM79 729Q65 729 59 745T53 780Q115 817
154 841T217 877T251 894T270 899Q293 899 309 875T326 818Q326 809 320 802T291 787T218 766T79 729Z" />
<glyph unicode="&#xce;" horiz-adv-x="384" d="M47 0Q47 25 51 40T63 58L135 83L116 60V578L136 555L47 577Q47 596 51 610T68 641H339Q339 616 335 601T323 583L242 558L269 582V63L241 86L339 64Q339 46 335 32T319 0H47ZM189 903Q209 903 225 897T259 873T300
825T361 743Q361 728 350 718T323 707L176 808H202L55 707Q39 707 28 717T17 743Q53 793 77 824T119 873T153 896T189 903Z" />
<glyph unicode="&#xcf;" horiz-adv-x="384" d="M47 0Q47 25 51 40T63 58L135 83L116 60V578L136 555L47 577Q47 596 51 610T68 641H339Q339 616 335 601T323 583L242 558L269 582V63L241 86L339 64Q339 46 335 32T319 0H47ZM301 738Q262 738 244 759T225 814Q225
835 236 852T265 880T301 890Q339 890 359 869T379 814Q379 794 368 777T339 749T301 738ZM77 738Q38 738 19 759T0 814Q0 835 11 852T40 880T77 890Q114 890 134 869T154 814Q154 794 143 777T114 749T77 738Z" />
<glyph unicode="&#xd0;" horiz-adv-x="725" d="M47 0Q47 25 51 40T63 58L135 83L116 60V578L135 555L47 577Q47 596 51 610T65 641H396Q471 641 526 617T618 551T672 456T690 345Q690 282 669 221T608 110T511 30T379 0H47ZM361 80Q404 80 435 99T487 152T518
230T528 325Q528 388 509 442T454 529T362 562Q329 562 299 557T250 541L269 560V85L259 99Q280 88 307 84T361 80ZM43 536Q43 547 44 563T47 595T56 618L375 611Q375 590 371 572T358 549L43 536Z" />
<glyph unicode="&#xd1;" horiz-adv-x="771" d="M598 -3Q580 -3 565 -2T538 3L194 464L211 478V48L202 85L306 64Q306 46 302 31T286 0H47Q47 25 51 40T63 58L147 82L128 43V591L150 556L47 577Q47 596 51 610T67 641H246L626 132L576 116V592L584 556L480 577Q480
596 484 610T500 641H739Q739 616 735 601T723 583L640 559L659 596V32Q659 19 647 12T620 1T598 -3ZM319 788Q296 788 279 771T261 728Q234 728 222 734T210 754Q210 790 225 820T264 868T319 887Q347 887 373 876T423 853T473 841Q497 841 514 858T532 901Q559
901 570 895T581 875Q581 840 567 810T528 761T473 742Q444 742 419 753T370 776T319 788Z" />
<glyph unicode="&#xd2;" horiz-adv-x="720" d="M339 -12Q248 -12 180 27T73 137T35 298Q35 374 61 439T134 552T245 628T382 655Q473 655 541 616T647 506T686 346Q686 270 660 205T587 92T477 16T339 -12ZM366 72Q415 72 450 101T504 184T523 310Q523 430 478
500T354 571Q308 571 272 542T217 460T197 333Q197 213 242 143T366 72ZM472 729Q383 752 333 765T259 787T230 802T224 818Q224 850 240 874T279 899Q286 899 298 895T333 878T395 841T497 780Q497 762 491 746T472 729Z" />
<glyph unicode="&#xd3;" horiz-adv-x="720" d="M339 -12Q248 -12 180 27T73 137T35 298Q35 374 61 439T134 552T245 628T382 655Q473 655 541 616T647 506T686 346Q686 270 660 205T587 92T477 16T339 -12ZM366 72Q415 72 450 101T504 184T523 310Q523 430 478
500T354 571Q308 571 272 542T217 460T197 333Q197 213 242 143T366 72ZM250 729Q236 729 230 745T224 780Q286 817 325 841T388 877T422 894T441 899Q464 899 480 875T497 818Q497 809 491 802T462 787T389 766T250 729Z" />
<glyph unicode="&#xd4;" horiz-adv-x="720" d="M339 -12Q248 -12 180 27T73 137T35 298Q35 374 61 439T134 552T245 628T382 655Q473 655 541 616T647 506T686 346Q686 270 660 205T587 92T477 16T339 -12ZM366 72Q415 72 450 101T504 184T523 310Q523 430 478
500T354 571Q308 571 272 542T217 460T197 333Q197 213 242 143T366 72ZM360 903Q380 903 396 897T430 873T471 825T532 743Q532 728 521 718T494 707L347 808H373L226 707Q210 707 199 717T188 743Q224 793 248 824T290 873T324 896T360 903Z" />
<glyph unicode="&#xd5;" horiz-adv-x="720" d="M339 -12Q248 -12 180 27T73 137T35 298Q35 374 61 439T134 552T245 628T382 655Q473 655 541 616T647 506T686 346Q686 270 660 205T587 92T477 16T339 -12ZM366 72Q415 72 450 101T504 184T523 310Q523 430 478
500T354 571Q308 571 272 542T217 460T197 333Q197 213 242 143T366 72ZM284 788Q261 788 244 771T226 728Q199 728 187 734T175 754Q175 790 190 820T229 868T284 887Q312 887 338 876T388 853T438 841Q462 841 479 858T497 901Q524 901 535 895T546 875Q546 840
532 810T493 761T438 742Q409 742 384 753T335 776T284 788Z" />
<glyph unicode="&#xd6;" horiz-adv-x="720" d="M339 -12Q248 -12 180 27T73 137T35 298Q35 374 61 439T134 552T245 628T382 655Q473 655 541 616T647 506T686 346Q686 270 660 205T587 92T477 16T339 -12ZM366 72Q415 72 450 101T504 184T523 310Q523 430 478
500T354 571Q308 571 272 542T217 460T197 333Q197 213 242 143T366 72ZM472 738Q433 738 415 759T396 814Q396 835 407 852T436 880T472 890Q510 890 530 869T550 814Q550 794 539 777T510 749T472 738ZM248 738Q209 738 190 759T171 814Q171 835 182 852T211
880T248 890Q285 890 305 869T325 814Q325 794 314 777T285 749T248 738Z" />
<glyph unicode="&#xd7;" horiz-adv-x="572" d="M413 109L270 251H302L166 115Q148 115 131 129T104 164L246 307V274L110 410Q110 428 124 446T159 472L302 330H270L406 466Q423 466 440 453T468 417L326 274V307L462 171Q462 152 448 135T413 109Z" />
<glyph unicode="&#xd8;" horiz-adv-x="720" d="M339 -12Q248 -12 180 27T73 137T35 298Q35 374 61 439T134 552T245 628T382 655Q473 655 541 616T647 506T686 346Q686 270 660 205T587 92T477 16T339 -12ZM366 72Q415 72 450 101T504 184T523 310Q523 430 478
500T354 571Q308 571 272 542T217 460T197 333Q197 213 242 143T366 72ZM201 -126Q180 -126 161 -121T131 -104L520 768Q540 768 559 763T590 746L201 -126Z" />
<glyph unicode="&#xd9;" horiz-adv-x="736" d="M386 -12Q280 -12 217 16T125 94T96 211V578L118 555L28 577Q28 596 32 610T49 641H320Q320 616 316 601T304 583L224 558L249 582V243Q249 183 262 145T306 88T386 70Q446 70 481 89T532 147T548 245V592L558 554L461
577Q461 596 465 610T480 641H708Q708 617 704 601T692 583L614 559L631 597V214Q631 157 605 105T525 21T386 -12ZM504 729Q415 752 365 765T291 787T262 802T256 818Q256 850 272 874T311 899Q318 899 330 895T365 878T427 841T529 780Q529 762 523 746T504 729Z"
/>
<glyph unicode="&#xda;" horiz-adv-x="736" d="M386 -12Q280 -12 217 16T125 94T96 211V578L118 555L28 577Q28 596 32 610T49 641H320Q320 616 316 601T304 583L224 558L249 582V243Q249 183 262 145T306 88T386 70Q446 70 481 89T532 147T548 245V592L558 554L461
577Q461 596 465 610T480 641H708Q708 617 704 601T692 583L614 559L631 597V214Q631 157 605 105T525 21T386 -12ZM282 729Q268 729 262 745T256 780Q318 817 357 841T420 877T454 894T473 899Q496 899 512 875T529 818Q529 809 523 802T494 787T421 766T282 729Z"
/>
<glyph unicode="&#xdb;" horiz-adv-x="736" d="M386 -12Q280 -12 217 16T125 94T96 211V578L118 555L28 577Q28 596 32 610T49 641H320Q320 616 316 601T304 583L224 558L249 582V243Q249 183 262 145T306 88T386 70Q446 70 481 89T532 147T548 245V592L558 554L461
577Q461 596 465 610T480 641H708Q708 617 704 601T692 583L614 559L631 597V214Q631 157 605 105T525 21T386 -12ZM392 903Q412 903 428 897T462 873T503 825T564 743Q564 728 553 718T526 707L379 808H405L258 707Q242 707 231 717T220 743Q256 793 280 824T322
873T356 896T392 903Z" />
<glyph unicode="&#xdc;" horiz-adv-x="736" d="M386 -12Q280 -12 217 16T125 94T96 211V578L118 555L28 577Q28 596 32 610T49 641H320Q320 616 316 601T304 583L224 558L249 582V243Q249 183 262 145T306 88T386 70Q446 70 481 89T532 147T548 245V592L558 554L461
577Q461 596 465 610T480 641H708Q708 617 704 601T692 583L614 559L631 597V214Q631 157 605 105T525 21T386 -12ZM503 738Q464 738 446 759T427 814Q427 835 438 852T467 880T503 890Q541 890 561 869T581 814Q581 794 570 777T541 749T503 738ZM279 738Q240
738 221 759T202 814Q202 835 213 852T242 880T279 890Q316 890 336 869T356 814Q356 794 345 777T316 749T279 738Z" />
<glyph unicode="&#xdd;" horiz-adv-x="663" d="M342 94L47 591L91 555L2 577Q2 596 6 610T23 641H295Q295 616 291 601T279 583L197 558L217 596L394 297L350 296L499 591L512 556L410 577Q410 596 414 610T430 641H661Q661 616 657 601T645 583L563 559L595 596L342
94ZM188 0Q188 25 192 40T204 58L278 83L259 58V275H411V63L384 86L484 64Q484 46 480 32T465 0H188ZM247 729Q233 729 227 745T221 780Q283 817 322 841T385 877T419 894T438 899Q461 899 477 875T494 818Q494 809 488 802T459 787T386 766T247 729Z" />
<glyph unicode="&#xde;" horiz-adv-x="584" d="M47 0Q47 25 51 40T63 58L135 83L116 60V578L136 555L47 577Q47 596 51 610T67 641H339Q339 616 335 601T323 583L242 558L269 582V514L254 529H372Q442 529 488 503T557 436T580 347Q580 291 553 240T476 155T353
121Q332 121 307 124T259 133L269 142V49L241 86L349 64Q349 46 345 32T329 0H47ZM269 201L260 215Q278 210 294 209T326 208Q357 208 378 226T409 273T420 333Q420 379 398 412T335 446Q317 446 299 444T259 436L269 444V201Z" />
<glyph unicode="&#xdf;" horiz-adv-x="734" d="M483 -12Q429 -12 387 2T321 40T296 96Q296 124 315 140T364 156Q380 156 395 152T422 138Q422 88 441 64T501 39Q530 39 549 54T569 95Q569 116 554 129T515 153T461 173Q426 185 391 201T332 246T309 321Q309 357
325 380T365 421T413 457T453 499T469 562Q469 612 444 641T373 670Q324 670 298 643T262 567T253 447V0H41Q41 52 57 58L114 84L103 68V394L126 372L37 374Q37 396 42 416T56 442L131 446L103 422Q103 513 138 583T238 693T389 734Q464 734 512 712T584 655T608
579Q608 535 590 508T546 465T493 435T449 407T431 366Q431 346 446 334T485 312T537 292Q574 280 612 263T675 217T700 139Q700 92 674 58T599 6T483 -12Z" />
<glyph unicode="&#xe0;" horiz-adv-x="540" d="M137 -12Q91 -12 61 17T31 92Q31 148 69 185T180 240L313 270L301 253V315Q301 366 288 387T244 409Q208 409 190 384T170 306Q163 297 148 292T116 287Q87 287 71 301T55 340Q55 376 82 403T158 446T265 462Q355
462 402 422T450 304V105Q450 87 457 79T480 70Q490 70 500 74T517 81L528 37Q504 15 470 2T405 -12Q360 -12 335 11T310 75H302Q271 35 226 12T137 -12ZM213 73Q237 73 266 89T315 129L302 99V221L319 218L224 195Q194 189 178 171T162 127Q162 103 176 88T213
73ZM342 509Q264 553 220 578T156 616T131 636T126 649Q126 666 136 683T161 712T191 724Q199 724 207 720T233 700T285 649T380 551Q380 532 368 521T342 509Z" />
<glyph unicode="&#xe1;" horiz-adv-x="540" d="M137 -12Q91 -12 61 17T31 92Q31 148 69 185T180 240L313 270L301 253V315Q301 366 288 387T244 409Q208 409 190 384T170 306Q163 297 148 292T116 287Q87 287 71 301T55 340Q55 376 82 403T158 446T265 462Q355
462 402 422T450 304V105Q450 87 457 79T480 70Q490 70 500 74T517 81L528 37Q504 15 470 2T405 -12Q360 -12 335 11T310 75H302Q271 35 226 12T137 -12ZM213 73Q237 73 266 89T315 129L302 99V221L319 218L224 195Q194 189 178 171T162 127Q162 103 176 88T213
73ZM164 509Q150 509 138 520T126 551Q186 613 220 648T272 699T297 719T314 724Q330 724 345 713T370 684T380 649Q380 643 375 636T350 616T286 578T164 509Z" />
<glyph unicode="&#xe2;" horiz-adv-x="540" d="M137 -12Q91 -12 61 17T31 92Q31 148 69 185T180 240L313 270L301 253V315Q301 366 288 387T244 409Q208 409 190 384T170 306Q163 297 148 292T116 287Q87 287 71 301T55 340Q55 376 82 403T158 446T265 462Q355
462 402 422T450 304V105Q450 87 457 79T480 70Q490 70 500 74T517 81L528 37Q504 15 470 2T405 -12Q360 -12 335 11T310 75H302Q271 35 226 12T137 -12ZM213 73Q237 73 266 89T315 129L302 99V221L319 218L224 195Q194 189 178 171T162 127Q162 103 176 88T213
73ZM253 730Q266 730 276 725T304 701T349 644T425 539Q425 524 414 514T387 504Q340 543 307 571T253 619Q232 600 199 572T119 504Q103 504 92 514T81 539Q128 605 156 643T201 700T229 724T253 730Z" />
<glyph unicode="&#xe3;" horiz-adv-x="540" d="M137 -12Q91 -12 61 17T31 92Q31 148 69 185T180 240L313 270L301 253V315Q301 366 288 387T244 409Q208 409 190 384T170 306Q163 297 148 292T116 287Q87 287 71 301T55 340Q55 376 82 403T158 446T265 462Q355
462 402 422T450 304V105Q450 87 457 79T480 70Q490 70 500 74T517 81L528 37Q504 15 470 2T405 -12Q360 -12 335 11T310 75H302Q271 35 226 12T137 -12ZM213 73Q237 73 266 89T315 129L302 99V221L319 218L224 195Q194 189 178 171T162 127Q162 103 176 88T213
73ZM176 590Q153 590 136 573T118 530Q91 530 79 536T67 556Q67 592 82 622T121 670T176 689Q204 689 230 678T280 655T330 643Q354 643 371 660T389 703Q416 703 427 697T438 677Q438 642 424 612T385 563T330 544Q301 544 276 555T227 578T176 590Z" />
<glyph unicode="&#xe4;" horiz-adv-x="540" d="M137 -12Q91 -12 61 17T31 92Q31 148 69 185T180 240L313 270L301 253V315Q301 366 288 387T244 409Q208 409 190 384T170 306Q163 297 148 292T116 287Q87 287 71 301T55 340Q55 376 82 403T158 446T265 462Q355
462 402 422T450 304V105Q450 87 457 79T480 70Q490 70 500 74T517 81L528 37Q504 15 470 2T405 -12Q360 -12 335 11T310 75H302Q271 35 226 12T137 -12ZM213 73Q237 73 266 89T315 129L302 99V221L319 218L224 195Q194 189 178 171T162 127Q162 103 176 88T213
73ZM364 540Q325 540 307 561T288 616Q288 637 299 654T328 682T364 692Q402 692 422 671T442 616Q442 596 431 579T402 551T364 540ZM140 540Q101 540 82 561T63 616Q63 637 74 654T103 682T140 692Q177 692 197 671T217 616Q217 596 206 579T177 551T140 540Z"
/>
<glyph unicode="&#xe5;" horiz-adv-x="540" d="M137 -12Q91 -12 61 17T31 92Q31 148 69 185T180 240L313 270L301 253V315Q301 366 288 387T244 409Q208 409 190 384T170 306Q163 297 148 292T116 287Q87 287 71 301T55 340Q55 376 82 403T158 446T265 462Q355
462 402 422T450 304V105Q450 87 457 79T480 70Q490 70 500 74T517 81L528 37Q504 15 470 2T405 -12Q360 -12 335 11T310 75H302Q271 35 226 12T137 -12ZM213 73Q237 73 266 89T315 129L302 99V221L319 218L224 195Q194 189 178 171T162 127Q162 103 176 88T213
73ZM245 486Q187 486 150 519T113 605Q113 646 132 678T183 728T258 747Q317 747 355 712T393 621Q393 562 352 524T245 486ZM254 537Q275 537 287 557T299 613Q299 650 286 673T251 696Q231 696 219 676T207 617Q207 580 219 559T254 537Z" />
<glyph unicode="&#xe6;" horiz-adv-x="780" d="M137 -12Q91 -12 61 17T31 92Q31 148 69 185T180 240L301 268V308Q302 364 289 386T244 409Q209 409 190 384T170 306Q164 297 149 292T116 287Q88 287 72 301T55 341Q55 376 82 403T158 446T265 462Q311 462 345
450T400 410Q428 435 463 448T537 462Q601 462 646 438T715 367T740 250Q740 232 733 225T708 218H454Q459 171 476 138T524 87T598 69Q633 69 663 82T727 123L744 81Q721 54 685 33T608 0T523 -12Q455 -12 405 16T327 96Q289 46 238 17T137 -12ZM213 73Q237 73
265 88T313 126Q305 146 303 168T299 214L225 195Q195 188 179 171T162 127Q162 103 176 88T213 73ZM451 275L604 279Q603 341 584 374T532 408Q498 408 477 373T451 275Z" />
<glyph unicode="&#xe7;" horiz-adv-x="512" d="M268 -12Q198 -12 146 16T64 94T35 212Q35 285 68 341T158 430T289 462Q343 462 387 445T456 400T482 337Q482 310 464 295T412 279Q398 279 385 283T360 295Q360 350 341 379T286 408Q242 408 218 366T193 246Q193
155 226 112T329 69Q365 69 399 81T470 118L487 77Q464 51 429 31T352 -1T268 -12ZM275 -266Q220 -266 185 -242T150 -181Q150 -161 160 -151T189 -140Q214 -140 235 -156Q235 -194 246 -213T287 -232Q308 -232 322 -217T337 -170Q337 -139 318 -123T268 -106Q257
-106 249 -107T235 -110L265 0H299L274 -88L260 -73Q273 -69 284 -68T307 -67Q337 -67 362 -77T402 -108T418 -161Q418 -186 403 -210T355 -250T275 -266Z" />
<glyph unicode="&#xe8;" horiz-adv-x="524" d="M266 -12Q198 -12 146 16T64 95T35 212Q35 283 68 340T157 429T284 462Q345 462 390 437T459 368T484 262Q484 235 477 227T452 218H142V273L360 279L348 262Q349 309 341 342T316 391T276 408Q240 408 217 368T194
255Q194 195 211 154T261 91T342 69Q376 69 407 82T470 123L487 81Q464 54 429 33T352 0T266 -12ZM365 509Q287 553 243 578T179 616T154 636T149 649Q149 666 159 683T184 712T214 724Q222 724 230 720T256 700T308 649T403 551Q403 532 391 521T365 509Z" />
<glyph unicode="&#xe9;" horiz-adv-x="524" d="M266 -12Q198 -12 146 16T64 95T35 212Q35 283 68 340T157 429T284 462Q345 462 390 437T459 368T484 262Q484 235 477 227T452 218H142V273L360 279L348 262Q349 309 341 342T316 391T276 408Q240 408 217 368T194
255Q194 195 211 154T261 91T342 69Q376 69 407 82T470 123L487 81Q464 54 429 33T352 0T266 -12ZM187 509Q173 509 161 520T149 551Q209 613 243 648T295 699T320 719T337 724Q353 724 368 713T393 684T403 649Q403 643 398 636T373 616T309 578T187 509Z" />
<glyph unicode="&#xea;" horiz-adv-x="524" d="M266 -12Q198 -12 146 16T64 95T35 212Q35 283 68 340T157 429T284 462Q345 462 390 437T459 368T484 262Q484 235 477 227T452 218H142V273L360 279L348 262Q349 309 341 342T316 391T276 408Q240 408 217 368T194
255Q194 195 211 154T261 91T342 69Q376 69 407 82T470 123L487 81Q464 54 429 33T352 0T266 -12ZM275 730Q288 730 298 725T326 701T371 644T447 539Q447 524 436 514T409 504Q362 543 329 571T275 619Q254 600 221 572T141 504Q125 504 114 514T103 539Q150 605
178 643T223 700T251 724T275 730Z" />
<glyph unicode="&#xeb;" horiz-adv-x="524" d="M266 -12Q198 -12 146 16T64 95T35 212Q35 283 68 340T157 429T284 462Q345 462 390 437T459 368T484 262Q484 235 477 227T452 218H142V273L360 279L348 262Q349 309 341 342T316 391T276 408Q240 408 217 368T194
255Q194 195 211 154T261 91T342 69Q376 69 407 82T470 123L487 81Q464 54 429 33T352 0T266 -12ZM387 540Q348 540 330 561T311 616Q311 637 322 654T351 682T387 692Q425 692 445 671T465 616Q465 596 454 579T425 551T387 540ZM163 540Q124 540 105 561T86 616Q86
637 97 654T126 682T163 692Q200 692 220 671T240 616Q240 596 229 579T200 551T163 540Z" />
<glyph unicode="&#xec;" horiz-adv-x="353" d="M36 0Q36 53 52 58L117 84L106 68V386L118 371L52 388Q36 392 36 445Q77 451 114 455T195 459Q256 459 256 392V72L244 86L334 64Q334 44 330 30T314 0H36ZM266 509Q188 553 144 578T80 616T55 636T50 649Q50 666
60 683T85 712T115 724Q123 724 131 720T157 700T209 649T304 551Q304 532 292 521T266 509Z" />
<glyph unicode="&#xed;" horiz-adv-x="353" d="M36 0Q36 53 52 58L117 84L106 68V386L118 371L52 388Q36 392 36 445Q77 451 114 455T195 459Q256 459 256 392V72L244 86L334 64Q334 44 330 30T314 0H36ZM88 509Q74 509 62 520T50 551Q110 613 144 648T196 699T221
719T238 724Q254 724 269 713T294 684T304 649Q304 643 299 636T274 616T210 578T88 509Z" />
<glyph unicode="&#xee;" horiz-adv-x="353" d="M36 0Q36 53 52 58L117 84L106 68V386L118 371L52 388Q36 392 36 445Q77 451 114 455T195 459Q256 459 256 392V72L244 86L334 64Q334 44 330 30T314 0H36ZM176 730Q189 730 199 725T227 701T272 644T348 539Q348
524 337 514T310 504Q263 543 230 571T176 619Q155 600 122 572T42 504Q26 504 15 514T4 539Q51 605 79 643T124 700T152 724T176 730Z" />
<glyph unicode="&#xef;" horiz-adv-x="353" d="M36 0Q36 53 52 58L117 84L106 68V386L118 371L52 388Q36 392 36 445Q77 451 114 455T195 459Q256 459 256 392V72L244 86L334 64Q334 44 330 30T314 0H36ZM544 540Q505 540 487 561T468 616Q468 637 479 654T508
682T544 692Q582 692 602 671T622 616Q622 596 611 579T582 551T544 540ZM320 540Q281 540 262 561T243 616Q243 637 254 654T283 682T320 692Q357 692 377 671T397 616Q397 596 386 579T357 551T320 540Z" />
<glyph unicode="&#xf0;" horiz-adv-x="578" d="M265 -12Q157 -12 96 39T35 180Q35 248 69 300T163 381T304 411Q331 411 356 404T399 383L382 372Q379 413 360 456T305 539T222 614T111 670Q111 693 121 703T159 714Q197 714 246 694T344 636T433 547Q483 490
513 420T543 274Q543 191 507 127T409 25T265 -12ZM287 41Q319 41 341 73T374 160T386 287Q386 305 386 320T383 348L438 279Q404 322 371 339T295 357Q246 357 220 318T193 203Q193 126 217 84T287 41ZM181 561L486 656Q496 645 499 631T503 599L198 504Q188 515
185 530T181 561Z" />
<glyph unicode="&#xf1;" horiz-adv-x="641" d="M36 0Q36 52 52 58L109 84L98 67V378L110 362L52 379Q36 384 36 436Q89 444 119 447T169 451Q206 451 223 436T240 384V367L235 369H248Q294 413 344 437T439 462Q554 462 554 308V72L543 87L616 64Q616 44 612 30T597
0H359Q359 52 375 58L415 75L405 58V287Q405 361 351 361Q326 361 305 352T267 329T243 306L248 323V64L236 79L295 64Q295 44 291 30T275 0H36ZM250 590Q227 590 210 573T192 530Q165 530 153 536T141 556Q141 592 156 622T195 670T250 689Q278 689 304 678T354
655T404 643Q428 643 445 660T463 703Q490 703 501 697T512 677Q512 642 498 612T459 563T404 544Q375 544 350 555T301 578T250 590Z" />
<glyph unicode="&#xf2;" horiz-adv-x="574" d="M263 -12Q156 -12 96 45T35 203Q35 279 69 337T164 429T305 462Q376 462 428 435T510 359T539 243Q539 169 504 111T407 21T263 -12ZM288 42Q333 42 357 87T381 217Q381 307 356 357T284 408Q241 408 217 362T193
230Q193 139 217 91T288 42ZM371 509Q293 553 249 578T185 616T160 636T155 649Q155 666 165 683T190 712T220 724Q228 724 236 720T262 700T314 649T409 551Q409 532 397 521T371 509Z" />
<glyph unicode="&#xf3;" horiz-adv-x="574" d="M263 -12Q156 -12 96 45T35 203Q35 279 69 337T164 429T305 462Q376 462 428 435T510 359T539 243Q539 169 504 111T407 21T263 -12ZM288 42Q333 42 357 87T381 217Q381 307 356 357T284 408Q241 408 217 362T193
230Q193 139 217 91T288 42ZM193 509Q179 509 167 520T155 551Q215 613 249 648T301 699T326 719T343 724Q359 724 374 713T399 684T409 649Q409 643 404 636T379 616T315 578T193 509Z" />
<glyph unicode="&#xf4;" horiz-adv-x="574" d="M263 -12Q156 -12 96 45T35 203Q35 279 69 337T164 429T305 462Q376 462 428 435T510 359T539 243Q539 169 504 111T407 21T263 -12ZM288 42Q333 42 357 87T381 217Q381 307 356 357T284 408Q241 408 217 362T193
230Q193 139 217 91T288 42ZM281 730Q294 730 304 725T332 701T377 644T453 539Q453 524 442 514T415 504Q368 543 335 571T281 619Q260 600 227 572T147 504Q131 504 120 514T109 539Q156 605 184 643T229 700T257 724T281 730Z" />
<glyph unicode="&#xf5;" horiz-adv-x="574" d="M263 -12Q156 -12 96 45T35 203Q35 279 69 337T164 429T305 462Q376 462 428 435T510 359T539 243Q539 169 504 111T407 21T263 -12ZM288 42Q333 42 357 87T381 217Q381 307 356 357T284 408Q241 408 217 362T193
230Q193 139 217 91T288 42ZM205 590Q182 590 165 573T147 530Q120 530 108 536T96 556Q96 592 111 622T150 670T205 689Q233 689 259 678T309 655T359 643Q383 643 400 660T418 703Q445 703 456 697T467 677Q467 642 453 612T414 563T359 544Q330 544 305 555T256
578T205 590Z" />
<glyph unicode="&#xf6;" horiz-adv-x="574" d="M263 -12Q156 -12 96 45T35 203Q35 279 69 337T164 429T305 462Q376 462 428 435T510 359T539 243Q539 169 504 111T407 21T263 -12ZM288 42Q333 42 357 87T381 217Q381 307 356 357T284 408Q241 408 217 362T193
230Q193 139 217 91T288 42ZM393 540Q354 540 336 561T317 616Q317 637 328 654T357 682T393 692Q431 692 451 671T471 616Q471 596 460 579T431 551T393 540ZM169 540Q130 540 111 561T92 616Q92 637 103 654T132 682T169 692Q206 692 226 671T246 616Q246 596
235 579T206 551T169 540Z" />
<glyph unicode="&#xf7;" horiz-adv-x="572" d="M286 387Q256 387 240 404T224 449Q224 475 243 492T286 510Q317 510 333 493T349 449Q349 423 330 405T286 387ZM285 70Q255 70 239 87T223 131Q223 157 242 175T285 193Q316 193 332 176T348 131Q348 105 329 88T285
70ZM76 249Q61 267 61 298Q61 306 62 315T67 332H494Q510 315 510 283Q510 275 509 267T504 249H76Z" />
<glyph unicode="&#xf8;" horiz-adv-x="574" d="M263 -12Q156 -12 96 45T35 203Q35 279 69 337T164 429T305 462Q376 462 428 435T510 359T539 243Q539 169 504 111T407 21T263 -12ZM288 42Q333 42 357 87T381 217Q381 307 356 357T284 408Q241 408 217 362T193
230Q193 139 217 91T288 42ZM169 -91Q155 -91 141 -87T120 -76L393 535Q407 535 420 531T442 519L169 -91Z" />
<glyph unicode="&#xf9;" horiz-adv-x="623" d="M193 -12Q138 -12 109 25T80 141V376L99 361L33 378Q26 379 22 394T18 434Q69 442 99 445T149 449Q191 449 210 434T229 383V161Q229 124 244 106T288 87Q313 87 333 97T368 121T391 146L376 116V376L396 361L330
378Q323 379 319 394T314 434Q365 442 396 445T446 449Q487 449 506 434T526 383V105Q526 87 533 79T555 70Q564 70 574 73T592 81L603 37Q579 15 545 2T477 -12Q436 -12 411 11T385 75H378Q286 -12 193 -12ZM389 509Q311 553 267 578T203 616T178 636T173 649Q173
666 183 683T208 712T238 724Q246 724 254 720T280 700T332 649T427 551Q427 532 415 521T389 509Z" />
<glyph unicode="&#xfa;" horiz-adv-x="623" d="M193 -12Q138 -12 109 25T80 141V376L99 361L33 378Q26 379 22 394T18 434Q69 442 99 445T149 449Q191 449 210 434T229 383V161Q229 124 244 106T288 87Q313 87 333 97T368 121T391 146L376 116V376L396 361L330
378Q323 379 319 394T314 434Q365 442 396 445T446 449Q487 449 506 434T526 383V105Q526 87 533 79T555 70Q564 70 574 73T592 81L603 37Q579 15 545 2T477 -12Q436 -12 411 11T385 75H378Q286 -12 193 -12ZM211 509Q197 509 185 520T173 551Q233 613 267 648T319
699T344 719T361 724Q377 724 392 713T417 684T427 649Q427 643 422 636T397 616T333 578T211 509Z" />
<glyph unicode="&#xfb;" horiz-adv-x="623" d="M193 -12Q138 -12 109 25T80 141V376L99 361L33 378Q26 379 22 394T18 434Q69 442 99 445T149 449Q191 449 210 434T229 383V161Q229 124 244 106T288 87Q313 87 333 97T368 121T391 146L376 116V376L396 361L330
378Q323 379 319 394T314 434Q365 442 396 445T446 449Q487 449 506 434T526 383V105Q526 87 533 79T555 70Q564 70 574 73T592 81L603 37Q579 15 545 2T477 -12Q436 -12 411 11T385 75H378Q286 -12 193 -12ZM300 730Q313 730 323 725T351 701T396 644T472 539Q472
524 461 514T434 504Q387 543 354 571T300 619Q279 600 246 572T166 504Q150 504 139 514T128 539Q175 605 203 643T248 700T276 724T300 730Z" />
<glyph unicode="&#xfc;" horiz-adv-x="623" d="M193 -12Q138 -12 109 25T80 141V376L99 361L33 378Q26 379 22 394T18 434Q69 442 99 445T149 449Q191 449 210 434T229 383V161Q229 124 244 106T288 87Q313 87 333 97T368 121T391 146L376 116V376L396 361L330
378Q323 379 319 394T314 434Q365 442 396 445T446 449Q487 449 506 434T526 383V105Q526 87 533 79T555 70Q564 70 574 73T592 81L603 37Q579 15 545 2T477 -12Q436 -12 411 11T385 75H378Q286 -12 193 -12ZM411 540Q372 540 354 561T335 616Q335 637 346 654T375
682T411 692Q449 692 469 671T489 616Q489 596 478 579T449 551T411 540ZM187 540Q148 540 129 561T110 616Q110 637 121 654T150 682T187 692Q224 692 244 671T264 616Q264 596 253 579T224 551T187 540Z" />
<glyph unicode="&#xfd;" horiz-adv-x="516" d="M81 -270Q47 -270 25 -252T3 -203Q3 -193 6 -179T17 -155H35Q84 -155 115 -147T167 -122T203 -74T233 2L230 -61L55 377L80 358L4 379Q4 400 8 414T24 443H266Q266 387 250 381L187 360L206 383L315 108L275 107L382
381L390 361L326 379Q326 408 329 421T344 443H513Q513 415 509 402T497 385L440 362L463 383L305 -24Q263 -136 205 -203T81 -270ZM193 509Q179 509 167 520T155 551Q215 613 249 648T301 699T326 719T343 724Q359 724 374 713T399 684T409 649Q409 643 404 636T379
616T315 578T193 509Z" />
<glyph unicode="&#xfe;" horiz-adv-x="614" d="M31 -245Q31 -194 47 -187L104 -162L93 -179V661L105 646L39 662Q24 667 24 719Q64 725 103 729T164 734Q201 734 218 719T235 670V367L231 370H243Q270 412 317 437T412 462Q462 462 499 436T557 361T578 247Q578
169 550 111T469 20T345 -12Q317 -12 288 -7T230 9L243 17V-174L231 -160L321 -182Q321 -201 317 -215T302 -245H31ZM310 52Q365 52 392 95T420 224Q420 297 399 333T334 370Q308 370 289 359T254 330T227 295L240 326V66L227 91Q247 72 266 62T310 52Z" />
<glyph unicode="&#xff;" horiz-adv-x="516" d="M81 -270Q47 -270 25 -252T3 -203Q3 -193 6 -179T17 -155H35Q84 -155 115 -147T167 -122T203 -74T233 2L230 -61L55 377L80 358L4 379Q4 400 8 414T24 443H266Q266 387 250 381L187 360L206 383L315 108L275 107L382
381L390 361L326 379Q326 408 329 421T344 443H513Q513 415 509 402T497 385L440 362L463 383L305 -24Q263 -136 205 -203T81 -270ZM393 540Q354 540 336 561T317 616Q317 637 328 654T357 682T393 692Q431 692 451 671T471 616Q471 596 460 579T431 551T393 540ZM169
540Q130 540 111 561T92 616Q92 637 103 654T132 682T169 692Q206 692 226 671T246 616Q246 596 235 579T206 551T169 540Z" />
<glyph unicode="&#x2013;" horiz-adv-x="651" d="M55 228Q50 235 48 248T45 275Q45 296 48 306H594Q599 299 601 286T603 260Q603 237 601 228H55Z" />
<glyph unicode="&#x2014;" horiz-adv-x="846" d="M71 228Q65 235 62 248T59 275Q59 296 62 306H771Q778 299 780 286T783 260Q783 237 780 228H71Z" />
<glyph unicode="&#x2018;" horiz-adv-x="229" d="M179 732Q186 729 193 720T200 694Q153 681 135 662T117 620Q117 597 129 584T157 562T185 538T197 498Q197 467 175 447T124 427Q81 427 56 459T31 547Q31 595 51 634T105 699T179 732Z" />
<glyph unicode="&#x2019;" horiz-adv-x="229" d="M50 427Q44 430 37 439T29 464Q76 479 94 498T112 538Q112 562 100 574T72 597T44 621T32 661Q32 692 54 712T106 732Q149 732 173 700T198 613Q198 565 178 526T125 460T50 427Z" />
<glyph unicode="&#x201a;" horiz-adv-x="226" d="M46 -163Q39 -160 32 -151T24 -125Q72 -111 89 -92T107 -51Q107 -28 95 -15T67 7T39 31T27 72Q27 103 49 122T100 142Q144 142 168 110T193 23Q193 -25 174 -64T121 -129T46 -163Z" />
<glyph unicode="&#x201c;" horiz-adv-x="444" d="M179 732Q186 729 193 720T200 694Q153 681 135 662T117 620Q117 597 129 584T157 562T185 538T197 498Q197 467 175 447T124 427Q81 427 56 459T31 547Q31 595 51 634T105 699T179 732ZM394 732Q401 729 408 720T415
694Q368 681 350 662T332 620Q332 597 344 584T372 562T400 538T412 498Q412 467 390 447T339 427Q296 427 271 459T246 547Q246 595 266 634T320 699T394 732Z" />
<glyph unicode="&#x201d;" horiz-adv-x="444" d="M50 427Q44 430 37 439T29 464Q76 479 94 498T112 538Q112 562 100 574T72 597T44 621T32 661Q32 692 54 712T106 732Q149 732 173 700T198 613Q198 565 178 526T125 460T50 427ZM265 427Q259 430 252 439T244
464Q291 479 309 498T327 538Q327 562 315 574T287 597T259 621T247 661Q247 692 269 712T321 732Q364 732 388 700T413 613Q413 565 393 526T340 460T265 427Z" />
<glyph unicode="&#x201e;" horiz-adv-x="441" d="M46 -163Q39 -160 32 -151T24 -125Q72 -111 89 -92T107 -51Q107 -28 95 -15T67 7T39 31T27 72Q27 103 49 122T100 142Q144 142 168 110T193 23Q193 -25 174 -64T121 -129T46 -163ZM261 -163Q254 -160 247 -151T239
-125Q287 -111 304 -92T322 -51Q322 -28 310 -15T282 7T254 31T242 72Q242 103 264 122T315 142Q359 142 383 110T408 23Q408 -25 389 -64T336 -129T261 -163Z" />
<glyph unicode="&#x2022;" horiz-adv-x="316" d="M157 176Q112 176 89 201T66 267Q66 292 79 312T113 345T157 358Q204 358 226 333T249 267Q249 229 222 203T157 176Z" />
<glyph unicode="&#x2039;" horiz-adv-x="273" d="M192 78L49 225Q36 239 30 247T24 267Q24 279 30 287T49 310L192 457Q208 454 221 442T236 411L112 237V297L236 124Q234 106 221 94T192 78Z" />
<glyph unicode="&#x203a;" horiz-adv-x="273" d="M81 78L224 225Q237 239 243 247T249 267Q249 279 243 287T224 310L81 457Q65 454 52 442T37 411L161 237V297L37 124Q39 106 52 94T81 78Z" />
</font>
</defs>
</svg>
