<?xml version="1.0" standalone="no"?>
<!DOCTYPE svg PUBLIC "-//W3C//DTD SVG 1.1//EN" "http://www.w3.org/Graphics/SVG/1.1/DTD/svg11.dtd">
<svg xmlns="http://www.w3.org/2000/svg">
<defs >
<font id="Petrona" horiz-adv-x="507" ><font-face
    font-family="Petrona Light"
    units-per-em="1000"
    panose-1="0 0 0 0 0 0 0 0 0 0"
    ascent="858"
    descent="-270"
    alphabetic="0" />
<glyph unicode=" " horiz-adv-x="225" />
<glyph unicode="!" horiz-adv-x="214" d="M100 172Q90 172 84 175Q92 245 99 314T114 441T125 542T133 602Q138 629 147 642T177 655Q196 655 201 642T203 602Q200 584 192 542T171 442T146 314T118 175Q110 172 100 172ZM70 -12Q51 -12 43 -3T34 21Q34 38 42
49T61 67T84 73Q103 73 112 64T121 40Q121 24 113 12T93 -6T70 -12Z" />
<glyph unicode="&quot;" horiz-adv-x="230" d="M102 495Q97 495 93 496T87 499Q89 543 90 575T92 627T95 660Q99 682 108 695T135 709Q154 709 158 697T159 660Q157 648 152 628T138 575T116 499Q110 495 102 495ZM217 495Q212 495 208 496T202 499Q204 543 205
575T207 627T210 660Q214 682 223 695T250 709Q269 709 273 697T274 660Q272 648 267 628T253 575T231 499Q225 495 217 495Z" />
<glyph unicode="#" horiz-adv-x="548" d="M169 22Q154 22 145 26T129 39L153 183L164 170H19Q14 174 12 181T10 195Q10 200 11 204T13 211H170L156 199L178 341L189 328H48Q43 332 41 339T39 353Q39 358 40 362T42 369H196L182 357L208 517Q224 517 233 513T249
500L226 357L214 369H366L353 357L379 517Q395 517 404 513T419 500L396 357L384 369H528Q534 366 536 358T538 343Q538 339 538 335T535 328H379L392 341L371 199L359 211H499Q505 207 507 200T509 185Q509 181 509 177T506 170H352L366 183L340 22Q325 22 316
26T300 39L323 183L334 170H182L196 183L169 22ZM200 199L189 211H340L327 199L348 341L359 328H209L222 341L200 199Z" />
<glyph unicode="$" horiz-adv-x="474" d="M190 -2Q163 -2 132 4T70 21T13 46L46 170Q51 178 57 181T69 184Q79 184 82 181L68 56L58 84Q82 62 121 48T196 33Q236 33 268 52T320 103T340 172Q340 197 330 217T295 257T225 303Q177 331 150 353T112 399T101 456Q101
510 126 553T194 620T293 645Q326 645 365 635T440 604L408 484Q398 484 391 488T383 499L389 594L399 562Q383 585 351 598T285 611Q248 611 219 595T172 551T155 485Q155 462 163 444T196 407T274 359Q346 319 373 282T401 196Q401 141 373 96T297 25T190 -2ZM176
-100Q168 -100 160 -98T146 -93L278 741Q285 741 293 740T308 734L176 -100Z" />
<glyph unicode="%" horiz-adv-x="907" d="M214 255Q155 255 122 293T88 395Q88 446 105 492T153 576T221 634T300 655Q358 655 392 617T427 516Q427 465 409 418T362 334T294 276T214 255ZM233 291Q266 291 293 320T338 400T355 508Q355 561 336 589T281 618Q248
618 220 589T176 510T159 402Q159 349 178 320T233 291ZM294 -12Q270 -12 262 -7T249 5L646 655Q669 655 677 650T690 638L294 -12ZM639 -7Q580 -7 547 31T513 133Q513 184 530 230T578 314T646 372T725 393Q783 393 817 355T852 254Q852 203 834 156T787 72T719
14T639 -7ZM658 29Q691 29 718 58T763 138T780 246Q780 299 761 327T706 356Q673 356 645 327T601 248T584 140Q584 87 603 58T658 29Z" />
<glyph unicode="&amp;" horiz-adv-x="647" d="M523 347Q499 241 452 160T339 34T187 -12Q117 -12 79 19T40 104Q40 177 98 232T255 312L252 304Q175 314 136 353T96 448Q96 506 129 553T218 627T342 655Q418 655 464 622T510 537Q510 507 498 491T463 474Q456
474 450 476T440 483Q442 488 443 499T445 523Q445 568 416 593T331 618Q284 618 247 597T189 539T168 454Q168 422 182 394T227 346T309 325L633 396Q638 388 638 377Q638 366 635 357T624 341L311 296Q250 288 204 262T133 199T108 114Q108 75 134 50T207 25Q275
25 329 62T423 169T484 336L523 347ZM549 350Q527 265 507 153T465 -104L466 -59L484 -136Q471 -143 454 -146T426 -150Q412 -150 407 -145T401 -130Q401 -117 406 -85T420 -7T438 89T457 187T474 275T485 336L549 350Z" />
<glyph unicode="&apos;" horiz-adv-x="115" d="M102 495Q97 495 93 496T87 499Q89 543 90 575T92 627T95 660Q99 682 108 695T135 709Q154 709 158 697T159 660Q157 648 152 628T138 575T116 499Q110 495 102 495Z" />
<glyph unicode="(" horiz-adv-x="303" d="M194 -268Q174 -268 149 -243T102 -168T64 -49T49 107Q49 219 73 321T135 507T215 654T297 751T361 785Q379 785 378 766Q324 720 277 646T196 480T142 287T122 84Q122 17 132 -45T163 -160T217 -249Q213 -268 194 -268Z" />
<glyph unicode=")" horiz-adv-x="304" d="M121 785Q141 785 166 760T213 685T251 566T266 410Q266 298 242 196T180 10T100 -137T18 -234T-46 -268Q-64 -268 -63 -249Q-9 -203 38 -129T119 37T173 230T193 433Q193 500 183 562T152 677T98 766Q102 785 121 785Z" />
<glyph unicode="*" horiz-adv-x="452" d="M171 385Q160 386 151 391T134 404T125 423L270 545V540L100 568Q100 583 107 601T128 629L277 553L272 549L273 725Q280 730 289 732T307 734Q317 734 325 732T336 726L285 549L281 553L452 631Q459 625 463 616T467
597Q467 591 466 583T463 571L282 539L285 545L393 424Q387 414 377 406T356 392T335 385L273 537H279L171 385Z" />
<glyph unicode="+" horiz-adv-x="532" d="M250 81Q244 81 237 83T226 90L290 498Q293 499 297 499T304 500Q311 500 318 498T328 491L264 83Q258 81 250 81ZM90 269Q83 278 85 294Q87 298 87 302T90 310H460Q462 305 463 299T464 284Q463 281 462 277T459 269H90Z" />
<glyph unicode="," horiz-adv-x="203" d="M4 -125Q1 -123 -3 -119T-6 -103Q27 -93 45 -77T63 -38Q63 -27 57 -20T44 -6T31 7T25 26Q25 39 32 49T51 66T75 73Q99 73 111 56T124 14Q124 -19 107 -50T62 -101T4 -125Z" />
<glyph unicode="-" horiz-adv-x="363" d="M69 233Q66 239 66 247Q66 268 79 276T112 284Q149 284 177 283T240 282Q257 282 272 283T306 289Q308 286 308 282T309 274Q309 254 297 246T264 238Q227 238 199 239T135 240Q118 240 103 239T69 233Z" />
<glyph unicode="." horiz-adv-x="209" d="M67 -12Q49 -12 40 -3T31 21Q31 38 39 49T59 67T81 73Q100 73 109 64T118 40Q118 24 110 12T90 -6T67 -12Z" />
<glyph unicode="/" horiz-adv-x="415" d="M84 -200Q62 -200 53 -195T37 -181L332 734Q355 734 363 729T378 715L84 -200Z" />
<glyph unicode="0" horiz-adv-x="608" d="M249 -12Q162 -12 113 50T63 219Q63 304 90 382T163 522T269 619T392 655Q479 655 528 594T577 425Q577 340 550 262T477 122T371 24T249 -12ZM271 29Q319 29 361 58T434 141T483 264T501 413Q501 511 467 562T368 614Q320
614 279 585T206 503T156 381T138 232Q138 133 172 81T271 29Z" />
<glyph unicode="1" horiz-adv-x="349" d="M33 0Q36 15 40 23T53 33L148 55L130 30L221 599L235 584L97 556Q95 563 95 572Q95 586 102 596L272 655H294L195 33L184 59L287 36Q284 22 279 14T265 0H33Z" />
<glyph unicode="2" horiz-adv-x="497" d="M26 0Q14 9 14 27Q14 32 15 36T19 46Q90 97 158 154T280 271T365 394T397 521Q397 618 296 618Q228 618 165 565L184 600L154 490Q152 482 141 477T116 471L120 599Q221 655 306 655Q384 655 426 619T468 518Q468 456
434 393T341 269T211 150T63 39V57L371 35L343 21L395 159Q410 159 416 156T427 142L404 0H26Z" />
<glyph unicode="3" horiz-adv-x="503" d="M189 603L165 498Q162 485 154 479T129 471L134 597Q233 655 322 655Q394 655 435 622T477 532Q477 462 423 409T272 331L274 339Q355 323 396 285T438 188Q438 131 408 86T324 14T203 -12Q127 -12 80 22T33 113Q33 140
43 153T72 167Q79 167 85 165T95 158Q92 141 92 125Q92 77 121 51T209 25Q256 25 291 45T347 101T368 184Q368 233 337 264T239 312Q230 316 226 323T222 347Q317 374 363 417T409 523Q409 566 382 592T308 619Q273 619 236 602T158 553L189 603Z" />
<glyph unicode="4" horiz-adv-x="454" d="M170 0Q172 14 178 22T191 31L269 48L254 34L343 603L374 615L27 187L16 209H403L397 173H29Q15 173 7 181T-1 207L365 655Q415 655 408 611L317 34L304 49L381 32Q379 18 374 11T359 0H170Z" />
<glyph unicode="5" horiz-adv-x="503" d="M198 -12Q152 -12 115 4T57 49T35 111Q35 138 45 152T73 167Q81 167 87 165T97 159Q96 151 95 144T94 128Q94 79 123 52T204 25Q255 25 293 51T353 120T375 219Q375 280 343 316T255 352Q221 352 181 338T115 301Q108
305 105 309T102 321Q102 326 105 340T112 371L177 641H482L442 494Q421 497 415 501T410 514L421 628L451 608L177 592L203 618L159 342L130 343Q203 386 280 386Q358 386 402 345T447 234Q447 184 427 139T373 61T293 8T198 -12Z" />
<glyph unicode="6" horiz-adv-x="535" d="M235 -12Q154 -12 110 44T65 198Q65 280 88 361T153 508T256 615T392 655Q426 655 452 644T492 614T506 569Q506 546 496 535T469 523Q463 523 457 524T445 530Q446 535 446 539T447 548Q448 582 427 598T371 615Q323
615 285 590T219 522T173 424T145 311T136 196Q136 114 166 71T252 28Q304 28 339 56T393 130T412 226Q412 282 384 313T304 344Q275 344 241 332T176 299T127 255L132 296Q156 323 190 344T263 378T338 391Q405 391 443 352T481 244Q481 193 462 147T410 64T332
8T235 -12Z" />
<glyph unicode="7" horiz-adv-x="422" d="M164 -13Q149 -13 137 -3T124 38Q124 102 153 175T230 326T338 478T457 617V593L138 606L160 627L134 511Q132 499 123 495T97 489L103 641H478Q483 636 483 624Q483 611 463 583T412 515T345 423T279 313T227 190T207
58Q207 45 209 34T212 10Q207 0 193 -6T164 -13Z" />
<glyph unicode="8" horiz-adv-x="519" d="M482 527Q482 479 458 440T399 371T328 324L297 334Q350 368 383 412T417 523Q417 572 390 593T317 615Q257 615 224 576T190 478Q190 439 209 414T259 373T324 343T388 311T438 266T458 193Q458 135 426 89T340 15T219
-12Q162 -12 123 6T62 55T41 127Q41 179 69 222T139 296T224 341L258 332Q213 317 181 287T131 218T113 135Q113 80 146 54T234 28Q302 28 343 69T384 175Q384 213 365 237T316 276T253 305T190 336T141 380T122 452Q122 509 150 555T226 628T332 655Q400 655 441
621T482 527Z" />
<glyph unicode="9" horiz-adv-x="540" d="M336 655Q418 655 462 600T507 445Q507 362 484 281T417 133T314 28T180 -12Q141 -12 112 0T65 36T48 92Q48 114 58 126T85 138Q92 138 98 136T109 130Q108 126 108 121T107 111Q107 69 133 49T200 28Q246 28 284 52T350
117T398 212T426 326T436 445Q436 528 406 571T319 615Q270 615 235 588T180 515T160 417Q160 362 188 331T268 299Q297 299 331 311T396 343T446 388L440 347Q416 320 382 299T309 265T234 252Q167 252 129 292T91 399Q91 450 110 496T162 578T240 634T336 655Z"
/>
<glyph unicode=":" horiz-adv-x="207" d="M67 -12Q49 -12 40 -3T31 21Q31 38 39 49T59 67T81 73Q100 73 109 64T118 40Q118 24 110 12T90 -6T67 -12ZM121 341Q103 341 94 350T85 374Q85 391 93 402T113 420T135 426Q154 426 163 417T172 393Q172 377 164 365T144
347T121 341Z" />
<glyph unicode=";" horiz-adv-x="204" d="M4 -125Q1 -123 -3 -119T-6 -103Q27 -93 45 -77T63 -38Q63 -27 57 -20T44 -6T31 7T25 26Q25 39 32 49T51 66T75 73Q99 73 111 56T124 14Q124 -19 107 -50T62 -101T4 -125ZM119 341Q101 341 92 350T83 374Q83 391 91 402T111
420T133 426Q152 426 161 417T170 393Q170 377 162 365T142 347T119 341Z" />
<glyph unicode="&lt;" horiz-adv-x="532" d="M431 89L69 267Q64 274 67 289Q68 296 70 301T76 311L494 489Q495 485 495 480T495 467Q494 459 492 453T485 443L92 279L95 299L437 135Q439 132 439 125T438 110Q437 104 436 99T431 89Z" />
<glyph unicode="=" horiz-adv-x="532" d="M104 358Q97 367 99 383Q101 387 101 391T105 399H474Q480 391 478 373Q477 370 476 366T473 358H104ZM76 180Q69 189 71 205Q72 209 73 213T76 221H445Q452 211 449 195Q449 192 448 188T445 180H76Z" />
<glyph unicode="&gt;" horiz-adv-x="532" d="M59 89Q57 97 59 110Q60 117 62 124T68 135L461 299L458 279L117 443Q115 446 115 452T115 467Q117 474 118 479T122 489L484 311Q487 307 487 302T486 289Q485 283 483 277T477 267L59 89Z" />
<glyph unicode="?" horiz-adv-x="366" d="M137 172Q129 172 121 175L134 303Q234 337 285 392T337 522Q337 573 314 599T247 625Q196 625 163 593T120 499Q114 495 107 494T94 492Q78 492 70 500T62 525Q62 559 88 589T159 637T253 655Q322 655 360 621T399 526Q399
475 372 429T294 345T169 283L181 294L155 175Q152 174 147 173T137 172ZM112 -12Q94 -12 85 -3T76 21Q76 38 84 49T104 67T126 73Q146 73 154 64T163 40Q163 24 155 12T136 -6T112 -12Z" />
<glyph unicode="@" horiz-adv-x="851" d="M413 -166Q335 -166 268 -141T152 -67T76 47T48 193Q48 274 76 348T156 480T283 573T451 607Q529 607 593 583T706 515T781 410T808 276Q808 214 790 162T739 72T664 12T573 -9Q542 -9 527 5T511 57Q511 75 514 99T525
154L522 155Q494 82 446 37T339 -9Q283 -9 251 35T218 160Q218 216 234 269T282 366T358 434T459 460Q495 460 528 450T586 427T625 401L574 96Q573 87 572 78T570 59Q570 40 578 32T604 24Q636 24 663 44T710 99T742 176T753 267Q753 358 713 424T600 526T431
562Q325 562 252 518T140 398T101 225Q101 115 143 38T260 -80T435 -121Q477 -121 516 -112T587 -87T642 -52L657 -71Q641 -85 612 -107T534 -148T413 -166ZM366 40Q393 40 417 56T462 98T500 157T530 220L522 186L562 417L579 364Q561 391 529 409T460 427Q410
427 371 393T309 301T286 173Q286 108 307 74T366 40Z" />
<glyph unicode="A" horiz-adv-x="592" d="M-32 0Q-29 14 -25 22T-12 31L41 47L17 24L324 639Q327 645 333 648T345 653T357 655Q362 655 367 654T375 652L503 26L483 49L559 32Q557 19 553 13T538 0H363Q366 14 371 22T384 31L448 48L439 31L324 588L338 589L56
24L57 49L133 32Q130 19 126 13T110 0H-32ZM141 220L156 256H404L410 220H141Z" />
<glyph unicode="B" horiz-adv-x="567" d="M30 0Q33 26 49 31L113 48L98 34L188 606L201 592L126 609Q128 623 132 630T147 641H378Q451 641 491 611T532 525Q532 482 508 442T445 376T360 348L367 354Q409 352 441 333T490 283T508 212Q508 153 477 105T393 28T276
0H30ZM200 365H310Q381 365 423 404T466 508Q466 555 436 580T346 605Q323 605 295 601T239 589L250 598L162 44L154 56Q175 47 207 42T267 36Q350 36 394 85T438 215Q438 271 405 301T309 331H195L200 365Z" />
<glyph unicode="C" horiz-adv-x="617" d="M292 -12Q222 -12 171 18T92 105T64 237Q64 323 93 398T174 532T294 622T440 655Q486 655 527 643T600 606L561 472Q549 472 541 477T533 489L542 587L551 565Q533 584 495 597T413 610Q331 610 269 566T173 442T138 258Q138
151 185 91T314 31Q364 31 410 52T482 108L461 72L492 205Q511 205 519 201T528 189L513 65Q469 29 410 9T292 -12Z" />
<glyph unicode="D" horiz-adv-x="664" d="M30 0Q32 26 49 31L113 48L98 34L188 607L199 592L126 609Q129 633 147 641H404Q510 641 571 578T632 404Q632 322 603 249T525 120T413 32T283 0H30ZM275 38Q335 38 386 63T476 134T536 242T558 379Q558 490 508 547T363
605Q336 605 300 600T236 587L251 602L162 40L155 54Q166 50 187 47T231 41T275 38Z" />
<glyph unicode="E" horiz-adv-x="568" d="M30 0Q32 14 36 22T49 31L113 48L98 34L188 607L199 592L126 609Q128 622 132 629T148 641H531L512 523Q499 523 493 527T485 540L474 616L485 607L239 594L252 607L209 337L200 344H405L394 337L416 405Q426 405 433
404T445 392L423 257Q416 249 408 247T391 244L389 315L400 306H195L206 315L162 41L154 52L420 34L406 22L450 140Q463 140 468 136T477 125L458 0H30Z" />
<glyph unicode="F" horiz-adv-x="510" d="M30 0Q32 14 36 22T49 31L113 48L98 34L188 607L199 592L126 609Q128 622 132 629T148 641H531L512 523Q499 523 493 527T485 540L474 616L485 607L239 593L251 606L207 327L199 334H403L391 327L413 395Q423 395 430
394T441 382L420 247Q413 239 405 237T388 234L387 305L396 296H193L204 305L160 34L150 49L235 32Q234 19 230 13T214 0H30Z" />
<glyph unicode="G" horiz-adv-x="633" d="M139 265Q139 153 186 92T319 31Q403 31 465 89L450 61L482 259L491 239L405 257Q407 271 412 277T427 288H592Q589 263 573 257L525 240L543 259L511 58Q460 24 405 6T295 -12Q187 -12 126 55T65 242Q65 326 94 400T176
532T297 622T441 655Q487 655 528 643T601 606L562 472Q551 472 543 477T534 489L543 587L552 565Q534 584 495 597T413 610Q333 610 271 566T174 444T139 265Z" />
<glyph unicode="H" horiz-adv-x="705" d="M30 0Q32 14 36 21T49 31L113 48L98 34L188 606L201 592L126 609Q128 622 132 629T148 641H322Q320 627 316 620T303 610L235 593L252 608L209 337L203 344H536L528 337L570 606L582 592L508 609Q510 622 514 629T529
641H707Q704 627 700 620T687 610L619 593L633 608L543 34L533 49L610 32Q608 19 604 13T587 0H411Q414 14 418 22T431 31L495 48L479 34L523 313L530 306H197L205 313L160 34L149 49L225 32Q223 19 219 13T204 0H30Z" />
<glyph unicode="I" horiz-adv-x="320" d="M30 0Q32 14 36 22T49 31L113 48L98 34L188 606L201 592L126 609Q128 622 132 629T148 641H322Q320 627 316 620T303 610L235 593L252 608L160 34L149 49L225 32Q223 19 219 13T204 0H30Z" />
<glyph unicode="J" horiz-adv-x="271" d="M-76 -186Q-115 -186 -115 -153Q-115 -146 -113 -138T-107 -124Q-50 -124 -13 -105T46 -42T80 73L164 608L177 592L102 609Q104 623 108 631T124 641H298Q296 627 292 620T278 610L212 593L227 608L163 191Q149 107 126
38T72 -82T4 -159T-76 -186Z" />
<glyph unicode="K" horiz-adv-x="561" d="M473 -11Q451 -11 428 4T380 49T329 118T274 210T216 321L500 612L501 592L419 609Q421 623 425 630T440 641H611Q607 613 589 609L513 591L550 617L256 314L268 341Q292 295 322 245T385 149T454 67T522 16Q514 4 502
-3T473 -11ZM30 0Q32 14 36 22T49 31L113 48L98 34L188 606L201 592L126 609Q128 622 132 629T148 641H322Q320 627 316 620T303 610L235 593L252 608L160 34L149 49L225 32Q223 19 219 13T204 0H30Z" />
<glyph unicode="L" horiz-adv-x="535" d="M30 0Q32 14 36 22T49 31L113 48L98 34L188 606L201 592L126 609Q128 622 132 629T148 641H324Q322 627 318 620T305 610L238 593L252 608L162 41L154 52L415 34L401 22L438 140Q450 140 457 136T468 125L449 0H30Z" />
<glyph unicode="M" horiz-adv-x="853" d="M379 -3Q377 -3 374 -2T370 0L255 616H270L127 26L125 47L199 32Q196 19 192 12T177 0H20Q22 14 27 22T40 31L102 46L90 22L237 623V593L168 609Q170 622 174 629T189 641H315L420 78H394L677 641H818Q816 627 811 620T798
610L728 594L749 624L700 24L693 48L768 32Q766 19 762 12T745 0H560Q562 14 567 22T580 31L650 48L636 20L686 620H705L402 16Q397 5 391 1T379 -3Z" />
<glyph unicode="N" horiz-adv-x="696" d="M523 -2Q515 -2 510 -1T501 2L214 572L224 577L137 26L135 47L209 32Q208 19 204 12T188 0H30Q32 14 37 22T49 31L113 45L100 21L193 609L200 593L126 609Q128 622 132 629T148 641H255L543 66L522 61L610 615L612 594L537
609Q539 622 543 629T559 641H717Q716 627 711 620T698 610L634 596L646 615L551 18Q550 13 546 9T535 1T523 -2Z" />
<glyph unicode="O" horiz-adv-x="642" d="M267 -12Q203 -12 157 19T87 104T63 229Q63 309 91 385T167 522T277 619T408 655Q472 655 517 625T587 540T612 414Q612 336 585 260T510 122T399 24T267 -12ZM299 32Q353 32 396 63T472 147T521 265T538 398Q538 498
495 554T374 610Q320 610 276 578T201 493T153 375T136 243Q136 143 178 88T299 32Z" />
<glyph unicode="P" horiz-adv-x="548" d="M194 310Q204 306 230 302T283 298Q337 298 378 322T443 388T466 485Q466 544 434 574T339 604Q317 604 290 601T238 591L252 605L161 30L150 49L234 32Q230 7 213 0H30Q31 13 35 21T48 31L114 48L98 34L189 607L200 592L127
609Q129 623 133 630T148 641H376Q452 641 495 603T538 498Q538 432 504 379T413 294T283 262Q258 262 231 265T186 275L194 310Z" />
<glyph unicode="Q" horiz-adv-x="648" d="M479 -177Q452 -177 418 -157T345 -98T260 -1L281 22Q324 -15 374 -45T473 -92T566 -110Q551 -142 528 -159T479 -177ZM267 -12Q203 -12 157 19T87 104T63 229Q63 309 91 385T167 522T277 619T408 655Q472 655 517 625T587
540T612 414Q612 336 585 260T510 122T399 24T267 -12ZM299 32Q353 32 396 63T472 147T521 265T538 398Q538 498 495 554T374 610Q320 610 276 578T201 493T153 375T136 243Q136 143 178 88T299 32Z" />
<glyph unicode="R" horiz-adv-x="605" d="M495 -11Q472 -11 446 11T394 75T346 173T308 301L360 319Q370 274 390 228T436 139T493 64T553 16Q545 6 530 -2T495 -11ZM194 334Q204 330 230 326T283 322Q335 322 374 343T435 401T458 485Q458 544 428 574T339 604Q317
604 290 601T238 591L252 605L161 30L150 49L234 32Q230 7 213 0H30Q31 13 35 21T48 31L114 48L98 34L189 607L200 592L127 609Q129 623 133 630T148 641H376Q448 641 489 603T531 498Q531 438 498 390T409 313T283 285Q258 285 231 288T186 298L194 334Z" />
<glyph unicode="S" horiz-adv-x="499" d="M200 -12Q172 -12 139 -6T73 12T13 37L48 166Q57 180 72 180Q82 180 86 177L72 48L61 77Q77 62 101 51T154 32T206 25Q248 25 281 44T335 96T356 166Q356 192 346 212T310 253T235 301Q183 331 155 354T115 402T104 460Q104
516 130 560T202 629T306 655Q342 655 382 644T461 612L428 488Q417 488 409 492T401 504L407 602L418 568Q401 591 368 605T297 619Q258 619 228 603T180 557T162 490Q162 465 171 447T208 409T287 360Q338 333 367 308T409 255T422 191Q422 135 392 89T312 15T200
-12Z" />
<glyph unicode="T" horiz-adv-x="496" d="M105 0Q107 14 112 22T125 31L203 51L186 34L277 607L286 594L113 607L127 616L90 524Q86 515 79 511T58 507L80 641H549L527 507Q514 507 508 511T501 524L494 616L505 607L328 594L340 607L250 34L238 50L338 32Q336
19 332 13T317 0H105Z" />
<glyph unicode="U" horiz-adv-x="653" d="M292 -12Q182 -12 133 46T100 211L163 606L175 592L101 609Q103 622 107 629T123 641H297Q295 627 290 620T277 610L210 593L227 608L164 215Q156 170 160 135T183 75T233 38T314 25Q359 25 394 39T454 80T495 140T517
217L579 611L583 594L515 609Q517 623 521 629T536 641H680Q677 628 673 620T660 610L605 596L616 616L553 214Q545 162 525 120T472 49T394 4T292 -12Z" />
<glyph unicode="V" horiz-adv-x="579" d="M257 -12Q251 -12 241 -10T226 -6L121 610L140 592L65 609Q67 622 71 629T86 641H260Q258 627 253 620T240 610L173 593L183 611L282 28H270L544 613L545 594L477 609Q479 622 483 629T498 641H642Q639 627 634 620T621
610L567 596L584 617L300 14Q295 4 288 -1T273 -9T257 -12Z" />
<glyph unicode="W" horiz-adv-x="867" d="M246 -12Q240 -12 230 -10T215 -6L121 613L140 592L65 610Q67 623 71 630T87 642H260Q259 628 254 621T240 611L174 594L184 618L272 40H263L490 558H517L589 40H580L833 613L832 594L764 609Q766 622 769 629T784 641H930Q927
627 923 620T910 610L855 596L872 617L606 14Q602 4 595 -1T579 -9T564 -12Q557 -12 548 -10T534 -6L468 466H487L289 14Q284 4 277 -1T261 -9T246 -12Z" />
<glyph unicode="X" horiz-adv-x="553" d="M313 0Q315 14 320 22T333 31L403 48L393 25L134 608L156 592L77 609Q79 622 83 629T99 641H281Q279 627 274 620T260 610L191 593L201 613L459 30L438 50L517 32Q514 19 510 12T494 0H313ZM-29 0Q-27 14 -22 22T-9 31L53
46L26 26L273 339L300 318L74 31L73 47L145 32Q143 19 139 12T124 0H-29ZM316 320L288 340L501 614V594L429 609Q431 622 435 629T450 641H603Q600 627 595 620T582 610L520 595L549 619L316 320Z" />
<glyph unicode="Y" horiz-adv-x="551" d="M284 193L116 608L138 592L65 609Q67 622 71 629T86 641H265Q263 627 258 620T245 610L172 593L181 613L317 280L296 276L509 609L514 594L443 609Q445 622 449 629T464 641H614Q613 627 608 620T595 610L534 596L553
614L284 193ZM150 0Q152 14 157 22T169 31L240 48L224 26L263 275H325L287 31L275 49L359 32Q357 19 353 13T338 0H150Z" />
<glyph unicode="Z" horiz-adv-x="534" d="M49 0Q34 0 26 14T17 45L464 617L478 593L160 607L179 616L139 515Q135 505 128 502T108 498L129 641H502Q518 641 525 629T533 601L89 31L82 52L423 34L403 22L449 154Q461 154 466 150T476 138L454 0H49Z" />
<glyph unicode="[" horiz-adv-x="274" d="M-11 -258L153 778H347Q348 777 348 775T349 771Q349 764 347 755T341 742H189L219 765L59 -245L35 -222H185Q187 -225 188 -229T190 -238Q190 -242 189 -248T185 -258H-11Z" />
<glyph unicode="\" horiz-adv-x="415" d="M331 -200Q353 -200 362 -195T378 -181L83 734Q60 734 52 729T37 715L331 -200Z" />
<glyph unicode="]" horiz-adv-x="274" d="M297 778L133 -258H-61Q-62 -257 -62 -255T-63 -251Q-63 -244 -61 -235T-55 -222H97L67 -245L227 765L251 742H101Q99 745 98 749T96 758Q96 762 97 768T101 778H297Z" />
<glyph unicode="^" horiz-adv-x="552" d="M122 306Q111 306 106 309T95 320L313 697Q320 702 327 704T343 707Q350 707 357 705T369 697L468 320Q461 312 455 309T436 306L328 679H349L122 306Z" />
<glyph unicode="_" horiz-adv-x="691" d="M46 -168Q46 -161 47 -153T50 -138T55 -128H527Q527 -134 526 -142T522 -157T517 -168H46Z" />
<glyph unicode="`" horiz-adv-x="195" d="M246 515Q181 556 145 579T92 615T71 633T67 644Q67 653 72 661T85 676T101 682Q107 682 114 679T136 661T180 617T262 533Q262 524 257 520T246 515Z" />
<glyph unicode="a" horiz-adv-x="502" d="M165 -12Q106 -12 74 31T42 157Q42 222 61 277T114 374T195 439T295 462Q332 462 361 452T416 420L414 397Q401 407 375 420T301 433Q260 433 225 414T165 358T125 272T110 164Q110 126 118 95T145 46T194 28Q226 28 252
50T299 119T338 243T374 428L410 462Q424 462 433 459T442 446Q442 442 435 413T418 341T398 248T380 151T373 68Q373 53 378 47T396 40Q408 40 419 44T443 57L453 38Q428 13 404 1T358 -12Q336 -12 325 3T313 49Q312 63 313 79T318 113H314Q292 53 253 21T165
-12Z" />
<glyph unicode="b" horiz-adv-x="493" d="M84 -12Q71 -12 62 -9T52 4Q52 7 58 37T75 117T98 228T123 356T147 485T165 601T173 691L186 673Q179 678 171 679T152 681Q138 681 123 678T91 666L82 686Q105 709 130 721T176 734Q202 734 213 721T225 681Q225 654
221 613T209 524T191 426T171 333H176Q199 396 239 429T330 463Q389 463 421 420T453 294Q453 229 434 174T381 77T300 12T199 -11Q162 -11 133 -1T78 31L81 54Q93 45 119 31T193 17Q235 17 269 37T329 93T369 178T384 286Q384 325 376 356T349 405T301 423Q269
423 243 401T196 332T156 208T121 23L84 -12Z" />
<glyph unicode="c" horiz-adv-x="428" d="M184 -12Q115 -12 78 30T40 153Q40 215 60 271T115 370T196 437T293 462Q347 462 377 437T408 367Q408 342 396 327T364 311Q354 311 340 315Q348 340 348 362Q348 435 283 435Q235 435 195 400T131 304T106 173Q106 104
134 67T213 29Q251 29 285 49T357 114L373 96Q295 -12 184 -12Z" />
<glyph unicode="d" d="M166 -12Q106 -12 74 31T41 156Q41 221 60 276T114 373T195 438T295 462Q323 462 347 456T394 438L390 414Q370 423 349 428T305 433Q262 433 226 413T164 357T124 272T109 164Q109 126 117 95T145 46T194 28Q243 28 275 74T331 208T373
417T416 692L430 673Q423 678 415 679T396 681Q382 681 367 678T335 666L325 686Q348 709 373 721T420 734Q445 734 456 720T467 687Q467 669 461 625T444 519T422 391T400 261T383 146T376 66Q376 53 381 47T398 40Q410 40 421 44T446 57L456 38Q431 13 406 1T360
-12Q339 -12 328 4T316 48Q316 66 317 82T321 113H318Q296 53 257 21T166 -12Z" />
<glyph unicode="e" horiz-adv-x="428" d="M183 -12Q109 -12 75 32T40 155Q40 211 59 266T112 365T194 435T296 462Q353 462 384 436T415 367Q415 318 377 278T265 215T85 192L87 215Q136 215 182 223T265 250T325 298T347 370Q347 401 328 418T278 435Q237 435
205 411T150 348T117 261T105 167Q105 104 132 67T211 29Q249 29 283 50T352 114L369 96Q329 42 284 15T183 -12Z" />
<glyph unicode="f" horiz-adv-x="290" d="M-44 -258Q-71 -258 -88 -246T-106 -211Q-106 -201 -103 -191T-95 -173Q-79 -187 -61 -194T-21 -201Q7 -201 24 -189T51 -154T64 -102L127 430Q139 529 163 597T226 699T315 734Q345 734 362 722T379 686Q379 677 377
668T370 650Q353 665 335 671T297 678Q266 678 247 663T217 621T202 557L149 105Q139 13 122 -55T81 -168T26 -235T-44 -258ZM282 393L47 402Q48 415 54 424T66 437L313 451Q313 442 310 429T299 406T282 393Z" />
<glyph unicode="g" horiz-adv-x="480" d="M140 -258Q103 -258 75 -244T30 -206T14 -148Q14 -132 19 -121T35 -103T58 -96Q64 -96 70 -97T82 -100Q81 -111 80 -120T79 -140Q79 -181 100 -206T164 -231Q216 -231 251 -198T305 -88T324 124H319Q297 59 257 24T165
-12Q106 -12 74 31T42 157Q42 222 61 277T114 374T195 439T295 462Q332 462 361 452T416 420L414 397Q401 407 375 420T301 433Q260 433 225 414T165 358T125 272T110 164Q110 126 118 95T145 46T194 28Q226 28 252 50T299 119T338 243T374 428L410 462Q424 462
433 459T442 446Q442 437 436 409T420 343T400 260T384 172T377 92Q377 -79 323 -168T140 -258Z" />
<glyph unicode="h" horiz-adv-x="521" d="M93 -12Q78 -12 73 -5T68 17Q68 35 75 79T95 186T120 318T145 458T164 589T173 691L186 673Q179 678 171 679T152 681Q138 681 123 678T91 666L82 686Q105 709 130 721T176 734Q202 734 213 721T225 681Q225 662 221 626T211
544T197 453T181 367H186Q224 410 267 436T347 462Q382 462 404 447T438 407T449 348Q449 308 440 269T420 194T399 125T390 65Q390 40 413 40Q424 40 435 44T460 57L470 38Q453 21 436 10T404 -7T375 -12Q354 -12 341 4T327 50Q327 94 342 141T373 241T388 347Q388
377 373 396T327 415Q291 415 256 396T179 338L131 27L128 81L148 1Q135 -6 119 -9T93 -12Z" />
<glyph unicode="i" horiz-adv-x="256" d="M121 -12Q98 -12 86 4T74 51Q74 70 80 105T96 183T116 271T135 356T147 426L158 402Q152 406 144 407T125 409Q111 409 95 406T63 394L54 414Q77 438 102 450T148 462Q177 462 189 449T202 410Q202 393 195 360T179 285T160
201T143 122T136 66Q136 40 158 40Q170 40 181 44T205 57L216 38Q199 21 182 10T150 -7T121 -12ZM182 553Q162 553 153 563T143 590Q143 606 151 618T171 637T196 644Q216 644 226 634T236 607Q236 591 228 579T207 560T182 553Z" />
<glyph unicode="j" horiz-adv-x="246" d="M-37 -258Q-65 -258 -80 -246T-96 -212Q-96 -201 -94 -191T-87 -172Q-69 -192 -56 -200T-21 -209Q15 -209 37 -178T69 -86Q83 -10 95 69T116 219T131 346T137 430L151 402Q145 407 137 408T117 409Q101 409 86 406T56
394L46 414Q69 438 94 450T141 462Q169 462 181 449T194 410Q194 388 190 346T178 243T156 103Q135 -24 109 -103T48 -220T-37 -258ZM180 553Q160 553 151 563T141 590Q141 606 149 618T169 637T194 644Q214 644 224 634T234 607Q234 591 226 579T205 560T180 553Z"
/>
<glyph unicode="k" horiz-adv-x="472" d="M87 -12Q72 -12 67 -5T62 17Q62 35 70 82T91 195T117 332T143 475T164 602T173 691L186 673Q179 678 171 679T152 681Q138 681 123 678T91 666L82 686Q105 709 130 721T176 734Q202 734 213 721T225 681Q225 665 221 628T209
545T193 450T176 361H178Q204 414 242 438T330 462Q380 462 408 435T437 364Q437 327 413 294T347 237T251 200L270 212L322 86Q333 62 342 51T371 40Q387 40 400 45T428 59L438 39Q423 24 406 13T372 -5T342 -12Q317 -12 301 5T274 50L209 212Q252 218 290 237T351
288T375 361Q375 391 356 411T304 431Q273 431 249 417T207 373T174 296T147 182T124 29L122 81L142 1Q129 -6 113 -9T87 -12Z" />
<glyph unicode="l" horiz-adv-x="255" d="M118 -12Q96 -12 84 4T71 51Q71 71 78 119T97 237T123 385T151 548T175 708L186 673Q179 678 171 679T152 681Q138 681 123 678T91 666L82 686Q105 709 130 721T176 734Q202 734 213 721T225 681Q225 665 219 623T202
522T180 396T158 266T141 150T134 66Q134 40 157 40Q168 40 179 44T203 57L214 38Q197 21 180 10T148 -7T118 -12Z" />
<glyph unicode="m" horiz-adv-x="772" d="M101 -12Q89 -12 85 -7T81 8Q81 22 87 57T103 140T122 240T138 343T145 432L158 402Q154 405 145 407T125 409Q111 409 95 406T63 394L54 414Q77 438 102 450T148 462Q176 462 188 449T200 410Q200 400 200 390T197 367H202Q237
410 275 436T347 462Q381 462 403 447T437 407T449 350Q449 313 440 271T419 186T397 103T388 27L386 73L405 1Q392 -6 376 -9T347 -12Q335 -12 330 -7T325 8Q325 42 335 85T357 175T379 267T389 349Q389 377 374 396T327 415Q295 415 264 396T194 338L143 27L142
81L160 1Q146 -6 130 -9T101 -12ZM625 -12Q603 -12 591 4T578 50Q578 94 593 141T623 241T638 347Q638 377 624 396T579 415Q546 415 515 396T445 338L444 367H452Q488 410 525 436T599 462Q632 462 653 447T686 407T698 348Q698 308 689 269T669 194T649 125T640
65Q640 40 663 40Q675 40 686 44T710 57L721 38Q704 21 687 10T655 -7T625 -12Z" />
<glyph unicode="n" horiz-adv-x="530" d="M101 -12Q89 -12 85 -7T81 8Q81 22 87 57T103 140T122 240T138 343T145 432L158 402Q154 405 145 407T125 409Q111 409 95 406T63 394L54 414Q77 438 102 450T148 462Q176 462 188 449T200 410Q200 400 200 390T197 367H202Q239
410 279 436T355 462Q389 462 411 447T445 407T457 348Q457 308 448 269T428 194T407 125T398 65Q398 40 421 40Q433 40 444 44T468 57L479 38Q462 21 445 10T412 -7T383 -12Q361 -12 348 4T335 50Q335 94 350 141T381 241T396 347Q396 377 382 396T336 415Q302
415 268 396T194 338L143 27L142 81L160 1Q146 -6 130 -9T101 -12Z" />
<glyph unicode="o" horiz-adv-x="469" d="M176 -12Q112 -12 77 32T41 156Q41 217 60 272T114 370T193 437T287 462Q353 462 391 416T430 289Q430 230 410 176T353 80T272 13T176 -12ZM201 20Q245 20 281 55T339 149T362 278Q362 349 336 390T266 431Q235 431 207
410T156 353T122 269T109 168Q109 97 133 59T201 20Z" />
<glyph unicode="p" horiz-adv-x="513" d="M63 -258Q47 -258 42 -251T37 -229Q37 -217 44 -175T64 -71T89 62T115 205T135 335T143 432L158 402Q154 405 143 407T125 409Q110 409 95 406T63 394L54 414Q77 438 102 450T151 462Q176 462 188 449T200 410Q200 392
199 376T192 338H197Q218 398 257 430T346 462Q408 462 440 419T473 294Q473 230 454 174T400 77T319 12T218 -12Q192 -12 168 -6T119 12L113 41Q141 29 162 23T210 17Q252 17 287 37T349 93T390 179T405 286Q405 324 397 355T369 404T320 423Q270 423 238 379T184
251T142 51T99 -211L97 -165L117 -245Q106 -251 91 -254T63 -258Z" />
<glyph unicode="q" horiz-adv-x="436" d="M294 -258Q278 -258 273 -250T268 -227Q268 -200 272 -160T284 -72T301 24T320 115H314Q292 53 254 20T165 -13Q106 -13 74 30T42 156Q42 221 61 276T114 373T195 438T295 461Q332 461 361 451T416 419L414 396Q401 406
375 419T301 433Q260 433 225 413T165 357T125 272T110 164Q110 126 118 95T145 46T194 28Q226 28 252 50T299 119T338 242T374 427L410 462Q424 462 433 459T442 446Q442 442 434 408T414 318T387 195T359 55T338 -84T328 -205L319 -131L347 -245Q336 -251 321
-254T294 -258Z" />
<glyph unicode="r" horiz-adv-x="367" d="M98 -12Q87 -12 83 -7T78 8Q78 22 85 57T101 140T120 240T136 343T142 432L158 402Q154 405 145 407T125 409Q111 409 95 406T63 394L54 414Q77 438 102 450T148 462Q176 462 188 449T200 410Q200 397 199 386T195 358H199Q216
404 247 433T321 462Q351 462 367 446T383 400Q383 370 366 353T320 336Q322 343 322 350T323 364Q323 384 315 396T286 408Q248 408 217 358T172 217L143 33L141 81L160 1Q148 -5 132 -8T98 -12Z" />
<glyph unicode="s" horiz-adv-x="411" d="M171 -12Q133 -12 102 1T52 37T34 90Q34 110 44 128T77 146Q83 146 89 145T101 141Q100 133 99 124T97 104Q97 61 120 38T183 15Q227 15 253 37T280 93Q280 124 261 146T212 186T153 225T103 270T82 332Q82 369 103 398T161
445T244 462Q279 462 308 451T355 418T373 361Q373 339 363 324T331 309Q326 309 320 309T305 313Q307 321 308 330T310 350Q310 391 290 413T233 435Q193 435 168 414T142 357Q142 327 162 304T211 260T270 220T320 174T340 115Q340 80 318 51T257 5T171 -12Z"
/>
<glyph unicode="t" horiz-adv-x="313" d="M136 -12Q102 -12 86 8T69 69Q69 79 72 103T81 167T97 260T118 383T145 536Q159 552 174 559T211 569Q195 479 183 405T160 273T144 174T134 108T130 78Q130 35 167 35Q190 35 217 48T266 82L278 63Q260 42 236 25T185
-2T136 -12ZM288 393L51 402Q53 415 59 424T72 437L318 451Q318 442 315 429T305 406T288 393Z" />
<glyph unicode="u" horiz-adv-x="519" d="M181 -12Q144 -12 121 1T86 39T75 97Q75 132 85 178T108 271T132 359T142 426L153 402Q147 406 139 407T121 409Q105 409 90 406T59 394L49 414Q73 438 98 450T143 462Q173 462 186 449T199 409Q199 384 190 345T168 260T145
173T135 99Q135 66 150 51T198 35Q235 35 271 57T349 125L356 89H337Q301 42 260 15T181 -12ZM383 -12Q361 -12 349 4T337 51Q337 70 343 105T359 183T379 271T397 356T409 426L421 402Q415 406 407 407T387 409Q373 409 358 406T327 395L317 415Q340 438 365 450T411
462Q440 462 452 449T465 410Q465 393 458 360T442 285T422 201T406 122T399 66Q399 40 421 40Q432 40 443 44T468 57L478 38Q461 21 444 10T412 -7T383 -12Z" />
<glyph unicode="v" horiz-adv-x="405" d="M169 -12Q163 -12 157 -11T145 -5Q137 65 126 139T100 287T68 429L92 402Q80 409 58 409Q30 409 0 396L-9 417Q13 438 38 450T82 462Q110 462 121 451T136 416Q149 355 160 290T180 159T197 27L185 25Q209 62 232 107T278
201T319 299T350 392L348 349L336 450Q347 457 359 459T383 462Q399 462 407 458T416 438Q416 431 409 410T389 359T360 293T326 219Q292 148 267 103T225 33T195 -2T169 -12Z" />
<glyph unicode="w" horiz-adv-x="628" d="M169 -12Q163 -12 157 -11T145 -5Q137 65 126 139T100 287T68 429L92 402Q80 409 58 409Q30 409 0 396L-9 417Q13 438 38 450T82 462Q110 462 121 451T136 416Q149 355 160 290T180 159T197 27L185 25Q210 70 235 123T282
234T324 350T358 462Q376 462 386 458T397 439Q397 432 391 411T374 359T348 293T317 219Q285 148 263 103T223 33T194 -2T169 -12ZM411 -12Q405 -12 398 -11T387 -5Q378 70 364 149T333 307L371 401Q390 312 407 217T436 27L426 25Q448 62 469 107T510 200T547
298T576 392L572 349L559 450Q569 457 581 459T604 462Q621 462 629 458T638 438Q638 431 632 410T615 359T590 293T557 219Q525 148 503 103T464 33T436 -2T411 -12Z" />
<glyph unicode="x" horiz-adv-x="438" d="M305 -12Q281 -12 265 2T236 49Q223 88 209 134T179 230T146 330T110 429L138 402Q126 409 104 409Q76 409 47 396L38 417Q58 438 81 450T125 462Q152 462 163 451T181 416Q200 360 214 306T246 197T285 86Q296 61 306
51T335 40Q351 40 364 45T391 59L402 39Q387 24 370 13T336 -5T305 -12ZM57 -12Q37 -13 24 -5T11 18Q11 29 27 54T72 110T133 174T199 232L213 216Q151 158 113 101T57 -12ZM226 222L212 239Q264 284 299 322T363 406L352 365L341 450Q351 457 363 459T387 462Q403
462 411 458T419 439Q419 418 402 392T357 336T294 278T226 222Z" />
<glyph unicode="y" horiz-adv-x="400" d="M-27 -262Q-38 -262 -45 -256T-56 -235T-60 -198Q-12 -198 24 -186T89 -148T141 -78T187 27L179 -14Q160 102 134 215T74 429L92 402Q86 406 78 407T58 409Q28 409 0 396L-9 417Q13 438 38 450T82 462Q112 462 124 451T145
408Q160 356 174 295T201 170T224 44L186 1Q218 64 247 129T302 261T345 394L344 349L332 450Q343 457 354 459T378 462Q394 462 402 458T410 438Q410 431 404 411T385 362T357 296T323 219Q269 103 223 13T135 -138T54 -230T-27 -262Z" />
<glyph unicode="z" horiz-adv-x="406" d="M7 -12Q-2 -12 -6 -6T-11 9Q60 84 120 154T233 300T331 462Q353 462 363 458T374 438Q374 426 359 400T318 339T259 263T192 182Q135 114 102 75T51 17T24 -7T7 -12ZM302 -12Q258 -12 209 -7T114 7T37 28L52 50Q117 43
184 42T319 55L294 28Q297 35 298 43T300 62Q300 77 296 92T286 123L306 133Q328 110 340 85T353 38Q353 11 340 0T302 -12ZM76 391Q73 401 71 413T69 435Q69 445 73 449T88 453Q96 453 125 451T195 445T278 439T353 436L346 406L76 391Z" />
<glyph unicode="{" horiz-adv-x="350" d="M260 -270Q232 -270 205 -265T154 -246T113 -210T90 -152T92 -68Q97 -45 101 -24T108 16T115 53Q125 114 120 153T91 212T18 231Q12 236 12 244T12 261Q13 265 14 269T16 277Q67 277 99 297T151 357T179 457Q183 479 185
500T189 544T195 587Q202 632 219 664T261 719T314 754T370 772T425 778Q426 775 426 772T425 764Q424 756 421 748T411 735Q361 726 331 709T286 664T263 594Q259 565 257 529T246 445Q233 360 189 317T80 258Q80 256 80 255T82 252Q142 237 170 193T185 63Q178
14 170 -21T156 -86Q149 -128 154 -155T185 -200T259 -228Q264 -232 264 -240T264 -256Q263 -260 262 -263T260 -270Z" />
<glyph unicode="|" horiz-adv-x="210" d="M64 -200Q44 -200 32 -195T15 -184L160 734Q179 734 192 729T209 718L64 -200Z" />
<glyph unicode="}" horiz-adv-x="349" d="M100 778Q128 778 155 773T206 754T247 718T270 660T268 576Q263 553 259 532T252 492T245 455Q235 394 240 355T269 296T342 277Q348 272 348 264T348 247Q347 243 346 239T344 231Q293 231 261 211T209 151T181 51Q177
29 175 8T171 -36T165 -79Q158 -124 141 -156T99 -211T46 -246T-10 -264T-65 -270Q-66 -267 -66 -264T-65 -256Q-64 -248 -61 -240T-51 -227Q-1 -218 29 -201T74 -156T97 -86Q101 -57 103 -21T114 63Q127 148 171 191T280 250Q280 252 280 253T278 256Q218 271
190 315T175 445Q182 494 190 529T204 594Q211 636 206 663T175 708T101 736Q96 740 96 748T96 764Q97 768 98 771T100 778Z" />
<glyph unicode="~" horiz-adv-x="532" d="M95 232Q93 238 92 246T91 261Q94 276 106 293T142 324T196 338Q226 338 259 327T323 303T381 291Q404 291 424 305T458 346Q464 332 462 316Q460 306 452 293T431 268T399 248T356 240Q326 240 294 252T230 275T172 287Q148
287 129 273T95 232Z" />
<glyph unicode="&#xa0;" horiz-adv-x="225" />
<glyph unicode="&#xa1;" horiz-adv-x="214" d="M119 300Q129 300 135 297Q127 227 120 158T105 31T94 -70T86 -130Q81 -157 72 -170T42 -183Q23 -183 18 -170T16 -130Q19 -112 27 -70T48 30T73 158T101 297Q109 300 119 300ZM149 484Q168 484 176 475T185 451Q185
434 177 423T158 405T135 399Q116 399 107 408T98 432Q98 448 106 460T126 478T149 484Z" />
<glyph unicode="&#xa2;" horiz-adv-x="428" d="M188 -100Q181 -100 172 -98T158 -93L290 741Q297 741 305 740T320 734L188 -100ZM199 83Q130 83 93 125T55 248Q55 310 75 366T130 465T211 532T308 557Q362 557 392 532T423 462Q423 437 411 422T379 406Q369 406
355 410Q363 435 363 457Q363 530 298 530Q250 530 210 495T146 399T121 268Q121 199 149 162T228 124Q266 124 300 144T372 209L388 191Q310 83 199 83Z" />
<glyph unicode="&#xa3;" horiz-adv-x="493" d="M66 0Q55 8 55 26Q55 29 55 33T56 41Q118 92 149 131T180 220Q180 253 170 283T148 347T137 422Q137 485 164 535T241 615T353 645Q398 645 429 631T476 595T493 548Q493 532 483 521T455 510Q448 510 441 512T431
516Q432 520 432 524T433 533Q433 568 408 588T343 608Q297 608 263 588T212 531T194 449Q194 413 204 380T224 314T234 245Q234 205 220 172T175 106T97 37V50L381 30L360 9L400 145Q412 145 420 141T429 128L408 0H66ZM52 311Q52 318 54 328T60 344H370Q370 337
369 327T364 311H52Z" />
<glyph unicode="&#xa4;" horiz-adv-x="602" d="M274 76Q202 76 161 116T119 229Q119 282 138 330T191 417T265 478T352 500Q424 500 465 460T506 348Q506 295 488 246T437 159T362 98T274 76ZM48 -11Q42 -10 36 -6T25 4T19 16L162 160L185 128L48 -11ZM479 -11L388
128L421 160L517 15Q514 10 507 4T493 -7T479 -11ZM286 120Q333 120 369 146T426 219T447 328Q447 389 419 422T341 456Q293 456 257 430T200 356T179 248Q179 187 207 154T286 120ZM203 408L104 556Q108 562 115 568T130 578T142 583L236 441L203 408ZM466 415L443
448L574 583Q581 582 587 578T597 568T603 556L466 415Z" />
<glyph unicode="&#xa5;" horiz-adv-x="551" d="M153 249Q153 256 154 266T160 282H436Q436 275 435 265T429 249H153ZM134 129Q134 136 135 146T141 162H417Q417 155 416 145T410 129H134ZM284 193L116 608L138 592L65 609Q67 622 71 629T86 641H265Q263 627 258
620T245 610L172 593L181 613L317 280L296 276L509 609L514 594L443 609Q445 622 449 629T464 641H614Q613 627 608 620T595 610L534 596L553 614L284 193ZM150 0Q152 14 157 22T169 31L240 48L224 26L263 275H325L287 31L275 49L359 32Q357 19 353 13T338 0H150Z"
/>
<glyph unicode="&#xa6;" horiz-adv-x="208" d="M102 361L161 734Q180 734 191 729T207 718L151 361H102ZM62 -200Q44 -200 32 -195T15 -184L73 173H121L62 -200Z" />
<glyph unicode="&#xa7;" horiz-adv-x="439" d="M176 -12Q115 -12 80 14T44 81Q44 109 56 122T84 136Q102 136 112 122Q109 105 109 91Q109 14 187 14Q239 14 267 45T296 124Q296 151 284 167T250 195T203 217Q159 235 130 260T100 326Q100 373 131 408T216 456L235
429Q202 424 182 402T161 344Q161 312 184 295T244 263Q276 249 302 233T344 196T360 143Q360 98 335 63T269 8T176 -12ZM293 202L277 228Q302 242 315 268T328 321Q328 347 315 363T281 391T234 413Q190 432 161 457T132 522Q132 561 153 590T211 637T295 655Q347
655 381 634T416 580Q416 558 405 547T377 535Q364 535 353 544Q355 549 355 554T355 564Q355 596 337 612T285 629Q244 629 218 605T192 541Q192 508 216 491T275 459Q307 445 333 430T375 394T391 340Q391 291 364 256T293 202Z" />
<glyph unicode="&#xa8;" horiz-adv-x="266" d="M272 553Q253 553 243 563T233 589Q233 605 242 617T263 636T286 643Q306 643 316 634T326 607Q326 591 318 579T297 560T272 553ZM97 553Q79 553 69 563T59 590Q59 605 67 617T88 636T112 643Q132 643 142 634T152
607Q152 592 144 580T122 560T97 553Z" />
<glyph unicode="&#xa9;" horiz-adv-x="702" d="M338 140Q263 140 206 171T118 257T86 383Q86 454 113 516T188 627T298 702T432 730Q508 730 564 699T652 613T684 487Q684 416 657 353T583 242T472 167T338 140ZM342 159Q408 159 466 185T567 256T635 359T660
483Q660 550 631 601T550 682T428 711Q362 711 304 685T203 614T135 511T110 387Q110 320 139 269T220 188T342 159ZM367 239Q294 239 253 280T212 388Q212 438 230 484T282 566T359 622T451 643Q482 643 509 635T558 613L532 522Q523 522 516 525T508 533L511
594L516 578Q502 596 480 604T433 612Q394 612 363 594T310 546T276 477T264 398Q264 340 294 305T376 270Q403 270 428 280T475 313L462 292L484 375Q495 375 502 373T513 367L508 290Q476 264 441 252T367 239Z" />
<glyph unicode="&#xaa;" horiz-adv-x="406" d="M191 391Q145 391 120 422T95 516Q95 579 121 629T191 708T290 737Q318 737 340 731T381 707L374 688Q365 695 346 703T301 712Q267 712 241 697T196 654T167 594T157 523Q157 501 162 480T181 444T217 430Q247 430
268 456T308 544T343 711L378 737Q390 737 398 735T407 724Q407 720 402 699T390 648T376 583T363 516T358 458Q358 435 375 435Q383 435 390 438T406 447L416 428Q397 409 378 400T340 391Q326 391 317 400T305 428Q302 438 302 452T304 480H301Q283 436 254 414T191
391ZM333 264H77Q76 266 76 272Q76 287 81 301T95 322H352Q352 321 352 319T353 315Q353 300 348 286T333 264Z" />
<glyph unicode="&#xab;" horiz-adv-x="431" d="M165 84L60 228Q50 242 46 249T42 265Q42 273 49 282T73 307L223 451Q230 449 234 443T238 428L82 252L87 282L187 107Q185 99 179 93T165 84ZM338 84L233 228Q223 242 219 249T215 265Q215 273 222 282T246 307L396
451Q403 449 407 443T411 428L255 252L260 282L360 107Q358 99 352 93T338 84Z" />
<glyph unicode="&#xac;" horiz-adv-x="532" d="M420 124Q413 124 407 126T396 134L420 287L443 269H90Q83 278 85 294Q87 298 87 302T90 310H463L435 126Q427 124 420 124Z" />
<glyph unicode="&#xad;" horiz-adv-x="363" d="M69 233Q66 239 66 247Q66 268 79 276T112 284Q149 284 177 283T240 282Q257 282 272 283T306 289Q308 286 308 282T309 274Q309 254 297 246T264 238Q227 238 199 239T135 240Q118 240 103 239T69 233Z" />
<glyph unicode="&#xae;" horiz-adv-x="617" d="M312 242Q249 242 203 268T130 339T104 444Q104 503 126 554T188 645T280 707T390 730Q453 730 499 704T572 633T598 528Q598 470 576 418T514 327T423 265T312 242ZM316 257Q370 257 417 278T501 336T557 421T578
525Q578 581 554 624T487 691T386 715Q332 715 285 694T201 636T145 551T124 447Q124 391 148 348T215 281T316 257ZM455 325Q438 325 420 343T385 396T359 480L393 491Q400 460 415 430T450 375T491 339Q484 333 475 329T455 325ZM303 499Q308 497 321 495T348
493Q385 493 409 515T433 571Q433 627 374 627Q364 627 351 625T325 620L333 627L288 348L281 359L327 349Q326 342 323 337T314 331H211Q212 345 221 348L256 359L247 350L292 630L298 621L259 631Q261 638 263 643T271 650H396Q434 651 456 631T478 577Q478 531
441 500T349 469Q338 469 323 471T299 476L303 499Z" />
<glyph unicode="&#xaf;" horiz-adv-x="271" d="M315 569H58Q57 571 57 577Q57 592 62 606T76 627H333Q333 626 333 625T334 621Q334 606 329 591T315 569Z" />
<glyph unicode="&#xb0;" horiz-adv-x="403" d="M216 409Q164 409 135 437T106 518Q106 572 131 618T199 691T293 719Q346 719 375 690T404 607Q404 553 379 508T311 436T216 409ZM227 450Q262 450 291 469T339 522T357 595Q357 635 337 656T281 678Q246 678 218
658T171 605T153 531Q153 492 172 471T227 450Z" />
<glyph unicode="&#xb1;" horiz-adv-x="558" d="M281 284Q275 284 268 286T258 293L300 564Q303 565 307 565T315 566Q322 566 329 564T339 556L296 286Q293 285 290 285T281 284ZM112 408Q105 417 107 433Q109 437 109 441T112 449H482Q484 444 485 438T486 423Q485
420 484 416T481 408H112ZM76 180Q69 189 71 205Q72 209 73 213T76 221H445Q452 211 449 195Q449 192 448 188T445 180H76Z" />
<glyph unicode="&#xb2;" horiz-adv-x="348" d="M73 351Q65 356 63 363T62 384Q121 425 173 470T258 563T291 656Q291 708 235 708Q217 708 197 702T157 678L168 698L151 637Q150 632 142 629T121 625L123 709Q190 743 250 743Q303 743 332 720T361 659Q361 601
298 530T107 375L102 396L301 382L279 374L310 455Q320 455 327 453T338 444L323 351H73Z" />
<glyph unicode="&#xb3;" horiz-adv-x="348" d="M184 343Q129 343 99 362T69 408Q69 431 84 445T123 459Q117 417 134 398T185 378Q224 378 248 401T273 462Q273 487 256 503T197 535Q191 537 190 542T191 561Q243 576 270 600T297 657Q297 680 282 694T240 708Q220
708 196 698T150 669L177 705L159 638Q158 631 150 628T127 624L130 708Q164 726 196 734T257 743Q306 743 335 722T364 665Q364 624 332 594T242 548L243 555Q293 544 318 520T343 463Q343 411 298 377T184 343Z" />
<glyph unicode="&#xb4;" horiz-adv-x="195" d="M62 515Q58 515 54 519T49 533Q109 587 143 617T195 661T219 678T234 682Q241 682 247 677T257 665T261 649Q261 642 257 636T235 617T176 582T62 515Z" />
<glyph unicode="&#xb5;" horiz-adv-x="548" d="M61 -258Q48 -258 42 -253T36 -238Q36 -225 43 -182T63 -75T88 60T114 205T133 337T141 437L170 410Q161 415 152 416T132 418Q115 418 98 414T63 401L54 422Q78 442 103 452T148 462Q175 462 186 449T197 417Q197
396 193 360T181 270T161 145T134 -15T101 -212V-167L120 -244Q107 -251 90 -254T61 -258ZM202 -11Q174 -11 147 -4T96 24L111 59Q124 51 148 42T205 32Q242 32 273 44T329 79T371 130T400 194L402 158Q390 108 362 70T292 10T202 -11ZM416 -12Q393 -12 380 4T366
52Q366 69 374 110T395 207T421 322T445 434L468 410Q459 415 449 416T429 418Q413 418 397 415T365 404L356 424Q379 443 402 452T446 462Q475 462 487 449T499 417Q499 404 492 372T475 296T453 209T435 126T428 65Q428 37 450 37Q463 37 474 41T496 53L506 33Q489
16 473 6T443 -8T416 -12Z" />
<glyph unicode="&#xb6;" horiz-adv-x="437" d="M118 -58Q101 -58 92 -51T82 -30Q82 -22 85 -14T93 0Q146 0 179 18T231 79T261 199L321 575Q334 575 353 576T390 578T424 580T446 582Q452 576 452 563Q452 542 434 530T382 518Q372 518 360 519T337 524L380 559L339
295Q327 221 305 157T252 44T188 -31T118 -58ZM242 261Q86 261 86 389Q86 445 107 488T165 556T249 581Q260 581 272 580T291 577L242 261Z" />
<glyph unicode="&#xb7;" horiz-adv-x="228" d="M113 219Q93 219 84 229T74 257Q74 275 82 287T103 306T129 313Q149 313 159 303T169 275Q169 258 161 245T139 226T113 219Z" />
<glyph unicode="&#xb8;" horiz-adv-x="303" d="M37 -258Q-9 -258 -36 -238T-64 -187Q-64 -168 -55 -159T-33 -149Q-25 -149 -17 -151T-3 -160Q-9 -196 4 -215T46 -234Q78 -234 100 -210T123 -152Q123 -123 103 -109T51 -95Q46 -95 40 -95T28 -98L68 0H94L63 -78L49
-74Q60 -72 69 -71T86 -70Q126 -70 152 -89T179 -143Q179 -175 160 -201T110 -242T37 -258Z" />
<glyph unicode="&#xb9;" horiz-adv-x="261" d="M71 350Q73 363 77 369T84 377L148 393L134 376L187 708L195 682L109 667Q108 670 107 673T106 681Q106 687 108 693T113 705L229 743H257L199 378L189 395L256 379Q255 370 252 364T240 350H71Z" />
<glyph unicode="&#xba;" horiz-adv-x="366" d="M194 391Q141 391 113 423T84 515Q84 575 110 625T181 706T277 737Q331 737 360 704T390 611Q390 553 363 503T292 422T194 391ZM212 416Q244 416 269 441T311 509T327 601Q327 652 309 682T259 713Q230 713 205
687T164 618T148 524Q148 474 165 445T212 416ZM313 264H56Q56 266 56 272Q56 287 61 301T75 322H332Q332 321 332 319T333 315Q333 300 328 286T313 264Z" />
<glyph unicode="&#xbb;" horiz-adv-x="446" d="M108 451L213 307Q223 293 227 286T231 270Q231 262 224 253T200 228L50 84Q43 86 39 92T35 107L191 283L186 253L86 428Q88 436 94 442T108 451ZM281 451L386 307Q396 293 400 286T404 270Q404 262 397 253T373
228L223 84Q216 86 212 92T208 107L364 283L359 253L259 428Q261 436 267 442T281 451Z" />
<glyph unicode="&#xbc;" horiz-adv-x="807" d="M77 262Q79 275 83 281T90 289L154 305L140 288L193 620L201 594L115 579Q114 582 113 585T112 593Q112 599 114 605T119 617L235 655H263L205 290L195 307L262 291Q261 282 258 276T246 262H77ZM243 -12Q219 -12
211 -7T198 5L595 655Q618 655 626 650T639 638L243 -12ZM606 0L660 343L683 345L485 116L475 132H728L723 99H465Q457 102 454 109T453 131L681 393Q706 393 717 383T725 352L671 0H606Z" />
<glyph unicode="&#xbd;" horiz-adv-x="807" d="M65 262Q67 275 71 281T78 289L142 305L128 288L181 620L189 594L103 579Q102 582 101 585T100 593Q100 599 102 605T107 617L223 655H251L193 290L183 307L250 291Q249 282 246 276T234 262H65ZM214 -12Q190 -12
182 -7T169 5L566 655Q589 655 597 650T610 638L214 -12ZM453 1Q445 6 443 13T442 34Q501 75 553 120T638 213T671 306Q671 358 615 358Q597 358 577 352T537 328L548 348L531 287Q530 282 522 279T501 275L503 359Q570 393 630 393Q683 393 712 370T741 309Q741
251 678 180T487 25L482 46L681 32L659 24L690 105Q700 105 707 103T718 94L703 1H453Z" />
<glyph unicode="&#xbe;" horiz-adv-x="807" d="M170 255Q115 255 85 274T55 320Q55 343 70 357T109 371Q103 329 120 310T171 290Q210 290 234 313T259 374Q259 399 242 415T183 447Q177 449 176 454T177 473Q229 488 256 512T283 569Q283 592 268 606T226 620Q206
620 182 610T136 581L163 617L145 550Q144 543 136 540T113 536L116 620Q150 638 182 646T243 655Q292 655 321 634T350 577Q350 536 318 506T228 460L229 467Q279 456 304 432T329 375Q329 323 284 289T170 255ZM268 -12Q244 -12 236 -7T223 5L620 655Q643 655
651 650T664 638L268 -12ZM631 0L685 343L708 345L510 116L500 132H753L748 99H490Q482 102 479 109T478 131L706 393Q731 393 742 383T750 352L696 0H631Z" />
<glyph unicode="&#xbf;" horiz-adv-x="366" d="M234 300Q242 300 250 297L237 169Q137 135 86 80T34 -50Q34 -101 57 -127T124 -153Q175 -153 208 -121T251 -27Q257 -23 264 -22T277 -20Q293 -20 301 -28T309 -53Q309 -87 283 -117T212 -165T118 -183Q49 -183
11 -149T-28 -54Q-28 -3 -1 43T77 127T202 189L190 178L216 297Q219 298 224 299T234 300ZM259 484Q277 484 286 475T295 451Q295 434 287 423T267 405T245 399Q225 399 217 408T208 432Q208 448 216 460T235 478T259 484Z" />
<glyph unicode="&#xc0;" horiz-adv-x="592" d="M-32 0Q-29 14 -25 22T-12 31L41 47L17 24L324 639Q327 645 333 648T345 653T357 655Q362 655 367 654T375 652L503 26L483 49L559 32Q557 19 553 13T538 0H363Q366 14 371 22T384 31L448 48L439 31L324 588L338
589L56 24L57 49L133 32Q130 19 126 13T110 0H-32ZM141 220L156 256H404L410 220H141ZM447 734Q371 757 329 771T268 793T245 807T240 819Q240 831 247 845T270 859Q275 859 285 855T315 840T369 808T458 754Q458 747 456 741T447 734Z" />
<glyph unicode="&#xc1;" horiz-adv-x="592" d="M-32 0Q-29 14 -25 22T-12 31L41 47L17 24L324 639Q327 645 333 648T345 653T357 655Q362 655 367 654T375 652L503 26L483 49L559 32Q557 19 553 13T538 0H363Q366 14 371 22T384 31L448 48L439 31L324 588L338
589L56 24L57 49L133 32Q130 19 126 13T110 0H-32ZM141 220L156 256H404L410 220H141ZM277 734Q270 734 268 740T266 754Q320 788 354 808T409 839T439 855T454 859Q469 859 476 845T484 819Q484 813 480 808T456 794T395 771T277 734Z" />
<glyph unicode="&#xc2;" horiz-adv-x="592" d="M-32 0Q-29 14 -25 22T-12 31L41 47L17 24L324 639Q327 645 333 648T345 653T357 655Q362 655 367 654T375 652L503 26L483 49L559 32Q557 19 553 13T538 0H363Q366 14 371 22T384 31L448 48L439 31L324 588L338
589L56 24L57 49L133 32Q130 19 126 13T110 0H-32ZM141 220L156 256H404L410 220H141ZM388 879Q394 879 401 876T419 858T450 813T505 729Q505 723 500 718T487 713L368 823H389L235 713Q231 713 227 718T222 729Q274 782 303 812T349 857T373 875T388 879Z" />
<glyph unicode="&#xc3;" horiz-adv-x="592" d="M-32 0Q-29 14 -25 22T-12 31L41 47L17 24L324 639Q327 645 333 648T345 653T357 655Q362 655 367 654T375 652L503 26L483 49L559 32Q557 19 553 13T538 0H363Q366 14 371 22T384 31L448 48L439 31L324 588L338
589L56 24L57 49L133 32Q130 19 126 13T110 0H-32ZM141 220L156 256H404L410 220H141ZM236 737Q225 737 219 740T212 750Q212 774 228 796T268 834T317 849Q340 849 361 838T404 815T449 803Q471 803 489 818T511 856Q522 856 528 853T535 843Q535 819 519 797T480
759T430 743Q407 743 386 755T343 778T298 790Q276 790 258 775T236 737Z" />
<glyph unicode="&#xc4;" horiz-adv-x="592" d="M-32 0Q-29 14 -25 22T-12 31L41 47L17 24L324 639Q327 645 333 648T345 653T357 655Q362 655 367 654T375 652L503 26L483 49L559 32Q557 19 553 13T538 0H363Q366 14 371 22T384 31L448 48L439 31L324 588L338
589L56 24L57 49L133 32Q130 19 126 13T110 0H-32ZM141 220L156 256H404L410 220H141ZM453 751Q434 751 424 761T414 787Q414 803 423 815T444 834T467 841Q487 841 497 832T507 805Q507 789 499 777T478 758T453 751ZM278 751Q260 751 250 761T240 788Q240 803
248 815T269 834T293 841Q313 841 323 832T333 805Q333 790 325 778T303 758T278 751Z" />
<glyph unicode="&#xc5;" horiz-adv-x="592" d="M-32 0Q-29 14 -25 22T-12 31L41 47L17 24L324 639Q327 645 333 648T345 653T357 655Q362 655 367 654T375 652L503 26L483 49L559 32Q557 19 553 13T538 0H363Q366 14 371 22T384 31L448 48L439 31L324 588L338
589L56 24L57 49L133 32Q130 19 126 13T110 0H-32ZM141 220L156 256H404L410 220H141ZM351 694Q311 694 287 714T263 764Q263 795 280 821T327 863T390 879Q431 879 455 859T480 804Q480 774 463 749T416 709T351 694ZM362 719Q389 719 407 742T425 800Q425 823
414 838T381 853Q354 853 337 830T319 769Q319 746 330 733T362 719Z" />
<glyph unicode="&#xc6;" horiz-adv-x="857" d="M-54 0Q-52 12 -48 21T-34 33L28 56L10 41L493 606L498 583L409 605Q411 620 415 627T431 641H819L798 507Q788 507 780 510T769 523L755 616L767 607L539 589L551 602L506 318L499 327H678L666 319L694 385Q708
385 713 382T723 369L703 245Q695 235 689 232T670 229L661 296L672 287H491L502 296L463 46L455 57L702 34L689 25L737 151Q753 151 758 148T767 135L747 0H322Q324 12 329 21T343 33L417 57L397 34L438 296L448 285H254L282 298L64 43L65 57L152 36Q149 20 145
13T129 0H-54ZM293 311L289 325H454L441 314L478 547L484 536L293 311Z" />
<glyph unicode="&#xc7;" horiz-adv-x="617" d="M292 -12Q222 -12 171 18T92 105T64 237Q64 323 93 398T174 532T294 622T440 655Q486 655 527 643T600 606L561 472Q549 472 541 477T533 489L542 587L551 565Q533 584 495 597T413 610Q331 610 269 566T173 442T138
258Q138 151 185 91T314 31Q364 31 410 52T482 108L461 72L492 205Q511 205 519 201T528 189L513 65Q469 29 410 9T292 -12ZM258 -258Q212 -258 185 -238T157 -187Q157 -168 166 -159T188 -149Q196 -149 204 -151T218 -160Q212 -196 225 -215T267 -234Q299 -234
321 -210T344 -152Q344 -123 324 -109T272 -95Q267 -95 261 -95T249 -98L289 0H315L284 -78L270 -74Q281 -72 290 -71T307 -70Q347 -70 373 -89T400 -143Q400 -175 381 -201T331 -242T258 -258Z" />
<glyph unicode="&#xc8;" horiz-adv-x="568" d="M30 0Q32 14 36 22T49 31L113 48L98 34L188 607L199 592L126 609Q128 622 132 629T148 641H531L512 523Q499 523 493 527T485 540L474 616L485 607L239 594L252 607L209 337L200 344H405L394 337L416 405Q426 405
433 404T445 392L423 257Q416 249 408 247T391 244L389 315L400 306H195L206 315L162 41L154 52L420 34L406 22L450 140Q463 140 468 136T477 125L458 0H30ZM453 734Q377 757 335 771T274 793T251 807T246 819Q246 831 253 845T276 859Q281 859 291 855T321 840T375
808T464 754Q464 747 462 741T453 734Z" />
<glyph unicode="&#xc9;" horiz-adv-x="568" d="M30 0Q32 14 36 22T49 31L113 48L98 34L188 607L199 592L126 609Q128 622 132 629T148 641H531L512 523Q499 523 493 527T485 540L474 616L485 607L239 594L252 607L209 337L200 344H405L394 337L416 405Q426 405
433 404T445 392L423 257Q416 249 408 247T391 244L389 315L400 306H195L206 315L162 41L154 52L420 34L406 22L450 140Q463 140 468 136T477 125L458 0H30ZM282 734Q275 734 273 740T271 754Q325 788 359 808T414 839T444 855T459 859Q474 859 481 845T489 819Q489
813 485 808T461 794T400 771T282 734Z" />
<glyph unicode="&#xca;" horiz-adv-x="568" d="M30 0Q32 14 36 22T49 31L113 48L98 34L188 607L199 592L126 609Q128 622 132 629T148 641H531L512 523Q499 523 493 527T485 540L474 616L485 607L239 594L252 607L209 337L200 344H405L394 337L416 405Q426 405
433 404T445 392L423 257Q416 249 408 247T391 244L389 315L400 306H195L206 315L162 41L154 52L420 34L406 22L450 140Q463 140 468 136T477 125L458 0H30ZM393 879Q399 879 406 876T424 858T455 813T510 729Q510 723 505 718T492 713L373 823H394L240 713Q236
713 232 718T227 729Q279 782 308 812T354 857T378 875T393 879Z" />
<glyph unicode="&#xcb;" horiz-adv-x="568" d="M30 0Q32 14 36 22T49 31L113 48L98 34L188 607L199 592L126 609Q128 622 132 629T148 641H531L512 523Q499 523 493 527T485 540L474 616L485 607L239 594L252 607L209 337L200 344H405L394 337L416 405Q426 405
433 404T445 392L423 257Q416 249 408 247T391 244L389 315L400 306H195L206 315L162 41L154 52L420 34L406 22L450 140Q463 140 468 136T477 125L458 0H30ZM459 751Q440 751 430 761T420 787Q420 803 429 815T450 834T473 841Q493 841 503 832T513 805Q513 789
505 777T484 758T459 751ZM284 751Q266 751 256 761T246 788Q246 803 254 815T275 834T299 841Q319 841 329 832T339 805Q339 790 331 778T309 758T284 751Z" />
<glyph unicode="&#xcc;" horiz-adv-x="320" d="M30 0Q32 14 36 22T49 31L113 48L98 34L188 606L201 592L126 609Q128 622 132 629T148 641H322Q320 627 316 620T303 610L235 593L252 608L160 34L149 49L225 32Q223 19 219 13T204 0H30ZM322 734Q246 757 204 771T143
793T120 807T115 819Q115 831 122 845T145 859Q150 859 160 855T190 840T244 808T333 754Q333 747 331 741T322 734Z" />
<glyph unicode="&#xcd;" horiz-adv-x="320" d="M30 0Q32 14 36 22T49 31L113 48L98 34L188 606L201 592L126 609Q128 622 132 629T148 641H322Q320 627 316 620T303 610L235 593L252 608L160 34L149 49L225 32Q223 19 219 13T204 0H30ZM151 734Q144 734 142 740T140
754Q194 788 228 808T283 839T313 855T328 859Q343 859 350 845T358 819Q358 813 354 808T330 794T269 771T151 734Z" />
<glyph unicode="&#xce;" horiz-adv-x="320" d="M30 0Q32 14 36 22T49 31L113 48L98 34L188 606L201 592L126 609Q128 622 132 629T148 641H322Q320 627 316 620T303 610L235 593L252 608L160 34L149 49L225 32Q223 19 219 13T204 0H30ZM263 879Q269 879 276 876T294
858T325 813T380 729Q380 723 375 718T362 713L243 823H264L110 713Q106 713 102 718T97 729Q149 782 178 812T224 857T248 875T263 879Z" />
<glyph unicode="&#xcf;" horiz-adv-x="320" d="M30 0Q32 14 36 22T49 31L113 48L98 34L188 606L201 592L126 609Q128 622 132 629T148 641H322Q320 627 316 620T303 610L235 593L252 608L160 34L149 49L225 32Q223 19 219 13T204 0H30ZM328 751Q309 751 299 761T289
787Q289 803 298 815T319 834T342 841Q362 841 372 832T382 805Q382 789 374 777T353 758T328 751ZM153 751Q135 751 125 761T115 788Q115 803 123 815T144 834T168 841Q188 841 198 832T208 805Q208 790 200 778T178 758T153 751Z" />
<glyph unicode="&#xd0;" horiz-adv-x="664" d="M30 0Q32 26 49 31L113 48L98 34L188 607L199 592L126 609Q129 633 147 641H404Q510 641 571 578T632 404Q632 322 603 249T525 120T413 32T283 0H30ZM275 38Q335 38 386 63T476 134T536 242T558 379Q558 490 508
547T363 605Q336 605 300 600T236 587L251 602L162 40L155 54Q166 50 187 47T231 41T275 38ZM47 550Q47 560 48 570T51 590T59 604L333 598Q333 586 329 576T317 562L47 550Z" />
<glyph unicode="&#xd1;" horiz-adv-x="696" d="M523 -2Q515 -2 510 -1T501 2L214 572L224 577L137 26L135 47L209 32Q208 19 204 12T188 0H30Q32 14 37 22T49 31L113 45L100 21L193 609L200 593L126 609Q128 622 132 629T148 641H255L543 66L522 61L610 615L612
594L537 609Q539 622 543 629T559 641H717Q716 627 711 620T698 610L634 596L646 615L551 18Q550 13 546 9T535 1T523 -2ZM311 737Q300 737 294 740T287 750Q287 774 303 796T343 834T392 849Q415 849 436 838T479 815T524 803Q546 803 564 818T586 856Q597 856
603 853T610 843Q610 819 594 797T555 759T505 743Q482 743 461 755T418 778T373 790Q351 790 333 775T311 737Z" />
<glyph unicode="&#xd2;" horiz-adv-x="642" d="M267 -12Q203 -12 157 19T87 104T63 229Q63 309 91 385T167 522T277 619T408 655Q472 655 517 625T587 540T612 414Q612 336 585 260T510 122T399 24T267 -12ZM299 32Q353 32 396 63T472 147T521 265T538 398Q538
498 495 554T374 610Q320 610 276 578T201 493T153 375T136 243Q136 143 178 88T299 32ZM486 734Q410 757 368 771T307 793T284 807T279 819Q279 831 286 845T309 859Q314 859 324 855T354 840T408 808T497 754Q497 747 495 741T486 734Z" />
<glyph unicode="&#xd3;" horiz-adv-x="642" d="M267 -12Q203 -12 157 19T87 104T63 229Q63 309 91 385T167 522T277 619T408 655Q472 655 517 625T587 540T612 414Q612 336 585 260T510 122T399 24T267 -12ZM299 32Q353 32 396 63T472 147T521 265T538 398Q538
498 495 554T374 610Q320 610 276 578T201 493T153 375T136 243Q136 143 178 88T299 32ZM316 734Q309 734 307 740T305 754Q359 788 393 808T448 839T478 855T493 859Q508 859 515 845T523 819Q523 813 519 808T495 794T434 771T316 734Z" />
<glyph unicode="&#xd4;" horiz-adv-x="642" d="M267 -12Q203 -12 157 19T87 104T63 229Q63 309 91 385T167 522T277 619T408 655Q472 655 517 625T587 540T612 414Q612 336 585 260T510 122T399 24T267 -12ZM299 32Q353 32 396 63T472 147T521 265T538 398Q538
498 495 554T374 610Q320 610 276 578T201 493T153 375T136 243Q136 143 178 88T299 32ZM427 879Q433 879 440 876T458 858T489 813T544 729Q544 723 539 718T526 713L407 823H428L274 713Q270 713 266 718T261 729Q313 782 342 812T388 857T412 875T427 879Z"
/>
<glyph unicode="&#xd5;" horiz-adv-x="642" d="M267 -12Q203 -12 157 19T87 104T63 229Q63 309 91 385T167 522T277 619T408 655Q472 655 517 625T587 540T612 414Q612 336 585 260T510 122T399 24T267 -12ZM299 32Q353 32 396 63T472 147T521 265T538 398Q538
498 495 554T374 610Q320 610 276 578T201 493T153 375T136 243Q136 143 178 88T299 32ZM275 737Q264 737 258 740T251 750Q251 774 267 796T307 834T356 849Q379 849 400 838T443 815T488 803Q510 803 528 818T550 856Q561 856 567 853T574 843Q574 819 558 797T519
759T469 743Q446 743 425 755T382 778T337 790Q315 790 297 775T275 737Z" />
<glyph unicode="&#xd6;" horiz-adv-x="642" d="M267 -12Q203 -12 157 19T87 104T63 229Q63 309 91 385T167 522T277 619T408 655Q472 655 517 625T587 540T612 414Q612 336 585 260T510 122T399 24T267 -12ZM299 32Q353 32 396 63T472 147T521 265T538 398Q538
498 495 554T374 610Q320 610 276 578T201 493T153 375T136 243Q136 143 178 88T299 32ZM492 751Q473 751 463 761T453 787Q453 803 462 815T483 834T506 841Q526 841 536 832T546 805Q546 789 538 777T517 758T492 751ZM317 751Q299 751 289 761T279 788Q279 803
287 815T308 834T332 841Q352 841 362 832T372 805Q372 790 364 778T342 758T317 751Z" />
<glyph unicode="&#xd7;" horiz-adv-x="532" d="M372 133L266 268H280L138 138Q129 138 121 144T111 161L258 297L256 282L155 413Q157 423 165 432T182 446L287 310H273L415 441Q425 441 432 435T443 418L295 282L297 297L398 166Q396 156 389 147T372 133Z" />
<glyph unicode="&#xd8;" horiz-adv-x="642" d="M267 -12Q203 -12 157 19T87 104T63 229Q63 309 91 385T167 522T277 619T408 655Q472 655 517 625T587 540T612 414Q612 336 585 260T510 122T399 24T267 -12ZM299 32Q353 32 396 63T472 147T521 265T538 398Q538
498 495 554T374 610Q320 610 276 578T201 493T153 375T136 243Q136 143 178 88T299 32ZM161 -124Q147 -124 133 -121T113 -109L512 766Q526 766 539 763T560 751L161 -124Z" />
<glyph unicode="&#xd9;" horiz-adv-x="653" d="M292 -12Q182 -12 133 46T100 211L163 606L175 592L101 609Q103 622 107 629T123 641H297Q295 627 290 620T277 610L210 593L227 608L164 215Q156 170 160 135T183 75T233 38T314 25Q359 25 394 39T454 80T495 140T517
217L579 611L583 594L515 609Q517 623 521 629T536 641H680Q677 628 673 620T660 610L605 596L616 616L553 214Q545 162 525 120T472 49T394 4T292 -12ZM505 734Q429 757 387 771T326 793T303 807T298 819Q298 831 305 845T328 859Q333 859 343 855T373 840T427
808T516 754Q516 747 514 741T505 734Z" />
<glyph unicode="&#xda;" horiz-adv-x="653" d="M292 -12Q182 -12 133 46T100 211L163 606L175 592L101 609Q103 622 107 629T123 641H297Q295 627 290 620T277 610L210 593L227 608L164 215Q156 170 160 135T183 75T233 38T314 25Q359 25 394 39T454 80T495 140T517
217L579 611L583 594L515 609Q517 623 521 629T536 641H680Q677 628 673 620T660 610L605 596L616 616L553 214Q545 162 525 120T472 49T394 4T292 -12ZM334 734Q327 734 325 740T323 754Q377 788 411 808T466 839T496 855T511 859Q526 859 533 845T541 819Q541
813 537 808T513 794T452 771T334 734Z" />
<glyph unicode="&#xdb;" horiz-adv-x="653" d="M292 -12Q182 -12 133 46T100 211L163 606L175 592L101 609Q103 622 107 629T123 641H297Q295 627 290 620T277 610L210 593L227 608L164 215Q156 170 160 135T183 75T233 38T314 25Q359 25 394 39T454 80T495 140T517
217L579 611L583 594L515 609Q517 623 521 629T536 641H680Q677 628 673 620T660 610L605 596L616 616L553 214Q545 162 525 120T472 49T394 4T292 -12ZM445 879Q451 879 458 876T476 858T507 813T562 729Q562 723 557 718T544 713L425 823H446L292 713Q288 713
284 718T279 729Q331 782 360 812T406 857T430 875T445 879Z" />
<glyph unicode="&#xdc;" horiz-adv-x="653" d="M292 -12Q182 -12 133 46T100 211L163 606L175 592L101 609Q103 622 107 629T123 641H297Q295 627 290 620T277 610L210 593L227 608L164 215Q156 170 160 135T183 75T233 38T314 25Q359 25 394 39T454 80T495 140T517
217L579 611L583 594L515 609Q517 623 521 629T536 641H680Q677 628 673 620T660 610L605 596L616 616L553 214Q545 162 525 120T472 49T394 4T292 -12ZM511 751Q492 751 482 761T472 787Q472 803 481 815T502 834T525 841Q545 841 555 832T565 805Q565 789 557
777T536 758T511 751ZM336 751Q318 751 308 761T298 788Q298 803 306 815T327 834T351 841Q371 841 381 832T391 805Q391 790 383 778T361 758T336 751Z" />
<glyph unicode="&#xdd;" horiz-adv-x="551" d="M284 193L116 608L138 592L65 609Q67 622 71 629T86 641H265Q263 627 258 620T245 610L172 593L181 613L317 280L296 276L509 609L514 594L443 609Q445 622 449 629T464 641H614Q613 627 608 620T595 610L534 596L553
614L284 193ZM150 0Q152 14 157 22T169 31L240 48L224 26L263 275H325L287 31L275 49L359 32Q357 19 353 13T338 0H150ZM286 734Q279 734 277 740T275 754Q329 788 363 808T418 839T448 855T463 859Q478 859 485 845T493 819Q493 813 489 808T465 794T404 771T286
734Z" />
<glyph unicode="&#xde;" horiz-adv-x="540" d="M218 518H348Q424 518 467 480T510 375Q510 308 476 255T385 170T256 138Q231 138 204 142T159 151L166 188Q176 184 202 180T256 176Q310 176 351 199T415 265T439 362Q439 421 407 450T311 480Q290 480 262 477T210
468L218 518ZM30 0Q32 14 36 22T49 31L113 48L98 34L188 606L201 592L126 609Q128 622 132 629T148 641H322Q320 627 316 620T303 610L235 593L252 608L160 34L149 49L225 32Q223 19 219 13T204 0H30Z" />
<glyph unicode="&#xdf;" horiz-adv-x="646" d="M394 -12Q352 -12 321 2T275 40T265 95Q269 117 280 126T305 136Q324 136 332 122Q324 69 343 42T409 14Q451 14 480 37T515 103Q521 137 508 157T472 189T421 213Q394 225 369 241T330 281T321 343Q327 379 346
401T392 438T444 470T491 511T517 574Q527 633 501 666T421 699Q371 699 335 675T274 599T236 462L163 0H44Q49 26 64 31L119 48L107 36L167 418L177 406L94 407Q96 419 100 428T111 443L185 445L170 433Q185 531 224 598T318 699T436 734Q488 734 522 715T572
662T581 587Q574 542 554 516T506 474T451 446T405 415T380 365Q376 338 387 321T418 292T463 269Q486 259 508 248T548 220T574 182T577 127Q571 85 546 54T481 6T394 -12Z" />
<glyph unicode="&#xe0;" horiz-adv-x="502" d="M165 -12Q106 -12 74 31T42 157Q42 222 61 277T114 374T195 439T295 462Q332 462 361 452T416 420L414 397Q401 407 375 420T301 433Q260 433 225 414T165 358T125 272T110 164Q110 126 118 95T145 46T194 28Q226
28 252 50T299 119T338 243T374 428L410 462Q424 462 433 459T442 446Q442 442 435 413T418 341T398 248T380 151T373 68Q373 53 378 47T396 40Q408 40 419 44T443 57L453 38Q428 13 404 1T358 -12Q336 -12 325 3T313 49Q312 63 313 79T318 113H314Q292 53 253
21T165 -12ZM398 515Q333 556 297 579T244 615T223 633T219 644Q219 653 224 661T237 676T253 682Q259 682 266 679T288 661T332 617T414 533Q414 524 409 520T398 515Z" />
<glyph unicode="&#xe1;" horiz-adv-x="502" d="M165 -12Q106 -12 74 31T42 157Q42 222 61 277T114 374T195 439T295 462Q332 462 361 452T416 420L414 397Q401 407 375 420T301 433Q260 433 225 414T165 358T125 272T110 164Q110 126 118 95T145 46T194 28Q226
28 252 50T299 119T338 243T374 428L410 462Q424 462 433 459T442 446Q442 442 435 413T418 341T398 248T380 151T373 68Q373 53 378 47T396 40Q408 40 419 44T443 57L453 38Q428 13 404 1T358 -12Q336 -12 325 3T313 49Q312 63 313 79T318 113H314Q292 53 253
21T165 -12ZM222 515Q218 515 214 519T209 533Q269 587 303 617T355 661T379 678T394 682Q401 682 407 677T417 665T421 649Q421 642 417 636T395 617T336 582T222 515Z" />
<glyph unicode="&#xe2;" horiz-adv-x="502" d="M165 -12Q106 -12 74 31T42 157Q42 222 61 277T114 374T195 439T295 462Q332 462 361 452T416 420L414 397Q401 407 375 420T301 433Q260 433 225 414T165 358T125 272T110 164Q110 126 118 95T145 46T194 28Q226
28 252 50T299 119T338 243T374 428L410 462Q424 462 433 459T442 446Q442 442 435 413T418 341T398 248T380 151T373 68Q373 53 378 47T396 40Q408 40 419 44T443 57L453 38Q428 13 404 1T358 -12Q336 -12 325 3T313 49Q312 63 313 79T318 113H314Q292 53 253
21T165 -12ZM330 685Q337 685 343 681T361 662T392 615T447 527Q447 521 441 516T429 511Q400 539 377 561T340 599T320 619Q310 611 300 603T276 584T238 556T176 511Q172 511 168 516T164 527Q216 583 246 615T292 662T316 681T330 685Z" />
<glyph unicode="&#xe3;" horiz-adv-x="502" d="M165 -12Q106 -12 74 31T42 157Q42 222 61 277T114 374T195 439T295 462Q332 462 361 452T416 420L414 397Q401 407 375 420T301 433Q260 433 225 414T165 358T125 272T110 164Q110 126 118 95T145 46T194 28Q226
28 252 50T299 119T338 243T374 428L410 462Q424 462 433 459T442 446Q442 442 435 413T418 341T398 248T380 151T373 68Q373 53 378 47T396 40Q408 40 419 44T443 57L453 38Q428 13 404 1T358 -12Q336 -12 325 3T313 49Q312 63 313 79T318 113H314Q292 53 253
21T165 -12ZM180 539Q169 539 163 542T156 552Q156 576 172 598T212 636T261 651Q284 651 305 640T348 617T393 605Q415 605 433 620T455 658Q466 658 472 655T479 645Q479 621 463 599T424 561T374 545Q351 545 330 557T287 580T242 592Q220 592 202 577T180 539Z"
/>
<glyph unicode="&#xe4;" horiz-adv-x="502" d="M165 -12Q106 -12 74 31T42 157Q42 222 61 277T114 374T195 439T295 462Q332 462 361 452T416 420L414 397Q401 407 375 420T301 433Q260 433 225 414T165 358T125 272T110 164Q110 126 118 95T145 46T194 28Q226
28 252 50T299 119T338 243T374 428L410 462Q424 462 433 459T442 446Q442 442 435 413T418 341T398 248T380 151T373 68Q373 53 378 47T396 40Q408 40 419 44T443 57L453 38Q428 13 404 1T358 -12Q336 -12 325 3T313 49Q312 63 313 79T318 113H314Q292 53 253
21T165 -12ZM396 553Q377 553 367 563T357 589Q357 605 366 617T387 636T410 643Q430 643 440 634T450 607Q450 591 442 579T421 560T396 553ZM221 553Q203 553 193 563T183 590Q183 605 191 617T212 636T236 643Q256 643 266 634T276 607Q276 592 268 580T246
560T221 553Z" />
<glyph unicode="&#xe5;" horiz-adv-x="502" d="M165 -12Q106 -12 74 31T42 157Q42 222 61 277T114 374T195 439T295 462Q332 462 361 452T416 420L414 397Q401 407 375 420T301 433Q260 433 225 414T165 358T125 272T110 164Q110 126 118 95T145 46T194 28Q226
28 252 50T299 119T338 243T374 428L410 462Q424 462 433 459T442 446Q442 442 435 413T418 341T398 248T380 151T373 68Q373 53 378 47T396 40Q408 40 419 44T443 57L453 38Q428 13 404 1T358 -12Q336 -12 325 3T313 49Q312 63 313 79T318 113H314Q292 53 253
21T165 -12ZM293 496Q254 496 231 518T207 573Q207 607 225 636T272 683T336 701Q377 701 400 679T424 620Q424 585 407 557T360 513T293 496ZM305 521Q332 521 350 549T369 617Q369 643 358 659T326 675Q299 675 281 646T263 575Q263 551 274 536T305 521Z" />
<glyph unicode="&#xe6;" horiz-adv-x="713" d="M171 -12Q108 -12 75 31T42 157Q42 222 61 277T114 374T195 439T295 462Q332 462 361 452T416 420L414 397Q401 407 375 420T301 433Q260 433 225 414T165 358T125 272T110 164Q110 126 118 95T145 46T194 28Q226
28 252 50T299 119T338 243T374 428L410 462Q424 462 433 459T442 446L362 215Q338 143 311 92T250 15T171 -12ZM468 -12Q394 -12 360 32T325 155Q325 211 344 266T397 365T479 435T581 462Q638 462 669 436T700 367Q700 318 662 278T550 215T370 192L372 215Q421
215 467 223T550 250T610 298T632 370Q632 401 614 418T564 435Q522 435 490 411T435 348T402 261T390 167Q390 104 418 67T496 29Q534 29 568 50T638 114L654 96Q614 42 569 15T468 -12Z" />
<glyph unicode="&#xe7;" horiz-adv-x="428" d="M184 -12Q115 -12 78 30T40 153Q40 215 60 271T115 370T196 437T293 462Q347 462 377 437T408 367Q408 342 396 327T364 311Q354 311 340 315Q348 340 348 362Q348 435 283 435Q235 435 195 400T131 304T106 173Q106
104 134 67T213 29Q251 29 285 49T357 114L373 96Q295 -12 184 -12ZM128 -258Q82 -258 55 -238T27 -187Q27 -168 36 -159T58 -149Q66 -149 74 -151T88 -160Q82 -196 95 -215T137 -234Q169 -234 191 -210T214 -152Q214 -123 194 -109T142 -95Q137 -95 131 -95T119
-98L159 0H185L154 -78L140 -74Q151 -72 160 -71T177 -70Q217 -70 243 -89T270 -143Q270 -175 251 -201T201 -242T128 -258Z" />
<glyph unicode="&#xe8;" horiz-adv-x="428" d="M183 -12Q109 -12 75 32T40 155Q40 211 59 266T112 365T194 435T296 462Q353 462 384 436T415 367Q415 318 377 278T265 215T85 192L87 215Q136 215 182 223T265 250T325 298T347 370Q347 401 328 418T278 435Q237
435 205 411T150 348T117 261T105 167Q105 104 132 67T211 29Q249 29 283 50T352 114L369 96Q329 42 284 15T183 -12ZM390 515Q325 556 289 579T236 615T215 633T211 644Q211 653 216 661T229 676T245 682Q251 682 258 679T280 661T324 617T406 533Q406 524 401
520T390 515Z" />
<glyph unicode="&#xe9;" horiz-adv-x="428" d="M183 -12Q109 -12 75 32T40 155Q40 211 59 266T112 365T194 435T296 462Q353 462 384 436T415 367Q415 318 377 278T265 215T85 192L87 215Q136 215 182 223T265 250T325 298T347 370Q347 401 328 418T278 435Q237
435 205 411T150 348T117 261T105 167Q105 104 132 67T211 29Q249 29 283 50T352 114L369 96Q329 42 284 15T183 -12ZM214 515Q210 515 206 519T201 533Q261 587 295 617T347 661T371 678T386 682Q393 682 399 677T409 665T413 649Q413 642 409 636T387 617T328
582T214 515Z" />
<glyph unicode="&#xea;" horiz-adv-x="428" d="M183 -12Q109 -12 75 32T40 155Q40 211 59 266T112 365T194 435T296 462Q353 462 384 436T415 367Q415 318 377 278T265 215T85 192L87 215Q136 215 182 223T265 250T325 298T347 370Q347 401 328 418T278 435Q237
435 205 411T150 348T117 261T105 167Q105 104 132 67T211 29Q249 29 283 50T352 114L369 96Q329 42 284 15T183 -12ZM322 685Q329 685 335 681T353 662T384 615T439 527Q439 521 433 516T421 511Q392 539 369 561T332 599T312 619Q302 611 292 603T268 584T230
556T168 511Q164 511 160 516T156 527Q208 583 238 615T284 662T308 681T322 685Z" />
<glyph unicode="&#xeb;" horiz-adv-x="428" d="M183 -12Q109 -12 75 32T40 155Q40 211 59 266T112 365T194 435T296 462Q353 462 384 436T415 367Q415 318 377 278T265 215T85 192L87 215Q136 215 182 223T265 250T325 298T347 370Q347 401 328 418T278 435Q237
435 205 411T150 348T117 261T105 167Q105 104 132 67T211 29Q249 29 283 50T352 114L369 96Q329 42 284 15T183 -12ZM388 553Q369 553 359 563T349 589Q349 605 358 617T379 636T402 643Q422 643 432 634T442 607Q442 591 434 579T413 560T388 553ZM213 553Q195
553 185 563T175 590Q175 605 183 617T204 636T228 643Q248 643 258 634T268 607Q268 592 260 580T238 560T213 553Z" />
<glyph unicode="&#xec;" horiz-adv-x="257" d="M121 -12Q98 -12 86 4T74 51Q74 70 80 105T96 183T116 271T135 356T147 426L158 402Q152 406 144 407T125 409Q111 409 95 406T63 394L54 414Q77 438 102 450T148 462Q177 462 189 449T202 410Q202 393 195 360T179
285T160 201T143 122T136 66Q136 40 158 40Q170 40 181 44T205 57L216 38Q199 21 182 10T150 -7T121 -12ZM271 515Q206 556 170 579T117 615T96 633T92 644Q92 653 97 661T110 676T126 682Q132 682 139 679T161 661T205 617T287 533Q287 524 282 520T271 515Z"
/>
<glyph unicode="&#xed;" horiz-adv-x="257" d="M121 -12Q98 -12 86 4T74 51Q74 70 80 105T96 183T116 271T135 356T147 426L158 402Q152 406 144 407T125 409Q111 409 95 406T63 394L54 414Q77 438 102 450T148 462Q177 462 189 449T202 410Q202 393 195 360T179
285T160 201T143 122T136 66Q136 40 158 40Q170 40 181 44T205 57L216 38Q199 21 182 10T150 -7T121 -12ZM95 515Q91 515 87 519T82 533Q142 587 176 617T228 661T252 678T267 682Q274 682 280 677T290 665T294 649Q294 642 290 636T268 617T209 582T95 515Z" />
<glyph unicode="&#xee;" horiz-adv-x="257" d="M121 -12Q98 -12 86 4T74 51Q74 70 80 105T96 183T116 271T135 356T147 426L158 402Q152 406 144 407T125 409Q111 409 95 406T63 394L54 414Q77 438 102 450T148 462Q177 462 189 449T202 410Q202 393 195 360T179
285T160 201T143 122T136 66Q136 40 158 40Q170 40 181 44T205 57L216 38Q199 21 182 10T150 -7T121 -12ZM459 685Q466 685 472 681T490 662T521 615T576 527Q576 521 570 516T558 511Q529 539 506 561T469 599T449 619Q439 611 429 603T405 584T367 556T305 511Q301
511 297 516T293 527Q345 583 375 615T421 662T445 681T459 685Z" />
<glyph unicode="&#xef;" horiz-adv-x="257" d="M121 -12Q98 -12 86 4T74 51Q74 70 80 105T96 183T116 271T135 356T147 426L158 402Q152 406 144 407T125 409Q111 409 95 406T63 394L54 414Q77 438 102 450T148 462Q177 462 189 449T202 410Q202 393 195 360T179
285T160 201T143 122T136 66Q136 40 158 40Q170 40 181 44T205 57L216 38Q199 21 182 10T150 -7T121 -12ZM525 553Q506 553 496 563T486 589Q486 605 495 617T516 636T539 643Q559 643 569 634T579 607Q579 591 571 579T550 560T525 553ZM350 553Q332 553 322 563T312
590Q312 605 320 617T341 636T365 643Q385 643 395 634T405 607Q405 592 397 580T375 560T350 553Z" />
<glyph unicode="&#xf0;" horiz-adv-x="539" d="M214 -12Q132 -12 85 30T38 144Q38 200 59 249T119 337T207 396T314 417Q356 417 393 400T451 351L437 348Q440 419 409 487T319 610T178 694Q180 704 185 709T205 714Q229 714 265 697T338 652T403 592Q455 536
480 472T506 335Q506 263 484 200T421 89T329 15T214 -12ZM224 17Q263 17 297 37T359 94T404 180T430 289Q432 300 433 310T435 332L453 296Q431 339 390 363T298 387Q244 387 202 356T136 270T111 145Q111 84 140 51T224 17ZM265 553L492 625Q500 619 502 611T505
593L278 522Q271 528 268 536T265 553Z" />
<glyph unicode="&#xf1;" horiz-adv-x="530" d="M101 -12Q89 -12 85 -7T81 8Q81 22 87 57T103 140T122 240T138 343T145 432L158 402Q154 405 145 407T125 409Q111 409 95 406T63 394L54 414Q77 438 102 450T148 462Q176 462 188 449T200 410Q200 400 200 390T197
367H202Q239 410 279 436T355 462Q389 462 411 447T445 407T457 348Q457 308 448 269T428 194T407 125T398 65Q398 40 421 40Q433 40 444 44T468 57L479 38Q462 21 445 10T412 -7T383 -12Q361 -12 348 4T335 50Q335 94 350 141T381 241T396 347Q396 377 382 396T336
415Q302 415 268 396T194 338L143 27L142 81L160 1Q146 -6 130 -9T101 -12ZM193 539Q182 539 176 542T169 552Q169 576 185 598T225 636T274 651Q297 651 318 640T361 617T406 605Q428 605 446 620T468 658Q479 658 485 655T492 645Q492 621 476 599T437 561T387
545Q364 545 343 557T300 580T255 592Q233 592 215 577T193 539Z" />
<glyph unicode="&#xf2;" horiz-adv-x="469" d="M176 -12Q112 -12 77 32T41 156Q41 217 60 272T114 370T193 437T287 462Q353 462 391 416T430 289Q430 230 410 176T353 80T272 13T176 -12ZM201 20Q245 20 281 55T339 149T362 278Q362 349 336 390T266 431Q235
431 207 410T156 353T122 269T109 168Q109 97 133 59T201 20ZM379 515Q314 556 278 579T225 615T204 633T200 644Q200 653 205 661T218 676T234 682Q240 682 247 679T269 661T313 617T395 533Q395 524 390 520T379 515Z" />
<glyph unicode="&#xf3;" horiz-adv-x="469" d="M176 -12Q112 -12 77 32T41 156Q41 217 60 272T114 370T193 437T287 462Q353 462 391 416T430 289Q430 230 410 176T353 80T272 13T176 -12ZM201 20Q245 20 281 55T339 149T362 278Q362 349 336 390T266 431Q235
431 207 410T156 353T122 269T109 168Q109 97 133 59T201 20ZM203 515Q199 515 195 519T190 533Q250 587 284 617T336 661T360 678T375 682Q382 682 388 677T398 665T402 649Q402 642 398 636T376 617T317 582T203 515Z" />
<glyph unicode="&#xf4;" horiz-adv-x="469" d="M176 -12Q112 -12 77 32T41 156Q41 217 60 272T114 370T193 437T287 462Q353 462 391 416T430 289Q430 230 410 176T353 80T272 13T176 -12ZM201 20Q245 20 281 55T339 149T362 278Q362 349 336 390T266 431Q235
431 207 410T156 353T122 269T109 168Q109 97 133 59T201 20ZM311 685Q318 685 324 681T342 662T373 615T428 527Q428 521 422 516T410 511Q381 539 358 561T321 599T301 619Q291 611 281 603T257 584T219 556T157 511Q153 511 149 516T145 527Q197 583 227 615T273
662T297 681T311 685Z" />
<glyph unicode="&#xf5;" horiz-adv-x="469" d="M176 -12Q112 -12 77 32T41 156Q41 217 60 272T114 370T193 437T287 462Q353 462 391 416T430 289Q430 230 410 176T353 80T272 13T176 -12ZM201 20Q245 20 281 55T339 149T362 278Q362 349 336 390T266 431Q235
431 207 410T156 353T122 269T109 168Q109 97 133 59T201 20ZM161 539Q150 539 144 542T137 552Q137 576 153 598T193 636T242 651Q265 651 286 640T329 617T374 605Q396 605 414 620T436 658Q447 658 453 655T460 645Q460 621 444 599T405 561T355 545Q332 545
311 557T268 580T223 592Q201 592 183 577T161 539Z" />
<glyph unicode="&#xf6;" horiz-adv-x="469" d="M176 -12Q112 -12 77 32T41 156Q41 217 60 272T114 370T193 437T287 462Q353 462 391 416T430 289Q430 230 410 176T353 80T272 13T176 -12ZM201 20Q245 20 281 55T339 149T362 278Q362 349 336 390T266 431Q235
431 207 410T156 353T122 269T109 168Q109 97 133 59T201 20ZM377 553Q358 553 348 563T338 589Q338 605 347 617T368 636T391 643Q411 643 421 634T431 607Q431 591 423 579T402 560T377 553ZM202 553Q184 553 174 563T164 590Q164 605 172 617T193 636T217 643Q237
643 247 634T257 607Q257 592 249 580T227 560T202 553Z" />
<glyph unicode="&#xf7;" horiz-adv-x="532" d="M294 399Q276 399 268 410T262 440Q265 457 278 468T307 480Q326 480 334 469T339 440Q337 422 323 411T294 399ZM246 100Q228 100 220 111T215 140Q216 158 230 169T259 181Q277 181 285 170T291 141Q289 123 276
112T246 100ZM90 269Q83 278 85 294Q87 298 87 302T90 310H460Q462 305 463 299T464 284Q463 281 462 277T459 269H90Z" />
<glyph unicode="&#xf8;" horiz-adv-x="469" d="M176 -12Q112 -12 77 32T41 156Q41 217 60 272T114 370T193 437T287 462Q353 462 391 416T430 289Q430 230 410 176T353 80T272 13T176 -12ZM201 20Q245 20 281 55T339 149T362 278Q362 349 336 390T266 431Q235
431 207 410T156 353T122 269T109 168Q109 97 133 59T201 20ZM111 -90Q101 -90 92 -88T78 -79L357 533Q367 533 376 531T390 523L111 -90Z" />
<glyph unicode="&#xf9;" horiz-adv-x="519" d="M181 -12Q144 -12 121 1T86 39T75 97Q75 132 85 178T108 271T132 359T142 426L153 402Q147 406 139 407T121 409Q105 409 90 406T59 394L49 414Q73 438 98 450T143 462Q173 462 186 449T199 409Q199 384 190 345T168
260T145 173T135 99Q135 66 150 51T198 35Q235 35 271 57T349 125L356 89H337Q301 42 260 15T181 -12ZM383 -12Q361 -12 349 4T337 51Q337 70 343 105T359 183T379 271T397 356T409 426L421 402Q415 406 407 407T387 409Q373 409 358 406T327 395L317 415Q340 438
365 450T411 462Q440 462 452 449T465 410Q465 393 458 360T442 285T422 201T406 122T399 66Q399 40 421 40Q432 40 443 44T468 57L478 38Q461 21 444 10T412 -7T383 -12ZM406 515Q341 556 305 579T252 615T231 633T227 644Q227 653 232 661T245 676T261 682Q267
682 274 679T296 661T340 617T422 533Q422 524 417 520T406 515Z" />
<glyph unicode="&#xfa;" horiz-adv-x="519" d="M181 -12Q144 -12 121 1T86 39T75 97Q75 132 85 178T108 271T132 359T142 426L153 402Q147 406 139 407T121 409Q105 409 90 406T59 394L49 414Q73 438 98 450T143 462Q173 462 186 449T199 409Q199 384 190 345T168
260T145 173T135 99Q135 66 150 51T198 35Q235 35 271 57T349 125L356 89H337Q301 42 260 15T181 -12ZM383 -12Q361 -12 349 4T337 51Q337 70 343 105T359 183T379 271T397 356T409 426L421 402Q415 406 407 407T387 409Q373 409 358 406T327 395L317 415Q340 438
365 450T411 462Q440 462 452 449T465 410Q465 393 458 360T442 285T422 201T406 122T399 66Q399 40 421 40Q432 40 443 44T468 57L478 38Q461 21 444 10T412 -7T383 -12ZM230 515Q226 515 222 519T217 533Q277 587 311 617T363 661T387 678T402 682Q409 682 415
677T425 665T429 649Q429 642 425 636T403 617T344 582T230 515Z" />
<glyph unicode="&#xfb;" horiz-adv-x="519" d="M181 -12Q144 -12 121 1T86 39T75 97Q75 132 85 178T108 271T132 359T142 426L153 402Q147 406 139 407T121 409Q105 409 90 406T59 394L49 414Q73 438 98 450T143 462Q173 462 186 449T199 409Q199 384 190 345T168
260T145 173T135 99Q135 66 150 51T198 35Q235 35 271 57T349 125L356 89H337Q301 42 260 15T181 -12ZM383 -12Q361 -12 349 4T337 51Q337 70 343 105T359 183T379 271T397 356T409 426L421 402Q415 406 407 407T387 409Q373 409 358 406T327 395L317 415Q340 438
365 450T411 462Q440 462 452 449T465 410Q465 393 458 360T442 285T422 201T406 122T399 66Q399 40 421 40Q432 40 443 44T468 57L478 38Q461 21 444 10T412 -7T383 -12ZM338 685Q345 685 351 681T369 662T400 615T455 527Q455 521 449 516T437 511Q408 539 385
561T348 599T328 619Q318 611 308 603T284 584T246 556T184 511Q180 511 176 516T172 527Q224 583 254 615T300 662T324 681T338 685Z" />
<glyph unicode="&#xfc;" horiz-adv-x="519" d="M181 -12Q144 -12 121 1T86 39T75 97Q75 132 85 178T108 271T132 359T142 426L153 402Q147 406 139 407T121 409Q105 409 90 406T59 394L49 414Q73 438 98 450T143 462Q173 462 186 449T199 409Q199 384 190 345T168
260T145 173T135 99Q135 66 150 51T198 35Q235 35 271 57T349 125L356 89H337Q301 42 260 15T181 -12ZM383 -12Q361 -12 349 4T337 51Q337 70 343 105T359 183T379 271T397 356T409 426L421 402Q415 406 407 407T387 409Q373 409 358 406T327 395L317 415Q340 438
365 450T411 462Q440 462 452 449T465 410Q465 393 458 360T442 285T422 201T406 122T399 66Q399 40 421 40Q432 40 443 44T468 57L478 38Q461 21 444 10T412 -7T383 -12ZM404 553Q385 553 375 563T365 589Q365 605 374 617T395 636T418 643Q438 643 448 634T458
607Q458 591 450 579T429 560T404 553ZM229 553Q211 553 201 563T191 590Q191 605 199 617T220 636T244 643Q264 643 274 634T284 607Q284 592 276 580T254 560T229 553Z" />
<glyph unicode="&#xfd;" horiz-adv-x="400" d="M-27 -262Q-38 -262 -45 -256T-56 -235T-60 -198Q-12 -198 24 -186T89 -148T141 -78T187 27L179 -14Q160 102 134 215T74 429L92 402Q86 406 78 407T58 409Q28 409 0 396L-9 417Q13 438 38 450T82 462Q112 462 124
451T145 408Q160 356 174 295T201 170T224 44L186 1Q218 64 247 129T302 261T345 394L344 349L332 450Q343 457 354 459T378 462Q394 462 402 458T410 438Q410 431 404 411T385 362T357 296T323 219Q269 103 223 13T135 -138T54 -230T-27 -262ZM155 515Q151 515
147 519T142 533Q202 587 236 617T288 661T312 678T327 682Q334 682 340 677T350 665T354 649Q354 642 350 636T328 617T269 582T155 515Z" />
<glyph unicode="&#xfe;" horiz-adv-x="497" d="M45 -258Q30 -258 25 -251T20 -229Q20 -215 28 -169T49 -55T79 94T111 262T141 430T163 583T173 702L186 674Q182 677 171 679T152 681Q137 681 122 678T91 666L82 686Q105 710 130 722T178 734Q205 734 217 721T230
681Q230 661 226 626T214 549T200 465T187 390T176 338H181Q202 398 241 430T330 462Q391 462 424 419T457 294Q457 230 438 174T384 77T303 12T202 -12Q176 -12 151 -6T103 12L97 41Q124 29 145 23T193 17Q235 17 270 37T332 93T373 179T388 286Q388 324 380 355T353
404T304 423Q254 423 222 379T168 251T126 51T83 -211L81 -165L100 -245Q89 -251 74 -254T45 -258Z" />
<glyph unicode="&#xff;" horiz-adv-x="400" d="M-27 -262Q-38 -262 -45 -256T-56 -235T-60 -198Q-12 -198 24 -186T89 -148T141 -78T187 27L179 -14Q160 102 134 215T74 429L92 402Q86 406 78 407T58 409Q28 409 0 396L-9 417Q13 438 38 450T82 462Q112 462 124
451T145 408Q160 356 174 295T201 170T224 44L186 1Q218 64 247 129T302 261T345 394L344 349L332 450Q343 457 354 459T378 462Q394 462 402 458T410 438Q410 431 404 411T385 362T357 296T323 219Q269 103 223 13T135 -138T54 -230T-27 -262ZM330 553Q311 553
301 563T291 589Q291 605 300 617T321 636T344 643Q364 643 374 634T384 607Q384 591 376 579T355 560T330 553ZM155 553Q137 553 127 563T117 590Q117 605 125 617T146 636T170 643Q190 643 200 634T210 607Q210 592 202 580T180 560T155 553Z" />
<glyph unicode="&#x2013;" horiz-adv-x="654" d="M68 247Q68 254 69 262T73 277T79 287H597Q597 281 596 273T592 258T586 247H68Z" />
<glyph unicode="&#x2014;" horiz-adv-x="849" d="M88 247Q88 254 90 262T95 277T102 287H775Q775 281 774 273T769 258T761 247H88Z" />
<glyph unicode="&#x2018;" horiz-adv-x="188" d="M214 695Q217 692 219 687T221 673Q187 662 172 644T157 606Q157 596 162 589T174 576T186 563T191 545Q191 532 184 521T167 504T143 497Q121 497 111 514T100 556Q100 589 116 619T159 671T214 695Z" />
<glyph unicode="&#x2019;" horiz-adv-x="188" d="M91 497Q89 500 87 504T84 518Q119 529 134 548T149 585Q149 596 144 603T132 616T120 629T115 647Q115 660 121 671T139 688T162 695Q186 695 196 678T207 635Q207 603 190 572T147 521T91 497Z" />
<glyph unicode="&#x201a;" horiz-adv-x="203" d="M4 -125Q1 -123 -3 -119T-6 -103Q27 -93 45 -77T63 -38Q63 -27 57 -20T44 -6T31 7T25 26Q25 39 32 49T51 66T75 73Q99 73 111 56T124 14Q124 -19 107 -50T62 -101T4 -125Z" />
<glyph unicode="&#x201c;" horiz-adv-x="328" d="M214 695Q217 692 219 687T221 673Q187 662 172 644T157 606Q157 596 162 589T174 576T186 563T191 545Q191 532 184 521T167 504T143 497Q121 497 111 514T100 556Q100 589 116 619T159 671T214 695ZM354 695Q357
692 359 687T361 673Q327 662 312 644T297 606Q297 596 302 589T314 576T326 563T331 545Q331 532 324 521T307 504T283 497Q261 497 251 514T240 556Q240 589 256 619T299 671T354 695Z" />
<glyph unicode="&#x201d;" horiz-adv-x="328" d="M91 497Q89 500 87 504T84 518Q119 529 134 548T149 585Q149 596 144 603T132 616T120 629T115 647Q115 660 121 671T139 688T162 695Q186 695 196 678T207 635Q207 603 190 572T147 521T91 497ZM231 497Q229 500
227 504T224 518Q259 529 274 548T289 585Q289 596 284 603T272 616T260 629T255 647Q255 660 261 671T279 688T302 695Q326 695 336 678T347 635Q347 603 330 572T287 521T231 497Z" />
<glyph unicode="&#x201e;" horiz-adv-x="355" d="M4 -125Q1 -123 -3 -119T-6 -103Q27 -93 45 -77T63 -38Q63 -27 57 -20T44 -6T31 7T25 26Q25 39 32 49T51 66T75 73Q99 73 111 56T124 14Q124 -19 107 -50T62 -101T4 -125ZM156 -125Q153 -123 149 -119T146 -103Q179
-93 197 -77T215 -38Q215 -27 209 -20T196 -6T183 7T177 26Q177 39 184 49T203 66T227 73Q251 73 263 56T276 14Q276 -19 259 -50T214 -101T156 -125Z" />
<glyph unicode="&#x2022;" horiz-adv-x="295" d="M142 189Q108 189 92 205T75 250Q75 276 88 297T122 332T166 345Q201 345 217 328T234 284Q234 258 221 237T187 202T142 189Z" />
<glyph unicode="&#x2039;" horiz-adv-x="258" d="M165 84L60 228Q50 242 46 249T42 265Q42 273 49 282T73 307L223 451Q230 449 234 443T238 428L82 252L87 282L187 107Q185 99 179 93T165 84Z" />
<glyph unicode="&#x203a;" horiz-adv-x="273" d="M108 451L213 307Q223 293 227 286T231 270Q231 262 224 253T200 228L50 84Q43 86 39 92T35 107L191 283L186 253L86 428Q88 436 94 442T108 451Z" />
</font>
</defs>
</svg>
